<svg width="2176" height="548" viewBox="0 0 2176 548" fill="none" xmlns="http://www.w3.org/2000/svg">
<g filter="url(#filter0_d_13_79)">
<path d="M727.77 449.983C727.386 450.517 726.805 450.912 726.109 451.053C720.295 452.175 693.135 456.325 686.821 456.904C610.658 463.862 517.956 428.78 478.369 413.804C469.123 410.305 461.823 407.543 459.469 407.14C450.976 405.692 442.948 402.073 435.183 398.56C428.299 395.452 421.802 392.521 415.027 390.978C412.767 390.467 410.518 389.965 408.28 389.47C395.35 386.611 381.975 383.646 369.079 378.122C351.873 370.748 335.291 359.896 319.258 349.395L316.292 347.454C302.162 338.216 289.728 326.877 277.712 315.901C272.961 311.57 268.051 307.085 263.103 302.788C256.423 296.996 249.674 291.216 242.913 285.427C217.289 263.479 190.795 240.789 166.967 216.387C161.076 210.346 155.836 203.492 150.768 196.871C144.713 188.951 138.437 180.754 131.128 174.086C120.675 164.565 109.872 154.729 99.3385 143.932C98.3137 142.882 98.3251 141.195 99.3868 140.178C100.437 139.154 102.116 139.177 103.14 140.227C113.573 150.909 124.316 160.695 134.71 170.165C142.378 177.146 148.788 185.533 154.999 193.65C159.975 200.154 165.111 206.874 170.779 212.68C194.436 236.918 220.844 259.522 246.374 281.395C253.146 287.192 259.907 292.98 266.588 298.782C271.585 303.121 276.528 307.622 281.294 311.98C293.163 322.809 305.431 334.014 319.204 343.01L322.18 344.949C338.029 355.32 354.406 366.045 371.185 373.24C383.621 378.57 396.16 381.345 409.44 384.285C411.699 384.786 413.958 385.287 416.218 385.798C423.51 387.454 430.568 390.633 437.375 393.713C444.833 397.087 452.552 400.567 460.375 401.898C463.241 402.384 469.651 404.813 480.265 408.826C519.516 423.677 611.413 458.452 686.357 451.605C692.382 451.056 719.523 446.91 725.12 445.826C726.563 445.544 727.955 446.49 728.225 447.925C728.365 448.672 728.186 449.394 727.779 449.972L727.77 449.983Z" fill="#62622A"/>
<path d="M105.989 146.339C105.696 146.756 105.277 147.092 104.762 147.283C103.772 147.658 102.701 147.398 101.993 146.709C100.332 145.972 98.1547 143.894 94.123 139.733C93.2587 138.847 92.5268 138.081 92.0553 137.646C85.4967 131.558 78.475 125.785 72.4011 120.852C57.6544 108.879 47.6034 98.4045 40.7647 87.9C35.4911 79.8031 30.9507 70.7262 26.5618 61.9377C24.9415 58.687 23.3264 55.4659 21.6954 52.3288L21.5404 52.0208C18.0151 45.2238 14.6765 38.8004 10.8188 32.4267C10.2484 31.4803 9.57133 30.5626 8.84461 29.5927C7.93031 28.361 6.98947 27.0933 6.20544 25.6766C6.10266 25.5524 5.95704 25.4153 5.82128 25.2765C5.08295 24.5318 3.95875 23.3772 4.3386 21.7076C4.5474 20.7477 5.25219 19.9553 6.20492 19.597C8.9303 18.5755 12.3036 20.6995 16.4186 23.5878C17.0298 24.0095 17.5288 24.3694 17.8342 24.5498C26.9236 29.7813 34.9705 34.9707 42.4241 40.4255C59.7617 53.1155 82.7368 77.1073 92.214 99.8205C94.7546 105.916 97.5503 115.407 100.254 124.6C102.194 131.216 104.047 137.501 105.694 142.189C106.214 142.727 106.497 143.48 106.422 144.275C106.57 145.01 106.394 145.751 105.977 146.331L105.989 146.339ZM14.9218 28.9938C15.0729 29.2213 15.216 29.4603 15.3688 29.6977C19.3131 36.2188 22.8384 43.0158 26.2536 49.5882L26.4086 49.8962C28.0529 53.0514 29.6731 56.302 31.3084 59.5805C35.6322 68.2281 40.0994 77.1756 45.2068 85.0172C51.7398 95.0471 61.4379 105.126 75.7482 116.748C81.8816 121.732 88.9958 127.571 95.6769 133.779C96.1964 134.257 97.0011 135.092 97.9416 136.065C98.0294 136.161 98.127 136.256 98.2264 136.361C97.2444 133.161 96.2243 129.685 95.1674 126.113C92.5095 117.064 89.7558 107.697 87.3239 101.878C78.233 80.1023 56.0595 56.9862 39.2937 44.7247C31.9922 39.3856 24.1136 34.2887 15.1942 29.1596C15.1051 29.1142 15.0143 29.0589 14.9218 28.9938V28.9938Z" fill="#62622A"/>
<path d="M600.313 448.769C599.66 449.684 598.456 450.117 597.327 449.754C590.626 447.579 585.147 444.025 579.841 440.592C574.958 437.431 570.339 434.448 564.848 432.458C539.648 423.357 536.876 420.367 514.672 390.882C504.87 377.868 496.097 360.259 487.615 343.219C477.099 322.118 467.172 302.193 457.971 297.021C456.689 296.3 456.236 294.684 456.958 293.411C457.681 292.139 459.296 291.676 460.578 292.397C471.207 298.366 481.021 318.057 492.38 340.849C500.761 357.663 509.416 375.058 518.926 387.677C541.357 417.477 543.138 418.964 566.658 427.454C572.721 429.639 577.811 432.936 582.729 436.122C587.977 439.514 592.929 442.723 598.964 444.69C600.363 445.147 601.12 446.639 600.672 448.037C600.585 448.295 600.466 448.539 600.311 448.759L600.313 448.769Z" fill="#62622A"/>
<path d="M604.493 450.398C603.856 451.29 602.695 451.735 601.582 451.401C594.501 449.322 587.913 442.773 582.001 431.935C581.821 431.601 581.688 431.36 581.615 431.231C579.457 428.043 577.024 422.914 573.946 416.415C563.072 393.487 542.837 350.801 497.613 320.666C492.803 317.462 487.078 314.65 481.009 311.675C471.855 307.185 462.402 302.545 455.654 296.186C454.585 295.174 454.526 293.489 455.549 292.428C456.551 291.361 458.238 291.312 459.307 292.324C465.462 298.136 474.56 302.595 483.349 306.914C489.307 309.838 495.465 312.858 500.56 316.246C547.011 347.193 567.65 390.743 578.738 414.141C581.718 420.434 584.074 425.404 586.025 428.282C586.135 428.446 586.353 428.824 586.664 429.389C591.877 438.948 597.402 444.636 603.082 446.309C604.494 446.724 605.298 448.198 604.882 449.6C604.8 449.888 604.664 450.155 604.503 450.396L604.493 450.398Z" fill="#62622A"/>
<path d="M500.452 418.87C500.305 419.078 500.124 419.261 499.91 419.431C498.747 420.333 497.085 420.114 496.185 418.961C494.602 416.922 492.467 415.324 490.215 413.634C490.122 413.569 490.04 413.502 489.947 413.437C489.981 414.101 489.764 414.778 489.303 415.336C488.339 416.447 486.664 416.565 485.553 415.601C483.499 413.827 480.911 412.368 478.168 410.835C476.391 409.834 474.547 408.805 472.836 407.66C461.075 399.787 451.873 392.099 445.459 384.799C432.174 369.669 424.067 352.97 415.484 335.288C413.036 330.253 410.506 325.039 407.872 319.924C403.495 311.438 397.652 303.278 391.997 295.379C390.481 293.257 388.967 291.145 387.485 289.038C387.39 288.902 387.044 288.485 386.553 287.88C376.952 276.079 376.445 274.33 377.431 272.352C377.952 271.318 379.003 270.709 380.189 270.757C391.044 271.196 407.538 285.869 417.395 294.641C418.692 295.797 419.868 296.841 420.874 297.722C438.56 313.061 456.08 339.949 464.864 358.439C467.248 363.455 469.067 368.67 470.828 373.723C472.668 378.996 474.558 384.443 477.065 389.468C479.842 395.055 484.089 400.925 488.719 405.551C490.097 406.936 491.695 408.13 493.375 409.391C495.814 411.22 498.346 413.115 500.361 415.719C501.095 416.667 501.085 417.958 500.424 418.884L500.452 418.87ZM385.034 277.325C386.292 279.014 388.106 281.338 390.699 284.521C391.333 285.304 391.761 285.839 391.867 285.983C393.336 288.072 394.838 290.176 396.34 292.28C402.104 300.333 408.066 308.655 412.615 317.487C415.281 322.667 417.823 327.899 420.286 332.962C428.709 350.306 436.662 366.697 449.467 381.281C455.566 388.23 464.43 395.611 475.803 403.237C477.331 404.261 479.006 405.198 480.772 406.191C481.671 406.694 482.571 407.198 483.464 407.723C479.037 402.98 475.042 397.28 472.317 391.816C469.666 386.491 467.716 380.872 465.821 375.456C464.115 370.545 462.338 365.455 460.083 360.71C451.526 342.709 434.52 316.564 417.408 301.724C416.39 300.835 415.193 299.784 413.881 298.601C406.63 292.147 394.168 281.056 385.034 277.325V277.325Z" fill="#62622A"/>
<path d="M397.069 382.131C396.407 383.057 395.286 383.496 394.129 383.26C385.894 381.605 378.721 375.838 371.794 370.261C368.409 367.54 365.221 364.968 362.033 362.974C331.569 343.897 309.57 321.318 296.654 295.873C294.001 290.65 291.72 285.17 289.518 279.859C286.829 273.373 284.04 266.671 280.619 260.587C279.164 257.998 277.498 256.004 275.585 253.697C275.174 253.2 274.763 252.703 274.339 252.188C273.592 251.283 273.253 250.732 273.048 250.251C272.914 250.122 272.733 249.96 272.469 249.722C272.373 249.637 272.199 249.515 272.036 249.391C271.254 248.806 268.878 247.047 270.477 244.8C271.024 244.035 271.896 243.62 272.874 243.643C274.915 243.704 277.235 244.966 280.294 246.739C281.175 247.255 282.02 247.738 282.517 247.966C289.703 251.184 296.803 254.833 303.623 258.804C321.816 269.407 339.346 284.256 352.988 300.622C358.566 307.316 362.702 315.408 366.701 323.239C367.763 325.318 368.821 327.377 369.88 329.386C371.842 333.084 373.748 336.925 375.591 340.644C379.499 348.532 383.535 356.691 388.373 363.859C398.94 379.522 398.197 380.564 397.08 382.139L397.069 382.131ZM282.448 253.764C283.423 255.056 284.36 256.415 285.242 257.988C288.823 264.349 291.668 271.203 294.423 277.829C296.588 283.046 298.834 288.441 301.394 293.477C313.873 318.044 335.23 339.911 364.866 358.483C368.317 360.644 371.785 363.432 375.136 366.128C379.985 370.026 384.954 374.034 390.09 376.37C388.669 373.978 386.602 370.724 383.976 366.825C378.945 359.366 374.821 351.05 370.845 343.001C369.016 339.31 367.126 335.497 365.207 331.872C364.124 329.847 363.061 327.759 361.985 325.652C358.122 318.081 354.125 310.26 348.92 304.019C335.662 288.113 318.621 273.687 300.958 263.388C294.973 259.9 288.758 256.666 282.458 253.762L282.448 253.764Z" fill="#62622A"/>
<path d="M264.032 298.557C263.975 298.638 263.916 298.709 263.858 298.78C262.882 299.883 261.204 299.982 260.111 299.004C258.551 297.621 257.312 296.04 256.328 294.292C256.067 294.307 255.797 294.273 255.532 294.207C250.678 292.909 246.369 286.096 241.232 277.326C239.627 274.57 238.1 271.973 237.085 270.748C218.693 248.599 207.571 227.634 201.02 202.778C200.362 200.274 199.746 197.721 199.128 195.159C197.304 187.58 195.404 179.739 192.197 172.785C191.155 170.53 189.74 168.168 188.487 166.153C187.98 165.337 187.43 164.57 186.85 163.859C186.817 163.844 186.792 163.818 186.759 163.804C185.08 162.725 185.002 161.46 185.225 160.579C185.508 159.464 186.571 158.629 187.716 158.562C194.738 158.144 206.689 167.345 215.482 175.135C221.902 180.83 226.787 187.919 231.519 194.77C232.522 196.22 233.514 197.661 234.521 199.08C244.283 212.913 255.821 231.655 258.346 253.962C258.78 257.804 258.566 262.358 258.336 267.169C257.84 277.577 257.281 289.377 263.639 295.012C264.66 295.92 264.823 297.445 264.048 298.534L264.032 298.557ZM194.723 166.236C195.533 167.628 196.326 169.094 196.995 170.551C200.426 177.974 202.38 186.069 204.269 193.901C204.879 196.424 205.488 198.936 206.132 201.413C212.475 225.482 223.274 245.814 241.152 267.342C242.448 268.903 244.005 271.556 245.799 274.634C247.85 278.145 250.864 283.285 253.559 286.41C252.382 280.281 252.703 273.364 253.016 266.925C253.233 262.331 253.443 257.991 253.051 254.567C250.663 233.454 239.561 215.469 230.163 202.151C229.152 200.713 228.137 199.255 227.131 197.785C222.584 191.186 217.888 184.369 211.95 179.108C205.387 173.285 199.317 168.788 194.721 166.227L194.723 166.236Z" fill="#62622A"/>
<path d="M181.264 226.824C181.207 226.905 181.148 226.976 181.09 227.047C179.579 228.751 177.886 228.294 177.398 228.114C175.542 227.422 174.541 225.749 174.142 218.662C173.341 218.142 172.593 217.226 171.793 216.239C170.862 215.091 169.63 213.549 168.391 211.968C166.123 209.073 163.45 205.61 163.115 205.14C162.119 203.73 161.115 202.331 160.111 200.932C156.3 195.646 152.368 190.189 149.249 184.214C148.441 182.66 147.604 181.11 146.764 179.551C143.246 173.027 139.616 166.268 137.503 159.013C135.534 152.24 133.792 145.306 132.11 138.605C129.288 127.382 126.368 115.771 122.366 104.773C118.273 93.5379 113.869 84.6607 108.5 76.8341C107.753 75.7459 106.919 74.7438 106.045 73.6878C104.608 71.9582 103.11 70.1683 101.976 67.9089C101.227 66.4558 101.116 65.1759 101.641 64.1102C102.061 63.2557 102.855 62.6815 103.8 62.5172C110.017 61.4372 121.353 68.8465 132.667 77.0106L133.977 77.9502C150.141 89.4941 166.167 114.967 170.47 135.94C172.171 144.211 172.862 152.515 173.526 160.54C173.806 163.851 174.085 167.264 174.438 170.643C175.865 184.351 177.582 197.796 179.241 210.794C179.259 210.902 179.274 211.397 179.284 212.156C179.348 218.367 179.64 221.331 179.904 222.736C180.259 222.847 180.584 223.024 180.883 223.287C181.904 224.196 182.067 225.72 181.282 226.81L181.264 226.824ZM108.647 68.5061C109.106 69.1063 109.604 69.6898 110.104 70.293C111.028 71.4014 111.976 72.5358 112.863 73.8433C118.479 82.0431 123.08 91.2922 127.33 102.967C131.427 114.222 134.381 125.97 137.238 137.328C138.912 143.99 140.646 150.875 142.578 157.553C144.527 164.278 148.031 170.775 151.416 177.058C152.269 178.635 153.112 180.214 153.931 181.777C156.88 187.416 160.531 192.485 164.397 197.853C165.413 199.26 166.43 200.677 167.428 202.097C167.845 202.684 171.117 206.917 173.782 210.28C172.234 198.156 170.509 184.541 169.117 171.212C168.755 167.784 168.47 164.331 168.195 160.999C167.506 152.766 166.854 144.982 165.228 137.023C161.231 117.52 145.812 92.9664 130.852 82.279L129.528 81.3214C120.013 74.4586 113.027 70.1711 108.637 68.5078L108.647 68.5061Z" fill="#62622A"/>
<path d="M185.253 234.362C184.006 236.122 180.579 236.088 171.407 234.585L171.229 234.555C161.225 233.056 150.582 231.382 140.117 228.866C121.698 224.443 102.575 214.976 88.9783 203.545C81.9061 197.598 75.7203 190.735 69.7367 184.101C66.7962 180.846 63.7646 177.476 60.6832 174.286C54.2258 167.613 43.3876 159.092 34.7557 153.222C32.1434 152.265 30.0884 151.069 28.9994 149.3C28.2347 148.052 28.6196 146.412 29.877 145.646C30.4451 145.293 31.1069 145.188 31.7143 145.296C32.1353 145.324 32.5538 145.455 32.9401 145.692C34.2593 146.508 35.6697 147.441 37.1627 148.44C38.9193 149.028 40.8823 149.519 42.05 149.814C43.2176 150.108 44.2353 150.358 45.0114 150.619C49.1786 151.996 53.4846 153.237 57.6621 154.44C64.416 156.393 71.4037 158.407 78.1065 161.059C80.0682 161.834 82.0398 162.608 84.0113 163.382C97.2533 168.563 110.942 173.919 123.238 181.953C136.955 190.917 149.512 203.9 159.597 214.338C163.21 218.075 167.505 220.597 172.05 223.268C173.507 224.122 174.966 224.985 176.413 225.89C176.741 226.087 178.98 227.292 180.616 228.175L183.258 229.594C184.726 230.394 186.249 231.216 185.737 233.233C185.63 233.668 185.473 234.05 185.245 234.374L185.253 234.362ZM49.7682 157.669C55.3038 162.015 60.6389 166.61 64.4886 170.6C67.6312 173.85 70.6992 177.255 73.6662 180.546C79.5355 187.048 85.5971 193.779 92.3832 199.482C105.375 210.41 123.676 219.471 141.342 223.71C151.531 226.153 161.55 227.741 171.754 229.278C170.95 228.798 170.148 228.329 169.355 227.857C164.699 225.124 159.884 222.296 155.774 218.037C145.874 207.79 133.551 195.041 120.328 186.407C108.49 178.679 95.0621 173.419 82.0708 168.338C80.0894 167.565 78.1178 166.791 76.1445 166.007C69.6808 163.446 62.8198 161.461 56.1846 159.548C54.0695 158.941 51.9214 158.32 49.7699 157.679L49.7682 157.669Z" fill="#62622A"/>
<path d="M293.737 328.799C293.58 329.009 293.383 329.216 293.177 329.374C251.811 361.243 196.619 326.202 160.103 303.02C157.958 301.657 155.859 300.326 153.842 299.053C148.03 295.394 142.392 291.339 136.94 287.414C131.837 283.743 126.558 279.94 121.193 276.518C118.122 274.555 115.104 272.958 111.905 271.25C110.294 270.393 108.672 269.528 107.022 268.617C106.426 268.284 105.853 267.906 105.29 267.527C104.761 267.173 104.256 266.834 103.764 266.574C103.223 266.557 101.819 266.476 101.107 265.067C100.52 263.91 100.95 262.354 102.02 261.62C103.827 260.392 108.02 260.456 129.304 263.264C132.296 263.658 134.893 263.999 135.871 264.083C171.49 267.02 206.616 278.518 240.246 298.233C244.506 300.731 248.657 303.532 252.679 306.233C259.462 310.81 266.485 315.538 273.987 318.761C275.414 319.376 276.95 319.921 278.565 320.514C281.25 321.478 284.022 322.479 286.471 323.84C287.121 324.194 289.596 324.362 290.407 324.414C291.947 324.512 293.272 324.607 293.976 326.088C294.392 326.96 294.298 328.001 293.735 328.789L293.737 328.799ZM114.904 266.842C117.891 268.434 120.968 270.082 124.049 272.043C129.53 275.547 134.876 279.389 140.038 283.1C145.42 286.976 150.988 290.982 156.663 294.554C158.693 295.835 160.791 297.166 162.946 298.527C196.611 319.901 246.703 351.707 284.594 328.814C284.344 328.716 284.1 328.596 283.875 328.472C281.807 327.319 279.241 326.395 276.763 325.506C275.139 324.925 273.46 324.313 271.882 323.644C263.919 320.226 256.698 315.35 249.699 310.638C245.745 307.976 241.663 305.224 237.55 302.812C204.608 283.495 170.245 272.24 135.419 269.368C134.307 269.277 131.908 268.963 128.594 268.524C125.321 268.087 119.837 267.365 114.903 266.832L114.904 266.842Z" fill="#62622A"/>
<path d="M435.033 396.82C434.455 397.641 433.427 398.094 432.377 397.89C419.53 395.453 409.835 400.111 398.611 405.502C396.419 406.552 394.143 407.648 391.817 408.692C377.943 414.948 357.428 416.046 351.472 416.228C330.868 416.874 312.43 410.526 294.585 404.379C286.801 401.702 278.748 398.929 270.552 396.739C258.717 393.578 246.865 391.202 235.824 389.11C235.656 389.079 235.359 389.059 234.987 389.022C231.394 388.672 228.336 388.188 227.309 385.84C226.784 384.631 226.999 383.295 227.87 382.119C228.706 381.029 229.555 379.897 245.407 378.25C252.944 377.469 260.903 376.888 262.802 376.781C300.656 374.59 337.824 380.375 369.193 386.313C374.283 387.276 382.048 388.739 389.813 390.202C397.662 391.68 405.499 393.151 410.57 394.117C410.8 394.158 411.026 394.231 411.227 394.338C417.949 392.135 425.069 391.111 433.361 392.685C434.8 392.963 435.751 394.351 435.473 395.79C435.399 396.178 435.246 396.529 435.025 396.832L435.033 396.82ZM239.073 384.324C249.561 386.328 260.726 388.611 271.915 391.611C280.292 393.85 288.431 396.648 296.301 399.361C314.491 405.62 331.667 411.538 351.291 410.92C357.004 410.74 376.646 409.703 389.625 403.845C391.904 402.82 394.142 401.741 396.307 400.705C398.283 399.753 400.233 398.826 402.188 397.928C398.117 397.163 393.468 396.286 388.82 395.409C381.055 393.946 373.28 392.485 368.2 391.52C337.155 385.637 300.383 379.916 263.102 382.068C257.775 382.374 246.642 383.313 239.071 384.314L239.073 384.324Z" fill="#62622A"/>
<path d="M574.349 443.627C574.349 443.627 574.325 443.662 574.309 443.685C574.012 444.081 573.144 444.983 571.559 444.68L570.038 444.396C569.963 444.379 569.889 444.361 569.815 444.343C568.498 444.359 567.243 444.435 566.049 444.571C562.444 444.974 557.868 446.439 553.856 447.826C552.496 448.296 550.032 449.83 546.909 451.773C534.899 459.239 512.531 473.153 478.433 474.935C446.709 476.599 416.015 473.202 395.849 470.057C383.935 468.198 374.671 466.285 368.989 465.009C357.508 462.426 357.409 462.149 356.9 460.623C356.521 459.492 356.943 458.241 357.933 457.572C359.059 456.808 360.918 456.525 372.15 455.396C380.171 454.592 390.157 453.588 394.403 452.383C421.159 444.792 452.866 441.751 491.332 443.087C504.647 443.545 537.471 442.898 551.279 442.458C551.703 442.445 552.103 442.528 552.456 442.69C556.662 441.249 561.455 439.746 565.467 439.293C566.901 439.135 568.378 439.051 569.999 439.034C570.839 439.02 573.679 439.125 574.564 440.89C575.013 441.776 574.931 442.825 574.359 443.625L574.349 443.627ZM373.49 460.594C393.919 464.962 435.432 471.859 478.14 469.626C509.792 467.965 531.037 455.353 542.903 447.993C526.924 448.384 502.288 448.776 491.127 448.39C453.223 447.078 422.053 450.057 395.829 457.495C391.272 458.784 381.939 459.745 373.49 460.594Z" fill="#62622A"/>
<path d="M1447.92 443.718C1448.31 444.251 1448.89 444.647 1449.58 444.788C1455.4 445.909 1482.56 450.059 1488.87 450.638C1565.03 457.596 1657.74 422.514 1697.32 407.538C1706.57 404.039 1713.87 401.278 1716.22 400.875C1724.72 399.427 1732.74 395.807 1740.51 392.295C1747.39 389.187 1753.89 386.256 1760.66 384.712C1762.92 384.202 1765.17 383.699 1767.41 383.205C1780.34 380.346 1793.72 377.381 1806.61 371.856C1823.82 364.482 1840.4 353.63 1856.43 343.129L1859.4 341.188C1873.53 331.95 1885.96 320.611 1897.98 309.636C1902.73 305.305 1907.64 300.819 1912.59 296.523C1919.27 290.73 1926.02 284.95 1932.78 279.162C1958.4 257.213 1984.9 234.523 2008.72 210.121C2014.61 204.08 2019.85 197.226 2024.92 190.606C2030.98 182.685 2037.25 174.488 2044.56 167.821C2055.02 158.299 2065.82 148.463 2076.35 137.666C2077.38 136.616 2077.36 134.929 2076.3 133.913C2075.25 132.888 2073.57 132.911 2072.55 133.961C2062.12 144.643 2051.37 154.429 2040.98 163.9C2033.31 170.88 2026.9 179.267 2020.69 187.384C2015.71 193.888 2010.58 200.608 2004.91 206.414C1981.25 230.653 1954.85 253.257 1929.32 275.13C1922.54 280.926 1915.78 286.715 1909.1 292.517C1904.11 296.856 1899.16 301.356 1894.4 305.715C1882.53 316.543 1870.26 327.749 1856.49 336.744L1853.51 338.684C1837.66 349.054 1821.29 359.78 1804.51 366.974C1792.07 372.304 1779.53 375.079 1766.25 378.02C1763.99 378.521 1761.73 379.021 1759.47 379.532C1752.18 381.189 1745.12 384.367 1738.32 387.448C1730.86 390.821 1723.14 394.301 1715.32 395.632C1712.45 396.119 1706.04 398.548 1695.43 402.56C1656.18 417.412 1564.28 452.187 1489.34 445.339C1483.31 444.79 1456.17 440.644 1450.57 439.56C1449.13 439.279 1447.74 440.225 1447.47 441.66C1447.33 442.407 1447.51 443.128 1447.91 443.706L1447.92 443.718Z" fill="#62622A"/>
<path d="M2069.7 140.074C2069.99 140.49 2070.41 140.827 2070.93 141.018C2071.92 141.393 2072.99 141.132 2073.7 140.443C2075.36 139.706 2077.54 137.628 2081.57 133.467C2082.43 132.582 2083.16 131.816 2083.63 131.38C2090.19 125.293 2097.21 119.519 2103.29 114.586C2118.04 102.613 2128.09 92.1389 2134.92 81.6343C2140.2 73.5374 2144.74 64.4606 2149.13 55.6721C2150.75 52.4214 2152.36 49.2003 2153.99 46.0632L2154.15 45.7551C2157.67 38.9582 2161.01 32.5348 2164.87 26.161C2165.44 25.2147 2166.12 24.297 2166.84 23.3271C2167.76 22.0954 2168.7 20.8277 2169.48 19.411C2169.59 19.2867 2169.73 19.1496 2169.87 19.0108C2170.61 18.2662 2171.73 17.1116 2171.35 15.4419C2171.14 14.482 2170.44 13.6897 2169.48 13.3314C2166.76 12.3099 2163.39 14.4339 2159.27 17.3222C2158.66 17.7438 2158.16 18.1037 2157.86 18.2841C2148.77 23.5157 2140.72 28.7051 2133.27 34.1599C2115.93 46.8498 2092.95 70.8417 2083.48 93.5548C2080.94 99.6499 2078.14 109.141 2075.44 118.334C2073.5 124.95 2071.64 131.236 2070 135.923C2069.48 136.462 2069.19 137.215 2069.27 138.009C2069.12 138.745 2069.3 139.486 2069.71 140.066L2069.7 140.074ZM2160.77 22.7282C2160.62 22.9556 2160.47 23.1947 2160.32 23.432C2156.38 29.9532 2152.85 36.7501 2149.44 43.3226L2149.28 43.6306C2147.64 46.7858 2146.02 50.0364 2144.38 53.3149C2140.06 61.9625 2135.59 70.91 2130.48 78.7515C2123.95 88.7814 2114.25 98.8603 2099.94 110.483C2093.81 115.466 2086.69 121.305 2080.01 127.513C2079.49 127.991 2078.69 128.826 2077.75 129.799C2077.66 129.896 2077.56 129.99 2077.46 130.095C2078.45 126.896 2079.47 123.419 2080.52 119.847C2083.18 110.799 2085.93 101.432 2088.37 95.6121C2097.46 73.8367 2119.63 50.7206 2136.4 38.4591C2143.7 33.1199 2151.58 28.0231 2160.5 22.894C2160.58 22.8486 2160.68 22.7933 2160.77 22.7282V22.7282Z" fill="#62622A"/>
<path d="M1575.38 442.503C1576.03 443.419 1577.24 443.851 1578.37 443.489C1585.07 441.314 1590.55 437.759 1595.85 434.326C1600.74 431.165 1605.35 428.182 1610.85 426.192C1636.04 417.091 1638.82 414.101 1661.02 384.616C1670.82 371.602 1679.6 353.994 1688.08 336.954C1698.59 315.852 1708.52 295.927 1717.72 290.756C1719 290.035 1719.46 288.418 1718.73 287.146C1718.01 285.873 1716.4 285.41 1715.11 286.131C1704.49 292.1 1694.67 311.791 1683.31 334.583C1674.93 351.397 1666.28 368.792 1656.77 381.411C1634.34 411.212 1632.55 412.699 1609.03 421.189C1602.97 423.373 1597.88 426.671 1592.96 429.856C1587.72 433.248 1582.76 436.458 1576.73 438.424C1575.33 438.881 1574.57 440.374 1575.02 441.771C1575.11 442.03 1575.23 442.274 1575.38 442.494L1575.38 442.503Z" fill="#62622A"/>
<path d="M1571.2 444.132C1571.84 445.024 1573 445.47 1574.11 445.135C1581.19 443.056 1587.78 436.507 1593.69 425.669C1593.87 425.335 1594.01 425.094 1594.08 424.965C1596.24 421.777 1598.67 416.648 1601.75 410.149C1612.62 387.222 1632.86 344.535 1678.08 314.4C1682.89 311.196 1688.61 308.385 1694.68 305.409C1703.84 300.92 1713.29 296.279 1720.04 289.92C1721.11 288.908 1721.17 287.224 1720.14 286.163C1719.14 285.096 1717.45 285.046 1716.39 286.058C1710.23 291.87 1701.13 296.329 1692.34 300.649C1686.39 303.572 1680.23 306.593 1675.13 309.981C1628.68 340.927 1608.04 384.478 1596.96 407.875C1593.97 414.168 1591.62 419.138 1589.67 422.017C1589.56 422.18 1589.34 422.559 1589.03 423.124C1583.82 432.682 1578.29 438.371 1572.61 440.043C1571.2 440.458 1570.4 441.932 1570.81 443.334C1570.89 443.622 1571.03 443.889 1571.19 444.131L1571.2 444.132Z" fill="#62622A"/>
<path d="M1675.24 412.604C1675.39 412.812 1675.57 412.996 1675.78 413.165C1676.94 414.067 1678.61 413.848 1679.51 412.696C1681.09 410.656 1683.22 409.058 1685.48 407.369C1685.57 407.304 1685.65 407.237 1685.74 407.172C1685.71 407.836 1685.93 408.513 1686.39 409.07C1687.35 410.181 1689.03 410.3 1690.14 409.336C1692.19 407.561 1694.78 406.102 1697.52 404.569C1699.3 403.569 1701.14 402.539 1702.86 401.395C1714.62 393.522 1723.82 385.833 1730.23 378.533C1743.52 363.404 1751.63 346.705 1760.21 329.023C1762.66 323.987 1765.19 318.773 1767.82 313.659C1772.2 305.173 1778.04 297.012 1783.69 289.114C1785.21 286.992 1786.72 284.88 1788.21 282.772C1788.3 282.636 1788.65 282.22 1789.14 281.615C1798.74 269.814 1799.25 268.065 1798.26 266.087C1797.74 265.052 1796.69 264.444 1795.5 264.491C1784.65 264.93 1768.15 279.603 1758.3 288.376C1757 289.531 1755.82 290.575 1754.82 291.456C1737.13 306.795 1719.61 333.684 1710.83 352.173C1708.44 357.189 1706.62 362.405 1704.86 367.458C1703.02 372.731 1701.13 378.178 1698.63 383.203C1695.85 388.79 1691.6 394.66 1686.97 399.285C1685.6 400.67 1684 401.864 1682.32 403.125C1679.88 404.955 1677.35 406.849 1675.33 409.453C1674.6 410.401 1674.61 411.692 1675.27 412.619L1675.24 412.604ZM1790.66 271.059C1789.4 272.749 1787.59 275.072 1784.99 278.256C1784.36 279.039 1783.93 279.573 1783.82 279.717C1782.36 281.807 1780.85 283.911 1779.35 286.014C1773.59 294.067 1767.63 302.389 1763.08 311.221C1760.41 316.401 1757.87 321.633 1755.41 326.696C1746.98 344.041 1739.03 360.432 1726.23 375.015C1720.13 381.964 1711.26 389.346 1699.89 396.972C1698.36 397.995 1696.69 398.933 1694.92 399.925C1694.02 400.429 1693.12 400.932 1692.23 401.457C1696.66 396.715 1700.65 391.014 1703.38 385.55C1706.03 380.225 1707.98 374.606 1709.87 369.19C1711.58 364.28 1713.35 359.189 1715.61 354.445C1724.17 336.444 1741.17 310.298 1758.28 295.458C1759.3 294.569 1760.5 293.519 1761.81 292.336C1769.06 285.882 1781.52 274.791 1790.66 271.059V271.059Z" fill="#62622A"/>
<path d="M1778.62 375.865C1779.28 376.792 1780.41 377.23 1781.56 376.995C1789.8 375.34 1796.97 369.572 1803.9 363.995C1807.28 361.275 1810.47 358.702 1813.66 356.709C1844.12 337.631 1866.12 315.053 1879.04 289.608C1881.69 284.385 1883.97 278.904 1886.17 273.593C1888.86 267.108 1891.65 260.406 1895.07 254.322C1896.53 251.732 1898.19 249.738 1900.11 247.431C1900.52 246.935 1900.93 246.438 1901.35 245.923C1902.1 245.017 1902.44 244.467 1902.64 243.985C1902.78 243.856 1902.96 243.694 1903.22 243.456C1903.32 243.371 1903.49 243.249 1903.66 243.125C1904.44 242.541 1906.81 240.781 1905.21 238.534C1904.67 237.77 1903.8 237.354 1902.82 237.377C1900.78 237.439 1898.46 238.7 1895.4 240.473C1894.52 240.99 1893.67 241.472 1893.17 241.701C1885.99 244.918 1878.89 248.567 1872.07 252.538C1853.88 263.141 1836.35 277.99 1822.7 294.357C1817.13 301.051 1812.99 309.142 1808.99 316.973C1807.93 319.052 1806.87 321.112 1805.81 323.12C1803.85 326.819 1801.94 330.659 1800.1 334.379C1796.19 342.266 1792.16 350.426 1787.32 357.594C1776.75 373.256 1777.5 374.299 1778.61 375.873L1778.62 375.865ZM1893.24 247.498C1892.27 248.79 1891.33 250.15 1890.45 251.722C1886.87 258.083 1884.02 264.937 1881.27 271.563C1879.1 276.78 1876.86 282.175 1874.3 287.211C1861.82 311.778 1840.46 333.645 1810.83 352.217C1807.37 354.379 1803.91 357.166 1800.56 359.862C1795.71 363.76 1790.74 367.769 1785.6 370.104C1787.02 367.712 1789.09 364.458 1791.72 360.56C1796.75 353.101 1800.87 344.784 1804.85 336.736C1806.68 333.044 1808.57 329.232 1810.49 325.606C1811.57 323.582 1812.63 321.493 1813.71 319.386C1817.57 311.815 1821.57 303.994 1826.77 297.753C1840.03 281.847 1857.07 267.421 1874.73 257.122C1880.72 253.635 1886.93 250.401 1893.23 247.496L1893.24 247.498Z" fill="#62622A"/>
<path d="M1911.66 292.291C1911.72 292.372 1911.77 292.443 1911.83 292.514C1912.81 293.618 1914.49 293.716 1915.58 292.739C1917.14 291.355 1918.38 289.774 1919.36 288.027C1919.62 288.042 1919.89 288.007 1920.16 287.942C1925.01 286.643 1929.32 279.83 1934.46 271.06C1936.06 268.304 1937.59 265.707 1938.61 264.483C1957 242.334 1968.12 221.368 1974.67 196.512C1975.33 194.008 1975.94 191.456 1976.56 188.894C1978.39 181.314 1980.29 173.474 1983.49 166.52C1984.54 164.265 1985.95 161.902 1987.2 159.887C1987.71 159.072 1988.26 158.304 1988.84 157.593C1988.87 157.579 1988.9 157.553 1988.93 157.538C1990.61 156.459 1990.69 155.194 1990.47 154.313C1990.18 153.198 1989.12 152.364 1987.97 152.297C1980.95 151.879 1969 161.079 1960.21 168.869C1953.79 174.565 1948.9 181.653 1944.17 188.504C1943.17 189.954 1942.18 191.396 1941.17 192.814C1931.41 206.648 1919.87 225.389 1917.35 247.696C1916.91 251.539 1917.12 256.093 1917.36 260.903C1917.85 271.311 1918.41 283.111 1912.05 288.746C1911.03 289.655 1910.87 291.179 1911.64 292.268L1911.66 292.291ZM1980.97 159.971C1980.16 161.363 1979.36 162.829 1978.7 164.286C1975.26 171.708 1973.31 179.803 1971.42 187.635C1970.81 190.158 1970.2 192.671 1969.56 195.147C1963.22 219.217 1952.42 239.549 1934.54 261.076C1933.24 262.638 1931.69 265.29 1929.89 268.369C1927.84 271.88 1924.83 277.019 1922.13 280.144C1923.31 274.015 1922.99 267.098 1922.68 260.66C1922.46 256.065 1922.25 251.725 1922.64 248.301C1925.03 227.189 1936.13 209.203 1945.53 195.885C1946.54 194.447 1947.55 192.989 1948.56 191.52C1953.11 184.921 1957.8 178.104 1963.74 172.842C1970.3 167.02 1976.37 162.522 1980.97 159.961L1980.97 159.971Z" fill="#62622A"/>
<path d="M1994.43 220.558C1994.48 220.639 1994.54 220.71 1994.6 220.781C1996.11 222.485 1997.8 222.028 1998.29 221.849C2000.15 221.156 2001.15 219.483 2001.55 212.397C2002.35 211.876 2003.1 210.96 2003.9 209.973C2004.83 208.825 2006.06 207.283 2007.3 205.702C2009.57 202.808 2012.24 199.344 2012.57 198.874C2013.57 197.464 2014.57 196.065 2015.58 194.666C2019.39 189.381 2023.32 183.923 2026.44 177.949C2027.25 176.394 2028.09 174.845 2028.93 173.285C2032.44 166.761 2036.07 160.003 2038.19 152.747C2040.16 145.974 2041.9 139.04 2043.58 132.339C2046.4 121.116 2049.32 109.505 2053.32 98.5075C2057.42 87.2723 2061.82 78.3951 2067.19 70.5685C2067.94 69.4803 2068.77 68.4782 2069.64 67.4221C2071.08 65.6926 2072.58 63.9027 2073.71 61.6433C2074.46 60.1902 2074.57 58.9102 2074.05 57.8446C2073.63 56.9901 2072.83 56.4159 2071.89 56.2516C2065.67 55.1716 2054.34 62.5809 2043.02 70.745L2041.71 71.6846C2025.55 83.2285 2009.52 108.702 2005.22 129.675C2003.52 137.945 2002.83 146.25 2002.16 154.275C2001.88 157.585 2001.61 160.998 2001.25 164.377C1999.82 178.085 1998.11 191.53 1996.45 204.528C1996.43 204.636 1996.42 205.131 1996.41 205.891C1996.34 212.101 1996.05 215.065 1995.79 216.471C1995.43 216.582 1995.11 216.759 1994.81 217.021C1993.79 217.93 1993.62 219.454 1994.41 220.545L1994.43 220.558ZM2067.04 62.2405C2066.58 62.8407 2066.09 63.4242 2065.59 64.0274C2064.66 65.1357 2063.71 66.2702 2062.83 67.5777C2057.21 75.7775 2052.61 85.0265 2048.36 96.7013C2044.26 107.956 2041.31 119.704 2038.45 131.063C2036.78 137.724 2035.04 144.609 2033.11 151.287C2031.16 158.013 2027.66 164.509 2024.27 170.792C2023.42 172.37 2022.58 173.949 2021.76 175.511C2018.81 181.15 2015.16 186.22 2011.29 191.587C2010.28 192.994 2009.26 194.411 2008.26 195.831C2007.85 196.419 2004.57 200.651 2001.91 204.015C2003.46 191.891 2005.18 178.275 2006.57 164.947C2006.93 161.518 2007.22 158.066 2007.49 154.734C2008.18 146.5 2008.84 138.717 2010.46 130.758C2014.46 111.254 2029.88 86.7007 2044.84 76.0134L2046.16 75.0557C2055.68 68.1929 2062.66 63.9055 2067.05 62.2422L2067.04 62.2405Z" fill="#62622A"/>
<path d="M1990.44 228.097C1991.68 229.856 1995.11 229.822 2004.28 228.32L2004.46 228.29C2014.47 226.79 2025.11 225.117 2035.57 222.601C2053.99 218.178 2073.11 208.711 2086.71 197.279C2093.78 191.332 2099.97 184.469 2105.95 177.836C2108.89 174.581 2111.93 171.21 2115.01 168.02C2121.46 161.347 2132.3 152.826 2140.93 146.957C2143.55 146 2145.6 144.804 2146.69 143.034C2147.45 141.787 2147.07 140.147 2145.81 139.38C2145.24 139.028 2144.58 138.923 2143.98 139.03C2143.55 139.059 2143.14 139.189 2142.75 139.426C2141.43 140.243 2140.02 141.175 2138.53 142.174C2136.77 142.762 2134.81 143.254 2133.64 143.548C2132.47 143.843 2131.45 144.092 2130.68 144.353C2126.51 145.73 2122.2 146.972 2118.03 148.174C2111.27 150.127 2104.29 152.141 2097.58 154.793C2095.62 155.569 2093.65 156.343 2091.68 157.117C2078.44 162.297 2064.75 167.653 2052.45 175.687C2038.74 184.652 2026.18 197.634 2016.09 208.072C2012.48 211.809 2008.18 214.331 2003.64 217.003C2002.18 217.856 2000.72 218.719 1999.28 219.625C1998.95 219.821 1996.71 221.026 1995.07 221.909L1992.43 223.328C1990.96 224.128 1989.44 224.95 1989.95 226.967C1990.06 227.402 1990.22 227.785 1990.45 228.108L1990.44 228.097ZM2125.92 151.403C2120.39 155.75 2115.05 160.345 2111.2 164.335C2108.06 167.585 2104.99 170.99 2102.02 174.281C2096.15 180.782 2090.09 187.514 2083.31 193.217C2070.31 204.144 2052.01 213.206 2034.35 217.445C2024.16 219.887 2014.14 221.476 2003.94 223.012C2004.74 222.533 2005.54 222.063 2006.34 221.592C2010.99 218.858 2015.81 216.031 2019.92 211.771C2029.82 201.524 2042.14 188.775 2055.36 180.141C2067.2 172.413 2080.63 167.154 2093.62 162.072C2095.6 161.3 2097.57 160.526 2099.55 159.742C2106.01 157.18 2112.87 155.195 2119.51 153.283C2121.62 152.676 2123.77 152.054 2125.92 151.413L2125.92 151.403Z" fill="#62622A"/>
<path d="M1881.95 322.534C1882.11 322.743 1882.31 322.95 1882.51 323.108C1923.88 354.978 1979.07 319.937 2015.59 296.754C2017.73 295.391 2019.83 294.061 2021.85 292.787C2027.66 289.128 2033.3 285.073 2038.75 281.148C2043.85 277.477 2049.13 273.675 2054.5 270.253C2057.57 268.289 2060.59 266.692 2063.79 264.985C2065.4 264.127 2067.02 263.262 2068.67 262.351C2069.26 262.018 2069.84 261.641 2070.4 261.262C2070.93 260.907 2071.43 260.568 2071.93 260.309C2072.47 260.291 2073.87 260.21 2074.58 258.801C2075.17 257.645 2074.74 256.088 2073.67 255.354C2071.86 254.127 2067.67 254.19 2046.39 256.999C2043.39 257.393 2040.8 257.733 2039.82 257.817C2004.2 260.754 1969.08 272.252 1935.45 291.967C1931.18 294.465 1927.03 297.266 1923.01 299.968C1916.23 304.544 1909.21 309.272 1901.7 312.495C1900.28 313.11 1898.74 313.656 1897.13 314.248C1894.44 315.213 1891.67 316.213 1889.22 317.574C1888.57 317.928 1886.1 318.097 1885.28 318.149C1883.74 318.247 1882.42 318.341 1881.72 319.823C1881.3 320.694 1881.39 321.736 1881.96 322.524L1881.95 322.534ZM2060.79 260.576C2057.8 262.168 2054.72 263.816 2051.64 265.778C2046.16 269.281 2040.81 273.123 2035.65 276.834C2030.27 280.71 2024.7 284.717 2019.03 288.288C2017 289.57 2014.9 290.9 2012.74 292.261C1979.08 313.635 1928.99 345.441 1891.1 322.548C1891.35 322.45 1891.59 322.33 1891.82 322.206C1893.88 321.053 1896.45 320.129 1898.93 319.24C1900.55 318.659 1902.23 318.048 1903.81 317.378C1911.77 313.96 1918.99 309.084 1925.99 304.373C1929.95 301.71 1934.03 298.958 1938.14 296.546C1971.08 277.229 2005.45 265.974 2040.27 263.102C2041.38 263.011 2043.78 262.697 2047.1 262.258C2050.37 261.822 2055.85 261.1 2060.79 260.566L2060.79 260.576Z" fill="#62622A"/>
<path d="M1740.66 390.555C1741.24 391.376 1742.26 391.828 1743.31 391.625C1756.16 389.188 1765.86 393.846 1777.08 399.236C1779.27 400.287 1781.55 401.383 1783.87 402.426C1797.75 408.683 1818.26 409.78 1824.22 409.962C1844.82 410.608 1863.26 404.26 1881.11 398.113C1888.89 395.436 1896.94 392.663 1905.14 390.474C1916.97 387.313 1928.83 384.936 1939.87 382.845C1940.03 382.813 1940.33 382.794 1940.7 382.757C1944.3 382.407 1947.35 381.923 1948.38 379.574C1948.91 378.366 1948.69 377.029 1947.82 375.853C1946.98 374.764 1946.14 373.632 1930.28 371.984C1922.75 371.203 1914.79 370.622 1912.89 370.516C1875.04 368.325 1837.87 374.109 1806.5 380.048C1801.41 381.011 1793.64 382.473 1785.88 383.936C1778.03 385.415 1770.19 386.885 1765.12 387.851C1764.89 387.893 1764.67 387.965 1764.46 388.072C1757.74 385.869 1750.62 384.846 1742.33 386.42C1740.89 386.698 1739.94 388.085 1740.22 389.524C1740.29 389.912 1740.45 390.264 1740.67 390.566L1740.66 390.555ZM1936.62 378.058C1926.13 380.063 1914.96 382.346 1903.78 385.345C1895.4 387.584 1887.26 390.383 1879.39 393.096C1861.2 399.355 1844.02 405.272 1824.4 404.655C1818.69 404.474 1799.04 403.437 1786.07 397.58C1783.79 396.555 1781.55 395.476 1779.38 394.44C1777.41 393.488 1775.46 392.56 1773.5 391.662C1777.57 390.898 1782.22 390.02 1786.87 389.143C1794.64 387.68 1802.41 386.219 1807.49 385.255C1838.54 379.371 1875.31 373.65 1912.59 375.802C1917.92 376.109 1929.05 377.048 1936.62 378.048L1936.62 378.058Z" fill="#62622A"/>
<path d="M1601.34 437.361C1601.34 437.361 1601.37 437.396 1601.38 437.419C1601.68 437.816 1602.55 438.718 1604.13 438.414L1605.66 438.131C1605.73 438.113 1605.8 438.095 1605.88 438.078C1607.19 438.093 1608.45 438.169 1609.64 438.306C1613.25 438.709 1617.82 440.174 1621.84 441.561C1623.2 442.03 1625.66 443.564 1628.78 445.508C1640.79 452.973 1663.16 466.887 1697.26 468.669C1728.98 470.333 1759.68 466.936 1779.84 463.791C1791.76 461.933 1801.02 460.02 1806.7 458.744C1818.18 456.16 1818.28 455.883 1818.79 454.358C1819.17 453.226 1818.75 451.975 1817.76 451.306C1816.63 450.542 1814.77 450.26 1803.54 449.131C1795.52 448.326 1785.53 447.322 1781.29 446.118C1754.53 438.527 1722.83 435.485 1684.36 436.821C1671.05 437.279 1638.22 436.632 1624.41 436.192C1623.99 436.18 1623.59 436.262 1623.24 436.424C1619.03 434.983 1614.24 433.481 1610.23 433.028C1608.79 432.87 1607.31 432.786 1605.69 432.768C1604.85 432.754 1602.01 432.859 1601.13 434.624C1600.68 435.51 1600.76 436.56 1601.33 437.359L1601.34 437.361ZM1802.2 454.328C1781.77 458.696 1740.26 465.593 1697.55 463.361C1665.9 461.699 1644.66 449.087 1632.79 441.728C1648.77 442.118 1673.4 442.51 1684.57 442.125C1722.47 440.813 1753.64 443.791 1779.86 451.229C1784.42 452.518 1793.75 453.479 1802.2 454.328Z" fill="#62622A"/>
<circle cx="970.999" cy="460" r="22" fill="#62622A"/>
<circle cx="1086" cy="460" r="22" fill="#62622A"/>
<circle cx="1205" cy="460" r="22" fill="#62622A"/>
</g>
<defs>
<filter id="filter0_d_13_79" x="0.262695" y="13.0713" width="2175.16" height="476.929" filterUnits="userSpaceOnUse" color-interpolation-filters="sRGB">
<feFlood flood-opacity="0" result="BackgroundImageFix"/>
<feColorMatrix in="SourceAlpha" type="matrix" values="0 0 0 0 0 0 0 0 0 0 0 0 0 0 0 0 0 0 127 0" result="hardAlpha"/>
<feOffset dy="4"/>
<feGaussianBlur stdDeviation="2"/>
<feComposite in2="hardAlpha" operator="out"/>
<feColorMatrix type="matrix" values="0 0 0 0 0 0 0 0 0 0 0 0 0 0 0 0 0 0 0.25 0"/>
<feBlend mode="normal" in2="BackgroundImageFix" result="effect1_dropShadow_13_79"/>
<feBlend mode="normal" in="SourceGraphic" in2="effect1_dropShadow_13_79" result="shape"/>
</filter>
</defs>
</svg>
