<?xml version="1.0" encoding="UTF-8"?>
<svg id="Réteg_2" data-name="Réteg 2" xmlns="http://www.w3.org/2000/svg" viewBox="0 0 1399.68 66.08">
  <defs>
    <style>
      .cls-1 {
        fill: #62622a;
      }
    </style>
  </defs>
  <g id="_ŽÓť_1" data-name="—ŽÓť_1">
    <g>
      <path class="cls-1" d="M321.6,33.18c-.01,.1-.04,.22-.05,.32l.05-.32h0Z"/>
      <path class="cls-1" d="M661.6,10.9c-3.23-.85-6.65-.96-10.67-1.49-.43-1.25-1.11-3.21-1.62-4.69-6.95-3.01-9.69,3.47-15.43,6.71,.27-3.87,.44-6.34,.64-9.25-3.87-1.43-7.48-3.91-12.02-.33-1.61,1.27-4.62,.82-7,1.03-5.84,.54-11.7,.95-17.54,1.53-2.58,.26-2.82,1.85-1.98,3.86-2.98-1.33-5.97-2.65-9.13-4.05-6.91,3.26-14.19,6.25-22.38,5.77,0-.03,.01-.05,.02-.08-2.36-1.93-4.72-3.86-7.08-5.78-.61,.28-1.22,.55-1.84,.83,.61,3.99,1.22,7.97,1.99,13.03-3.23-1.31-5.41-2.19-7.57-3.06-.85-3.39-1.66-6.63-2.25-9-5.9,.27-10.96,.04-15.83,.88-3.03,.52-5.79,2.65-8.11,3.78-3.58-1.52-7.62-2.4-10.58-4.68-4.07-3.14-7.64-1.42-11.53-.52-1.88,.44-4.14,1.41-5.67,.78-4.32-1.78-6.51,.57-8.68,3.51-5.09-3.68-10.34-5.63-16.32-2.22-.86-.08-1.73-.27-2.57-.16-3.21,.44-6.31-5.08-9.83,.32-1.78,2.73-5.32,4.32-8.52,6.77-.84-.95-2.4-2.72-4.63-5.25-4.87-2.05-13.33,3.47-15.43,11.41-2.2,.67-4.55,1.39-8.02,2.44,1-1.89,1.3-3.43,2.05-3.7,3.98-1.45,5.93-3.7,3.5-7.79-1.84-3.1-8.91-3.73-11.79-1.03-2.85,2.67-4.35,7.12-9.36,6.84,.38-2.3,.76-4.56,1.17-7.01-4.81-.93-8.82-2.48-12.43,2.23-1.15,1.5-4.38,1.91-7.62,.43-4.61-2.1-10.14-2.2-15.87-3.26-.39,.98-1.03,2.56-1.6,4-3.18-1.08-6.22-2.12-9.88-3.36-1.04,3.86-1.76,6.52-2.55,9.47-1.16,.05-3.64-.41-4.03,.28-2.75,4.95-4.7,2.93-7.68,.04-5.01-4.86-10.77-8.72-19.23-8.42,1.07,2.13,1.79,3.56,2.51,5-6.53-.09-12.9-.18-20.85-.29,2.35,2.3,3.92,3.84,5.49,5.38l-.36,.03c0,.1,.03,.18,.03,.28,.05-.05,.1-.09,.15-.14,2.78,2.16,5.77,4.12,8.16,6.65,.72,.76-.03,2.91-.24,4.55,3.97,5.42,9.1,5.58,13.34,.45,5.83,4.84,13.16,2.13,19.63,3.83,2.07,.55,4.34,.34,6.89,.5,1.61-2.53,3.45-4.98,4.81-7.68,3.26-6.48,3.17-6.53-3.3-10.22q1.95-2.09,12.38,.65c-2.63,4.15,2.37,7.9,.4,12.26,3.68,4.53,7.93,1.58,10.38,1.3,3.97-4.22,6.93-7.38,9.89-10.54,.62,.47,1.24,.94,1.85,1.41-1.1,1.78-2.2,3.57-3.35,5.43,.38,.48,.67,1.27,1.14,1.4,6.33,1.75,12.35,3.76,19.19,.35,3.03-1.51,7.7,.49,11.63,.53,5.38,.05,10.81,.14,16.11-.59,2.02-.28,3.74-2.79,5.59-4.28q4.13,6.96,19.79,2.86c-2.15-2.21-3.93-4.04-5.97-6.14-2.08,1.81-3.64,3.17-5.2,4.53-.36-.17-.71-.35-1.07-.52,.79-1.98,1.58-3.97,2.82-7.08,2.63,.92,5.99,1.14,7.81,2.93,3.79,3.74,9.79,1.01,13.4,5.25,.46,.54,4.79-1.88,7.08-3.33,2.07-1.31,3.81-3.17,5.68-4.78-2.68-1.11-5.35-2.21-8.35-3.44,6.26-5.14,5.42,2.78,8.33,3.44-.06-.66-.13-1.32-.14-1.96,0,0,0,0,0-.01,1.13,.9,3.09,1.83,3.05,2.67-.25,4.98,2.69,6,6.66,6.13l.1,.33c.05-.13,.13-.17,.18-.29-.08-.01-.16-.02-.24-.03-.26-1.62-.94-3.4-.43-4.74,1.4-3.7,3.4-7.18,5.44-11.3,1.84,.72,4.03,1.57,6.1,2.37q2.71-3.49,5.83-.62c-8.09,1.12-7.52,7.95-9.55,13.13-2.95-2.43-5.42-2.49-7.14,1.18,2.51,.33,5.02,.66,7.53,.99,0-.76,.02-1.51,.03-2.27,4.48-1.76,8.89-1.97,13.75-1.01,7.07,1.39,14.34,2.99,21.4-.92,1.26-.7,3.44,.29,6.78,.68-3.55-2.9-6.08-4.97-9.07-7.41,4.38-2.86,6.16-.17,8.81,1.39,2.23,1.31,5.64,.61,9.65,.87-1.46,2.06-2.8,3.96-4.15,5.85,.41,.41,.86,1.23,1.21,1.19,5.81-.72,11.59-2.02,17.4-2.18,3.69-.1,3.67-2.5,4.55-4.55,2.5,2.3,7.75,.31,8.48,5.38,3.43-.94,6.86-1.85,10.29-2.81,2.31-.65,4.6-1.38,7.6-2.28-.83,2.04-1.46,3.61-2.62,6.44,4.17-.08,7.73-.15,11.74-.23,1.78-8.16,.7-17.43,10.19-22.19,2.41,3.23,4.75,6.37,8.12,10.9-3.56-1.6-5.85-2.63-8.95-4.02-1.62,2.52-3.28,5.1-4.93,7.65,9.69,6.86,18.17,4.35,27.39,.2,.72,1.41,1.66,3.25,2.86,5.59,7.35,1.46,8.46-6.6,13.17-9.1,1.47-2.68,1.03-5.03-2.02-5.84ZM339.02,27.46c-2.15-1.32-4.31-2.65-7.28-4.49,5.86-1.57,6.14,1.99,7.28,4.49Zm15.23,5.56c-2.79-.01-4.75,.58-5.48-.12-4.87-4.6-9.24-3.07-13.59,.45,1.44-1.9,2.82-3.79,4.18-5.68-.04-.02-.08-.05-.11-.07,1.92-.65,3.84-1.3,5.92-2,2.76,2.25,5.33,4.36,9.08,7.42Zm82.89-18.19c1.05,9.85-.05,12.22-4.95,12.67,1.68-4.3,3.31-8.49,4.95-12.67Zm33.81-7.15c.36,3.96-1.63,6.35-5.43,7.51,.43-3.47,2.28-5.95,5.43-7.51Zm26.54,4.37c-.11,5.46-.18,5.6-4.97,7.49,1.53-2.25,3.03-4.53,4.97-7.49Zm66.77-1.22c.28,2.08,.58,4.15,.87,6.22-.82-.05-1.63-.1-2.45-.15,.53-2.02,1.05-4.05,1.58-6.07Zm20.58,1.48c-2.06,3.69-3.38,6.04-4.66,8.33-.91-1.42-1.82-2.86-3.02-4.75,2.51-1.17,4.43-2.06,7.67-3.58Zm5.94-2.15c1.75-.54,3.51-1.09,5.26-1.63,.1,4.58-3.36,4.18-6.03,5.25,.26-1.21,.51-2.41,.77-3.62Z"/>
      <path class="cls-1" d="M375.64,32.87s.08,.07,.11,.11c-.04,.09-.04,.18-.09,.27l-.02-.38Z"/>
      <path class="cls-1" d="M39.86,41.32c.08,.06,.16,.13,.23,.19-.07,.05-.14,.12-.2,.16l-.03-.35Z"/>
      <path class="cls-1" d="M143.83,34.35c-5.41-1.91-10.04-.9-13.52,4.24-1.75-5.55-6.73-2.91-10.09-3.28-9.3-1.02-18.71-1.16-28.48-1.67,.76,1.17,1.79,2.51,2.54,3.98,2.2,4.35,1.68,5.22-3.25,6.82-2.35,.76-4.6,1.86-6.88,2.84,.86-1.7,1.72-3.41,2.48-4.92-3.05-6.54-7.32-2.58-11.3-2.05-4.21,.56-8.51,.42-13.35,.62-.23,3-.42,5.62-.61,8.13-7.13,2.12-5.07-4.84-7.92-7.54-.98,.91-1.75,1.63-2.79,2.6-2.37-1.26-5.16-2.91-8.11-4.18-.5-.21-1.57,.91-2.44,1.56,.64,.52,1.28,1.05,1.92,1.57-2.27,2.02-4.52,4.03-7.24,6.45-4.27-1.95-8.85-4.2-13.56-6.15-4.25-1.76-5.32-1.27-13.46,4.98,1.84,.14,2.72,.23,3.59,.27,1.16,.05,2.32,.06,4.67,.12-3.5,3.25-6.02,5.36-10.4,3.82,1.05,1.26,2.09,2.51,3.4,4.08-1.27,.79-2.5,1.54-4.83,2.98,2.8,2.29,5.04,5.44,7.92,6.21,6.54,1.74,4.32-6.06,8.18-9.28,.84,3.33,1.44,5.71,2.06,8.18,4.61,1.09,7.1-.94,8.65-6.92,1.68,6.6,5.77,4.47,8.93,5.44,5.37,1.65,7.37-2.54,11.4-3.71,1.96,1.23,4.19,2.62,6.41,4.01,.36-.27,.71-.55,1.07-.82-1.11-2.24-2.23-4.49-3.31-6.68,.88-.68,1.39-1.39,1.81-1.34,4.78,.55,7.12,3.2,6.63,8.49,1.54,.11,3.57,.9,4.48,.22,7.96-6,18.59-1.63,26.8-6.96,.97-.63,5.66-5.19,6.59,1.32,.01,.07,2.36,0,3.53-.32,3.26-.91,6.47-1.98,10.31-3.18,8.48,4.84,9.55,4.66,16.24-3.48,2.62,1.51,5.29,3.05,8.67,5.01,1.09-3.8,2.79-6.44,1.03-10.74-1.08-2.65,1.28-6.7,2.24-10.71ZM45.17,50.77c-1.45,.97-2.9,1.93-4.36,2.9-.54-.61-1.08-1.22-1.62-1.83,1.25-1.14,2.44-2.36,3.83-3.31,.14-.1,1.41,1.46,2.15,2.24Zm33.66-8.19c1.75,1.82,3.25,3.4,4.75,4.96-4.55,2.21-4.58,2.08-4.75-4.96Zm20.43,4.87c-.95,1.61-1.9,3.22-2.85,4.83-.69-.46-1.37-.93-2.06-1.39,1.19-1.46,2.38-2.92,3.57-4.37,.44,.31,.89,.62,1.33,.93Zm27.04,3.69c.65,.68,.84,1.81,1.56,3.58-2.02-.17-3.67,.09-3.97-.42-.45-.8-.11-2.16,.22-3.18,.08-.23,1.81-.37,2.18,.03Zm3.93-11.98c.87,1.07,1.75,2.16,2.88,3.55-2.28,1.31-4.36,2.51-6.44,3.7-.27-.34-.54-.68-.81-1.03,1.45-2.08,2.91-4.15,4.36-6.23Z"/>
      <path class="cls-1" d="M1195.58,34.5c3.24,1.27,7.66,3,12.07,4.73-2.1-4.23-7.46-7.03-5.73-12.87-5.64-.61-11.32-1.22-16.86-1.81-.46-9.13-1.87-10.19-9.59-7.42-4.22,1.51-9.04-1.19-12.94,2.05-.97-5.74-5.99-2.97-8.86-3.58-4.1-.88-8.66,.31-12.64,.59-.89,3.96-1.5,6.67-2.38,10.61-1.48-1.33-2.56-1.86-2.93-2.71-3.07-6.92-10.82-5.33-15.89-8.66-1.25-.82-4.84,.1-6.04,1.41-2.61,2.85-4.85,3.85-8.8,2.75-1.49-.42-4.13,2.13-5.8,3.78-2.32,2.29-4.19,5.15-7.72,1.86v.04c-.59,1.88-2.23,4.8-1.6,5.43,1.56,1.55,4.9,3.45,6.23,2.75,6.64-3.5,12.91-1.24,19.36-.05,.65,.12,1.5-.83,3.1-1.77-2.35-1.59-4.18-2.83-6.63-4.49,2.39-1.26,4.48-2.35,7.69-4.03,1.34,3.98,2.43,7.22,3.42,10.16,11.05,.77,22.44,1.57,33.82,2.36-.03,.01-.06,.02-.09,.03,3.89,.49,7.82,1.55,11.67,1.33,4.24-.25,8.4-1.65,12.67-2.55,2.85,1.13,5.63,2.69,8.58,3.11,1.57,.22,3.44-1.68,5.9-3.01Zm-42.46-2.73c3.97,.31,6.17,.48,8.37,.65,.05,.45,.1,.9,.16,1.35-1.54,.58-3.08,1.17-4.62,1.75-.91-.87-1.85-1.78-3.91-3.75Zm1.29-7.92c-2.24,1.4-4.48,2.35-6.91-.15,2.65-3.49,4.76-1.31,6.91,.15Zm4.7-2.91c.44,.2,.34,1.57,.49,2.41-1.6,.11-3.21,.22-4.81,.33,.23-1.14,.27-2.5,.97-3.08,.64-.53,2.34-.12,3.35,.33Zm14.94,4.97c-2.85,1.02-6.22,2.22-9.84,3.52-1.53-1.71-2.04-3.75,.99-5.56,3.29-1.96,4.3-1.7,8.85,2.04Zm14.29,5.76c-3.02,1.08-5.07,1.81-7.09,2.53,.94-2.78,2.35-4.65,7.09-2.53Z"/>
      <path class="cls-1" d="M1207.65,39.23h0s.09,.16,.09,.16c-.03-.06-.07-.11-.1-.16Z"/>
      <path class="cls-1" d="M1369.91,49.01c-12.19-.73-24.21-1.32-36.21-2.21-14.76-1.1-29.49-2.57-44.24-3.63-5.42-.39-10.22-1.56-13.71-6.07-.19-.25-1.07,.04-1.63,.08-.11,.93-.22,1.85-.39,3.24-4.8-1.4-8.37-7.91-14.46-3.81-.38,.25-1.6-.72-2.42-1.16-4.87-2.61-7.86-6.63-8.85-11.8,3.43,.49,7.08,1.84,10.43,1.29,5.36-.88,8.39,1.21,10.68,5.54,2.39-.57,4.79-1.13,7.12-1.68,.75,1.69,1.34,3.02,1.97,4.44,2.61-2.11,4.73-3.82,6.46-5.22,4.4,3.04,8.21,5.66,12.04,8.3,1.34-1.99,2.17-3.23,3.63-5.4,.8,1.85,1.33,3.08,1.69,3.93,3.98,.02,7.76-1.11,9.78,.3,4.01,2.78,8.19,2.45,12.46,3.18,6.68,1.13,13.47,2.5,19.73,4.98,4.19,1.66,6.21,.38,8.63-2.29-.82-1.26-1.53-2.35-2.6-3.98,3.6,1.38,7.35,1.79,9.41,3.87,2.48,2.51,4.31,3.64,7.99,3.2,3.57-.43,3.53,2.44,2.49,4.92Z"/>
      <path class="cls-1" d="M1086.37,31.72c-1.43-5.56-3.51-8.74-8.61-9.87-2.33-.51-4.27-2.78-6.76-4.51-1.42,1.28-3.19,2.88-5.7,5.15-3.44-4.05-6.58-7.75-9.94-11.71-2.81,2.87-.9,5.79,.15,9.23-3.86,.97-7.66,1.92-13.11,3.28,2.98-4.61,4.95-7.67,7.66-11.86-3.94,.98-6.79,1.69-9.05,2.25-2.59-1.64-4.79-3.25-7.17-4.48-2.79-1.44-5.26-.91-6.86,2.05-2-1.81-3.99-4.67-6.36,.41,3.23,1.7,6.49,3.41,10.32,5.42,.31,2.04,.7,4.63,1.44,9.56-5.88-6.02-10.86,.36-15.72-2.4-2.4,.48-4.8,.96-7.2,1.43,.98-2.04,1.96-4.08,3.13-6.54,1.96,2.26,3.09,3.55,4.16,4.78,.94-2.14,1.88-4.3,3.09-7.06-4.24-.43-7.78-.79-13.38-1.36,4.12-2.38,6.58-3.81,9.04-5.23-.12-.57-.25-1.15-.37-1.72-5.18,.62-10.35,1.24-15.26,1.82-.69,3.34-1.2,5.77-1.7,8.2-.5,.14-1,.29-1.5,.43-.76-1.72-1.52-3.44-2.69-6.09-2.64-.46-6.75-1.18-12.31-2.15,1.46,3.33,2.61,5.95,3.99,9.08-1.32,2.2-2.93,4.88-5.62,9.34,3.42-1.79,5.29-2.76,7.79-4.07,1.1,3.87,5.09,4.81,7.5,3.15,4.59-3.15,9.32-1.91,14.02-2.34,0,0,0-.02,.01-.03,2.95,1.48,5.23,5.84,9.48,2.11,.27-.24,1.56,.64,2.36,1.03,8.86,4.36,10.68,3.94,17.3-3.97,.34-.41,.99-.57,2.43-1.36-.19,2.06-.33,3.52-.5,5.33,4.96,4.7,6.82-1.03,10.3-4.53,2.33,6.84,6.67,8.18,13.11,7.3,7.17-.98,14.59-.14,22.55-.09Zm-21.76-7.17c-3.81,1.83-5.94,2.85-8.51,4.08-.52-2.24-.86-3.67-1.57-6.67,3.82,.98,6.05,1.56,10.07,2.59Zm15.08,1.85c-.74,1.2-1.48,2.39-2.22,3.59-.44-.2-.88-.39-1.31-.59,.4-1.24,.74-2.51,1.29-3.68,.05-.1,1.47,.44,2.25,.68Z"/>
      <path class="cls-1" d="M704.43,22c-.08,0-.15-.02-.23-.02-.06-.1-.06-.17-.12-.27,.04-.03,.07-.06,.11-.09,.07,.15,.17,.24,.24,.39Z"/>
      <path class="cls-1" d="M763.39,8.34c-1.41,.52-1.98,3.3-3.88,6.79,4.27-1.24,6.28-1.82,8.29-2.41-.38,2.26-.77,4.52-1.23,7.22-1.98-.29-4.16-.68-6.36-.9-1.56-.15-3.72-.75-4.61,.02-5.72,4.96-10.72,3.08-15.26-1.1-5.88,2.69-11.42,5.22-16.96,7.74-.14-.35-.27-.7-.41-1.06,2.07-2.54,4.15-5.08,6.83-8.35-2.49-.94-4.55-1.73-5.23-1.98-2.71,4.65-4.92,8.43-7.12,12.2-5.04-1.29-10.32,.62-13.03-4.51,2.05,.2,4.11,.4,6.1,.59,1.64-2.25,3.24-4.43,4.83-6.62-2.59-.16-5.18-.48-7.76-.45-4.81,.05-5.74,2.32-3.51,6.18-1.15,.98-2.31,1.97-3.47,2.95-2.84-4.1-6.02,.89-9.07-.09,1.6-4.24,3.13-8.27,4.74-12.54-4.01-.41-6.83-.69-9.34-.95-.99,3.08-1.68,6.47-3.21,9.42-.63,1.22-3.29,2.31-4.65,1.96-1.43-.36-3.19-2.37-3.45-3.89-.7-4.09-.67-8.29-.99-13.46,2.81,1.4,6.11-3.75,8.35,1.83,.56-.18,1.23-.23,1.68-.57,5.58-4.24,10.94-8.68,18.17-2.39,1.23,1.07,4.49-.23,6.82-.35,.87-.04,1.75,.17,2.7,.28-.45,1.62-.84,3.01-1.24,4.46,1.55,.03,2.89,.06,3.19,.07,.66,3.28,1.1,5.51,1.55,7.73,2.1-2.57,4.2-5.14,6.41-7.84-.9-1.14-2.11-2.68-4.63-5.87,5.41,.11,8.94,.18,13.01,.26-1.5,3.06-2.5,5.1-3.5,7.14,7.36-6.37,10.83-6.29,17.61,.83q5.79-8.78,12.52-4.2,7.07-3.82,16.96-2.21c-2.48,3.04-4.59,5.62-6.71,8.21-.09-2.71-.89-5.36-4.13-4.16Z"/>
      <path class="cls-1" d="M816.3,14.28c-.57-3.12-1.17-6.39-2.03-11.1-10.86-1.14-22.99,3.19-34.37-2.8-.87,2.16-1.55,3.82-2.24,5.52,1.61,.5,2.94,.92,6,1.87-3.84,2.84-6.55,4.85-9.86,7.3,.16,.48,.71,2.13,1.43,4.27-1.79,1.24-3.69,2.55-7.21,4.99,5.76-.04,9.82-.06,14.72-.1-1.1-2.88-1.95-5.12-2.93-7.71,3.29-2.31,6.54-4.59,9.78-6.86,.47,.63,.94,1.27,1.41,1.9-.82,2.27-1.64,4.55-2.52,6.98,.73,.13,1.47,.46,1.63,.27,2.2-2.56,4.31-5.19,6.44-7.8,1.03,1.37,2.24,2.97,3.83,5.07-2.33,2.11-4.76,4.29-7.31,6.6,3.98,3.78,6.78,.45,8.84-2.37,5.49,1.95,10.49,3.72,15.59,5.53q1.89-7.66,7.8-6.56-1.94-4.64-8.98-5Zm-7.75,.58c1.49-1.82,2.51-3.07,4.44-5.44,.17,4.13,.13,6.2-4.44,5.44Z"/>
      <path class="cls-1" d="M1016.73,23.93c.08,.09,.16,.18,.23,.27-.11,.02-.21,.04-.32,.06-.02,0-.03,0-.05-.02,.05-.1,.09-.21,.14-.31Z"/>
      <path class="cls-1" d="M1207.65,39.23s.08-.03,.11-.05c-.01,.05-.03,.1-.04,.16,.02,.05-.08-.11-.08-.11Z"/>
      <path class="cls-1" d="M1243.31,38.8c-5.61,1.37-11.56-3.19-17.1,.54-.25,.17-1.05-.56-1.64-.78-5.69-2.12-11.31-2.3-16.8,.62,.7-2.92,1.42-5.79,2.23-9.02,3.74,1,6.41,1.72,10.29,2.76-4.62-5.26-7.78-9.61-9.28-15.54,1.54,.4,2.15,.58,2.76,.7,3.11,.63,10.31-3.23,6.08,5.68-.34,.71,2.72,4.01,4.66,4.61,3.16,.97,6.71,.99,10.08,.88,6.91-.22,8.71,1.51,8.71,9.55Z"/>
      <path class="cls-1" d="M935.37,22.68c.05,.09,.09,.17,.13,.25-.03,.01-.05,.03-.08,.04l-.06-.29Z"/>
      <path class="cls-1" d="M964.71,25.88c-3.73-1.35-7.65-2.77-12.62-4.56-3.18,2.91-7.73,6.43-14.13,6.23-.79-1.48-1.62-3.05-2.45-4.61,2.44-1.24,4.77-3.01,7.35-3.57,4.5-.97,7.39-3.16,8.57-7.63,.09-.34,1.02-.46,1.83-.79,1.02,.83,2.13,1.74,3.24,2.64q6.15-6.34,14.36-3.25c-3.4,1.45-6.62,2.82-9,3.83-1.45,5.34,6.54,5.56,2.86,11.71Z"/>
      <path class="cls-1" d="M927.64,28.38c-5.88-1.01-11.91-1.15-18.54-1.72,2.5-3.93,6.54-2.92,9.85-3.62,3.75-.79,7.5-1.55,11.75-2.42-.69-4.6-1.37-9.1-2.05-13.59,2.46,2.41,3.31,5.22,4.2,8.01,.82,2.58,1.67,5.16,2.51,7.73-.76,4.38-2.77,6.45-7.73,5.6Z"/>
      <path class="cls-1" d="M935.38,22.72s.05,.25,.05,.25c-.02-.07-.04-.14-.07-.2,0-.02,.01-.03,.01-.05Z"/>
      <path class="cls-1" d="M914.13,20.78c-.87-1.9-1.16-3.74-2.24-4.64-2.88-2.41-4.88-7.07-9.95-4.89-1.14-.93-2.3-1.88-4.11-3.36,2.18-1.17,4.56-3.07,5.12-2.64,3.63,2.81,8.62,.69,11.6,2.9,2.34,1.74,2.75,6.1,4.07,9.43-1.47,1.05-2.89,2.06-4.48,3.19Z"/>
      <path class="cls-1" d="M901.66,11.35c.1-.05,.18-.05,.28-.09,.03,.02,.06,.05,.09,.08,0,0-.37,.02-.37,.02Z"/>
      <path class="cls-1" d="M894.93,23.03s-.09-.07-.13-.11c.01-.08,.02-.17,.03-.26l.1,.37Z"/>
      <path class="cls-1" d="M890.34,19.3c1.49,1.21,2.97,2.42,4.46,3.63-.16,1.31-.33,2.62-.53,4.26-4.41-1.47-8.06-2.69-12.21-4.08,.88-1.9,1.62-3.5,1.72-3.72,3.01-.07,4.92-.11,6.8-.16,.05-.01,.1-.03,.15-.04,.01,.01,.03,.02,.04,.03l-.43,.07Z"/>
      <path class="cls-1" d="M316.3,31.64s.33,.18,.33,.18c-.13,.03-.27,.05-.4,.08,.02-.08,.04-.17,.07-.25-2.43-1.22-4.86-2.45-7.4-3.73,.8-1.51,1.07-2.4,1.64-3.02,.91-1,1.97-1.87,2.99-2.78,.2,5.28,5.07,7.34,7.69,10.95-1.64-.48-3.28-.95-4.91-1.43Z"/>
      <path class="cls-1" d="M321.55,33.5c-.1-.15-.23-.29-.33-.43,.13,.04,.25,.07,.38,.11l-.05,.32Z"/>
      <path class="cls-1" d="M674.43,25.93c-4.15-.68-7.25-1.19-10.47-1.72-.08-3.11-.13-5.21-.18-7.27,3.35,2.45,8.86,2.18,10.65,8.99Z"/>
      <path class="cls-1" d="M663.78,16.94c-.06-.04-.13-.08-.19-.12,.02-.03,.02-.06,.04-.09,.05-.03,.09-.08,.15-.1,0,.1,0,.21,0,.31Z"/>
      <path class="cls-1" d="M981.23,19.98c-2.6,.9-5.2,1.79-8.05,2.77q-.03-8.74,8.05-2.77Z"/>
      <path class="cls-1" d="M1082.42,20.28c.63-2.06,1.28-4.17,2.02-6.58,2.99,2.35,7.32,2.95,4.82,7.86-.34,.67,1.41,2.41,2.19,3.65,0,0,.01,.04,0,.03-2.91-1.6-5.81-3.19-9.04-4.96Z"/>
      <path class="cls-1" d="M821.88,5.1c4.38,.1,7.09,.16,11.49,.27-2.85,2.89-4.3,4.37-5.93,6.02-1.66-1.87-3.01-3.4-5.56-6.29Z"/>
      <path class="cls-1" d="M894.93,23.03l-.1-.36c.14,.09,.27,.19,.4,.29-.1,.03-.2,.05-.3,.08Z"/>
      <path class="cls-1" d="M1399.09,48.24c-2.83,.12-5.66,.23-8.89,.36,.2-2.25,.32-3.68,.55-6.32,3.55,1.75,6.23,3.08,8.92,4.4-.19,.52-.39,1.04-.58,1.56Z"/>
      <path class="cls-1" d="M838.79,27.36c-2.91-3.3-4.46-5.07-6.59-7.49q6.45,.3,6.59,7.49Z"/>
      <path class="cls-1" d="M948.67,8.92c-2.83,2.76-4.99,4.87-8.32,8.12q1.93-8.71,8.32-8.12Z"/>
      <path class="cls-1" d="M671.39,4.1c-.83,4.17-1.33,6.68-1.95,9.82-4.59-3.79-4.69-6.47,1.95-9.82Z"/>
      <path class="cls-1" d="M901.67,11.35s.37-.02,.37-.02c-.06,.09-.13,.18-.19,.27-.06-.08-.12-.17-.18-.25Z"/>
      <path class="cls-1" d="M904.16,20.37c-1.32-1.37-2.64-2.73-3.97-4.1h0c-1.43,.54-2.84,1.15-4.3,1.59-1.7,.51-3.43,.91-5.16,1.34-2.7-2.21-5.41-4.42-8.24-6.73-1.85,3.57-3.27,6.33-4.7,9.08,1.9,2.62,1.13,4.79-1.67,5.67-1.16,.37-2.85-.95-5.83-2.09,3.17-1.78,4.9-2.75,6.63-3.72-4.05-.18-9.49-4.63-10.99,3.58-.04,.23-4.56,.57-5.7-.5-2.83-2.66-5.29-5.9-7.19-9.31-2.46-4.42-5.58-4.34-9.41-2.68-.27,1.91-.51,3.63-.98,7-4.17-5.75-8.21-9.62-4.28-14.39,3.57-.31,6.04-.58,8.51-.71,1.49-.08,3.78-.52,4.35,.23,3.49,4.66,7.69,2.2,11.13,1.23,5.07,5.03,1.11,9.62-.11,14.15,3.64-1.51,6.73-2.79,10.27-4.25-4.51-5.93,1.53-7.26,4.46-10.04,.18-.17,.83,.13,1.08,.18-.76,2.11-1.49,4.13-2.22,6.15,2.36-.19,3.45-1.09,4.24-2.21,1.03-1.45,1.82-3.06,4.21-7.19,1.12,8.76,5.48,9.59,11.02,8.86,1.3-.17,2.92,2.04,4.39,3.16,.72-1.02,1.44-2.05,2.16-3.07,2.02,2.6,3.64,5.31,2.31,8.77Z"/>
      <path class="cls-1" d="M904.16,20.37c.08,.08,.16,.17,.25,.26l-.34,.12c1.86,1.08,2.91,2.63,.85,4.15-1.22,.9-3.32,1.48-4.7,1.08-1.8-.52-3.35-1.9-4.98-3.02,2.95-.75,5.89-1.5,8.84-2.25,.05-.12,.04-.22,.08-.34Z"/>
      <path class="cls-1" d="M151.61,35.18c-.94-1.76-1.89-3.52-2.83-5.29,.61-.27,1.21-.54,1.82-.81,.85,1.81,1.7,3.61,2.55,5.42-.51,.23-1.03,.45-1.54,.68Z"/>
      <path class="cls-1" d="M350.36,15.68c-.53-.11-.72-1.78-1.07-2.74,1.05-.28,2.11-.8,3.13-.73,.44,.03,.79,1.29,1.45,2.47-1.42,.46-2.56,1.2-3.51,1Z"/>
      <path class="cls-1" d="M2.13,64.86c-.71-1.42-1.42-2.84-2.13-4.26,.76-.34,1.51-.69,2.27-1.03,.48,1.5,1.01,2.98,1.37,4.51,.03,.13-.98,.51-1.51,.78Z"/>
      <path class="cls-1" d="M320.67,40.15c-2.45,0-4.4-.02-6.32-.02,3.12-2.44,3.35-2.41,6.32,.02Z"/>
      <path class="cls-1" d="M314.03,40.12c.73-2.74,1.46-5.48,2.2-8.22-3.89,.77-7.79,1.55-12.41,2.47,.36-5.75,.71-11.25,1.14-18-4.28,1.34-7.19,2.39-10.18,3.12-1.31,.32-2.98,.45-4.15-.08-7.22-3.29-12.22,.96-17.27,4.92-.5,.39-.22,1.77-.26,2.19-4.5-2.66-9.18-5.43-14.55-8.61-2.9,5.93-8.02,6.71-12.74,6.56-4.53-.15-9.78,2.06-13.94-4.07-2.69,5.34-4.74,9.41-6.88,13.65-3.12-4.01-4.6-8.41-9.82-10.54-6.3-2.57-9.31,1.05-12.41,4.31-3.91-1.31-7.26-2.44-12.78-4.29,2.87,6.11,2.29,9.53-1.14,10.37-5.42-2.81-9.78-5.07-14.47-7.51-1.04,3.95-1.79,6.81-2.54,9.67-.87,.02-1.74,.04-2.61,.06,.4-1.88,.8-3.75,1.17-5.5-3.67,.11-6.89,.2-10.28,.3-2.01,3.75-4.19,7.81-6.26,11.67-.79-1.21-1.3-2.65-1.78-2.63-4.22,.12-4.61,.69-6.42,8.15,.83,.14,1.77,.05,2.41,.46,10.15,6.47,20.89,2.84,31.6,2.45,6.83-.25,10.59-2.73,13.35-9.78,3.09,2.97,5.88,5.64,9.31,8.94,1.82-1.49,4.1-3.36,6.4-5.23,6.82,5.04,16.3,4.37,24.32-1.82,.52-.41,.92-.97,1-1.14,5.67,1.27,10.45,2.64,15.31,3.25,1.41,.18,4.25-1.62,4.46-2.85,1.05-6.28,6.07-6.62,10.59-7.88-1.27,10.15,1.48,12.92,10.93,8.81,7.68-3.35,15.42-2.03,23.07-3.21-2.78-1.86-5.57-3.73-10.1-6.76,5.38-.47,7.31-5.53,12.47-2.16-1.52,1.86-3.21,3.31-3.98,5.15-.37,.87,1.01,2.48,1.61,3.76,1.77-.61,3.02-2.9,5.48-.32,2.86,2.99,6.65,2.74,10.12,.36l-.02,.33s0-.02,0-.03c.17-.13,.25-.18,.4-.3-.1,0-.21,0-.32,0Zm-147.5-1.08c.42,1.45,.83,2.9,1.25,4.35-.36,.1-.72,.19-1.08,.29-.38-1.46-.77-2.93-1.15-4.39,.33-.08,.66-.17,.98-.25Zm9.53,2.97c.53,.95,.49,2.21,.7,3.33-1.46-1-2.92-2-4.39-3,.46-.56,.93-1.12,1.39-1.67,.79,.43,1.93,.68,2.3,1.34Zm36.42-16.79c2.05,4.09,3.91,7.8,5.62,11.23-4.39,6.13-4.52-2.76-6.85-1.86-1.03,3.82-1.88,7-2.74,10.18-2.57,.11-5.19,.22-8.95,.39,2.3-8.47,7.23-13.9,12.91-19.93Zm28.91,11.07c2.17-.71,4.35-1.41,6.52-2.12,2.5,2.89,.18,4.67-1.97,5.47-1.24,.46-3.21-1.08-4.85-1.71,.1-.55,.2-1.09,.29-1.64Zm17.92-4.41c-2.83,6.33-7.28,1.5-11.06,2.15-.99-.89-2-1.8-4.47-4.01,6.64,1.2,12.17-5.66,15.53,1.87Zm29.12-2.68c-1.58,2.2-2.9,4.03-4.66,6.49-2.23-2.74-3.88-4.77-6.39-7.85,2.34-1.54,3.8-2.51,5.19-3.42,1.98,1.62,3.78,3.09,5.86,4.79Z"/>
      <path class="cls-1" d="M32.2,39.2c3.37,1.08,5.39,1.73,7.34,2.35-2.19,1.93-4.3,2-7.34-2.35Z"/>
      <path class="cls-1" d="M39.86,41.31l.03,.35c-.12-.04-.24-.08-.36-.11,.11-.1,.22-.13,.33-.24Z"/>
      <path class="cls-1" d="M369.44,30.54c3.01,1.31,4.51,1.97,5.91,2.58-1.95,2.08-3.51,1.65-5.91-2.58Z"/>
      <path class="cls-1" d="M375.63,32.87s.03,.38,.03,.38c-.1-.04-.21-.09-.31-.13,.1-.1,.18-.13,.28-.24Z"/>
      <path class="cls-1" d="M1205.94,29.6c-.27-.18-.24-1.49-.02-1.6,.66-.32,1.77-.64,2.17-.31,.46,.37,.35,1.45,.58,2.74-1.25-.34-2.11-.41-2.73-.83Z"/>
      <path class="cls-1" d="M1379.62,35.37c-.53-.12-1.24-.09-1.53-.42-.35-.39-.33-1.09-.48-1.66,.68,.19,1.43,.27,1.99,.64,.22,.15,.03,.94,.02,1.44Z"/>
      <path class="cls-1" d="M830.16,18.7c.05-1.68,.09-3.36,.14-5.04,.99-.06,1.98-.12,2.97-.18,.01,1.62,.02,3.24,.04,4.85-1.05,.12-2.1,.24-3.14,.36Z"/>
    </g>
  </g>
</svg>