<?xml version="1.0" encoding="UTF-8"?>
<svg id="Réteg_2" data-name="Réteg 2" xmlns="http://www.w3.org/2000/svg" viewBox="0 0 353.71 358.3">
  <defs>
    <style>
      .cls-1 {
        fill: none;
        stroke: #62622a;
        stroke-linecap: round;
        stroke-linejoin: round;
        stroke-width: 11px;
      }
    </style>
  </defs>
  <g id="Réteg_2-2" data-name="Réteg 2">
    <g id="_ŽÓť_3" data-name=" ŽÓť 3">
      <g>
        <path class="cls-1" d="M20.08,307.25c5.91,3.64,12.41,7.79,19.85,7.79s13.94-4.15,19.85-7.78c5.94-3.66,11.55-7.11,18.64-7.11s12.7,3.45,18.64,7.1c6.25,3.84,12.7,7.82,21.15,7.82s14.91-3.97,21.15-7.82c5.94-3.65,11.55-7.11,18.64-7.1"/>
        <path class="cls-1" d="M158,300.15c7.09,0,12.7,3.45,18.64,7.1,5.91,3.64,12.41,7.79,19.84,7.79s13.94-4.15,19.85-7.78c5.94-3.66,11.55-7.11,18.64-7.11s12.7,3.45,18.64,7.1c6.25,3.84,12.7,7.82,21.15,7.82s14.91-3.97,21.16-7.82c5.94-3.65,11.55-7.11,18.64-7.1,7.09,0,12.7,3.45,18.64,7.1"/>
        <path class="cls-1" d="M65.31,132.09c6.7,0,12,3.26,17.62,6.72,5.9,3.63,12.01,7.39,19.99,7.39s14.09-3.76,20-7.39c5.61-3.45,10.92-6.72,17.62-6.71"/>
        <path class="cls-1" d="M140.54,132.09c6.7,0,12,3.26,17.62,6.71,5.59,3.44,11.73,7.36,18.76,7.36s13.17-3.92,18.76-7.36c5.61-3.45,10.92-6.72,17.62-6.72s12,3.26,17.62,6.72c5.9,3.63,12.01,7.39,19.99,7.39s14.09-3.76,20-7.39c5.61-3.45,10.91-6.72,17.62-6.71"/>
        <g>
          <line class="cls-1" x1="27.57" y1="89.28" x2="27.57" y2="99.19"/>
          <line class="cls-1" x1="43.36" y1="110.03" x2="38.41" y2="110.03"/>
          <line class="cls-1" x1="16.73" y1="110.03" x2="11.78" y2="110.03"/>
          <line class="cls-1" x1="27.57" y1="120.86" x2="27.57" y2="130.77"/>
        </g>
        <g>
          <line class="cls-1" x1="318.17" y1="21.46" x2="318.17" y2="31.37"/>
          <line class="cls-1" x1="333.96" y1="42.21" x2="329.01" y2="42.21"/>
          <line class="cls-1" x1="307.33" y1="42.21" x2="302.38" y2="42.21"/>
          <line class="cls-1" x1="318.17" y1="53.05" x2="318.17" y2="62.96"/>
        </g>
        <path class="cls-1" d="M270.69,17.65c0,.9-.73,1.62-1.62,1.62s-1.62-.73-1.62-1.62,.73-1.62,1.62-1.62,1.62,.73,1.62,1.62Z"/>
        <path class="cls-1" d="M72.49,41.06c0,.9-.73,1.62-1.62,1.62s-1.62-.73-1.62-1.62,.73-1.62,1.62-1.62,1.62,.73,1.62,1.62Z"/>
        <path class="cls-1" d="M329.01,193.76c0,.9-.73,1.62-1.62,1.62s-1.62-.73-1.62-1.62,.73-1.62,1.62-1.62,1.62,.73,1.62,1.62Z"/>
        <path class="cls-1" d="M333.63,264.12v73.17c0,8.55-6.53,15.51-14.51,15.51H34.59c-8.03,0-14.51-6.96-14.51-15.51v-73.17c0-5.84,.89-11.44,2.6-16.68,6.48-20.34,24.53-34.9,45.85-34.9h216.64c21.26,0,39.32,14.56,45.85,34.84,1.66,5.25,2.6,10.91,2.6,16.74h.01Z"/>
        <g>
          <path class="cls-1" d="M331.02,247.38c-4.54,3.95-10.08,6.54-16.28,7.37-19.05,2.48-36-13.56-37.71-35.02-.17-2.42-.22-4.83,0-7.19"/>
          <path class="cls-1" d="M275.81,212.53c.61,2.3,1,4.72,1.22,7.19,1.94,21.46-11.96,40.44-31.12,41.68s-35.16-15.86-35.66-37.38c-.06-4.01,.33-7.84,1.22-11.5"/>
          <path class="cls-1" d="M208.42,212.53c1.05,3.6,1.66,7.49,1.83,11.5,.78,21.52-14.23,39.56-33.39,39.56s-34.17-18.04-33.45-39.56c.11-4.01,.78-7.9,1.83-11.5"/>
          <path class="cls-1" d="M76.62,219.73c-1.94,21.46,12.02,40.44,31.18,41.68,19.16,1.24,35.11-15.86,35.61-37.38,.11-4.01-.33-7.84-1.16-11.5"/>
          <path class="cls-1" d="M22.68,247.44c4.54,3.89,10.08,6.49,16.23,7.31,19.11,2.48,36-13.56,37.71-35.02"/>
        </g>
        <path class="cls-1" d="M288.52,110.4v63.12H65.31v-63.12c0-4.16,.63-8.14,1.85-11.88,4.61-14.48,17.46-24.85,32.64-24.85H254.03c15.14,0,27.99,10.37,32.64,24.8,1.18,3.74,1.85,7.76,1.85,11.92h0Z"/>
        <g>
          <path class="cls-1" d="M266.96,76.35c-1.33,13.87-12.83,25.2-28,26.03-17.21,.94-31.59-12.08-32.04-28.48"/>
          <path class="cls-1" d="M206.92,73.9c.7,16.4-12.79,30.14-30,30.14s-30.7-13.75-30.05-30.14"/>
          <path class="cls-1" d="M146.87,73.9c-.45,16.4-14.78,29.42-31.99,28.48-14.88-.82-26.26-11.73-27.95-25.23"/>
        </g>
        <line class="cls-1" x1="5.5" y1="352.79" x2="348.21" y2="352.79"/>
        <circle class="cls-1" cx="159.87" cy="39.59" r="34.09"/>
        <circle class="cls-1" cx="193.96" cy="39.59" r="34.09"/>
        <line class="cls-1" x1="42.98" y1="173.53" x2="310.75" y2="173.53"/>
        <line class="cls-1" x1="192.36" y1="173.53" x2="192.36" y2="212.53"/>
        <line class="cls-1" x1="161.49" y1="212.53" x2="161.49" y2="173.53"/>
      </g>
    </g>
  </g>
</svg>