<?xml version="1.0" encoding="UTF-8"?>
<svg id="Réteg_2" data-name="Réteg 2" xmlns="http://www.w3.org/2000/svg" viewBox="0 0 496 496">
  <defs>
    <style>
      .cls-1 {
        fill: #62622a;
      }
    </style>
  </defs>
  <g id="Réteg_2-2" data-name="Réteg 2">
    <g id="Icons">
      <g>
        <path class="cls-1" d="M488,456H8c-4.42,0-8-3.58-8-8s3.58-8,8-8H488c4.42,0,8,3.58,8,8s-3.58,8-8,8Z"/>
        <path class="cls-1" d="M438.94,496H57.06c-8.38,0-16.27-4.46-20.58-11.65l-19.34-32.23c-2.27-3.79-1.04-8.7,2.74-10.98,3.79-2.27,8.7-1.04,10.98,2.74l19.34,32.23c1.44,2.4,4.07,3.88,6.86,3.88H438.94c2.79,0,5.42-1.49,6.86-3.88l19.34-32.23c2.27-3.79,7.19-5.02,10.98-2.74,3.79,2.27,5.02,7.19,2.74,10.98l-19.34,32.23c-4.31,7.19-12.2,11.65-20.58,11.65Z"/>
        <path class="cls-1" d="M264,232.48c-4.42,0-8-3.58-8-8v-24.48c0-4.41-3.59-8-8-8s-8,3.59-8,8v24.48c0,4.42-3.58,8-8,8s-8-3.58-8-8v-24.48c0-13.23,10.77-24,24-24s24,10.77,24,24v24.48c0,4.42-3.58,8-8,8Z"/>
        <path class="cls-1" d="M79.59,384c-.87,0-1.76-.14-2.63-.45-4.17-1.45-6.38-6.01-4.92-10.19,6.13-17.59,18.45-43.48,42.36-66.96,3.15-3.09,8.22-3.05,11.31,.1,3.1,3.15,3.05,8.22-.1,11.31-21.71,21.31-32.89,44.83-38.46,60.8-1.15,3.3-4.25,5.37-7.55,5.37v.02Z"/>
        <path class="cls-1" d="M167.27,288c-3.06,0-5.98-1.77-7.31-4.74-1.8-4.04,0-8.77,4.05-10.57,8.22-3.67,16.92-6.77,25.87-9.23,4.25-1.17,8.66,1.33,9.84,5.59,1.17,4.26-1.33,8.66-5.59,9.84-8.17,2.25-16.11,5.08-23.6,8.42-1.06,.47-2.17,.7-3.25,.7h0Z"/>
        <path class="cls-1" d="M464,424c-4.42,0-8-3.58-8-8,0-30.51-12.86-77.44-48.95-117.66-27.16-30.27-76.8-66.34-159.05-66.34s-131.88,36.08-159.05,66.34c-36.09,40.22-48.95,87.15-48.95,117.66,0,4.42-3.58,8-8,8s-8-3.58-8-8c0-33.47,13.94-84.76,53.05-128.34,29.34-32.69,82.81-71.66,170.95-71.66s141.62,38.97,170.95,71.66c39.11,43.58,53.05,94.87,53.05,128.34,0,4.42-3.58,8-8,8h0Z"/>
        <path class="cls-1" d="M240,144c-3.35,0-6.47-2.12-7.59-5.47-1.39-4.18,.86-8.7,5.02-10.11,.86-.3,18.57-6.69,18.57-24.42,0-10.32-9.87-22.52-13.67-26.35-1.87-1.87-18.33-18.88-18.33-37.65C224,10.57,252.27,.81,253.47,.41c4.2-1.4,8.72,.87,10.12,5.06,1.4,4.19-.87,8.72-5.06,10.12-.72,.25-18.53,6.62-18.53,24.41,0,10.32,9.87,22.52,13.67,26.35,1.87,1.87,18.33,18.88,18.33,37.65,0,29.43-28.27,39.19-29.47,39.59-.84,.28-1.69,.41-2.53,.41Z"/>
        <path class="cls-1" d="M384,200c-3.35,0-6.47-2.12-7.59-5.47-1.39-4.18,.86-8.7,5.02-10.11,.86-.3,18.57-6.69,18.57-24.42,0-10.32-9.87-22.52-13.67-26.35-1.87-1.87-18.33-18.88-18.33-37.65,0-29.43,28.27-39.19,29.47-39.59,4.2-1.4,8.72,.87,10.12,5.06s-.87,8.72-5.06,10.12c-.72,.25-18.53,6.62-18.53,24.41,0,10.32,9.87,22.52,13.67,26.35,1.87,1.87,18.33,18.88,18.33,37.65,0,29.43-28.27,39.19-29.47,39.59-.84,.28-1.69,.41-2.53,.41Z"/>
        <path class="cls-1" d="M96,200c-3.35,0-6.47-2.12-7.59-5.47-1.39-4.18,.86-8.7,5.02-10.11,.86-.3,18.57-6.69,18.57-24.42,0-10.32-9.87-22.52-13.67-26.35-1.87-1.87-18.33-18.88-18.33-37.65,0-29.43,28.27-39.19,29.47-39.59,4.2-1.4,8.72,.87,10.12,5.06s-.87,8.72-5.06,10.12c-.72,.25-18.53,6.62-18.53,24.41,0,10.32,9.87,22.52,13.67,26.35,1.87,1.87,18.33,18.88,18.33,37.65,0,29.43-28.27,39.19-29.47,39.59-.84,.28-1.69,.41-2.53,.41Z"/>
      </g>
    </g>
  </g>
</svg>