<?xml version="1.0" encoding="UTF-8"?>
<svg id="Réteg_2" data-name="Réteg 2" xmlns="http://www.w3.org/2000/svg" viewBox="0 0 287.58 361.03">
  <defs>
    <style>
      .cls-1 {
        fill: none;
        stroke: #62622a;
        stroke-linecap: round;
        stroke-linejoin: round;
        stroke-width: 11px;
      }
    </style>
  </defs>
  <g id="Réteg_2-2" data-name="Réteg 2">
    <g id="_ŽÓť_3" data-name=" ŽÓť 3">
      <g>
        <path class="cls-1" d="M143.85,141.84l-9.52,46.98-8.71,42.96c-5.41,26.55-31.34,43.78-57.89,38.37-26.6-5.41-43.78-31.34-38.42-57.89l8.71-42.96L60.12,60.22"/>
        <path class="cls-1" d="M145.91,85.48s-.05,.05-.1,0h-.05"/>
        <path class="cls-1" d="M132.61,86.25c-7.89-.14-17.18-1.2-26.98-3.21-26.6-5.41-46.98-15.6-45.5-22.82,1.44-7.18,24.21-8.66,50.76-3.25,12.82,2.58,24.21,6.32,32.39,10.24"/>
        <path class="cls-1" d="M215.29,329.71c-18.32,5.57-30.73,13.09-29.58,18.77,1.45,7.17,24.21,8.68,50.79,3.29,26.58-5.39,46.95-15.63,45.5-22.8-1.15-5.68-15.51-7.78-34.55-5.78"/>
        <line class="cls-1" x1="232.83" y1="333.64" x2="219.86" y2="269.65"/>
        <path class="cls-1" d="M72.28,330.23c18.32,5.57,30.73,13.09,29.58,18.77-1.45,7.17-24.21,8.68-50.79,3.29s-46.95-15.63-45.5-22.8c1.15-5.68,15.51-7.78,34.55-5.78"/>
        <path class="cls-1" d="M134.31,188.83s-12.22-24.72-48.14-9.76-48.14-9.76-48.14-9.76"/>
        <line class="cls-1" x1="54.74" y1="334.15" x2="67.71" y2="270.16"/>
        <path class="cls-1" d="M182.68,218.21s-.02-.02-.03-.02-.02,.02-.02,.03,.02,.02,.03,.02,.02-.02,.02-.03Z"/>
        <path class="cls-1" d="M224.91,194.05s-.02-.02-.03-.02-.02,.02-.02,.03,.02,.02,.03,.02,.02-.02,.02-.03Z"/>
        <path class="cls-1" d="M52.21,209.47s-.02-.02-.03-.02-.02,.02-.02,.03,.02,.02,.03,.02,.02-.02,.02-.03Z"/>
        <path class="cls-1" d="M101.69,209.45s-.02-.02-.03-.02-.02,.02-.02,.03,.02,.02,.03,.02,.02-.02,.02-.03Z"/>
        <path class="cls-1" d="M204.23,246.05s-.02-.02-.03-.02-.02,.02-.02,.03,.02,.02,.03,.02,.02-.02,.02-.03Z"/>
        <path class="cls-1" d="M233.88,225.69s-.02-.02-.03-.02-.02,.02-.02,.03,.02,.02,.03,.02,.02-.02,.02-.03Z"/>
        <path class="cls-1" d="M75.77,240.96c-.29-1.41-1.67-2.33-3.08-2.04-1.41,.29-2.33,1.67-2.04,3.08s1.67,2.33,3.08,2.04c1.41-.29,2.33-1.67,2.04-3.08Z"/>
        <path class="cls-1" d="M227.44,59.71l30.81,152.04c5.39,26.58-11.81,52.51-38.39,57.9-26.58,5.39-52.51-11.81-57.9-38.39l-30.81-152.04"/>
        <path class="cls-1" d="M131.15,79.23c1.46,7.2,24.2,8.67,50.79,3.28,26.59-5.39,46.96-15.59,45.5-22.8-1.46-7.2-24.2-8.67-50.79-3.28-26.59,5.39-46.96,15.59-45.5,22.8Z"/>
        <path class="cls-1" d="M249.55,168.8s-20.88-18.01-48.14,9.76c-27.27,27.77-48.14,9.76-48.14,9.76"/>
        <line class="cls-1" x1="143.1" y1="5.5" x2="143.24" y2="22.49"/>
        <line class="cls-1" x1="192.98" y1="21.63" x2="181.28" y2="33.74"/>
        <line class="cls-1" x1="93.57" y1="22.38" x2="105.47" y2="34.3"/>
      </g>
    </g>
  </g>
</svg>