<?xml version="1.0" encoding="UTF-8"?>
<svg id="Réteg_2" data-name="Réteg 2" xmlns="http://www.w3.org/2000/svg" viewBox="0 0 333.84 371.87">
  <defs>
    <style>
      .cls-1 {
        fill: none;
        stroke: #fff;
        stroke-linecap: round;
        stroke-linejoin: round;
        stroke-width: 11px;
      }
    </style>
  </defs>
  <g id="Réteg_2-2" data-name="Réteg 2">
    <g id="_ŽÓť_3" data-name=" ŽÓť 3">
      <g>
        <path class="cls-1" d="M71,25.84c-11.28,1.57-14.57,13.52-14.57,13.52,0,0-6.43-10.6-17.71-9.03-11.28,1.57-17.77,16.44-9.96,28.88,7.81,12.44,33.3,20.69,33.3,20.69,0,0,22.27-14.89,26.4-28.98,4.13-14.1-6.18-26.64-17.45-25.07h-.01Z"/>
        <path class="cls-1" d="M292.08,175.5c8.96,1.24,11.57,10.74,11.57,10.74,0,0,5.11-8.42,14.06-7.17,8.96,1.24,14.12,13.06,7.91,22.94-6.2,9.88-26.45,16.43-26.45,16.43,0,0-17.69-11.82-20.97-23.02-3.28-11.19,4.91-21.16,13.86-19.91h.02Z"/>
        <path class="cls-1" d="M157.17,67.01c5.77,13.12,20.07,19.79,26.26,16.14,2.33-1.3,18.61-13.09,27.52-39.64"/>
        <path class="cls-1" d="M153.02,51.57c3.54-7.01,12.53-22.64,31.04-10.94s31.67,3.39,33.15-7.06c.5-2.65-.52-8.1-1.85-10.44-6.72-11.9-19.63-18.38-32.44-17.56-21.71,1.39-35.81,20.04-29.9,46.01h0Z"/>
        <path class="cls-1" d="M222.66,114.75c-6.57-2.57-14.72-9.91-12.27-15.9,.82-2.08,8.12-15.64,27.69-25.03"/>
        <path class="cls-1" d="M251.08,108.04c.96-4.44-2.28-9.44-4.37-13.11-3.08-5.4-5.73-10.95-7.68-16.86-.72-2.18-1.36-4.5-.9-6.75,.59-2.95,3-5.26,5.7-6.58,7.96-3.88,17.92-.29,24.69,4.65,12.2,8.91,18.21,26.99,11.09,40.87-2.95,5.75-10.75,10-10.56,17.03,.58,21.68-.57,33.81-15.85,42.09-15.27,8.28-15.11,30.78,4.81,36.63-1.25,7.72-25.33,15.63-35.59-.4-6.41-16.5,4.49-19.24-6.51-42.06-12.82-31.99,31.13-36.79,35.17-55.5h0Z"/>
        <path class="cls-1" d="M201.97,135.71l-32.56-7.84s-41.61-49.04-53.94-49.1c-12.32-.06-13.35,8.9-10.72,16.17s44.06,53.53,50.92,57.78c6.87,4.24,34.34,11.31,34.34,11.31"/>
        <line class="cls-1" x1="144.5" y1="72.7" x2="137.98" y2="75.32"/>
        <path class="cls-1" d="M78.77,129.93s20.84-21.8,24.85-34.96c.99-5.04-1.92-11.75-9.62-10.84-2.07,.24-4.08,1.84-5.71,3-3.02,2.16-5.83,4.62-8.58,7.11-7.13,6.46-13.84,13.4-20.26,20.56-2.63,2.94-5.48,5.88-7.79,9.08-3.53,4.89-8.43,9.92-9.22,16.17-.77,6.13,3.7,12.18,8.99,14.82,5.46,2.72,12.03,2.66,17.83,1.18,13.61-3.47,30.14-12.83,41.55-20.7"/>
        <path class="cls-1" d="M110.83,124.91c-1.1,39.12,10.26,58.57-2.89,81.99"/>
        <path class="cls-1" d="M172.39,175.14c5.61,17.96-24.9,22.76-56.22,43.61-47.03,34.95-48.95,112.22-110.67,122.67,0,0,5.03,10.45,25.63,14.04,35.02,6.1,68.38-17.32,76.71-51.88,7.3-30.28,14.4-44.26,29.6-56.93"/>
        <path class="cls-1" d="M59.53,354.05c13.18-4,23.74,.44,37.73,5.42,23.89,8.51,49.97,9.26,74.14,1.61,8.56-2.71,17.9-4.67,34.33-4.67,29.82,0,56.07,25.33,76.91-10.7,0,0-27.08,4.52-46.64-13.75-19.56-18.28-19.37-110.01-19.37-110.01"/>
        <path class="cls-1" d="M184.91,231.55c.67,5.95,.62,11.65,.21,17.19"/>
        <path class="cls-1" d="M205.74,356.41c-41.04-28.83-31.45-54.02-24.47-84.44"/>
        <path class="cls-1" d="M204.24,183.48s-16.67,4.06-12.61,16.46c4.06,12.4,15.82,7.27,15.82,7.27"/>
        <line class="cls-1" x1="181.69" y1="98.19" x2="196.12" y2="110.06"/>
      </g>
    </g>
  </g>
</svg>