<?xml version="1.0" encoding="UTF-8"?>
<svg id="Réteg_2" data-name="Réteg 2" xmlns="http://www.w3.org/2000/svg" viewBox="0 0 496.99 465.01">
  <defs>
    <style>
      .cls-1 {
        fill: #fff;
        stroke: #fff;
        stroke-miterlimit: 10;
      }
    </style>
  </defs>
  <g id="Réteg_2-2" data-name="Réteg 2">
    <g id="Icons">
      <g>
        <g>
          <path class="cls-1" d="M160.5,432.5c-70.58,0-128-57.42-128-128s57.42-128,128-128c11.57,0,23.06,1.56,34.14,4.63,4.26,1.18,6.75,5.59,5.57,9.85-1.18,4.26-5.59,6.75-9.85,5.57-9.69-2.69-19.73-4.05-29.86-4.05-61.76,0-112,50.24-112,112s50.24,112,112,112c20.88,0,41.3-5.83,59.06-16.87,8.61-5.32,16.35-11.73,23.02-19.07,.02-.02,.05-.05,.07-.07,19.25-20.64,29.85-47.63,29.85-75.98,0-19.67-5.16-38.98-14.92-55.84-2.21-3.82-.91-8.72,2.92-10.93,3.82-2.21,8.72-.91,10.93,2.91,11.17,19.29,17.08,41.38,17.08,63.86,0,32.41-12.12,63.25-34.12,86.86-7.67,8.43-16.55,15.79-26.4,21.87-20.27,12.6-43.61,19.27-67.48,19.27h0Z"/>
          <path class="cls-1" d="M160.5,464.5C72.28,464.5,.5,392.72,.5,304.5S72.28,144.5,160.5,144.5c20.37,0,40.21,3.78,58.96,11.24,4.11,1.63,6.11,6.29,4.48,10.39-1.63,4.11-6.29,6.11-10.39,4.48-16.86-6.71-34.7-10.11-53.04-10.11-79.4,0-144,64.6-144,144s64.6,144,144,144c30.16,0,58.98-9.22,83.34-26.66,8.45-5.91,16.31-12.88,23.44-20.78,24-26.45,37.22-60.73,37.22-96.56,0-27.66-7.86-54.52-22.73-77.66-2.39-3.72-1.31-8.67,2.41-11.05s8.67-1.31,11.05,2.41c16.53,25.73,25.27,55.58,25.27,86.31,0,39.81-14.69,77.92-41.36,107.3-7.92,8.78-16.7,16.55-26.06,23.1-27.02,19.35-59.06,29.6-92.58,29.6h0Z"/>
          <path class="cls-1" d="M336.5,432.5c-11.57,0-23.06-1.56-34.14-4.63-4.26-1.18-6.75-5.59-5.57-9.85s5.59-6.75,9.85-5.57c9.69,2.69,19.73,4.05,29.86,4.05,61.76,0,112-50.24,112-112s-50.24-112-112-112c-20.88,0-41.3,5.84-59.06,16.87-8.61,5.32-16.35,11.73-23.02,19.07-.02,.03-.05,.05-.07,.07-19.25,20.64-29.85,47.63-29.85,75.98,0,18.24,4.47,36.31,12.93,52.25,2.07,3.9,.59,8.75-3.32,10.82-3.9,2.07-8.75,.59-10.82-3.32-9.68-18.25-14.8-38.91-14.8-59.75,0-32.4,12.12-63.25,34.11-86.86,7.67-8.43,16.55-15.79,26.4-21.87,20.27-12.6,43.61-19.27,67.48-19.27,70.58,0,128,57.42,128,128s-57.42,128-128,128h.02Z"/>
          <path class="cls-1" d="M336.5,464.5c-23.56,0-46.23-5-67.38-14.88-4-1.87-5.73-6.63-3.87-10.63,1.87-4,6.63-5.73,10.63-3.87,19.02,8.88,39.41,13.38,60.62,13.38,79.4,0,144-64.6,144-144s-64.6-144-144-144c-30.16,0-58.98,9.22-83.34,26.66-8.45,5.91-16.31,12.88-23.44,20.78-24,26.44-37.22,60.73-37.22,96.56,0,26.87,7.45,53.08,21.54,75.78,2.33,3.75,1.18,8.69-2.58,11.02-3.75,2.33-8.69,1.18-11.02-2.58-15.67-25.24-23.95-54.36-23.95-84.22,0-39.81,14.69-77.92,41.36-107.3,7.93-8.78,16.7-16.56,26.06-23.1,27.02-19.35,59.06-29.6,92.58-29.6,88.22,0,160,71.78,160,160s-71.78,160-160,160h.01Z"/>
          <path class="cls-1" d="M309.39,162.98c-2.66,0-5.25-1.32-6.77-3.73l-36.88-58.48c-1.61-2.55-1.65-5.8-.09-8.38l24-40c1.45-2.41,4.05-3.88,6.86-3.88h80c2.81,0,5.41,1.47,6.86,3.88l24,40c1.55,2.59,1.52,5.84-.1,8.39l-36.96,58.48c-2.36,3.74-7.3,4.85-11.04,2.49-3.73-2.36-4.85-7.3-2.49-11.04l34.33-54.32-19.13-31.89h-70.94l-19.14,31.9,34.25,54.32c2.36,3.74,1.24,8.68-2.5,11.03-1.33,.84-2.8,1.23-4.26,1.23h0Z"/>
          <path class="cls-1" d="M346.19,160.82c-.65,0-1.32-.08-1.98-.25-4.28-1.09-6.87-5.44-5.78-9.72l13.87-54.56-7.64-38.22c-.87-4.33,1.94-8.55,6.28-9.41,4.34-.87,8.55,1.94,9.41,6.28l8,40c.23,1.17,.2,2.38-.09,3.54l-14.32,56.32c-.92,3.62-4.18,6.03-7.75,6.03h0Z"/>
          <path class="cls-1" d="M326.81,160.82c-3.57,0-6.83-2.41-7.75-6.03l-14.32-56.32c-.29-1.16-.33-2.37-.09-3.54l8-40c.87-4.33,5.08-7.14,9.41-6.28,4.33,.87,7.14,5.08,6.28,9.41l-7.64,38.22,13.87,54.56c1.09,4.28-1.5,8.64-5.78,9.72-.66,.17-1.32,.25-1.98,.25h0Z"/>
          <path class="cls-1" d="M400.5,104.5h-128c-4.42,0-8-3.58-8-8s3.58-8,8-8h128c4.42,0,8,3.58,8,8s-3.58,8-8,8Z"/>
        </g>
        <path class="cls-1" d="M336.5,32.5c-4.42,0-8-3.58-8-8V8.5c0-4.42,3.58-8,8-8s8,3.58,8,8V24.5c0,4.42-3.58,8-8,8Z"/>
        <path class="cls-1" d="M408.49,48.5c-1.2,0-2.42-.27-3.57-.85-3.95-1.98-5.55-6.78-3.58-10.73l8-16c1.98-3.95,6.78-5.55,10.73-3.58,3.95,1.98,5.55,6.78,3.58,10.73l-8,16c-1.4,2.8-4.23,4.42-7.16,4.42h0Z"/>
        <path class="cls-1" d="M264.51,48.5c-2.94,0-5.76-1.62-7.16-4.42l-8-16c-1.98-3.95-.37-8.76,3.58-10.73,3.95-1.98,8.76-.37,10.73,3.58l8,16c1.98,3.95,.37,8.76-3.58,10.73-1.15,.57-2.37,.85-3.57,.85h0Z"/>
        <path class="cls-1" d="M456.5,88.5h-16c-4.42,0-8-3.58-8-8s3.58-8,8-8h16c4.42,0,8,3.58,8,8s-3.58,8-8,8Z"/>
        <path class="cls-1" d="M232.5,88.5h-16c-4.42,0-8-3.58-8-8s3.58-8,8-8h16c4.42,0,8,3.58,8,8s-3.58,8-8,8Z"/>
        <path class="cls-1" d="M440.49,144.5c-1.2,0-2.42-.27-3.57-.85l-16-8c-3.95-1.98-5.55-6.78-3.58-10.73,1.98-3.95,6.78-5.55,10.73-3.58l16,8c3.95,1.98,5.55,6.78,3.58,10.73-1.4,2.8-4.23,4.42-7.16,4.42h0Z"/>
        <path class="cls-1" d="M232.51,144.5c-2.94,0-5.76-1.62-7.16-4.42-1.98-3.95-.37-8.76,3.58-10.73l16-8c3.95-1.98,8.76-.37,10.73,3.58,1.98,3.95,.37,8.76-3.58,10.73l-16,8c-1.15,.57-2.37,.85-3.57,.85h0Z"/>
      </g>
    </g>
  </g>
</svg>