<?xml version="1.0" encoding="UTF-8"?>
<svg xmlns="http://www.w3.org/2000/svg" viewBox="0 0 1067.99 1525.25">
  <defs>
    <style>
      .cls-1 {
        opacity: .05;
      }

      .cls-1, .cls-2, .cls-3 {
        fill: #fff;
      }

      .cls-4 {
        isolation: isolate;
      }

      .cls-5 {
        mix-blend-mode: multiply;
        opacity: .5;
      }

      .cls-3 {
        opacity: .53;
      }
    </style>
  </defs>
  <g class="cls-4">
    <g id="Réteg_2" data-name="Réteg 2">
      <g id="Layer_1" data-name="Layer 1">
        <g>
          <g class="cls-5">
            <path class="cls-1" d="M876.58,999.21c0-16.58,13.49-30.06,30.06-30.06s30.06,13.49,30.06,30.06v88.6h-60.12v-88.6Zm-17.5,123.6h95.12c9.67,0,17.5-7.83,17.5-17.5v-106.1c0-35.88-29.19-65.06-65.06-65.06s-65.06,29.19-65.06,65.06v106.1c0,9.67,7.83,17.5,17.5,17.5Zm-278.48-35h-60.12v-88.6c0-16.58,13.48-30.06,30.06-30.06,8.03,0,15.58,3.13,21.26,8.8,5.68,5.68,8.8,13.23,8.8,21.26v88.6Zm-30.06-153.66c-35.87,0-65.06,29.19-65.06,65.06v106.1c0,9.67,7.83,17.5,17.5,17.5h95.12c9.66,0,17.5-7.83,17.5-17.5v-106.1c0-17.38-6.77-33.72-19.06-46-12.29-12.29-28.63-19.05-46-19.05Zm507.29-76.5l-270.7-125.06v-214.91h46.5c6.9,0,13.15-4.05,15.97-10.34,2.82-6.3,1.68-13.66-2.91-18.81L579.49,188.88V91.1h59.33c9.67,0,17.5-7.84,17.5-17.5s-7.83-17.5-17.5-17.5h-59.33V17.5c0-9.66-7.83-17.5-17.5-17.5s-17.5,7.84-17.5,17.5V56.1h-59.33c-9.66,0-17.5,7.83-17.5,17.5s7.84,17.5,17.5,17.5h59.33v97.78L277.3,488.53c-4.59,5.15-5.73,12.51-2.91,18.81,2.82,6.29,9.07,10.34,15.97,10.34h46.5v208.12L65.84,857.81c-6.02,2.93-9.84,9.04-9.84,15.73v634.21c0,9.66,7.84,17.5,17.5,17.5h976.99c9.66,0,17.5-7.84,17.5-17.5V873.54c0-6.82-3.97-13.02-10.16-15.89ZM336.86,1490.25H91V884.48l245.86-119.75v725.52Zm307.63,0h-165v-173.97c0-44.82,36.46-81.28,81.28-81.28h2.44c44.82,0,81.28,36.46,81.28,81.28v173.97Zm107.64,0h-72.64v-173.97c0-64.12-52.16-116.28-116.28-116.28h-2.44c-64.12,0-116.28,52.16-116.28,116.28v173.97h-72.63V517.68h380.27v972.57ZM329.41,482.68l232.58-260.84,232.59,260.84H329.41Zm703.58,1007.57h-245.86V771.14l245.86,113.59v605.52Zm-398.8-861.08c-21.97-21.96-51.17-34.05-82.22-34.05-53.34,0-99.7,36.08-112.73,87.71-2.35,9.27-3.55,18.88-3.55,28.57v52.83c0,9.67,7.83,17.5,17.5,17.5h197.56c9.67,0,17.5-7.83,17.5-17.5v-52.83c0-9.52-1.16-18.99-3.44-28.12-5.08-20.43-15.66-39.14-30.62-54.11Zm-.94,117.56h-162.56v-35.33c0-6.78,.83-13.49,2.48-19.98,9.11-36.09,41.51-61.3,78.8-61.3,21.7,0,42.12,8.46,57.47,23.8,10.46,10.47,17.86,23.54,21.41,37.82,1.59,6.38,2.4,13,2.4,19.66v35.33Zm-419.29,187.42c-35.87,0-65.06,29.19-65.06,65.06v106.1c0,9.67,7.83,17.5,17.5,17.5h95.12c9.67,0,17.5-7.83,17.5-17.5v-106.1c0-35.88-29.19-65.06-65.06-65.06Zm30.06,153.66h-60.12v-88.6c0-16.58,13.49-30.06,30.06-30.06s30.06,13.49,30.06,30.06v88.6Z"/>
            <path class="cls-3" d="M848.58,999.21c0-16.58,13.49-30.06,30.06-30.06s30.06,13.49,30.06,30.06v88.6h-60.12v-88.6Zm-17.5,123.6h95.12c9.67,0,17.5-7.83,17.5-17.5v-106.1c0-35.88-29.19-65.06-65.06-65.06s-65.06,29.19-65.06,65.06v106.1c0,9.67,7.83,17.5,17.5,17.5Zm-278.48-35h-60.12v-88.6c0-16.58,13.48-30.06,30.06-30.06,8.03,0,15.58,3.13,21.26,8.8,5.68,5.68,8.8,13.23,8.8,21.26v88.6Zm-30.06-153.66c-35.87,0-65.06,29.19-65.06,65.06v106.1c0,9.67,7.83,17.5,17.5,17.5h95.12c9.66,0,17.5-7.83,17.5-17.5v-106.1c0-17.38-6.77-33.72-19.06-46-12.29-12.29-28.63-19.05-46-19.05Zm507.29-76.5l-270.7-125.06v-214.91h46.5c6.9,0,13.15-4.05,15.97-10.34,2.82-6.3,1.68-13.66-2.91-18.81L551.49,188.88V91.1h59.33c9.67,0,17.5-7.84,17.5-17.5s-7.83-17.5-17.5-17.5h-59.33V17.5c0-9.66-7.83-17.5-17.5-17.5s-17.5,7.84-17.5,17.5V56.1h-59.33c-9.66,0-17.5,7.83-17.5,17.5s7.84,17.5,17.5,17.5h59.33v97.78L249.3,488.53c-4.59,5.15-5.73,12.51-2.91,18.81,2.82,6.29,9.07,10.34,15.97,10.34h46.5v208.12L37.84,857.81c-6.02,2.93-9.84,9.04-9.84,15.73v634.21c0,9.66,7.84,17.5,17.5,17.5H1022.49c9.66,0,17.5-7.84,17.5-17.5V873.54c0-6.82-3.97-13.02-10.16-15.89ZM308.86,1490.25H63V884.48l245.86-119.75v725.52Zm307.63,0h-165v-173.97c0-44.82,36.46-81.28,81.28-81.28h2.44c44.82,0,81.28,36.46,81.28,81.28v173.97Zm107.64,0h-72.64v-173.97c0-64.12-52.16-116.28-116.28-116.28h-2.44c-64.12,0-116.28,52.16-116.28,116.28v173.97h-72.63V517.68h380.27v972.57ZM301.41,482.68l232.58-260.84,232.59,260.84H301.41Zm703.58,1007.57h-245.86V771.14l245.86,113.59v605.52Zm-398.8-861.08c-21.97-21.96-51.17-34.05-82.22-34.05-53.34,0-99.7,36.08-112.73,87.71-2.35,9.27-3.55,18.88-3.55,28.57v52.83c0,9.67,7.83,17.5,17.5,17.5h197.56c9.67,0,17.5-7.83,17.5-17.5v-52.83c0-9.52-1.16-18.99-3.44-28.12-5.08-20.43-15.66-39.14-30.62-54.11Zm-.94,117.56h-162.56v-35.33c0-6.78,.83-13.49,2.48-19.98,9.11-36.09,41.51-61.3,78.8-61.3,21.7,0,42.12,8.46,57.47,23.8,10.46,10.47,17.86,23.54,21.41,37.82,1.59,6.38,2.4,13,2.4,19.66v35.33Zm-419.29,187.42c-35.87,0-65.06,29.19-65.06,65.06v106.1c0,9.67,7.83,17.5,17.5,17.5h95.12c9.67,0,17.5-7.83,17.5-17.5v-106.1c0-35.88-29.19-65.06-65.06-65.06Zm30.06,153.66h-60.12v-88.6c0-16.58,13.49-30.06,30.06-30.06s30.06,13.49,30.06,30.06v88.6Z"/>
            <path class="cls-2" d="M820.58,999.21c0-16.58,13.49-30.06,30.06-30.06s30.06,13.49,30.06,30.06v88.6h-60.12v-88.6Zm-17.5,123.6h95.12c9.67,0,17.5-7.83,17.5-17.5v-106.1c0-35.88-29.19-65.06-65.06-65.06s-65.06,29.19-65.06,65.06v106.1c0,9.67,7.83,17.5,17.5,17.5Zm-278.48-35h-60.12v-88.6c0-16.58,13.48-30.06,30.06-30.06,8.03,0,15.58,3.13,21.26,8.8,5.68,5.68,8.8,13.23,8.8,21.26v88.6Zm-30.06-153.66c-35.87,0-65.06,29.19-65.06,65.06v106.1c0,9.67,7.83,17.5,17.5,17.5h95.12c9.66,0,17.5-7.83,17.5-17.5v-106.1c0-17.38-6.77-33.72-19.06-46-12.29-12.29-28.63-19.05-46-19.05Zm507.29-76.5l-270.7-125.06v-214.91h46.5c6.9,0,13.15-4.05,15.97-10.34,2.82-6.3,1.68-13.66-2.91-18.81L523.49,188.88V91.1h59.33c9.67,0,17.5-7.84,17.5-17.5s-7.83-17.5-17.5-17.5h-59.33V17.5c0-9.66-7.83-17.5-17.5-17.5s-17.5,7.84-17.5,17.5V56.1h-59.33c-9.66,0-17.5,7.83-17.5,17.5s7.84,17.5,17.5,17.5h59.33v97.78L221.3,488.53c-4.59,5.15-5.73,12.51-2.91,18.81,2.82,6.29,9.07,10.34,15.97,10.34h46.5v208.12L9.84,857.81c-6.02,2.93-9.84,9.04-9.84,15.73v634.21c0,9.66,7.84,17.5,17.5,17.5H994.49c9.66,0,17.5-7.84,17.5-17.5V873.54c0-6.82-3.97-13.02-10.16-15.89ZM280.86,1490.25H35V884.48l245.86-119.75v725.52Zm307.63,0h-165v-173.97c0-44.82,36.46-81.28,81.28-81.28h2.44c44.82,0,81.28,36.46,81.28,81.28v173.97Zm107.64,0h-72.64v-173.97c0-64.12-52.16-116.28-116.28-116.28h-2.44c-64.12,0-116.28,52.16-116.28,116.28v173.97h-72.63V517.68h380.27v972.57ZM273.41,482.68L505.99,221.84l232.59,260.84H273.41Zm703.58,1007.57h-245.86V771.14l245.86,113.59v605.52Zm-398.8-861.08c-21.97-21.96-51.17-34.05-82.22-34.05-53.34,0-99.7,36.08-112.73,87.71-2.35,9.27-3.55,18.88-3.55,28.57v52.83c0,9.67,7.83,17.5,17.5,17.5h197.56c9.67,0,17.5-7.83,17.5-17.5v-52.83c0-9.52-1.16-18.99-3.44-28.12-5.08-20.43-15.66-39.14-30.62-54.11Zm-.94,117.56h-162.56v-35.33c0-6.78,.83-13.49,2.48-19.98,9.11-36.09,41.51-61.3,78.8-61.3,21.7,0,42.12,8.46,57.47,23.8,10.46,10.47,17.86,23.54,21.41,37.82,1.59,6.38,2.4,13,2.4,19.66v35.33Zm-419.29,187.42c-35.87,0-65.06,29.19-65.06,65.06v106.1c0,9.67,7.83,17.5,17.5,17.5h95.12c9.67,0,17.5-7.83,17.5-17.5v-106.1c0-35.88-29.19-65.06-65.06-65.06Zm30.06,153.66h-60.12v-88.6c0-16.58,13.49-30.06,30.06-30.06s30.06,13.49,30.06,30.06v88.6Z"/>
          </g>
          <path class="cls-2" d="M1001.83,857.65l-270.7-125.06v-214.91h46.5c6.9,0,13.15-4.05,15.97-10.34,2.82-6.3,1.68-13.66-2.91-18.81L523.49,188.88V91.1h59.33c9.67,0,17.5-7.84,17.5-17.5s-7.83-17.5-17.5-17.5h-59.33V17.5c0-9.66-7.83-17.5-17.5-17.5s-17.5,7.84-17.5,17.5V56.1h-59.33c-9.66,0-17.5,7.83-17.5,17.5s7.84,17.5,17.5,17.5h59.33v97.78L221.3,488.53c-4.59,5.15-5.73,12.51-2.91,18.81,2.82,6.29,9.07,10.34,15.97,10.34h46.5v208.12L9.84,857.81c-6.02,2.93-9.84,9.04-9.84,15.73v634.21c0,9.66,7.84,17.5,17.5,17.5H994.49c9.66,0,17.5-7.84,17.5-17.5V873.54c0-6.82-3.97-13.02-10.16-15.89ZM280.86,1490.25H35V884.48l245.86-119.75v725.52Zm307.63,0h-165v-173.97c0-44.82,36.46-81.28,81.28-81.28h2.44c44.82,0,81.28,36.46,81.28,81.28v173.97Zm107.64,0h-72.64v-173.97c0-64.12-52.16-116.28-116.28-116.28h-2.44c-64.12,0-116.28,52.16-116.28,116.28v173.97h-72.63V517.68h380.27v972.57ZM273.41,482.68L505.99,221.84l232.59,260.84H273.41Zm703.58,1007.57h-245.86V771.14l245.86,113.59v605.52Zm-398.8-861.08c-21.97-21.96-51.17-34.05-82.22-34.05-53.34,0-99.7,36.08-112.73,87.71-2.35,9.27-3.55,18.88-3.55,28.57v52.83c0,9.67,7.83,17.5,17.5,17.5h197.56c9.67,0,17.5-7.83,17.5-17.5v-52.83c0-9.52-1.16-18.99-3.44-28.12-5.08-20.43-15.66-39.14-30.62-54.11Zm-.94,117.56h-162.56v-35.33c0-6.78,.83-13.49,2.48-19.98,9.11-36.09,41.51-61.3,78.8-61.3,21.7,0,42.12,8.46,57.47,23.8,10.46,10.47,17.86,23.54,21.41,37.82,1.59,6.38,2.4,13,2.4,19.66v35.33Zm-419.29,187.42c-35.87,0-65.06,29.19-65.06,65.06v106.1c0,9.67,7.83,17.5,17.5,17.5h95.12c9.67,0,17.5-7.83,17.5-17.5v-106.1c0-35.88-29.19-65.06-65.06-65.06Zm30.06,153.66h-60.12v-88.6c0-16.58,13.49-30.06,30.06-30.06s30.06,13.49,30.06,30.06v88.6Zm306.52-153.66c-35.87,0-65.06,29.19-65.06,65.06v106.1c0,9.67,7.83,17.5,17.5,17.5h95.12c9.66,0,17.5-7.83,17.5-17.5v-106.1c0-17.38-6.77-33.72-19.06-46-12.29-12.29-28.63-19.05-46-19.05Zm30.06,153.66h-60.12v-88.6c0-16.58,13.48-30.06,30.06-30.06,8.03,0,15.58,3.13,21.26,8.8,5.68,5.68,8.8,13.23,8.8,21.26v88.6Zm278.48,35h95.12c9.67,0,17.5-7.83,17.5-17.5v-106.1c0-35.88-29.19-65.06-65.06-65.06s-65.06,29.19-65.06,65.06v106.1c0,9.67,7.83,17.5,17.5,17.5Zm17.5-123.6c0-16.58,13.49-30.06,30.06-30.06s30.06,13.49,30.06,30.06v88.6h-60.12v-88.6Z"/>
        </g>
      </g>
    </g>
  </g>
</svg>