<?xml version="1.0" encoding="UTF-8"?>
<svg id="Réteg_2" data-name="Réteg 2" xmlns="http://www.w3.org/2000/svg" viewBox="0 0 391.56 880.29">
  <defs>
    <style>
      .cls-1 {
        fill: #fff;
      }
    </style>
  </defs>
  <g id="Layer_1" data-name="Layer 1">
    <g>
      <path class="cls-1" d="M244.17,322.84c-9.68,33.9-22.23,73.55-22.41,74.1-1.42,4.46-2.7,9.27-3.94,13.91-2.97,11.11-6.04,22.59-11.4,31.9l-1.14,1.98c-3.75,6.48-8,13.81-10.58,20.56-11.23,29.29-27.61,56.89-43.45,83.59-5.8,9.78-11.8,19.89-17.47,29.95-4.43,7.86-7.84,16.3-11.15,24.46-2.39,5.9-4.86,12-7.66,17.75-27.36,56.08-41.41,115.06-41.74,175.31-.09,16.61,2.93,33.4,5.85,49.65,1.89,10.51,3.84,21.38,4.87,31.88,.13,1.37,1.29,2.4,2.64,2.4,.09,0,.17,0,.26-.01,1.46-.14,2.53-1.44,2.38-2.9-1.05-10.71-3.02-21.69-4.93-32.3-2.88-16.01-5.85-32.56-5.76-48.68,.33-59.45,14.19-117.66,41.2-173.01,2.89-5.91,5.39-12.1,7.81-18.08,3.24-8.01,6.6-16.29,10.85-23.85,5.64-10.01,11.63-20.1,17.41-29.85,15.96-26.89,32.45-54.69,43.84-84.4,2.43-6.35,6.57-13.49,10.22-19.8l1.15-1.99c5.71-9.92,8.87-21.74,11.93-33.18,1.28-4.8,2.5-9.33,3.88-13.68,.7-2.22,12.77-40.32,22.26-73.53-1.69-.6-3.34-1.31-4.91-2.17Z"/>
      <path class="cls-1" d="M77.78,764.49c-.95,0-1.86-.52-2.33-1.35-.47-.83-.46-1.87,.03-2.69,2.47-4.16,4.54-8.27,6.55-12.25,4.25-8.44,8.27-16.42,15.66-24.4,26.36-28.46,65.22-44.75,99.5-59.11,4.08-1.71,8.11-3.4,12.09-5.09,7.36-3.13,14.91-5.93,22.21-8.64,10.1-3.74,20.54-7.61,30.45-12.37,5.64-2.71,24.45-12.75,24.64-12.85,1.11-.6,2.49-.32,3.3,.65,.8,.97,.81,2.38,.02,3.36-.5,.61-12.18,15.1-15.53,18.85-7.6,8.52-15.9,16.46-23.93,24.14-2.37,2.27-4.75,4.55-7.12,6.85-30.7,29.78-68.45,51.72-109.17,63.45-23.5,6.77-43.97,16.14-51.67,19.66-3.72,1.7-3.94,1.8-4.69,1.8Zm199.75-127.95c-5.13,2.7-10.6,5.54-13.29,6.83-10.13,4.87-20.69,8.78-30.9,12.57-7.24,2.68-14.73,5.46-21.97,8.54-3.99,1.7-8.03,3.39-12.12,5.11-35.44,14.85-72.08,30.21-97.66,57.82-6.88,7.43-10.74,15.09-14.82,23.19-.93,1.84-1.87,3.71-2.86,5.6,9.56-4.32,27.97-12.28,48.76-18.27,39.89-11.49,76.87-32.98,106.94-62.16,2.37-2.3,4.76-4.59,7.14-6.87,7.95-7.61,16.17-15.48,23.64-23.84,1.36-1.52,4.23-4.98,7.12-8.51Z"/>
      <path class="cls-1" d="M110.75,640.13c-.47,0-.95-.13-1.39-.39-.9-.55-1.35-1.55-1.25-2.53,.02-.74,.34-1.42,.87-1.9,1.1-1.71,2.44-3.56,4.01-5.52,9.72-12.16,24.08-22.67,34.56-30.35,51.51-37.72,104.41-58.23,152.99-59.33,12.61-.29,25.96-1.31,39.68-3.06,.79-.1,2.83-.68,4.47-1.15,4.71-1.34,6.14-1.75,7.37,.03,.47,.68,.64,1.53,.48,2.37-.6,3.11-7.24,8.21-32.3,24.82-3.88,2.57-7.23,4.79-9.55,6.4-31.19,21.57-85.17,49-134.65,55.3-9.47,1.2-23.03,4.77-36.15,8.22-10.34,2.72-20.12,5.29-27.72,6.68-.43,.27-.92,.41-1.42,.41Zm230.54-97.88c-.14,.02-.27,.04-.4,.06-13.9,1.77-27.43,2.81-40.23,3.1-47.49,1.08-99.35,21.24-149.98,58.31-10.24,7.5-24.27,17.78-33.55,29.38-.06,.07-.11,.14-.17,.22,6.37-1.42,13.82-3.38,21.58-5.42,13.28-3.49,27.02-7.1,36.83-8.35,48.53-6.18,101.6-33.17,132.3-54.4,2.36-1.63,5.73-3.87,9.64-6.45,6.7-4.44,17.27-11.45,23.98-16.44Z"/>
      <path class="cls-1" d="M168.49,530.88c-1.36,0-2.13-.62-2.53-1.14-.54-.69-.72-1.59-.5-2.45,1.95-7.67,11.23-14.35,18.68-19.72,2.18-1.57,4.24-3.05,5.65-4.25,25.15-21.37,56.59-39.75,98.94-57.85,17.29-7.39,35.42-11.45,51.07-14.68,2.79-.58,8.74-2.35,13.52-3.77,7.33-2.18,8.56-2.51,9.41-2.51,.73,0,1.51,.32,2.01,.85,.5,.53,.77,1.26,.72,1.99-.33,5.55-26.5,32.86-26.76,33.12-36.53,36.46-71.03,57.03-105.47,62.87-13.75,2.33-28.02,3.92-44.91,5-1.48,.09-2.93,.13-4.38,.16-3.12,.07-6.07,.14-8.99,.82-.24,.06-.68,.2-1.21,.36-2.22,.68-4.01,1.21-5.23,1.21Zm188.66-99.47c-.78,.23-1.57,.47-2.32,.69-5.13,1.53-10.95,3.26-13.96,3.89-15.39,3.18-33.22,7.17-50.05,14.36-41.85,17.88-72.86,36-97.59,57.01-1.58,1.34-3.62,2.81-5.98,4.51-4.89,3.52-11.15,8.03-14.5,12.54,.43-.13,.77-.23,.99-.28,3.46-.81,6.83-.89,10.08-.96,1.38-.03,2.76-.06,4.17-.15,16.69-1.06,30.79-2.63,44.36-4.94,33.31-5.65,66.88-25.74,102.61-61.39,6.1-6.09,16.92-18.34,22.21-25.29Z"/>
      <path class="cls-1" d="M208.25,448.13c-1.17,0-2.21-.68-2.64-1.73-.89-2.15-.56-3.2,13.78-17.63,.94-.94,1.75-1.76,2.35-2.37,8.08-8.26,17.71-16.9,27.14-24.34,4-3.16,8.04-6.45,11.94-9.64,8.64-7.06,17.57-14.36,26.94-20.78,18.45-12.66,39.23-24.47,63.53-36.12,7.95-3.81,15.17-6.79,24.55-8.94,.21-.08,.62-.25,1.13-.45,5.09-2.05,5.8-2.23,6.54-2.23,.41,0,.87,.1,1.24,.29,.82,.41,1.39,1.19,1.53,2.09,.31,1.91-1.13,3.34-4.59,6.8-1.21,1.21-2.46,2.46-3.25,3.39-2.54,3.01-5.03,6.17-7.44,9.23l-.56,.71c-2.63,3.34-5.13,6.85-7.54,10.24-3.89,5.46-7.91,11.11-12.65,16.3-14.62,16.03-31.23,30.22-52.26,44.67-9.93,6.82-33.08,18.43-44.03,23.11-9.57,4.09-23.03,5.29-34.91,6.35-3.76,.34-7.31,.65-10.42,1.04-.11,.01-.29,.03-.4,.03Zm166.88-115.92c-8.01,2-14.47,4.71-21.54,8.1-24.06,11.53-44.61,23.21-62.83,35.71-9.18,6.3-18.03,13.53-26.58,20.52-3.92,3.2-7.97,6.51-12.01,9.7-9.25,7.3-18.71,15.78-26.63,23.88-.61,.62-1.43,1.45-2.38,2.4-2.08,2.09-6.4,6.44-9.41,9.71,1.57-.15,3.19-.29,4.85-.44,11.48-1.02,24.5-2.18,33.29-5.94,10.76-4.6,33.44-15.96,43.11-22.61,20.69-14.21,37.01-28.15,51.35-43.87,4.52-4.95,8.27-10.22,12.24-15.8,2.45-3.44,4.99-7,7.69-10.44l.56-.71c2.44-3.09,4.95-6.3,7.55-9.37,.22-.26,.47-.54,.73-.82Z"/>
      <path class="cls-1" d="M236.81,362.86c-.88-.19-1.64-.83-1.96-1.68-.64-1.69-.39-2.03,6.05-10.72,2.23-3.01,5.01-6.76,5.59-7.83,1.68-3.11,9.86-15.03,17.06-25.54,2.65-3.87,17.28-26.49,22.23-34.8,7.11-11.95,14.46-24.3,22.98-35.42,11.43-14.92,27.14-28.54,46.69-40.45,2.72-1.66,5.41-3.34,8.11-5.01,5.32-3.31,10.82-6.74,16.39-9.92,.02-.02,.38-.26,.86-.6,6.68-4.62,6.94-4.71,8.25-4.43,.4,.09,.79,.27,1.12,.53,2.8,2.22,.98,6.6-2.1,13.02-.3,.63-.68,1.42-.76,1.64-4.64,14.37-11.65,28.24-17.89,39.9-18.76,35.06-54.46,73.68-88.85,96.1-5.28,3.45-8.63,5.65-11.95,7.84-3.37,2.22-6.72,4.43-12.02,7.89-3.4,2.22-6.76,3.84-12.87,6.78-1.51,.73-3.21,1.55-5.12,2.48-.53,.26-1.22,.35-1.79,.23Zm147.89-168.22c-.35,.24-.66,.45-.88,.61-.7,.48-1.19,.81-1.26,.85-5.47,3.13-10.93,6.53-16.21,9.81-2.71,1.69-5.42,3.38-8.15,5.04-18.98,11.58-34.2,24.75-45.24,39.15-8.33,10.88-15.6,23.09-22.63,34.91-4.98,8.37-10.13,17.02-15.63,25.16-1.7,2.51-4.12,6.04-6.78,9.93-6.42,9.37-15.22,22.2-16.78,25.07-.7,1.3-2.71,4.03-5.92,8.36,3.72-1.81,6.07-3.05,8.46-4.6,5.3-3.45,8.64-5.66,12-7.88,3.33-2.2,6.68-4.41,11.98-7.86,33.7-21.98,68.69-59.82,87.07-94.16,6.13-11.46,13.01-25.05,17.52-39.05,.15-.46,.44-1.07,1.02-2.28,.31-.64,.87-1.81,1.42-3.06Z"/>
      <path class="cls-1" d="M216.3,426.2c-2.35,0-5.27,0-16.47-30.9-5.67-15.64-10.99-32.51-12.8-38.99l-.3-1.05c-7.34-26.2-14.27-50.95-16.35-77.91-1.62-21.13-.25-43.03,1.08-64.21l.15-2.35c.4-6.44,.28-10.39,.15-14.56-.12-3.9-.25-7.93,.06-14.14,.12-2.45,.97-16.08,1.01-16.66,.07-1.16,.9-2.15,2.03-2.42,1.14-.27,2.32,.23,2.91,1.24,6.58,11.22,6.81,11.76,6.89,11.94,1.09,2.51,2.21,5.02,3.34,7.54,4.86,10.9,9.89,22.16,12.74,33.95,1.89,7.83,3.38,15.87,4.82,23.64,.99,5.35,2.02,10.88,3.16,16.27,3.84,18.1,7.26,36.59,10.44,56.52,.89,5.57,1.88,10.77,2.84,15.8,2.97,15.59,5.53,29.05,4.08,46.51-.21,2.46-1.42,14-2.85,25.19-2.9,22.77-3.84,23.32-5.27,24.14-.51,.29-1.09,.45-1.68,.45Zm-38.7-251.72c-.21,3.43-.41,6.8-.47,7.88-.3,5.99-.18,9.91-.06,13.71,.13,4.11,.26,8.37-.16,15.06l-.15,2.35c-1.32,21-2.68,42.72-1.08,63.47,2.03,26.44,8.9,50.94,16.16,76.88l.3,1.05c4.38,15.65,17.25,53.67,23.2,63.87,1.88-9.57,4.9-36.09,5.46-42.77,1.39-16.74-1.11-29.87-4-45.07-.96-5.07-1.96-10.3-2.87-15.95-3.17-19.84-6.57-38.24-10.39-56.25-1.16-5.45-2.19-11.02-3.19-16.41-1.43-7.7-2.91-15.66-4.76-23.36-2.73-11.31-7.66-22.35-12.43-33.03-1.13-2.54-2.26-5.07-3.36-7.6-.14-.28-1.04-1.83-2.2-3.83Z"/>
      <path class="cls-1" d="M159.86,541.38c-1.74,0-2.56-.76-6.07-7.71-2.33-4.62-4.91-10.33-7.25-16.07-4.74-11.64-10.72-28.72-12.3-44.05-4.15-40.18-3.97-80.1,.61-133.49,.96-11.24,1.83-22.22,1.83-32.87v-.63c-.08-7.36,.3-9.1,1.19-10.22,.5-.63,1.28-1,2.08-1,2.05,0,2.48,1.34,3.53,4.59,.57,1.77,1.37,4.33,2.31,7.45,1.79,5.91,4.22,14.12,7.03,23.74,5.53,18.94,11.24,39.01,13.58,47.71,6.69,24.84,8.06,49.11,8.06,77.91,0,10.28-9.06,75.25-12.08,82.93-.4,1.02-1.43,1.72-2.52,1.72Zm-17.95-228.5c-.23,9.04-.97,18.24-1.77,27.63-4.55,53.04-4.73,92.67-.62,132.5,2.22,21.52,13.75,48.11,19.34,58.99,3.58-17.79,10.3-67.47,10.3-75.26,0-28.38-1.34-52.25-7.88-76.53-3.62-13.44-13.56-47.92-19.37-67.31Z"/>
      <path class="cls-1" d="M100.45,660.61c-.58,0-1.22-.22-1.68-.56-17.69-13.28-33.1-101.9-34.41-118.54-2.48-31.43,2.35-60.46,7.4-84.71,1.22-5.84,2.46-11.13,3.67-16.24,1.83-7.77,3.57-15.11,5.07-23.8,.59-3.36,4.82-13.37,7.96-17.3,.57-.71,1.41-1.12,2.3-1.12,1.72,0,3.5,0,8.79,15.87,1.27,3.81,2.7,7.71,4.08,11.49,2.52,6.89,5.12,14.01,7.01,21.15,12.61,47.65,15.08,98.8,6.78,140.33-.9,4.5-1.66,8.14-2.36,11.43-1.67,7.98-2.88,13.74-4.57,24.68-.33,2.12-1.78,10.93-3.34,19.14-3.31,17.41-4.18,18.19-6.7,18.19Zm-9.75-254.85c-2.27,4.11-4.64,10.05-4.96,11.9-1.54,8.84-3.29,16.25-5.14,24.11-1.2,5.08-2.44,10.34-3.64,16.11-4.98,23.88-9.73,52.45-7.31,83.21,1.44,18.18,15.48,94.24,29.79,112.18,1.78-7.06,4.7-23.65,5.8-30.79,1.7-11.09,2.93-16.91,4.62-24.97,.69-3.28,1.45-6.9,2.35-11.38,8.15-40.76,5.71-91.03-6.71-137.92-1.83-6.9-4.39-13.91-6.86-20.69-1.39-3.81-2.83-7.76-4.13-11.64-1.3-3.91-2.73-7.67-3.82-10.12Z"/>
      <path class="cls-1" d="M77.3,764.27c-1,0-4.05,0-25.65-21.73-10.39-10.45-22.73-23.87-26.2-30.2C3.02,671.44,0,622.14,0,579.3c0-11.5,.8-22.93,1.57-33.98,.31-4.44,.62-8.89,.88-13.37,.53-8.88,.84-11.69,3.88-11.69,2.44,0,4.69,2.5,9.63,10.7,.26,.43,.45,.76,.57,.94,7.66,11.91,15.64,24.64,21.63,37.71,5.13,11.19,9.3,22.45,12.4,33.48,4.72,16.8,10.6,38.92,14.16,60.97,1.44,8.95,2.12,18.1,2.78,26.95,.74,9.91,1.5,20.16,3.34,29.99,.66,3.52,1.61,7.3,2.92,12.53,1.55,6.18,3.68,14.65,6.38,27.03,.29,1.33-.23,2.22-.56,2.64-.55,.68-1.38,1.07-2.29,1.07ZM8.03,528.38c-.09,1.03-.18,2.31-.27,3.89-.26,4.5-.58,8.97-.89,13.43-.77,10.96-1.56,22.29-1.56,33.61,0,42.16,2.95,90.64,24.8,130.49,5.04,9.19,32.48,36.93,43.59,46.24-2.1-9.3-3.8-16.06-5.09-21.22-1.33-5.32-2.3-9.16-2.99-12.84-1.9-10.11-2.67-20.51-3.41-30.57-.65-8.74-1.32-17.78-2.73-26.49-3.51-21.79-9.34-43.71-14.03-60.38-3.03-10.77-7.1-21.77-12.12-32.71-5.85-12.76-13.72-25.3-21.27-37.05-.13-.21-.36-.58-.65-1.07-1.44-2.39-2.54-4.1-3.39-5.32Z"/>
      <path class="cls-1" d="M251.8,310.77c-.62,.5-1.49,.66-2.25,.4-1.52-.51-1.61-.87-3.96-10.14-.82-3.22-1.83-7.22-2.24-8.21-1.19-2.89-4.78-15.16-7.95-25.98-1.17-3.98-2.23-7.61-3-10.17-2.46-8.19-5.48-16.49-8.41-24.53-4.21-11.55-8.56-23.5-11.41-35.56-3.83-16.18-4.37-34.56-1.6-54.62,.38-2.79,.74-5.57,1.1-8.36,.71-5.5,1.44-11.19,2.37-16.78,0-.03,.03-.4,.07-.93,.57-7.16,.65-7.39,1.58-8.13,.28-.23,.63-.39,.99-.47,3.08-.67,5.07,3.02,7.75,8.72,.26,.56,.59,1.26,.7,1.44,7.25,11.22,12.83,23.78,17.33,34.58,13.53,32.47,20.01,78.54,16.14,114.65-.6,5.55-.95,9.08-1.31,12.58-.36,3.55-.72,7.08-1.32,12.65-.38,3.57-1.15,6.78-2.55,12.61-.35,1.45-.74,3.06-1.17,4.9-.12,.51-.44,1.03-.84,1.36Zm-32.53-195.45c-.03,.38-.06,.71-.08,.94-.06,.75-.11,1.27-.12,1.34-.92,5.5-1.64,11.14-2.34,16.6-.36,2.8-.72,5.6-1.11,8.4-2.69,19.48-2.18,37.28,1.52,52.9,2.79,11.8,7.1,23.61,11.26,35.04,2.95,8.09,6,16.46,8.49,24.78,.77,2.57,1.84,6.2,3.01,10.2,2.83,9.64,6.7,22.85,7.79,25.52,.49,1.21,1.25,4.11,2.42,8.74,.84-3.56,1.31-5.87,1.58-8.37,.6-5.56,.96-9.08,1.32-12.63,.36-3.51,.72-7.04,1.31-12.6,3.79-35.39-2.56-80.54-15.81-112.34-4.42-10.61-9.89-22.93-16.95-33.86-.23-.36-.49-.9-.99-1.97-.27-.57-.75-1.61-1.3-2.68Z"/>
      <path class="cls-1" d="M325.61,6.62l-1.21-6.62-3.63,5.66c-.64,1-15.85,24.96-28.74,66.49-11.83,38.14-23.68,98.75-13.12,171.19-6.63,15.31-12.88,28.27-17.87,38.07-7.76,15.27-19.86,50.68-20.37,52.18l5.03,1.71c.12-.36,12.49-36.55,20.08-51.48,24.45-48.1,79.22-171.41,59.84-277.21Zm-42.63,227.13c-8.25-67.46,2.91-123.81,14.06-159.83,8.93-28.85,19.21-49.42,24.55-59.12,11.49,76.56-14.74,161.47-38.61,218.94Z"/>
      <path class="cls-1" d="M320.28,15.08c-.3,34.12-11.99,66.7-19.42,99.65-.38,1.67,2.18,2.38,2.56,.71,7.48-33.19,19.22-65.99,19.52-100.36,.01-1.71-2.64-1.71-2.66,0Z"/>
      <path class="cls-1" d="M296.39,139.87c-3.7,32.08-8.64,64.17-17.65,95.23-.48,1.65,2.08,2.35,2.56,.71,9.08-31.29,14.02-63.62,17.75-95.94,.2-1.7-2.46-1.68-2.66,0Z"/>
      <path class="cls-1" d="M313.59,277.88c-11.64,12.72-22.44,26.03-35.32,37.56-11.67,10.44-24.06,20.51-33.03,33.51-.98,1.41,1.33,2.74,2.29,1.34,8.82-12.77,21.1-22.74,32.62-32.97,12.92-11.48,23.69-24.85,35.32-37.56,1.15-1.26-.72-3.14-1.88-1.88Z"/>
      <path class="cls-1" d="M385.28,186.72c-22.21,26.12-35.96,58.52-61.07,82.31-1.24,1.18,.64,3.05,1.88,1.88,25.12-23.8,38.85-56.18,61.07-82.31,1.1-1.3-.77-3.18-1.88-1.88Z"/>
      <path class="cls-1" d="M281.73,400.9c-20.4,16.01-40.66,33.04-66.68,38.6-1.67,.36-.96,2.92,.71,2.56,26.44-5.65,47.11-23.01,67.85-39.28,1.35-1.06-.55-2.92-1.88-1.88Z"/>
      <path class="cls-1" d="M376.7,329c-13.7,8.46-24.57,20.16-36.42,30.89-12.29,11.13-27.32,18.77-39.96,29.49-1.31,1.11,.58,2.98,1.88,1.88,12.09-10.26,26.07-17.95,38.29-28.05,12.77-10.56,23.31-23.12,37.56-31.92,1.45-.9,.12-3.2-1.34-2.29Z"/>
      <path class="cls-1" d="M240.72,491.71c-23.49,9.89-47.53,18.55-70.23,30.22-1.52,.78-.18,3.07,1.34,2.29,22.5-11.57,46.32-20.16,69.6-29.96,1.55-.65,.87-3.22-.71-2.56Z"/>
      <path class="cls-1" d="M358.11,431.66c-30.51,15.15-54.3,44.29-89.07,50.31-1.68,.29-.97,2.85,.71,2.56,35.03-6.06,58.98-35.32,89.7-50.58,1.53-.76,.19-3.05-1.34-2.29Z"/>
      <path class="cls-1" d="M201.78,591.72c-29.48,9.28-58.79,21.03-83.51,39.96-1.34,1.03-.02,3.33,1.34,2.29,24.55-18.8,53.59-30.47,82.87-39.69,1.63-.51,.93-3.08-.71-2.56Z"/>
      <path class="cls-1" d="M338.96,541.27c-35.5,9.87-69.63,23.79-103.55,38.06-1.55,.65-.87,3.22,.71,2.56,33.91-14.27,68.05-28.19,103.55-38.06,1.65-.46,.95-3.02-.71-2.56Z"/>
      <path class="cls-1" d="M143.94,713.1c-12.55,5.96-24.89,12.39-36.59,19.89-10.01,6.42-21.81,14.43-26.72,25.72-.68,1.55,1.61,2.91,2.29,1.34,5.21-11.98,18.21-20.03,28.82-26.71,10.74-6.75,22.09-12.52,33.54-17.95,1.55-.73,.2-3.02-1.34-2.29Z"/>
      <path class="cls-1" d="M275.81,635.22c-37.92,18.87-65.69,55.05-107.66,66.24-1.65,.44-.95,3,.71,2.56,42.22-11.26,70.15-47.53,108.29-66.51,1.53-.76,.19-3.05-1.34-2.29Z"/>
      <path class="cls-1" d="M23.75,624.51c-6.78-32.18-7.25-65.35-15.05-97.35-.41-1.66-2.97-.96-2.56,.71,7.79,32,8.26,65.17,15.05,97.35,.35,1.68,2.91,.96,2.56-.71Z"/>
      <path class="cls-1" d="M73.18,754.29c-11.11-17.98-18.46-38.34-26.17-57.94-6.94-17.64-16.65-36.12-16.13-55.55,.05-1.71-2.61-1.71-2.66,0-.51,19.05,8.57,37.35,15.56,54.59,8.23,20.3,15.54,41.53,27.1,60.25,.9,1.45,3.19,.12,2.29-1.34Z"/>
      <path class="cls-1" d="M91.95,406.26c-.04-1.71-2.69-1.71-2.66,0,.79,34.25-2.57,68.42-2.66,102.66,0,1.71,2.65,1.71,2.66,0,.09-34.24,3.45-68.41,2.66-102.66Z"/>
      <path class="cls-1" d="M91.95,531.93c-.01-1.71-2.67-1.71-2.66,0,.35,39.54,20.14,80.94,7.13,120.01-.54,1.63,2.02,2.32,2.56,.71,13.11-39.35-6.68-80.96-7.03-120.72Z"/>
      <path class="cls-1" d="M150.31,400.6c-3.63-15.07-.9-30.78-2.89-46.06-1.96-15.02-7.36-29.43-6.8-44.75,.06-1.71-2.59-1.71-2.66,0-.59,15.99,5.03,31.21,7.08,46.91,1.93,14.83-.83,29.93,2.7,44.6,.4,1.66,2.96,.96,2.56-.71Z"/>
      <path class="cls-1" d="M163.59,530.7c-9.86-35.83-9.69-73.41-9.69-110.28,0-1.71-2.66-1.71-2.66,0,0,37.1-.14,74.93,9.78,110.98,.45,1.65,3.02,.95,2.56-.71Z"/>
      <path class="cls-1" d="M195.45,290.85c-6.92-17.17-7.7-36.09-9.33-54.31-1.96-21.95-7.21-43.61-7.44-65.7-.02-1.71-2.67-1.71-2.66,0,.22,22.08,5.4,43.77,7.44,65.7,1.71,18.44,2.42,37.63,9.43,55.02,.63,1.57,3.2,.88,2.56-.71Z"/>
      <path class="cls-1" d="M214.92,420.07c-4.18-17.46-.2-35.46-2.66-53.1-2.7-19.42-9.59-38.08-12.39-57.53-.24-1.69-2.8-.97-2.56,.71,2.68,18.64,8.27,36.66,11.93,55.1,3.64,18.34-1.27,37.22,3.11,55.53,.4,1.66,2.96,.96,2.56-.71Z"/>
      <path class="cls-1" d="M232.62,188.19c-6.59-24.72-12.2-49.15-12.34-74.87,0-1.71-2.66-1.71-2.66,0,.15,25.96,5.79,50.62,12.44,75.58,.44,1.65,3,.95,2.56-.71Z"/>
      <path class="cls-1" d="M252.09,308.55c-4.45-16.14-3.64-33.19-5.05-49.74-1.54-18.01-11.32-34.18-10.83-52.57,.05-1.71-2.61-1.71-2.65,0-.5,18.38,9.06,34.59,10.83,52.57,1.65,16.82,.62,34.02,5.15,50.45,.45,1.65,3.02,.95,2.56-.71Z"/>
    </g>
  </g>
</svg>