<svg width="4413" height="4413" viewBox="0 0 4413 4413" fill="none" xmlns="http://www.w3.org/2000/svg">
<path d="M1720.51 905.746C1708.14 918.123 1700.78 935.508 1700.78 952.892C1700.78 970.601 1708.14 987.993 1720.51 1000.36C1732.89 1012.72 1750.27 1019.75 1767.64 1019.75C1785.34 1019.75 1802.42 1012.72 1815.11 1000.36C1827.48 987.64 1834.5 970.601 1834.5 952.892C1834.5 935.508 1827.48 918.123 1815.11 905.746C1790.04 881.008 1745.25 880.692 1720.51 905.746Z" fill="white"/>
<path d="M2206.23 4111.44C2169.33 4111.44 2139.37 4141.4 2139.37 4178.3V4345.5C2139.37 4382.44 2169.33 4412.36 2206.23 4412.36C2243.16 4412.36 2273.09 4382.44 2273.09 4345.5V4178.3C2273.09 4141.4 2243.16 4111.44 2206.23 4111.44Z" fill="white"/>
<path d="M1724 4047.95C1688.33 4038.32 1651.67 4059.56 1642.13 4095.21L1598.89 4256.7C1589.3 4292.35 1610.48 4329.01 1646.15 4338.57C1651.94 4340.12 1657.76 4340.86 1663.5 4340.86C1693.01 4340.86 1720.03 4321.16 1728.01 4291.27L1771.28 4129.82C1780.84 4094.14 1759.66 4057.47 1724 4047.95" fill="white"/>
<path d="M2770.43 4095.21C2760.9 4059.56 2724.21 4038.36 2688.56 4047.95C2652.91 4057.47 2631.73 4094.14 2641.26 4129.82L2684.49 4291.27C2692.47 4321.16 2719.5 4340.86 2749.01 4340.86C2754.74 4340.86 2760.6 4340.12 2766.35 4338.57C2802 4329.01 2823.21 4292.35 2813.65 4256.7L2770.43 4095.21" fill="white"/>
<path d="M2206.3 300.915C2243.18 300.915 2273.14 270.992 2273.14 234.06V66.8538C2273.14 29.9223 2243.18 -0.000977472 2206.3 -0.000977472C2169.33 -0.000977472 2139.44 29.9223 2139.44 66.8538V234.06C2139.44 270.992 2169.33 300.915 2206.3 300.915Z" fill="white"/>
<path d="M2688.49 364.409C2694.31 365.976 2700.14 366.696 2705.86 366.696C2735.35 366.696 2762.38 347.01 2770.36 317.124L2813.65 155.675C2823.21 120.009 2802.03 83.3493 2766.39 73.8039C2730.74 64.0967 2694.01 85.401 2684.52 121.068L2641.22 282.538C2631.66 318.19 2652.87 354.849 2688.49 364.409Z" fill="white"/>
<path d="M1642.13 317.124C1650.12 347.01 1677.14 366.696 1706.64 366.696C1712.39 366.696 1718.21 365.976 1724 364.409C1759.66 354.849 1780.84 318.19 1771.28 282.538L1728.01 121.068C1718.46 85.401 1681.72 64.0967 1646.15 73.8039C1610.48 83.3493 1589.3 120.009 1598.89 155.675L1642.13 317.124Z" fill="white"/>
<path d="M133.717 3728.61V2729.52H1153.4C1242.56 3230.09 1680.54 3611.51 2206.16 3611.51C2731.85 3611.51 3169.81 3230.09 3258.98 2729.52H4278.62V3728.61H133.717ZM1137.9 2595.81H133.717V2395.14H1146.77C1140.18 2443.01 1136.51 2491.78 1136.51 2541.45C1136.51 2559.68 1136.98 2577.8 1137.9 2595.81ZM3142.14 2541.45C3142.14 3057.74 2722.29 3477.79 2206.16 3477.79C1690.07 3477.79 1270.23 3057.74 1270.23 2541.45C1270.23 2025.11 1690.07 1605.08 2206.16 1605.08C2722.29 1605.08 3142.14 2025.11 3142.14 2541.45ZM3265.62 2395.14H4278.62V2595.81H3274.5C3275.38 2577.8 3275.85 2559.68 3275.85 2541.45C3275.85 2491.78 3272.21 2443.01 3265.62 2395.14ZM1036.3 1354.28H4278.62V2261.42H3238.48C3115.08 1806.79 2699.16 1471.36 2206.16 1471.36C1713.21 1471.36 1297.29 1806.79 1173.92 2261.42H133.717V1354.28H1036.3ZM1267.53 685.452H3144.97L3198.96 886.156H2102C2065.04 886.156 2035.13 916.079 2035.13 953.018C2035.13 989.92 2065.04 1019.87 2102 1019.87H3234.95L3288.98 1220.58H1123.52L1267.53 685.452ZM463.246 1013.89H663.818V1214.57H463.246V1013.89ZM4345.48 1220.58H3427.4L3260.74 601.25C3252.9 572.04 3226.43 551.757 3196.2 551.757H1216.3C1186.06 551.757 1159.6 572.04 1151.75 601.25L985.06 1220.58H797.505V947.039C797.505 910.107 767.582 880.177 730.665 880.177H396.385C359.482 880.177 329.537 910.107 329.537 947.039V1220.58H66.8619C29.9305 1220.58 0 1250.5 0 1287.42V3795.48C0 3832.37 29.9305 3862.33 66.8619 3862.33H4345.48C4382.44 3862.33 4412.33 3832.37 4412.33 3795.48V1287.42C4412.33 1250.5 4382.44 1220.58 4345.48 1220.58" fill="white"/>
<path d="M2543.47 2457.45C2531.11 2469.81 2523.75 2486.84 2523.75 2504.58C2523.75 2522.32 2531.11 2539.36 2543.47 2552.04C2555.86 2564.4 2573.22 2571.44 2590.59 2571.44C2608.31 2571.44 2625.37 2564.4 2638.06 2551.7C2650.45 2539.36 2657.45 2522.32 2657.45 2504.58C2657.45 2487.17 2650.45 2469.81 2638.06 2457.11C2613.01 2432.37 2568.21 2432.71 2543.47 2457.45Z" fill="white"/>
<path d="M2525.36 2222.23C2440.13 2136.99 2326.81 2090.07 2206.23 2090.07H2206.2C2085.61 2090.07 1972.28 2137.01 1887.13 2222.23C1711.18 2398.24 1711.18 2684.61 1887.13 2860.61C1900.19 2873.64 1917.3 2880.16 1934.43 2880.16C1951.53 2880.16 1968.63 2873.64 1981.7 2860.61C2007.79 2834.52 2007.79 2792.17 1981.71 2766.04C1857.86 2642.19 1857.86 2440.62 1981.73 2316.77C2041.63 2256.8 2121.32 2223.78 2206.2 2223.78C2291.06 2223.78 2370.84 2256.77 2430.76 2316.77C2456.88 2342.9 2499.24 2342.93 2525.36 2316.77C2551.45 2290.71 2551.45 2248.35 2525.36 2222.23" fill="white"/>
<path d="M2206.23 3143.37C1874.47 3143.37 1604.56 2873.37 1604.56 2541.45C1604.56 2209.5 1874.47 1939.47 2206.23 1939.47C2538.01 1939.47 2807.93 2209.5 2807.93 2541.45C2807.93 2873.37 2538.01 3143.37 2206.23 3143.37ZM2206.23 1805.77C1800.75 1805.77 1470.85 2135.78 1470.85 2541.45C1470.85 2947.05 1800.75 3277.09 2206.23 3277.09C2611.74 3277.09 2941.64 2947.05 2941.64 2541.45C2941.64 2135.78 2611.74 1805.77 2206.23 1805.77Z" fill="white"/>
<path d="M3844.12 1707.31C3899.43 1707.31 3944.41 1752.33 3944.41 1807.66C3944.41 1862.99 3899.43 1908.01 3844.12 1908.01C3788.81 1908.01 3743.84 1862.99 3743.84 1807.66C3743.84 1752.33 3788.81 1707.31 3844.12 1707.31ZM3844.12 2041.71C3973.15 2041.71 4078.12 1936.71 4078.12 1807.66C4078.12 1678.6 3973.15 1573.59 3844.12 1573.59C3715.1 1573.59 3610.13 1678.6 3610.13 1807.66C3610.13 1936.71 3715.1 2041.71 3844.12 2041.71Z" fill="white"/>
</svg>
