<svg width="1822" height="1887" viewBox="0 0 1822 1887" fill="none" xmlns="http://www.w3.org/2000/svg">
<path d="M176.41 687.55C176.41 687.55 176.838 687.426 177.327 687.291C176.974 687.449 176.543 687.55 176.41 687.55ZM674.029 1179.54C684.923 1175.29 695.163 1170.15 705.392 1165.29C703.554 1181.79 699.02 1222.69 698.998 1223.07C699.032 1224.51 700.227 1225.66 701.671 1225.63C720.944 1225.18 740.139 1224.16 759.3 1222.44C768.875 1221.51 778.45 1220.49 787.946 1218.89C792.671 1218.03 797.419 1217.21 802.065 1215.94C804.422 1215.43 806.7 1214.63 808.967 1213.83C811.302 1213.19 813.343 1211.82 815.497 1210.79C813.275 1211.73 811.211 1212.98 808.854 1213.5C806.565 1214.2 804.276 1214.88 801.907 1215.28C797.25 1216.33 792.49 1216.93 787.754 1217.55C778.247 1218.71 768.672 1219.26 759.119 1219.75C741.019 1220.54 722.861 1220.63 704.772 1220.29L713.693 1159.4C713.783 1158.75 713.715 1158.06 713.444 1157.4C712.644 1155.49 710.445 1154.58 708.403 1155.42C695.671 1160.73 683.434 1166.69 670.893 1171.07C664.634 1173.26 658.307 1175.07 651.992 1176.02C648.716 1176.47 645.901 1176.73 642.725 1176.67L640.169 1176.58C640.169 1176.58 639.531 1176.55 639.315 1176.5L638.509 1176.37C637.451 1176.15 636.46 1175.69 635.544 1175.1C633.698 1173.94 632.323 1172.01 631.681 1169.99C631.082 1167.69 631.165 1166.58 632.201 1162.92C633.932 1155.71 634.641 1148.73 635.288 1141.84C635.923 1134.97 636.35 1128.16 637.148 1121.67L637.844 1116.92L638.059 1115.65C638.209 1114.73 638.284 1113.29 637.994 1112.07C637.482 1109.53 635.887 1107.21 633.619 1105.84C631.306 1104.46 628.469 1103.95 625.491 1105.02C623.31 1105.94 622.896 1106.37 622.261 1106.64C620.976 1107.39 619.61 1108.08 618.169 1108.7C606.759 1113.76 593.618 1116.5 580.556 1118.58C573.993 1119.59 567.362 1120.38 560.701 1121.01C554.472 1121.37 545.882 1122.77 543.793 1121.5C540.432 1120.47 538.004 1116.52 538.08 1113.9C538.036 1113.75 538.159 1111.85 538.137 1112.06L538.343 1109.47L538.753 1104.32L539.573 1093.99C539.573 1093.99 542.833 1052.66 542.855 1052.15C542.938 1047.49 539.233 1043.66 534.581 1043.58L533.731 1043.56C504.286 1043.05 474.453 1036.65 445.769 1027.9L443.016 1027.05C442.205 1026.77 442.002 1026.68 441.491 1026.47C440.619 1026.09 439.857 1025.51 439.126 1024.93C437.72 1023.66 436.663 1021.97 436.139 1020.14C435.87 1019.23 435.787 1018.28 435.755 1017.35C435.857 1016.07 435.685 1016.66 436.293 1014.08L439.367 1003.47L452.188 959.085C452.443 958.183 452.606 957.191 452.619 956.21C452.711 950.154 447.874 945.157 441.526 945.056C414.257 944.639 386.754 937.68 360.753 927.417L351.097 923.391C348.511 922.297 343.097 919.816 343.912 920.053C343.533 919.67 343.212 919.196 343.173 918.564C342.956 918.136 343.555 917.008 343.309 917.392L370.265 883.975C371.141 882.87 371.886 881.573 372.38 880.175C374.737 873.487 371.229 866.157 364.282 863.709C328.96 851.247 295.854 832.289 266.391 809.012C262.632 806.069 259.32 803.272 255.461 800.035C253.91 798.648 254.522 798.93 254.28 798.129C254.222 797.475 254.691 796.866 255.003 796.607C252.28 797.554 259.205 794.983 263.29 793.968C272.271 791.396 281.312 789.129 290.1 787.686C298.682 786.197 307.929 785.644 313.238 786.941C321.031 788.859 328.991 784.224 331.123 776.442C333.291 768.525 328.634 760.348 320.55 758.138C300.259 752.578 280.382 746.139 261.518 738.131C242.716 729.989 225.147 720.154 209.019 707.805C200.932 701.704 193.024 695.005 185.416 688.148L183.089 686.005L188.328 684.844L203.975 681.246C214.209 678.979 224.341 676.87 233.377 676.104C240.139 675.528 246.095 670.701 247.769 663.743C249.866 655.037 244.504 646.285 235.8 644.187L234.826 643.962C229.152 642.597 223.43 641.639 217.821 639.563C212.134 637.996 206.663 635.391 201.103 633.169C195.733 630.361 190.169 628.004 185.002 624.688C179.684 621.688 174.578 618.282 169.551 614.73C149.41 600.576 131.599 582.723 116.59 563.134C113.083 558.059 109.238 553.187 106.153 547.886C102.757 542.744 99.85 537.375 97.008 531.973C94.175 526.425 92.0965 521.846 89.6639 515.824L87.255 509.215L88.6952 509.756L98.5452 513.252C105.251 515.485 112.168 517.56 119.78 519.06C127.476 520.357 135.604 521.88 146.833 519.32C150.547 518.474 154.014 516.342 156.463 513.049C161.913 505.696 160.376 495.321 153.031 489.874L152.578 489.535C132.882 474.919 114.181 458.589 96.8456 441.244C79.7395 423.763 63.6551 405.132 51.58 384.945C48.3512 379.972 45.9321 374.761 43.2356 369.664C41.0116 364.453 38.6196 359.13 37.3373 354.585L36.108 350.999L35.1212 346.33L34.1299 341.65C34.1299 341.65 34.0239 341.153 33.919 340.657C34.0115 339.18 34.2269 338.21 35.4471 337.342C36.346 336.462 38.5181 336.405 38.3331 336.428C36.7599 335.492 41.3725 337.736 40.1872 337.127L44.3115 339.383L52.6548 343.995C58.2756 347.097 63.99 350.243 70.0124 353.311C76.3516 356.333 81.7616 359.457 91.4887 361.983C96.0697 363.145 101.189 362.344 105.286 359.311C112.519 353.954 114.044 343.747 108.374 336.09C72.4484 287.573 49.3459 229.695 40.0417 169.799C35.3502 139.822 34.4649 109.271 37.0768 79.0804C37.7072 71.4905 38.4786 63.9682 39.7203 56.7166C40.3022 53.0288 40.7296 49.4425 41.421 45.6532L41.9183 43.2623C55.0772 72.2687 71.1176 99.9104 88.3027 126.673C105.912 153.762 125.889 179.159 146.943 203.474C168.485 227.315 190.697 250.548 214.544 271.863C238.038 293.584 262.69 313.85 287.655 333.597C312.802 353.108 338.26 372.145 364.221 390.37C390.019 408.786 416.386 426.628 442.602 444.142C468.955 461.713 495 479.216 520.846 497.328C546.603 515.463 572.459 533.485 597.614 552.375C622.487 571.288 648.161 590.573 669.405 612.215C672.066 614.73 674.593 617.707 677.029 620.887C678.134 622.32 679.792 624.181 680.446 625.286L683.773 630.169L697.069 649.759L723.809 688.96C741.898 714.922 760.732 740.658 782.51 763.8C804.016 787.167 828.275 807.828 853.785 826.414C829.132 806.632 806.024 785.002 785.803 760.878C765.39 736.936 747.413 711.076 730.384 684.562L705.076 644.548L692.445 624.474L689.276 619.455C687.867 617.177 686.852 616.106 685.611 614.369C683.344 611.189 680.886 608.042 677.942 604.974C655.691 580.682 631.138 561.149 606.491 540.95C557.071 501.14 505.488 464.217 453.584 428.116C427.645 409.97 402.046 391.847 376.803 373.013C351.437 354.394 326.682 335.041 302.317 315.305C278.148 295.332 254.377 274.942 231.923 253.277C209.081 231.985 188.063 209 167.746 185.554C148.009 161.622 129.304 136.924 112.651 110.884C96.2682 84.7193 80.9947 57.8106 68.6286 29.4809L63.8265 18.9473L62.6243 16.3084L61.4616 13.8836C61.4616 13.8836 61.1176 13.2295 60.9462 12.9025L60.2763 11.8198C58.2542 8.71844 56.3776 6.9816 54.3115 5.41399C52.1788 3.8351 49.8128 2.61718 47.3723 1.82773C37.7647 -1.3526 26.3505 1.66978 19.7857 10.6469C16.5309 14.7858 15.3276 21.2594 15.2227 21.8684L13.9539 27.6539C12.1912 35.2664 10.5481 43.0818 9.33682 51.5514C7.83011 59.8744 6.90082 68.0507 6.13394 76.2046C2.94458 108.899 3.56148 141.977 8.28349 174.502C14.9362 220.154 29.4293 264.701 50.9146 305.685C50.4251 305.516 49.9898 305.358 49.1609 305.065C36.7779 301.095 25.1167 303.925 15.7776 310.534C6.49933 317.03 0.499572 328.725 0.564983 340.387L0.855944 344.638L0.961949 345.698L1.2484 347.277L1.49538 348.439L2.46415 353.119L3.43743 357.799L5.11216 363.325C7.29667 371.073 10.1736 377.366 12.9536 383.885C16.1249 390.076 19.1519 396.426 22.8262 402.178C29.7913 414.053 37.8346 424.902 46.214 435.334C54.5664 445.823 63.6371 455.488 72.8183 465.017C76.2761 468.491 79.9989 471.626 83.5412 474.987C70.0519 475.528 58.0467 484.562 54.078 497.847C51.924 504.489 52.9852 512.982 55.0287 517.933L58.4606 527.237C60.9462 533.473 64.2934 540.996 67.5403 547.165C70.8706 553.469 74.307 559.694 78.2102 565.593C81.836 571.705 86.1836 577.254 90.2413 583.017C107.426 605.302 127.506 625.263 150.688 641.469C156.477 645.529 162.389 649.431 168.608 652.916C170.103 653.864 171.71 654.642 173.269 655.488L171.437 655.905L168.415 656.672L167.45 656.965C166.697 657.224 165.657 657.619 164.798 658.003C162.833 658.837 161.555 659.66 160.3 660.495C149.882 667.6 145.533 680.806 149.186 692.524C150.097 695.445 151.463 698.276 153.274 700.7C154.86 703.057 157.79 705.674 158.261 706.08L164.256 711.471C172.689 718.903 181.27 726.03 190.407 732.774C208.584 746.387 228.914 757.484 249.655 766.157C250.416 766.472 251.188 766.743 251.95 767.048L247.786 768.344C244.46 769.483 245.438 769.168 242.932 770.25C241.668 770.882 240.421 771.581 239.223 772.325L236.443 774.423C229.319 780.445 225.218 789.558 225.522 798.704C225.632 803.272 226.781 807.873 228.905 812.012C230.795 816.049 234.627 819.952 237.169 822.027C240.8 825.038 245.042 828.432 249.034 831.421C276.572 852.229 306.802 869.517 339.048 882.058L336.626 885.193L329.943 893.821L326.603 898.129L324.934 900.294L323.67 901.964L322.899 903.08C318.727 909.587 317.731 916.072 318.85 922.805C319.969 929.38 323.758 935.504 329.15 939.552C331.837 941.627 335.286 943.015 336.392 943.488L341.577 945.676L352.168 949.815C376.089 958.646 401.265 965.029 427.262 966.709L418.988 997.825L415.896 1009.49C415.566 1010.64 414.826 1015.06 414.979 1017.64C415.076 1020.55 415.508 1023.45 416.389 1026.21C418.138 1031.74 421.456 1036.73 425.914 1040.48C428.165 1042.32 430.636 1043.89 433.306 1045.03C434.557 1045.57 436.187 1046.12 437.209 1046.42L439.98 1047.22C467.284 1054.89 495.294 1060.34 524.128 1061.34L522.277 1092.94L521.695 1103.01L521.401 1108.05L521.255 1110.58C521.175 1112.47 521.167 1112.29 521.207 1113.85C521.647 1124.98 529.057 1133.74 538.74 1136.84C543.393 1138.57 549.406 1137.94 552.057 1137.58L562.424 1136.36C569.313 1135.47 576.195 1134.41 583.062 1133.1C596.782 1130.39 610.539 1127.16 623.905 1120.71C624.147 1120.58 624.38 1120.43 624.623 1120.31C624.002 1127.43 623.821 1134.24 623.433 1140.96C623.051 1147.66 622.566 1154.3 621.311 1160.42C620.433 1163.27 619.668 1169.22 621.429 1173.44C623.01 1177.85 626.051 1181.64 630.054 1184.01C632.051 1185.18 634.249 1186.06 636.548 1186.46C637.117 1186.58 637.698 1186.62 638.276 1186.68L639.328 1186.76L639.968 1186.77H642.526C646.17 1186.73 650.154 1186.26 653.605 1185.63C660.743 1184.29 667.51 1182.08 674.029 1179.54" fill="black"/>
<path d="M1348.67 981.867C1350.41 981.833 1352.17 981.844 1353.97 981.9C1357.53 981.979 1361.11 982.261 1364.67 982.645C1371.79 983.446 1378.77 984.878 1385.44 986.885C1388.79 987.866 1392.02 989.096 1395.18 990.404C1396.82 990.968 1398.24 991.87 1399.79 992.569C1401.31 993.314 1402.87 994.002 1404.24 994.938C1407.16 996.584 1409.95 998.4 1412.52 1000.44C1415.32 1002.25 1417.42 1004.78 1419.95 1006.85L1421.28 1007.93C1425.68 1011.5 1431.78 1012.73 1437.49 1010.67C1446.15 1007.52 1450.63 997.96 1447.48 989.299C1441.48 972.754 1432.66 956.898 1422.02 943.229C1416.74 936.417 1411.03 930.102 1406.09 924.406C1403.67 921.587 1401.38 918.847 1399.83 916.58C1399.12 915.497 1398.41 914.414 1398.14 913.738C1397.9 913.32 1397.81 913.038 1397.75 912.824C1397.6 898.919 1396.73 884.731 1394.06 870.239C1391.42 855.014 1385.71 839.169 1377.51 825.568C1373.48 818.756 1369.02 812.542 1364.67 806.745L1361.42 802.448L1359.45 799.922L1357.77 797.892C1355.85 795.501 1352.07 791.486 1349.39 788.915C1337.82 777.829 1324.94 769.055 1311 762.13C1297.09 755.206 1282.03 750.063 1265.41 748.496C1263.36 748.248 1261.2 748.281 1259.09 748.191L1257.5 748.146L1255.61 748.18L1252.99 748.293C1249.34 748.518 1246.26 748.439 1242.16 748.913C1234.09 749.646 1226.43 750.808 1218.8 752.736C1203.51 756.458 1188.61 763.664 1176.33 772.472C1163.87 781.19 1153.3 790.629 1142.6 798.952C1137.24 803.182 1131.86 807.151 1126.31 810.862L1108.86 822.963C1103 827.215 1097.41 830.553 1091.85 833.868C1086.43 837.432 1080.07 840.094 1074.21 843.285C1061.98 848.8 1049.42 853.796 1036.33 857.112C1023.36 860.924 1009.9 862.694 996.438 864.262C982.927 865.187 969.236 865.514 955.658 863.912C942.012 862.807 928.636 859.638 915.306 856.153C902.201 851.992 889.164 847.131 876.905 840.579C864.375 834.5 852.477 826.865 840.76 819.14C851.564 828.162 862.47 837.071 874.492 844.718C886.277 852.725 899.224 858.883 912.419 864.51C925.828 869.517 939.632 873.995 953.921 876.239C968.12 879.036 982.646 879.859 997.183 879.972C1011.7 879.555 1026.32 878.404 1040.58 875.179C1054.96 872.438 1068.92 867.893 1082.63 862.672C1089.32 859.57 1096.16 857.191 1102.77 853.458C1109.52 849.996 1116.16 846.432 1121.84 842.609L1139.52 831.466C1145.82 827.632 1151.94 823.504 1157.8 819.275C1169.62 810.828 1180.48 801.997 1191.39 795.095C1202.25 787.968 1213.45 783.536 1225.47 780.761C1231.5 779.385 1237.78 778.641 1243.71 778.224C1246.58 777.886 1250.56 778.021 1253.93 777.897L1256.56 777.852C1256.56 777.852 1257.21 777.84 1257.38 777.84C1256.49 777.852 1257.21 777.852 1257.3 777.874L1258.35 777.942C1259.75 778.066 1261.11 778.021 1262.54 778.246C1273.91 779.611 1285.88 783.806 1296.89 789.716C1307.96 795.535 1318.35 803.114 1326.83 811.708C1334.28 819.455 1343.32 832.053 1349.4 842.146C1355.55 852.714 1359.48 863.732 1361.59 876.194C1363.76 888.554 1364.48 901.761 1364.4 915.644C1364.4 916.41 1364.48 917.2 1364.64 917.989C1365.39 921.61 1366.46 925.117 1367.84 927.88C1369.16 930.835 1370.65 933.102 1372.09 935.335C1375.01 939.654 1377.84 943.004 1380.55 946.229C1382.65 948.688 1384.6 950.954 1386.54 953.232C1380.44 951.823 1374.31 950.661 1368.15 950.03C1363.67 949.59 1359.18 949.285 1354.65 949.217C1352.41 949.161 1350.13 949.172 1347.83 949.24C1345.44 949.319 1343.42 949.398 1340.18 949.714C1336.68 950.052 1333.28 951.608 1330.68 954.36C1326.03 959.277 1317.13 962.627 1306.11 965.345C1295.14 968.345 1282.21 969.811 1267.6 977.773C1263.99 979.871 1260.36 982.521 1257.14 985.825C1255.45 987.494 1254.1 989.163 1252.56 991.295L1250.43 994.644L1249.35 996.641C1245.24 1005.02 1243.74 1011.93 1242.84 1019.58C1241.94 1026.77 1242.62 1034.87 1242.88 1040.11C1243.13 1045.95 1243.61 1051.81 1243.67 1057.65C1243.99 1069.35 1243.68 1080.98 1243.27 1092.61L1241.92 1109.97L1239.67 1127.18C1238.73 1132.88 1237.5 1138.51 1236.44 1144.2C1235.18 1149.81 1233.59 1155.34 1232.18 1160.94C1230.53 1166.45 1228.58 1171.85 1226.81 1177.33L1220.3 1193.3L1212.75 1208.83L1204.04 1223.77L1194.21 1238.06L1183.33 1251.67L1171.47 1264.51L1158.93 1276.46C1154.58 1280.42 1149.75 1284.25 1145.19 1288.14C1140.95 1291.83 1136.2 1295.15 1131.33 1298.37C1111.61 1311.04 1089.62 1321.39 1068.5 1333.39C1057.94 1339.39 1047.37 1345.6 1037.69 1353.14C1028.09 1360.62 1018.93 1369.32 1013.5 1380.22C1020.12 1370.03 1029.9 1362.71 1040.02 1356.51C1050.24 1350.37 1060.99 1345.14 1071.95 1340.26C1093.9 1330.51 1116.51 1322.07 1138.41 1310.22C1143.86 1307.2 1149.32 1303.99 1154.51 1300.16C1159.41 1296.58 1164.34 1293.28 1169.23 1289.49L1183.73 1277.38L1197.25 1264.42L1209.86 1250.48L1221.46 1235.62L1231.96 1219.87L1241.24 1203.35L1249.16 1186.13C1251.38 1180.23 1253.77 1174.37 1255.84 1168.41C1257.67 1162.38 1259.66 1156.38 1261.32 1150.3C1262.75 1144.17 1264.35 1138.06 1265.64 1131.92L1268.9 1113.35L1271.18 1094.7L1272.47 1076L1272.83 1057.32C1273.06 1045.18 1271.6 1031.21 1272.76 1023.06C1274.35 1013.31 1276.82 1007.86 1282.91 1004.82C1289.65 1001.14 1301.13 999.212 1313.48 996.528C1324.07 994.114 1336.99 990.799 1348.54 981.878L1348.67 981.867" fill="black"/>
<path d="M1073.58 1708.31C1073.84 1708.31 1074.15 1708.34 1074.52 1708.34C1074.45 1708.34 1074.03 1708.34 1073.58 1708.31ZM722.748 1744.38C722.94 1744.91 722.861 1744.92 722.748 1744.38V1744.38ZM679.114 1681.81C679.013 1682.19 678.99 1682.23 679.114 1681.81V1681.81ZM1111.27 1550.1C1106.9 1541.89 1102.44 1533.72 1097.6 1525.64C1095.2 1521.68 1092.49 1517.45 1089.73 1513.73L1081.57 1502.53L1048.92 1457.74L1032.36 1435.52C1026.84 1428.09 1020.96 1420.99 1017.46 1412.35C1020.15 1421.26 1025.51 1429.1 1030.29 1436.92L1044.81 1460.54L1074.32 1507.45L1081.7 1519.16C1084.19 1523.03 1086.21 1526.75 1088.33 1530.82C1092.46 1538.89 1096.31 1547.21 1100.07 1555.58C1105.9 1568.6 1111.37 1581.84 1116.83 1595.06C1109.67 1595.03 1102.48 1594.8 1095.55 1594.03C1090.19 1593.47 1084.95 1592.54 1080.13 1591.23C1077.32 1590.43 1076.46 1590.19 1073.52 1588.89C1071.94 1588.45 1072.13 1587.61 1066.64 1586.6C1062.25 1586.12 1057.57 1587.77 1054.46 1591.32C1052.89 1593.08 1051.74 1595.31 1051.24 1597.68C1051.01 1598.75 1050.84 1600.08 1050.98 1601.75C1051.16 1603.37 1050.94 1602.02 1051.29 1603.99L1052.1 1608.12L1053.63 1616.42L1056.4 1633.1C1058.12 1644.26 1059.65 1655.45 1061 1666.67C1062.36 1677.56 1063.6 1688.45 1064.59 1699.29C1056.15 1695.35 1047.55 1691.69 1038.67 1688.66L1030.08 1685.87L1025.57 1684.54C1022.84 1683.85 1019.94 1683.48 1017.02 1683.71C1005.18 1684.36 994.824 1693.35 992.411 1704.93C992.095 1706.23 991.847 1707.92 991.791 1709.83L991.768 1711.19L991.791 1711.76L991.825 1712.83L992.264 1717.76L992.862 1726L993.742 1742.7C994.204 1753.91 994.452 1765.2 994.565 1776.5L994.61 1781.95L989.761 1778.42L975.912 1768.32L961.532 1757.88C949.668 1749.65 931.838 1753.53 924.44 1766.2C920.29 1774.48 921.237 1774.83 920.008 1777.78L917.425 1785.45L911.617 1800.96C906.88 1813.2 901.715 1825.44 896.381 1837.63C895.411 1835.94 894.407 1834.36 893.449 1832.64C887.742 1822.41 882.227 1811.85 876.848 1801.21L868.863 1785.18L864.905 1777.09L864.408 1776.07C864.363 1775.92 863.393 1774.12 862.841 1773.28C861.442 1771.15 859.66 1769.17 857.551 1767.54C853.345 1764.28 848.123 1762.54 842.992 1762.58C837.86 1762.58 832.616 1764.32 828.477 1767.59C826.955 1768.37 822.94 1773.42 823.504 1772.9L821.948 1775.24C820.865 1776.97 819.376 1778.8 817.842 1780.61C814.673 1784.28 810.782 1787.93 806.655 1791.57C800.418 1797.03 793.426 1802.32 786.219 1807.73C785.43 1805.43 784.652 1803.13 783.964 1800.84C777.344 1779.53 774.863 1757.88 779.024 1737.38L779.148 1736.78C779.317 1735.91 779.396 1735.02 779.351 1734.1C779.306 1732.79 779.171 1731.43 778.957 1730.1L778.573 1728.13C778.336 1727.31 778.494 1727.26 777.761 1725.58C775.382 1720.01 770.803 1715.36 763.393 1714.09C762.547 1713.94 761.713 1713.85 760.912 1713.8L759.615 1713.86C758.769 1713.92 757.924 1714.02 757.078 1714.16C755.612 1714.38 753.209 1715.01 752.781 1715.28C751.247 1715.91 749.274 1716.79 748.202 1717.45C743.556 1720.16 741.086 1722.37 738.108 1724.65C732.695 1729.09 727.913 1733.33 723.391 1736.86L721.914 1737.96C721.102 1728.46 722.32 1717.52 724.564 1706.72C725.793 1700.87 727.316 1694.98 729.075 1689.14L731.838 1680.51L733.439 1675.95C733.36 1676.17 734.342 1673.48 734.5 1671.81C734.793 1669.88 734.781 1667.78 734.421 1665.74C733.699 1661.59 731.534 1657.83 728.669 1655.19C722.872 1649.9 714.087 1648.06 705.933 1652.77L701.388 1655.92C699.02 1657.55 696.527 1659.13 693.967 1660.69C691.103 1662.4 688.001 1663.97 684.99 1665.6C692.975 1643.55 701.264 1621.56 710.974 1600.76L714.966 1592.49L717.222 1588.18L717.786 1587.1C718.564 1585.65 719.173 1584.01 719.511 1582.24C720.199 1578.68 719.613 1574.83 717.955 1571.67C715.045 1565.25 706.339 1561.2 699.279 1563.42L694.339 1565.07C691.622 1565.94 688.757 1566.71 685.836 1567.41C682.915 1568.11 679.938 1568.73 676.938 1569.27L672.472 1570.05C672.303 1570.07 672.991 1568.64 672.991 1568.64L675.021 1564.42L679.317 1556.15C682.261 1550.68 685.419 1545.34 688.768 1540.09C695.478 1529.62 703.091 1519.61 711.155 1509.56C719.173 1499.57 727.643 1489.17 735.323 1478.49C743.105 1467.88 750.469 1456.99 757.45 1445.85C771.446 1423.62 784.122 1400.62 795.682 1376.59C803.79 1354.79 810.455 1332.21 814.031 1309.18C817.651 1286.14 817.966 1262.84 817.03 1239.82C816.015 1262.89 813.309 1285.8 808.189 1308.05C803.193 1330.35 795.276 1351.76 786.129 1372.16C773.431 1394.59 759.514 1416.28 744.424 1437.04C736.823 1447.39 729.098 1457.62 721.079 1467.61C713.106 1477.64 704.704 1486.99 695.997 1496.83C687.336 1506.63 678.663 1516.92 670.837 1527.94C666.923 1533.45 663.19 1539.13 659.694 1544.92L654.597 1553.71L652.228 1558.17L651.044 1560.42L650.458 1561.54L649.634 1563.42C644.09 1577.17 653.548 1592.39 667.69 1594.26C669.416 1594.5 671.118 1594.55 672.799 1594.4L675.754 1594.08L680.908 1593.38C682.588 1593.13 684.268 1592.8 685.949 1592.5C674.558 1615.36 664.893 1638.45 655.769 1661.8L652.285 1671.01C652.093 1671.67 650.018 1675.83 650.379 1681.64C650.661 1686.5 652.668 1691.18 655.758 1694.67C658.837 1698.19 663.032 1700.75 667.803 1701.77C672.528 1702.88 677.817 1702.06 681.697 1700.23L690.855 1696C692.591 1695.16 694.294 1694.17 696.02 1693.3C695.433 1695.55 694.689 1697.71 694.159 1699.98C691.103 1713.65 688.802 1727.87 690.302 1743.77C690.46 1745.74 690.776 1747.77 691.159 1749.83C691.441 1751.46 691.949 1754.92 694.317 1759.24C698.185 1766.3 705.098 1771.17 712.542 1772.79C716.286 1773.62 720.211 1773.65 723.989 1772.91C727.53 1772.39 732.154 1769.96 732.695 1769.63C734.015 1768.98 737.048 1767.08 738.684 1765.95C740.229 1764.84 741.898 1763.68 743.262 1762.58C743.556 1762.36 743.792 1762.14 744.086 1761.93C744.39 1778.68 747.446 1795.17 752.115 1810.47C753.018 1813.59 754.033 1816.66 755.059 1819.7L756.649 1824.24L757.472 1826.48L757.878 1827.6L758.69 1829.62C761.51 1836.56 768.761 1842.97 776.577 1844.68C780.513 1845.67 784.697 1845.73 788.723 1844.83C792.535 1844.12 797.035 1841.65 799.155 1839.97C808.685 1832.86 818.846 1825.65 828.804 1817.09C833.056 1813.42 837.229 1809.38 841.3 1804.91L847.119 1816.39C852.713 1827.26 858.454 1838.09 864.589 1848.91C867.645 1854.33 870.871 1859.74 874.378 1865.26C876.16 1868 878.066 1870.82 880.299 1873.79C881.404 1875.27 882.972 1877.04 884.359 1878.64C885.577 1879.82 886.874 1880.97 888.204 1882.04C888.633 1882.35 888.667 1882.45 889.422 1882.94C890.437 1883.56 891.543 1884.12 892.727 1884.61C895.073 1885.56 897.655 1886.11 899.978 1886.23C906.023 1886.55 911.944 1883.22 914.594 1877.38L914.888 1876.74C924.541 1855.5 933.575 1834.41 941.898 1812.48C943.951 1807 945.89 1801.43 947.774 1795.78L950.165 1788.13L957.958 1793.56L972.01 1803.36L979.036 1808.27L982.543 1810.72L983.423 1811.33C983.423 1811.33 985.272 1812.47 985.983 1812.84C985.983 1812.84 988.78 1814.22 990.652 1814.79C1004.11 1818.92 1018.76 1811.22 1023.06 1798.1C1024.19 1795.1 1024.52 1791.1 1024.45 1788.84L1024.35 1784.55L1024.1 1775.88C1023.74 1764.35 1023.24 1752.8 1022.52 1741.2C1022.15 1735.39 1021.77 1729.57 1021.17 1723.71L1020.22 1714.88L1019.94 1712.64C1019.94 1712.64 1019.83 1711.76 1019.73 1710.97L1022.67 1711.74L1030.46 1713.96C1040.79 1717.11 1050.88 1721 1060.83 1725.57L1068.28 1729.09C1068.28 1729.09 1071.98 1730.93 1072.21 1731.04C1092.9 1732.24 1078 1731.32 1082.64 1731.57C1082.31 1731.69 1083.45 1731.25 1084.49 1730.59C1086.54 1729.38 1088.69 1727.01 1089.69 1724.51C1090.22 1723.27 1090.51 1722.05 1090.64 1720.98L1090.71 1720.24L1090.75 1718.21L1090.64 1715.51C1090.2 1709.15 1089.5 1703.53 1088.79 1697.7C1087.32 1686.17 1085.66 1674.76 1083.76 1663.37C1081.83 1651.99 1079.72 1640.63 1077.41 1629.31L1073.74 1612.34L1072.93 1608.91C1073.9 1609.17 1074.83 1609.4 1075.6 1609.53C1081.87 1610.93 1087.98 1611.65 1094 1612.01C1106.09 1612.69 1117.7 1612.42 1130.19 1611.06C1131.06 1610.97 1131.93 1610.73 1132.75 1610.32C1136.67 1608.43 1138.3 1603.71 1136.41 1599.8C1128.27 1583.06 1119.97 1566.53 1111.27 1550.1" fill="black"/>
<path d="M1557.59 455.691C1557.65 455.375 1557.95 454.811 1557.65 455.781C1557.65 455.781 1557.6 456.006 1557.52 456.333C1557.53 456.288 1557.55 456.164 1557.59 455.691ZM1572.47 495.242C1577.46 486.096 1582.07 476.611 1585.81 466.371L1586.66 463.484C1586.76 463.281 1587.13 461.476 1587.33 459.942C1587.79 456.593 1587.56 454.473 1587.27 451.879C1586.58 446.86 1584.46 442.169 1581.53 438.289C1575.73 430.541 1565.91 425.556 1555.6 426.346C1553.06 426.436 1550.59 427.056 1548.25 427.767L1544.85 429.098L1543.03 429.955L1536.26 433.225C1538.77 426.639 1541.67 419.782 1544.44 412.824C1552.13 392.524 1558.77 371.807 1563.22 350.018C1564.4 344.593 1565.27 339.022 1566.07 333.428C1566.85 327.812 1567.36 322.072 1567.61 316.207C1567.61 316.207 1567.68 315.113 1567.7 314.842C1567.7 314.842 1567.69 313.286 1567.67 312.801L1567.52 310.512C1567.31 308.73 1566.97 306.937 1566.52 305.2C1566.07 303.745 1565.55 302.437 1564.98 301.095C1562.58 295.783 1558.63 291.34 1554.03 288.306C1544.94 282.16 1532.41 281.167 1522.23 286.592C1519.7 287.9 1517.49 289.558 1515.46 291.373L1512.5 294.17L1508.76 297.678C1512.91 262.378 1514.32 226.436 1509.98 190.313C1506.87 163.709 1500.69 137.42 1492.08 112.26C1483.51 87.0651 1472.71 62.942 1460.82 39.7211C1457.94 33.8454 1454.76 28.1952 1451.74 22.421L1449.44 18.1015L1448.3 15.9476L1446.94 13.7709L1446.15 12.6093C1444.77 10.8048 1442.95 8.75232 1441.44 7.57943C1439.92 6.40654 1438.4 5.23357 1436.67 4.39902C1433.28 2.51563 1429.54 1.60221 1425.86 1.24132C1418.51 0.65488 1411.3 2.9104 1405.47 7.54556C1399.58 12.1582 1395.82 19.861 1395.33 26.7968L1394.39 46.6344L1392.63 84.9224L1388.99 122.297C1388.02 134.748 1386.27 147.243 1384.33 159.739C1382.45 172.235 1380.81 184.765 1378.73 197.227C1373.65 222.004 1369.9 247.063 1363.71 271.637L1355.05 308.628L1344.98 345.292C1341.8 357.574 1338.03 369.675 1334.09 381.731L1322.49 417.989C1313.74 441.785 1306.07 466.055 1296.19 489.445C1291.41 501.208 1286.86 513.083 1281.89 524.778L1266.33 559.559C1261.3 571.254 1255.58 582.588 1250.01 594.013C1244.26 605.347 1239.18 617.064 1232.88 628.105L1214.63 661.634C1208.39 672.72 1201.52 683.434 1194.99 694.373C1188.59 705.403 1181.46 715.937 1174.22 726.414C1166.96 736.879 1160.18 747.717 1152.14 757.608C1144.33 767.668 1137 778.179 1128.82 787.956L1103.73 816.974L1130.86 789.75C1139.74 780.513 1147.84 770.566 1156.37 760.946C1165 751.394 1172.37 740.883 1180.23 730.733C1188.09 720.56 1195.84 710.298 1202.87 699.539C1210.03 688.881 1217.54 678.415 1224.42 667.555L1244.63 634.691C1251.59 623.842 1257.32 612.328 1263.73 601.163C1269.93 589.896 1276.48 578.765 1281.93 567.115L1299.03 532.481C1304.52 520.831 1309.58 508.989 1314.88 497.249C1325.79 473.882 1334.51 449.623 1344.3 425.759L1357.09 389.264C1361.43 377.118 1365.59 364.916 1369.17 352.51L1380.45 315.485L1390.3 278.032C1397.33 253.153 1401.86 227.665 1407.37 202.392C1409.7 189.682 1411.6 176.87 1413.74 164.104C1415.91 151.36 1417.93 138.559 1419.19 125.522L1423.57 86.5803L1425.96 48.2696L1426.26 43.7472C1428.13 47.2884 1430.03 50.8184 1431.77 54.3935C1454.45 99.0535 1471.58 145.597 1476.8 194.136C1482.26 242.631 1476.76 292.434 1468.31 341.999C1467.28 348.101 1469.7 354.54 1475.07 358.397C1482.58 363.777 1493.04 362.051 1498.42 354.54C1499.69 352.781 1503.85 348.428 1507.16 345.146L1518.18 334.443L1529.56 323.65L1534.38 319.094C1534.15 322.41 1533.97 325.726 1533.52 329.131C1532.84 333.913 1532.14 338.729 1531.12 343.567C1527.28 362.92 1521.23 382.351 1514.14 401.298C1507.01 420.087 1498.86 439.191 1489.05 455.51L1488.67 456.164C1486.87 459.153 1486.07 462.751 1486.64 466.45C1487.92 474.919 1495.82 480.739 1504.29 479.453C1512.03 478.269 1517.21 476.115 1522.34 474.04C1527.41 471.919 1532.08 469.686 1536.63 467.431L1549.93 460.709L1556.38 457.473C1556.38 457.473 1557.06 457.123 1557.38 456.807C1554.53 464.972 1550.75 473.16 1546.52 481.235C1537.84 497.61 1527.16 513.444 1515.7 528.669C1504.24 543.905 1491.89 558.736 1478.48 572.63C1475.3 575.946 1473.92 580.818 1475.26 585.565C1477.27 592.693 1484.68 596.832 1491.8 594.825C1500.17 592.456 1509.72 590.81 1519.3 589.174L1533.91 586.693C1535.71 586.423 1536.23 586.58 1537.38 587.325C1538.37 588.047 1538.99 589.501 1539.16 590.415L1538.84 592.242L1538.14 594.847L1536.35 601.535C1533.73 610.41 1530.41 619.106 1526.62 627.632C1511.18 661.702 1487.08 692.14 1459.3 719.478C1457.06 721.722 1455.96 725.038 1456.68 728.387C1457.82 733.598 1462.98 736.913 1468.2 735.774C1474.74 734.342 1481.53 733.259 1488.37 732.38L1498.69 731.195L1503.88 730.71C1503.88 730.71 1505.19 730.598 1505.58 730.586C1505.84 730.586 1506.09 730.575 1506.31 730.643C1507.21 730.733 1508.04 731.432 1508.61 732.323C1509.02 733.417 1509.33 733.981 1508.71 735.526L1499.86 754.304C1487.89 779.712 1474.51 804.264 1455.77 824.711C1454.54 826.075 1453.98 828.004 1454.44 829.921C1455.2 833.023 1458.31 834.928 1461.4 834.184C1464 833.552 1468.54 833.237 1472.33 832.989L1484.33 832.425L1496.43 832.086L1502.38 831.985C1503.7 831.94 1504.93 832.289 1506.07 832.865C1508.31 834.015 1510.1 836.507 1510.34 839.18C1510.51 842.022 1509.91 843.793 1506.88 847.187C1502 853.289 1496.38 858.973 1490.46 864.363C1478.66 875.179 1465.83 885.058 1452.88 894.757L1413.43 923.222C1440.82 905.9 1469.34 890.156 1494.69 869.213C1501.04 864.003 1507.17 858.443 1512.77 852.161C1515.43 849.894 1519.26 844.018 1518.67 838.582C1518.42 833.124 1515.33 827.97 1510.56 825.094C1508.18 823.673 1505.41 822.794 1502.67 822.703L1496.47 822.478L1484.24 822.184L1473.67 822.117C1489.86 803.666 1502.76 782.645 1514.1 761.533L1519.15 752.116C1520.91 748.732 1522.29 746.443 1524.36 742.259C1526.81 737.376 1526.97 730.158 1524.36 724.846C1521.82 719.399 1516.85 714.922 1510.79 713.365C1509.32 712.937 1507.77 712.734 1506.27 712.655L1504.01 712.632L1502.65 712.7L1497.22 713.016L1493.51 713.298C1514.93 691.08 1534.16 666.235 1548.07 637.703C1552.52 628.353 1556.53 618.722 1559.75 608.786L1562 601.275L1562.54 599.392C1562.54 599.392 1562.81 598.445 1562.95 597.971L1563.22 596.753L1563.59 594.937C1563.74 593.9 1563.87 592.445 1563.94 591.204C1564.17 582.317 1560.43 573.961 1553.95 568.22C1547.68 562.378 1537.78 559.909 1529.87 561.318L1524.87 562.029C1529.39 556.751 1533.94 551.518 1538.28 546.071C1550.73 530.113 1562.41 513.444 1572.47 495.242" fill="black"/>
<path d="M1291.14 883.288C1304.7 883.288 1315.71 872.28 1315.71 858.713C1315.71 845.146 1304.7 834.15 1291.14 834.15C1277.57 834.15 1266.57 845.146 1266.57 858.713C1266.57 872.28 1277.57 883.288 1291.14 883.288Z" fill="black"/>
<path d="M1508.11 1024.7C1526.5 1017.92 1545.8 1011.03 1565.13 1002.67C1584.42 994.351 1603.84 984.573 1621.6 972.021L1624.93 969.675L1626.94 968.232L1628.46 966.98L1634.5 961.973C1638.5 958.544 1642.61 955.589 1646.44 951.371L1657.97 939.552L1667.96 926.966C1680.42 909.768 1691.08 891.599 1697.85 872.641C1704.99 853.886 1709.8 834.996 1711.83 816.805C1714.52 798.682 1713.95 781.303 1712.89 765.491C1712.09 757.608 1710.73 750.108 1709.74 742.981C1723.54 722.85 1724.08 694.216 1714.99 670.521C1706.15 647.469 1689.59 628.534 1671.19 612.632C1669.25 610.952 1666.25 611.877 1665.62 614.38C1654.06 659.909 1669.64 712.711 1704.21 744.154C1704.65 744.548 1705.21 744.526 1705.74 744.661C1706.35 751.428 1707.24 758.465 1707.61 765.852C1707.86 781.348 1707.57 798.231 1704.07 815.621C1701.23 833.09 1695.67 851.022 1687.96 868.548C1680.62 886.299 1669.6 902.956 1657.16 918.44L1647.28 929.696L1636.5 939.699C1633.2 943.139 1628.65 946.127 1624.53 949.296L1618.24 953.988L1616.67 955.161C1616.86 955.003 1615.8 955.691 1615.43 955.916L1612.23 957.935C1595.2 968.728 1576.53 977.006 1557.63 984.054C1538.72 991.126 1519.46 996.934 1500.69 1002.8C1481.83 1008.71 1463.52 1014.43 1446.22 1021.35C1428.94 1028.23 1412.89 1035.93 1398.67 1044.5C1384.45 1053.04 1372.04 1062.37 1361.84 1071.8C1351.58 1081.17 1343.79 1090.86 1337.9 1099.2C1332.27 1107.15 1327.68 1116.03 1325.77 1120.15C1323.73 1124.62 1322.65 1127 1322.65 1127C1322.54 1127.24 1322.4 1127.54 1322.31 1127.79C1318.85 1136.47 1323.09 1146.32 1331.78 1149.77C1340.47 1153.22 1350.3 1148.98 1353.75 1140.3C1353.75 1140.3 1354.72 1137.86 1356.54 1133.31C1357.45 1130.77 1358.57 1128.72 1359.83 1126.16C1360.94 1123.63 1362.82 1120.54 1364.91 1117.06C1369.24 1110.25 1375.01 1102.12 1383.22 1093.84C1391.36 1085.52 1401.64 1076.89 1413.94 1068.62C1426.23 1060.33 1440.58 1052.5 1456.39 1045.26C1472.18 1038 1489.82 1031.46 1508.11 1024.7" fill="black"/>
<path d="M1618.37 742.755C1611.1 779.092 1601.58 819.331 1617.66 848.62C1626.39 864.499 1641.52 884.844 1649.23 903.34C1650.6 906.633 1655.07 906.452 1656.6 902.99C1668.83 875.326 1669.56 830.237 1659.66 806.136C1650.3 783.333 1636.32 763.292 1625.96 741.109C1624.29 737.534 1619.2 738.65 1618.37 742.755" fill="black"/>
<path d="M1425.61 1067.6C1423.26 1068.47 1421.85 1071.12 1422.57 1073.53C1432.24 1105.74 1468.19 1129.66 1501.02 1137.41C1535.3 1145.51 1628.52 1116.76 1626.64 1115.23C1562.22 1062.74 1487.54 1044.81 1425.61 1067.6Z" fill="black"/>
<path d="M1694.09 970.273C1652.77 964.487 1613.96 987.765 1579.27 1011.78C1576.26 1013.86 1576.57 1018.53 1579.89 1020.08C1638 1047.2 1717.9 1042.68 1780.37 989.896C1783.8 986.998 1781.89 981.46 1777.4 981.359C1750.91 980.784 1717.7 973.577 1694.09 970.273Z" fill="black"/>
<path d="M1548.41 863.901C1537.42 880.175 1526.43 896.438 1515.43 912.711C1500.39 934.962 1488.25 956.356 1482.93 991.735C1482.62 993.787 1485.65 994.577 1487.7 994.295C1529.03 988.487 1550.12 970.521 1560.61 946.251C1570.71 922.873 1565.83 887.348 1555.07 864.307C1553.82 861.634 1550.05 861.465 1548.41 863.901Z" fill="black"/>
<path d="M1821.23 756.818C1823.09 752.691 1818.66 748.563 1814.65 750.672C1779.15 769.371 1738.84 788.667 1725.28 824.88C1717.91 844.526 1711.18 873.498 1700.94 894.024C1699.11 897.678 1702.32 901.862 1706.28 900.881C1737.88 893.099 1776.24 861.905 1789.69 835.312C1802.44 810.151 1809.69 782.498 1821.23 756.818" fill="black"/>
</svg>
