<?xml version="1.0" encoding="UTF-8"?>
<svg id="Réteg_2" data-name="Réteg 2" xmlns="http://www.w3.org/2000/svg" viewBox="0 0 416 496">
  <defs>
    <style>
      .cls-1 {
        fill: #464747;
      }
    </style>
  </defs>
  <g id="Icons">
    <g>
      <path class="cls-1" d="M248,136c-4.42,0-8-3.58-8-8,0-12.04,6.28-27.54,13.55-45.49,8.07-19.91,17.14-42.3,18.32-62.25-3.57-1.73-10.97-4.26-23.87-4.26-19.31,0-33.22,20.25-33.36,20.46-1.49,2.2-3.98,3.53-6.64,3.53h-.02c-2.67,0-5.16-1.33-6.64-3.55-.13-.19-14.03-20.44-33.34-20.44-12.9,0-20.31,2.52-23.87,4.26,1.18,19.95,10.25,42.34,18.32,62.25,7.27,17.95,13.55,33.45,13.55,45.49,0,4.42-3.58,8-8,8s-8-3.58-8-8c0-8.92-6.01-23.76-12.38-39.48-9.2-22.7-19.62-48.42-19.62-72.52,0-2.12,.84-4.16,2.35-5.66,1.73-1.73,11.67-10.34,37.65-10.34,18.28,0,32.29,11.31,40,19.45C215.71,11.31,229.72,0,248,0c25.98,0,35.92,8.61,37.65,10.34,1.5,1.5,2.35,3.54,2.35,5.66,0,24.1-10.42,49.82-19.62,72.52-6.37,15.72-12.38,30.56-12.38,39.48,0,4.42-3.58,8-8,8Z"/>
      <path class="cls-1" d="M304.01,496c-14.44,0-22.21-5.18-28.45-9.34-5.58-3.72-9.98-6.66-19.56-6.66s-13.99,2.94-19.57,6.66c-6.24,4.16-14.02,9.34-28.43,9.34s-22.19-5.18-28.43-9.34c-5.58-3.72-9.99-6.66-19.57-6.66s-13.98,2.94-19.56,6.66c-6.24,4.16-14.01,9.34-28.43,9.34s-22.21-5.18-28.45-9.34c-5.58-3.72-9.99-6.66-19.57-6.66-3.31,0-7.16,1.06-11.23,2.18-12.54,3.45-29.71,8.17-50.41-12.52-1.5-1.5-2.34-3.54-2.34-5.66s.84-4.16,2.34-5.66c47.63-47.63,69.22-124.97,88.27-193.21,19.07-68.3,35.53-127.28,74.14-144.44,2.01-.89,4.3-.92,6.33-.07,11.71,4.9,24.13,7.38,36.91,7.38s25.2-2.48,36.91-7.38c2.03-.85,4.32-.82,6.33,.07,38.61,17.16,55.07,76.14,74.14,144.44,19.05,68.24,40.64,145.58,88.27,193.21,1.5,1.5,2.34,3.54,2.34,5.66s-.84,4.16-2.34,5.66c-20.7,20.69-37.87,15.97-50.41,12.52-4.07-1.12-7.92-2.18-11.23-2.18-9.58,0-13.99,2.94-19.57,6.66-6.24,4.16-14.02,9.34-28.43,9.34Zm-48.01-32c14.42,0,22.19,5.18,28.43,9.34,5.58,3.72,9.98,6.66,19.56,6.66s14-2.94,19.58-6.66c6.25-4.16,14.02-9.34,28.44-9.34,5.48,0,10.56,1.4,15.47,2.75,9.9,2.72,18.02,4.96,28.97-3.24-46.47-50.73-67.68-126.72-86.48-194.08-17.42-62.4-32.54-116.55-62.31-132.69-12.67,4.82-25.99,7.25-39.66,7.25s-27-2.44-39.67-7.25c-29.77,16.13-44.89,70.29-62.31,132.69-18.8,67.36-40.01,143.34-86.48,194.08,10.96,8.2,19.08,5.97,28.97,3.24,4.92-1.35,10-2.75,15.47-2.75,14.42,0,22.2,5.18,28.44,9.34,5.58,3.72,9.99,6.66,19.56,6.66s14-2.94,19.58-6.66c6.24-4.16,14.01-9.34,28.43-9.34s22.2,5.18,28.44,9.34c5.58,3.72,9.99,6.66,19.56,6.66s13.98-2.94,19.56-6.66c6.25-4.16,14.02-9.34,28.44-9.34Z"/>
      <path class="cls-1" d="M256,440c-3.42,0-6.59-2.21-7.64-5.65-19.28-62.66-21.43-117.06-23.32-165.05-1.28-32.38-2.49-62.96-8.84-91.56-.96-4.31,1.76-8.59,6.08-9.54,4.32-.96,8.59,1.76,9.54,6.08,6.66,30.01,7.9,61.29,9.21,94.4,1.86,47.02,3.96,100.31,22.63,160.98,1.3,4.22-1.07,8.7-5.29,10-.78,.24-1.58,.36-2.35,.36Z"/>
      <path class="cls-1" d="M160,440c-.78,0-1.57-.11-2.35-.36-4.22-1.3-6.59-5.78-5.29-10,18.67-60.67,20.77-113.96,22.63-160.98,1.31-33.11,2.54-64.39,9.21-94.4,.96-4.31,5.23-7.04,9.54-6.08,4.31,.96,7.03,5.23,6.08,9.54-6.35,28.61-7.56,59.19-8.84,91.56-1.9,48-4.04,102.39-23.32,165.05-1.06,3.44-4.22,5.65-7.64,5.65Z"/>
      <path class="cls-1" d="M320.01,440c-2.83,0-5.58-1.51-7.03-4.17-26.6-48.76-31.69-90.27-37.07-134.23-4.56-37.21-9.28-75.7-27.37-122.73-1.59-4.12,.47-8.75,4.59-10.34,4.13-1.59,8.75,.47,10.34,4.59,18.8,48.88,23.64,88.35,28.32,126.53,5.2,42.39,10.1,82.43,35.24,128.51,2.12,3.88,.69,8.74-3.19,10.85-1.22,.66-2.53,.98-3.82,.98Z"/>
      <path class="cls-1" d="M95.99,440c-1.29,0-2.61-.32-3.82-.98-3.88-2.12-5.31-6.98-3.19-10.85,25.13-46.08,30.04-86.12,35.24-128.51,4.68-38.18,9.52-77.65,28.32-126.53,1.59-4.12,6.21-6.18,10.34-4.59,4.12,1.59,6.18,6.21,4.59,10.34-18.09,47.04-22.81,85.52-27.37,122.73-5.39,43.95-10.48,85.46-37.07,134.23-1.45,2.66-4.2,4.17-7.03,4.17Z"/>
    </g>
  </g>
</svg>