<svg width="1304" height="940" viewBox="0 0 1304 940" fill="none" xmlns="http://www.w3.org/2000/svg">
<path d="M875.157 596.413C874.801 596.968 874.243 597.395 873.555 597.56C867.798 598.968 840.88 604.436 834.603 605.321C758.876 615.992 664.568 585.472 624.299 572.441C614.894 569.4 607.468 566.997 605.097 566.713C596.539 565.687 588.346 562.46 580.422 559.333C573.394 556.567 566.768 553.952 559.925 552.752C557.643 552.348 555.372 551.963 553.102 551.577C540.045 549.344 526.54 547.05 513.393 542.159C495.854 535.632 478.756 525.598 462.229 515.895L459.172 514.104C444.604 505.572 431.64 494.849 419.098 484.468C414.145 480.371 409.024 476.13 403.867 472.092C396.915 466.631 389.887 461.193 382.849 455.737C356.186 435.067 328.617 413.699 303.618 390.485C297.437 384.747 291.873 378.156 286.479 371.781C280.038 364.166 273.379 356.281 265.751 349.984C254.852 340.987 243.576 331.689 232.528 321.422C231.456 320.426 231.383 318.741 232.392 317.665C233.388 316.593 235.068 316.528 236.149 317.529C247.086 327.691 258.295 336.945 269.131 345.891C277.132 352.497 283.944 360.552 290.54 368.349C295.821 374.604 301.292 381.063 307.239 386.593C332.056 409.643 359.53 430.939 386.106 451.541C393.153 457.003 400.183 462.454 407.144 467.92C412.354 472.004 417.501 476.261 422.482 480.388C434.863 490.631 447.666 501.216 461.862 509.533L464.927 511.329C481.254 520.917 498.145 530.829 515.256 537.19C527.932 541.91 540.596 544.069 553.998 546.357C556.277 546.747 558.556 547.138 560.844 547.534C568.208 548.829 575.403 551.667 582.367 554.404C589.981 557.403 597.85 560.506 605.732 561.456C608.618 561.807 615.131 563.912 625.931 567.407C665.857 580.325 759.353 610.574 833.865 600.075C839.855 599.232 866.758 593.766 872.304 592.413C873.726 592.064 875.162 592.937 875.51 594.359C875.693 595.093 875.543 595.828 875.165 596.418L875.157 596.413Z" fill="white"/>
<path d="M239.299 323.477C239.024 323.906 238.617 324.263 238.113 324.475C237.147 324.89 236.067 324.685 235.318 324.039C233.624 323.382 231.347 321.413 227.121 317.46C226.217 316.609 225.444 315.888 224.948 315.476C218.095 309.71 210.797 304.289 204.497 299.662C189.182 288.42 178.629 278.456 171.29 268.295C165.627 260.466 160.654 251.618 155.838 243.06C154.057 239.889 152.29 236.751 150.514 233.702L150.347 233.406C146.486 226.789 142.85 220.543 138.685 214.362C138.072 213.447 137.343 212.564 136.579 211.624C135.603 210.441 134.61 209.211 133.757 207.834C133.644 207.714 133.5 207.587 133.362 207.45C132.58 206.724 131.409 205.642 131.697 203.95C131.859 202.973 132.526 202.154 133.459 201.754C136.131 200.603 139.602 202.564 143.851 205.237C144.474 205.636 144.996 205.97 145.321 206.131C154.658 210.91 162.941 215.702 170.658 220.786C188.591 232.613 212.712 255.454 223.289 277.675C226.124 283.634 229.384 292.988 232.533 302.034C234.801 308.544 236.954 314.732 238.834 319.344C239.382 319.861 239.695 320.595 239.66 321.392C239.84 322.113 239.701 322.867 239.313 323.474L239.299 323.477ZM142.61 210.7C142.775 210.924 142.926 211.152 143.085 211.384C147.338 217.705 151.2 224.322 154.927 230.722L155.094 231.018C156.89 234.092 158.663 237.258 160.464 240.453C165.208 248.882 170.101 257.596 175.587 265.181C182.593 274.88 192.776 284.475 207.641 295.382C214.017 300.058 221.403 305.547 228.366 311.418C228.907 311.871 229.753 312.663 230.739 313.59C230.837 313.677 230.931 313.773 231.041 313.879C229.901 310.727 228.717 307.309 227.489 303.792C224.384 294.881 221.176 285.667 218.472 279.969C208.336 258.672 185.049 236.661 167.716 225.231C160.16 220.25 152.042 215.552 142.884 210.864C142.8 210.81 142.705 210.773 142.604 210.708L142.61 210.7Z" fill="white"/>
<path d="M747.796 601.417C747.187 602.369 746.006 602.859 744.866 602.545C738.06 600.693 732.413 597.421 726.953 594.246C721.926 591.324 717.173 588.566 711.585 586.852C685.971 578.99 683.053 576.148 659.444 547.78C649.023 535.254 639.396 518.095 630.096 501.501C618.573 480.942 607.675 461.521 598.237 456.807C596.921 456.155 596.39 454.556 597.051 453.245C597.712 451.935 599.302 451.398 600.613 452.059C611.521 457.499 622.281 476.69 634.739 498.904C643.922 515.292 653.428 532.232 663.542 544.384C687.398 573.052 689.261 574.447 713.158 581.78C719.321 583.672 724.561 586.707 729.631 589.656C735.032 592.793 740.141 595.756 746.269 597.423C747.685 597.808 748.52 599.268 748.135 600.684C748.062 600.946 747.951 601.195 747.805 601.423L747.796 601.417Z" fill="white"/>
<path d="M752.045 602.831C751.452 603.757 750.315 604.253 749.184 603.98C742.014 602.251 735.111 596.026 728.675 585.493C728.475 585.175 728.343 584.936 728.257 584.81C725.94 581.735 723.262 576.719 719.874 570.382C707.896 548.013 685.607 506.36 638.966 478.468C634.01 475.508 628.149 472.979 621.944 470.3C612.582 466.265 602.906 462.089 595.866 456.061C594.752 455.11 594.607 453.427 595.58 452.316C596.53 451.202 598.209 451.066 599.317 452.025C605.752 457.534 615.049 461.54 624.045 465.423C630.138 468.054 636.429 470.764 641.686 473.904C689.592 502.547 712.34 545.04 724.549 567.866C727.836 574.008 730.433 578.853 732.521 581.638C732.634 581.794 732.874 582.162 733.212 582.71C738.884 592.006 744.682 597.416 750.431 598.805C751.86 599.151 752.733 600.588 752.393 602.009C752.321 602.307 752.206 602.578 752.05 602.823L752.045 602.831Z" fill="white"/>
<path d="M646.583 576.415C646.449 576.625 646.275 576.823 646.067 576.999C644.958 577.951 643.272 577.821 642.325 576.704C640.649 574.741 638.433 573.251 636.096 571.671C636.003 571.612 635.911 571.552 635.81 571.488C635.883 572.152 635.693 572.838 635.254 573.412C634.349 574.566 632.677 574.766 631.523 573.861C629.39 572.186 626.733 570.865 623.913 569.464C622.085 568.554 620.193 567.616 618.439 566.552C606.307 559.259 596.736 552.027 589.989 545.059C575.982 530.605 567.067 514.317 557.639 497.071C554.954 492.158 552.175 487.077 549.287 482.093C544.507 473.832 538.264 465.964 532.237 458.353C530.615 456.305 528.996 454.271 527.422 452.242C527.314 452.114 526.952 451.715 526.433 451.134C516.263 439.813 515.676 438.095 516.565 436.076C517.028 435.019 518.056 434.359 519.241 434.346C530.107 434.25 547.299 448.107 557.568 456.381C558.923 457.474 560.145 458.458 561.195 459.285C579.613 473.749 598.424 499.745 608.097 517.777C610.726 522.666 612.799 527.793 614.799 532.755C616.889 537.929 619.055 543.281 621.794 548.182C624.841 553.624 629.367 559.277 634.22 563.678C635.667 564.997 637.322 566.103 639.058 567.286C641.589 568.99 644.207 570.761 646.35 573.273C647.13 574.188 647.187 575.472 646.573 576.432L646.583 576.415ZM524.392 440.672C525.726 442.298 527.657 444.531 530.404 447.585C531.075 448.335 531.529 448.851 531.636 448.979C533.208 450.995 534.81 453.018 536.415 455.055C542.561 462.814 548.923 470.829 553.9 479.431C556.815 484.467 559.608 489.581 562.313 494.518C571.569 511.44 580.314 527.418 593.818 541.36C600.254 547.998 609.459 554.948 621.198 562.002C622.775 562.952 624.497 563.805 626.303 564.712C627.221 565.169 628.148 565.632 629.072 566.117C624.425 561.598 620.152 556.107 617.165 550.775C614.259 545.578 612.033 540.079 609.879 534.746C607.931 529.925 605.916 524.93 603.423 520.294C593.996 502.729 575.734 477.451 557.913 463.465C556.846 462.627 555.607 461.632 554.233 460.515C546.678 454.418 533.69 443.954 524.384 440.667L524.392 440.672Z" fill="white"/>
<path d="M541.533 544.776C540.918 545.736 539.809 546.225 538.65 546.053C530.346 544.797 522.906 539.392 515.705 534.152C512.199 531.598 508.884 529.191 505.607 527.354C474.252 509.784 451.169 488.307 437.027 463.531C434.123 458.442 431.586 453.077 429.115 447.885C426.11 441.544 422.998 434.98 419.286 429.076C417.7 426.565 415.947 424.647 413.92 422.435C413.484 421.966 413.045 421.483 412.603 420.986C411.819 420.116 411.457 419.587 411.22 419.103C411.085 418.981 410.891 418.821 410.617 418.598C410.513 418.52 410.336 418.407 410.165 418.285C409.359 417.745 406.898 416.099 408.387 413.774C408.894 412.983 409.748 412.52 410.729 412.508C412.77 412.473 415.149 413.616 418.292 415.236C419.205 415.702 420.062 416.144 420.57 416.351C427.902 419.216 435.176 422.508 442.178 426.148C460.863 435.855 479.099 449.823 493.52 465.504C499.422 471.92 503.945 479.803 508.316 487.423C509.477 489.448 510.635 491.46 511.792 493.4C513.933 496.991 516.022 500.739 518.042 504.372C522.334 512.06 526.756 520.009 531.938 526.936C543.256 542.067 542.565 543.145 541.525 544.771L541.533 544.776ZM420.781 422.161C421.813 423.404 422.82 424.725 423.783 426.244C427.664 432.422 430.842 439.124 433.922 445.608C436.343 450.709 438.841 455.988 441.647 460.896C455.308 484.83 477.707 505.631 508.212 522.729C511.761 524.716 515.36 527.329 518.841 529.867C523.871 533.527 529.031 537.282 534.279 539.359C532.749 537.038 530.524 533.892 527.709 530.13C522.313 522.923 517.791 514.815 513.421 506.971C511.424 503.376 509.35 499.662 507.243 496.128C506.072 494.155 504.903 492.124 503.722 490.073C499.491 482.698 495.12 475.078 489.62 469.111C475.601 453.877 457.877 440.296 439.733 430.876C433.582 427.686 427.214 424.76 420.789 422.166L420.781 422.161Z" fill="white"/>
<path d="M404.581 467.787C404.533 467.863 404.479 467.947 404.408 468.021C403.486 469.164 401.816 469.342 400.676 468.434C399.052 467.132 397.739 465.603 396.664 463.906C396.401 463.927 396.138 463.913 395.865 463.857C390.949 462.799 386.317 456.2 380.758 447.689C379.014 445.017 377.375 442.495 376.294 441.328C356.841 420.098 344.702 399.703 336.953 375.197C336.173 372.726 335.433 370.21 334.69 367.68C332.49 360.192 330.222 352.459 326.671 345.673C325.523 343.477 323.991 341.178 322.646 339.236C322.104 338.45 321.514 337.704 320.902 337.027C320.877 337.011 320.843 336.99 320.818 336.973C319.088 335.985 318.948 334.719 319.128 333.826C319.36 332.703 320.376 331.822 321.519 331.687C328.503 330.923 340.896 339.534 350.067 346.89C356.754 352.265 361.982 359.103 367.04 365.725C368.106 367.12 369.172 368.515 370.24 369.888C380.673 383.229 393.103 401.388 396.717 423.544C397.337 427.36 397.343 431.912 397.357 436.73C397.37 447.152 397.392 458.969 404.009 464.286C405.073 465.146 405.304 466.659 404.581 467.787ZM328.903 339.015C329.779 340.372 330.641 341.79 331.38 343.214C335.17 350.461 337.518 358.46 339.791 366.185C340.52 368.682 341.251 371.156 342.025 373.6C349.532 397.334 361.319 417.111 380.219 437.738C381.589 439.233 383.276 441.809 385.212 444.794C387.436 448.201 390.688 453.192 393.537 456.18C392.054 450.113 392.048 443.186 392.04 436.745C392.03 432.144 392.033 427.799 391.476 424.403C388.065 403.434 376.097 385.999 366.056 373.158C364.971 371.775 363.894 370.36 362.816 368.946C357.952 362.578 352.926 356 346.74 351.03C339.897 345.544 333.612 341.342 328.9 339.002L328.903 339.015Z" fill="white"/>
<path d="M318.408 400.193C318.36 400.268 318.306 400.353 318.235 400.426C316.809 402.208 315.091 401.832 314.599 401.672C312.716 401.072 311.629 399.45 310.891 392.387C310.069 391.908 309.282 391.024 308.424 390.083C307.438 388.989 306.135 387.501 304.817 385.98C302.405 383.201 299.566 379.864 299.214 379.413C298.148 378.054 297.078 376.703 296.002 375.361C291.946 370.271 287.743 365.003 284.335 359.199C283.447 357.693 282.542 356.175 281.624 354.661C277.792 348.313 273.834 341.754 271.375 334.598C269.079 327.927 267 321.086 264.986 314.477C261.616 303.402 258.134 291.946 253.604 281.161C248.965 270.14 244.128 261.486 238.396 253.933C237.599 252.877 236.716 251.92 235.785 250.908C234.256 249.252 232.685 247.534 231.443 245.338C230.626 243.924 230.447 242.646 230.927 241.563C231.307 240.691 232.061 240.07 233.001 239.864C239.164 238.49 250.836 245.334 262.536 252.932L263.891 253.8C280.59 264.551 297.848 289.209 303.164 309.949C305.262 318.132 306.355 326.384 307.418 334.367C307.851 337.66 308.308 341.063 308.825 344.41C310.921 358.031 313.29 371.374 315.584 384.278C315.6 384.383 315.651 384.878 315.687 385.638C316.054 391.834 316.491 394.785 316.82 396.183C317.174 396.279 317.521 396.442 317.819 396.68C318.884 397.54 319.114 399.053 318.392 400.182L318.408 400.193ZM238.161 245.602C238.649 246.175 239.178 246.74 239.71 247.318C240.681 248.379 241.689 249.476 242.636 250.723C248.649 258.634 253.69 267.656 258.509 279.101C263.146 290.145 266.678 301.727 270.084 312.932C272.075 319.503 274.151 326.294 276.411 332.871C278.694 339.486 282.506 345.81 286.192 351.922C287.122 353.455 288.038 354.992 288.937 356.518C292.159 362 296.047 366.888 300.179 372.063C301.258 373.419 302.346 374.78 303.414 376.153C303.863 376.714 307.342 380.794 310.162 384.012C308.022 371.979 305.631 358.467 303.602 345.223C303.079 341.812 302.624 338.386 302.18 335.074C301.094 326.886 300.063 319.149 298.04 311.275C293.095 291.996 276.494 268.222 261.037 258.277L259.664 257.398C249.834 250.998 242.643 247.058 238.178 245.613L238.161 245.602Z" fill="white"/>
<path d="M322.761 407.527C321.596 409.346 318.172 409.481 308.943 408.429L308.766 408.41C298.7 407.403 287.993 406.248 277.412 404.246C258.789 400.729 239.241 392.203 225.103 381.441C217.751 375.843 211.233 369.295 204.927 362.954C201.835 359.846 198.638 356.623 195.403 353.59C188.631 347.235 177.385 339.263 168.479 333.81C165.828 332.98 163.714 331.887 162.542 330.175C161.713 328.967 162.023 327.314 163.24 326.489C163.793 326.108 164.442 325.965 165.062 326.054C165.484 326.062 165.913 326.171 166.308 326.388C167.662 327.148 169.123 328.001 170.658 328.924C172.448 329.429 174.43 329.819 175.605 330.061C176.786 330.295 177.808 330.498 178.602 330.721C182.827 331.894 187.192 332.92 191.422 333.918C198.262 335.531 205.333 337.209 212.164 339.541C214.16 340.225 216.175 340.898 218.177 341.574C231.651 346.104 245.585 350.787 258.258 358.2C272.394 366.48 285.566 378.844 296.155 388.77C299.946 392.326 304.355 394.638 309.033 397.087C310.529 397.867 312.028 398.66 313.527 399.489C313.863 399.669 316.158 400.758 317.84 401.562L320.549 402.858C322.055 403.584 323.609 404.329 323.203 406.373C323.119 406.818 322.979 407.204 322.769 407.532L322.761 407.527ZM183.702 337.537C189.445 341.606 194.992 345.941 199.038 349.731C202.329 352.824 205.568 356.073 208.697 359.217C214.873 365.427 221.261 371.844 228.318 377.217C241.828 387.495 260.556 395.651 278.394 399.021C288.689 400.97 298.773 402.059 309.047 403.092C308.226 402.65 307.4 402.216 306.577 401.796C301.792 399.29 296.846 396.705 292.532 392.649C282.141 382.896 269.209 370.769 255.585 362.782C243.392 355.64 229.709 351.047 216.5 346.603C214.485 345.93 212.475 345.249 210.465 344.568C203.885 342.326 196.937 340.679 190.211 339.092C188.074 338.591 185.898 338.076 183.716 337.534L183.702 337.537Z" fill="white"/>
<path d="M435.727 496.552C435.586 496.771 435.402 496.985 435.2 497.152C395.439 531.006 338.6 498.697 300.989 477.323C298.779 476.063 296.621 474.835 294.541 473.67C288.553 470.299 282.722 466.518 277.092 462.866C271.817 459.441 266.351 455.905 260.839 452.756C257.676 450.945 254.579 449.496 251.307 447.948C249.653 447.174 247.988 446.381 246.3 445.549C245.69 445.241 245.101 444.9 244.509 444.545C243.959 444.216 243.435 443.904 242.934 443.667C242.393 443.677 240.986 443.667 240.206 442.289C239.567 441.155 239.923 439.578 240.955 438.802C242.7 437.485 246.884 437.35 268.287 439.12C271.296 439.372 273.905 439.582 274.89 439.619C310.61 440.82 346.253 450.58 380.807 468.643C385.174 470.928 389.464 473.52 393.613 476.035C400.615 480.269 407.861 484.659 415.509 487.513C416.967 488.055 418.527 488.531 420.164 489.033C422.895 489.868 425.713 490.734 428.222 491.972C428.893 492.295 431.371 492.338 432.184 492.348C433.724 492.372 435.053 492.392 435.835 493.842C436.289 494.691 436.244 495.743 435.727 496.552V496.552ZM254.08 443.394C257.147 444.835 260.293 446.339 263.469 448.147C269.121 451.374 274.641 454.956 279.981 458.41C285.551 462.025 291.307 465.757 297.151 469.036C299.248 470.212 301.398 471.435 303.616 472.7C338.283 492.404 389.864 521.725 426.606 497.017C426.341 496.93 426.1 496.824 425.865 496.709C423.746 495.661 421.132 494.866 418.61 494.094C416.959 493.595 415.251 493.072 413.642 492.469C405.523 489.443 398.069 484.932 390.856 480.563C386.783 478.097 382.561 475.548 378.339 473.332C344.491 455.65 309.623 446.089 274.705 444.916C273.589 444.878 271.178 444.676 267.847 444.407C264.557 444.13 259.051 443.679 254.085 443.386L254.08 443.394Z" fill="white"/>
<path d="M580.17 557.593C579.631 558.435 578.628 558.945 577.565 558.787C564.616 556.979 555.163 562.1 544.216 568.033C542.073 569.191 539.86 570.386 537.582 571.551C524.028 578.476 503.59 580.577 497.648 581.047C477.104 582.701 458.371 577.26 440.254 571.989C432.344 569.692 424.164 567.316 415.881 565.527C403.914 562.947 391.953 561.154 380.825 559.599C380.647 559.58 380.356 559.571 379.989 559.55C376.383 559.378 373.306 559.047 372.17 556.741C371.585 555.559 371.738 554.208 372.55 552.994C373.331 551.867 374.13 550.693 389.881 548.274C397.366 547.118 405.293 546.161 407.181 545.957C444.888 541.923 482.293 545.888 513.909 550.291C519.032 551.006 526.864 552.09 534.687 553.169C542.593 554.266 550.497 555.348 555.606 556.066C555.845 556.101 556.068 556.161 556.275 556.246C562.889 553.724 569.943 552.351 578.306 553.513C579.755 553.717 580.772 555.057 580.569 556.506C580.51 556.896 580.372 557.259 580.173 557.571L580.17 557.593ZM383.844 554.68C394.421 556.168 405.677 557.913 416.998 560.353C425.47 562.179 433.742 564.578 441.738 566.908C460.209 572.275 477.66 577.345 497.224 575.776C502.921 575.316 522.485 573.32 535.167 566.847C537.388 565.716 539.574 564.527 541.683 563.384C543.611 562.338 545.514 561.313 547.427 560.329C543.328 559.758 538.633 559.116 533.953 558.47C526.121 557.386 518.29 556.302 513.161 555.595C481.865 551.23 444.86 547.307 407.726 551.281C402.413 551.846 391.345 553.332 383.833 554.697L383.844 554.68Z" fill="white"/>
<path d="M721.611 597.546C721.611 597.546 721.584 597.588 721.573 597.605C721.295 598.021 720.472 598.954 718.867 598.734L717.329 598.522C717.254 598.509 717.179 598.497 717.104 598.484C715.79 598.569 714.539 598.706 713.35 598.895C709.776 599.468 705.27 601.166 701.329 602.74C699.999 603.278 697.603 604.925 694.579 607.015C682.944 615.061 661.29 630.038 627.314 633.493C595.708 636.697 564.882 634.806 544.59 632.654C532.605 631.381 523.252 629.928 517.516 628.928C505.917 626.904 505.815 626.636 505.218 625.138C504.787 624.031 505.152 622.757 506.096 622.043C507.182 621.218 509.025 620.843 520.19 619.169C528.165 617.97 538.091 616.489 542.276 615.071C568.63 606.179 600.152 601.604 638.637 601.048C651.959 600.862 684.714 598.609 698.486 597.5C698.899 597.467 699.31 597.529 699.677 597.68C703.804 596.037 708.518 594.293 712.504 593.651C713.923 593.419 715.401 593.262 717.016 593.168C717.859 593.114 720.69 593.086 721.668 594.805C722.161 595.666 722.125 596.724 721.597 597.549L721.611 597.546ZM521.822 624.299C542.439 627.668 584.242 632.537 626.787 628.216C658.32 625.014 678.923 611.382 690.41 603.455C674.473 604.626 649.875 606.213 638.718 606.372C600.794 606.907 569.806 611.408 543.975 620.114C539.492 621.625 530.212 623.045 521.808 624.302L521.822 624.299Z" fill="white"/>
<path d="M497.505 577.049C497.92 577.646 498.52 578.115 499.217 578.315C505.059 580.011 532.24 586.773 538.534 587.94C614.461 602.014 703.977 573.541 742.201 561.385C751.128 558.548 758.177 556.306 760.483 556.098C768.806 555.345 776.517 552.267 783.974 549.284C790.589 546.646 796.823 544.151 803.436 543.151C805.64 542.813 807.836 542.494 810.031 542.176C822.654 540.326 835.711 538.429 848.118 533.791C864.667 527.602 880.379 517.715 895.565 508.153L898.374 506.388C911.764 497.981 923.318 487.214 934.495 476.788C938.909 472.674 943.473 468.415 948.095 464.371C954.325 458.9 960.631 453.457 966.947 447.995C990.87 427.302 1015.61 405.91 1037.59 382.483C1043.03 376.691 1047.76 369.982 1052.35 363.493C1057.83 355.742 1063.49 347.714 1070.29 341.391C1080 332.358 1090.06 323.022 1099.77 312.66C1100.72 311.655 1100.59 309.889 1099.48 308.721C1098.37 307.557 1096.71 307.426 1095.75 308.436C1086.13 318.691 1076.14 327.984 1066.48 336.965C1059.35 343.599 1053.56 351.798 1047.95 359.736C1043.46 366.103 1038.81 372.678 1033.58 378.259C1011.75 401.521 987.096 422.84 963.251 443.465C956.928 448.933 950.621 454.391 944.383 459.866C939.713 463.957 935.126 468.232 930.688 472.377C919.653 482.663 908.242 493.291 895.195 501.487L892.379 503.257C877.376 512.704 861.855 522.472 845.708 528.503C833.747 532.978 821.503 534.766 808.546 536.66C806.343 536.984 804.14 537.308 801.929 537.637C794.814 538.718 788.043 541.425 781.489 544.034C774.323 546.895 766.918 549.855 759.252 550.554C756.446 550.814 750.263 552.776 740.012 556.037C702.114 568.088 613.367 596.307 538.659 582.46C532.653 581.347 505.485 574.589 499.86 572.957C498.417 572.538 497.1 573.399 496.921 574.88C496.825 575.644 497.057 576.421 497.498 577.055L497.505 577.049Z" fill="white"/>
<path d="M1093.33 314.561C1093.65 315.023 1094.09 315.413 1094.62 315.654C1095.62 316.126 1096.66 315.952 1097.32 315.302C1098.92 314.677 1100.94 312.696 1104.65 308.706C1105.45 307.846 1106.13 307.118 1106.57 306.704C1112.66 300.91 1119.24 295.494 1124.92 290.875C1138.73 279.65 1148 269.589 1154.07 259.198C1158.75 251.192 1162.64 242.09 1166.41 233.287C1167.8 230.025 1169.18 226.797 1170.58 223.663L1170.71 223.358C1173.76 216.557 1176.63 210.136 1180.03 203.803C1180.52 202.866 1181.14 201.967 1181.79 201.009C1182.61 199.803 1183.45 198.55 1184.14 197.136C1184.23 197.015 1184.36 196.886 1184.48 196.748C1185.17 196.015 1186.2 194.923 1185.72 193.136C1185.45 192.104 1184.7 191.218 1183.73 190.763C1180.96 189.454 1177.76 191.381 1173.88 194.027C1173.31 194.422 1172.83 194.753 1172.53 194.909C1163.87 199.573 1156.25 204.292 1149.23 209.337C1132.9 221.076 1111.73 244.145 1103.85 267.076C1101.74 273.225 1099.6 282.924 1097.54 292.303C1096.05 299.053 1094.64 305.468 1093.31 310.239C1092.83 310.761 1092.61 311.521 1092.74 312.359C1092.64 313.109 1092.86 313.906 1093.32 314.558L1093.33 314.561ZM1175.73 199.81C1175.6 200.039 1175.47 200.272 1175.34 200.511C1171.87 206.986 1168.83 213.787 1165.89 220.366L1165.76 220.671C1164.34 223.83 1162.95 227.087 1161.54 230.374C1157.83 239.044 1154.01 248.009 1149.47 255.765C1143.68 265.683 1134.74 275.372 1121.33 286.262C1115.58 290.929 1108.92 296.413 1102.73 302.314C1102.25 302.769 1101.5 303.568 1100.64 304.505C1100.55 304.593 1100.47 304.689 1100.37 304.796C1101.14 301.53 1101.91 297.986 1102.72 294.34C1104.75 285.101 1106.86 275.548 1108.87 269.668C1116.42 247.69 1136.86 225.461 1152.64 214.117C1159.52 209.173 1166.99 204.547 1175.48 199.972C1175.56 199.918 1175.65 199.883 1175.74 199.819L1175.73 199.81Z" fill="white"/>
<path d="M623.713 587.13C624.424 588.152 625.645 588.712 626.734 588.425C633.234 586.738 638.428 583.517 643.448 580.39C648.072 577.512 652.443 574.796 657.758 573.209C682.119 565.924 684.67 563.051 704.696 534.159C713.534 521.401 721.055 503.749 728.32 486.678C737.322 465.528 745.837 445.549 754.605 440.957C755.828 440.322 756.168 438.663 755.365 437.262C754.563 435.861 752.932 435.237 751.715 435.881C741.581 441.181 733.175 460.923 723.442 483.776C716.269 500.635 708.841 518.062 700.262 530.437C680.028 559.636 678.352 561.029 655.622 567.824C649.761 569.576 644.94 572.564 640.279 575.469C635.312 578.558 630.613 581.475 624.76 582.994C623.408 583.344 622.753 584.846 623.295 586.347C623.397 586.625 623.536 586.891 623.705 587.135L623.713 587.13Z" fill="white"/>
<path d="M619.685 588.454C620.377 589.449 621.555 590.012 622.64 589.768C629.513 588.225 635.606 581.95 640.743 571.134C640.904 570.808 641.006 570.562 641.076 570.433C643.009 567.292 645.073 562.127 647.686 555.602C656.928 532.567 674.122 489.677 716.921 462.158C721.47 459.238 726.96 456.804 732.773 454.226C741.543 450.344 750.607 446.326 756.858 440.263C757.847 439.308 757.796 437.545 756.709 436.342C755.644 435.137 753.972 434.93 752.99 435.895C747.276 441.436 738.566 445.289 730.139 449.026C724.431 451.558 718.537 454.165 713.713 457.263C669.752 485.523 652.202 529.278 642.785 552.782C640.25 559.107 638.245 564.096 636.506 566.941C636.412 567.101 636.217 567.477 635.948 568.04C631.422 577.586 626.325 583.047 620.814 584.288C619.444 584.596 618.749 586.072 619.247 587.577C619.353 587.893 619.497 588.182 619.679 588.445L619.685 588.454Z" fill="white"/>
<path d="M720.676 564.713C720.833 564.939 721.027 565.153 721.252 565.345C722.456 566.387 724.104 566.315 724.91 565.178C726.337 563.18 728.352 561.699 730.475 560.129C730.56 560.07 730.644 560.012 730.737 559.948C730.741 560.642 731.007 561.37 731.506 561.989C732.531 563.235 734.204 563.509 735.238 562.602C737.15 560.924 739.619 559.638 742.238 558.273C743.937 557.387 745.696 556.474 747.303 555.424C758.432 548.226 767.041 540.994 772.895 533.933C785.049 519.287 791.968 502.523 799.285 484.772C801.368 479.715 803.525 474.486 805.8 469.362C809.565 460.869 814.817 452.844 819.887 445.081C821.251 442.992 822.614 440.918 823.934 438.847C824.025 438.716 824.337 438.312 824.781 437.721C833.511 426.219 833.892 424.438 832.783 422.284C832.205 421.157 831.115 420.425 829.945 420.366C819.215 419.854 803.851 433.752 794.672 442.05C793.462 443.146 792.37 444.134 791.429 444.962C774.926 459.451 759.361 486.035 751.893 504.602C749.863 509.636 748.408 514.94 747.006 520.074C745.539 525.428 744.019 530.966 741.88 536.008C739.501 541.606 735.687 547.37 731.406 551.807C730.13 553.137 728.626 554.237 727.049 555.413C724.748 557.106 722.37 558.866 720.544 561.423C719.88 562.354 719.972 563.699 720.689 564.731L720.676 564.713ZM825.591 426.814C824.462 428.47 822.815 430.742 820.456 433.844C819.88 434.606 819.493 435.131 819.401 435.262C818.083 437.318 816.735 439.382 815.387 441.46C810.216 449.374 804.863 457.549 800.943 466.392C798.647 471.57 796.48 476.833 794.38 481.915C787.197 499.332 780.409 515.777 768.692 529.904C763.107 536.631 754.827 543.58 744.058 550.541C742.612 551.479 741.012 552.309 739.335 553.193C738.482 553.639 737.621 554.09 736.765 554.564C740.828 549.995 744.412 544.391 746.745 538.906C749.013 533.559 750.577 527.87 752.088 522.352C753.455 517.363 754.868 512.195 756.794 507.421C764.071 489.335 779.178 463.486 795.148 449.475C796.104 448.636 797.211 447.639 798.438 446.517C805.19 440.403 816.797 429.907 825.599 426.808L825.591 426.814Z" fill="white"/>
<path d="M820.66 535.473C821.377 536.504 822.527 537.06 823.652 536.922C831.698 535.918 838.415 530.525 844.916 525.296C848.08 522.748 851.074 520.345 854.094 518.541C883.002 501.28 903.301 479.605 914.4 454.126C916.68 448.892 918.565 443.355 920.405 437.997C922.64 431.453 924.954 424.679 927.937 418.621C929.212 416.043 930.721 414.096 932.466 411.85C932.842 411.374 933.219 410.884 933.598 410.379C934.271 409.495 934.568 408.954 934.745 408.454C934.865 408.331 935.038 408.17 935.282 407.947C935.376 407.869 935.537 407.757 935.692 407.635C936.425 407.099 938.663 405.463 936.927 402.966C936.336 402.116 935.441 401.598 934.471 401.548C932.453 401.433 930.238 402.544 927.325 404.126C926.478 404.58 925.683 405.012 925.205 405.21C918.303 407.941 911.507 411.121 905.019 414.678C887.704 424.163 871.322 438.139 858.902 454.057C853.817 460.569 850.263 468.675 846.827 476.51C845.915 478.593 845.005 480.662 844.087 482.655C842.388 486.345 840.759 490.201 839.184 493.939C835.835 501.848 832.388 510.027 828.073 517.105C818.65 532.563 819.454 533.721 820.668 535.467L820.66 535.473ZM925.667 411.303C924.791 412.569 923.95 413.918 923.175 415.476C920.057 421.816 917.693 428.732 915.401 435.424C913.599 440.688 911.744 446.137 909.54 451.184C898.818 475.797 879.117 496.789 850.992 513.586C847.721 515.538 844.471 518.145 841.329 520.678C836.788 524.33 832.131 528.077 827.193 530.06C828.435 527.681 830.267 524.462 832.612 520.618C837.105 513.255 840.633 504.913 844.041 496.842C845.597 493.144 847.216 489.322 848.888 485.691C849.816 483.664 850.736 481.576 851.665 479.468C854.99 471.884 858.425 464.049 863.164 457.991C875.239 442.527 891.161 428.939 907.975 419.735C913.675 416.619 919.619 413.788 925.659 411.308L925.667 411.303Z" fill="white"/>
<path d="M946.896 459.824C946.952 459.905 947.015 459.996 947.094 460.076C948.135 461.311 949.802 461.561 950.822 460.651C952.275 459.346 953.394 457.79 954.258 456.049C954.52 456.081 954.779 456.076 955.042 456.027C959.769 455.103 963.579 448.349 968.083 439.624C969.496 436.884 970.823 434.298 971.755 433.114C988.501 411.559 998.129 390.605 1002.95 365.167C1003.44 362.602 1003.88 359.988 1004.32 357.36C1005.63 349.581 1006.98 341.547 1009.7 334.556C1010.58 332.295 1011.83 329.939 1012.93 327.951C1013.37 327.146 1013.87 326.385 1014.39 325.697C1014.42 325.681 1014.45 325.66 1014.47 325.644C1016.06 324.671 1016.06 323.348 1015.78 322.403C1015.42 321.216 1014.32 320.252 1013.17 320.067C1006.19 319 994.961 327.572 986.761 334.948C980.782 340.338 976.412 347.32 972.185 354.082C971.294 355.506 970.403 356.931 969.507 358.332C960.751 371.944 950.578 390.54 949.563 413.666C949.391 417.65 949.908 422.43 950.448 427.488C951.635 438.43 952.973 450.837 947.058 456.169C946.106 457.032 946.053 458.612 946.896 459.824ZM1006.73 327.482C1006.02 328.873 1005.34 330.33 1004.77 331.796C1001.87 339.262 1000.47 347.572 999.117 355.597C998.685 358.191 998.249 360.762 997.766 363.298C993.092 387.934 983.741 408.253 967.47 429.196C966.29 430.713 964.922 433.354 963.356 436.415C961.554 439.908 958.921 445.026 956.455 448.055C957.219 441.741 956.428 434.468 955.695 427.705C955.176 422.874 954.673 418.313 954.831 414.768C955.784 392.879 965.583 375.026 974.01 361.924C974.922 360.512 975.822 359.068 976.722 357.624C980.787 351.122 984.988 344.405 990.519 339.421C996.637 333.921 1002.35 329.746 1006.73 327.467L1006.73 327.482Z" fill="white"/>
<path d="M1024.12 392.115C1024.18 392.196 1024.24 392.287 1024.32 392.367C1025.93 394.292 1027.58 393.963 1028.05 393.813C1029.84 393.254 1030.72 391.592 1030.64 384.204C1031.39 383.733 1032.07 382.834 1032.81 381.878C1033.65 380.767 1034.77 379.254 1035.89 377.707C1037.95 374.881 1040.37 371.484 1040.67 371.024C1041.56 369.637 1042.46 368.26 1043.37 366.891C1046.78 361.7 1050.32 356.328 1053.02 350.363C1053.72 348.815 1054.44 347.256 1055.17 345.701C1058.22 339.181 1061.37 332.444 1062.97 325.023C1064.47 318.106 1065.73 311.002 1066.96 304.139C1069.01 292.637 1071.12 280.741 1074.35 269.588C1077.66 258.192 1081.44 249.289 1086.22 241.575C1086.89 240.497 1087.65 239.525 1088.45 238.498C1089.77 236.817 1091.12 235.072 1092.09 232.813C1092.73 231.36 1092.76 230.025 1092.17 228.87C1091.69 227.939 1090.87 227.258 1089.92 227.006C1083.69 225.331 1072.96 232.075 1062.29 239.609L1061.06 240.469C1045.82 251.125 1031.63 276.362 1028.78 297.937C1027.65 306.45 1027.52 315.073 1027.39 323.415C1027.34 326.856 1027.28 330.412 1027.16 333.907C1026.66 348.129 1025.86 362.05 1025.08 375.512C1025.07 375.621 1025.08 376.14 1025.13 376.936C1025.48 383.428 1025.39 386.51 1025.23 387.965C1024.89 388.053 1024.57 388.211 1024.3 388.45C1023.35 389.312 1023.29 390.892 1024.14 392.104L1024.12 392.115ZM1085.49 232.836C1085.08 233.42 1084.62 233.992 1084.16 234.579C1083.33 235.657 1082.46 236.77 1081.67 238.044C1076.65 246.123 1072.71 255.405 1069.28 267.239C1065.97 278.659 1063.82 290.687 1061.75 302.323C1060.54 309.147 1059.28 316.199 1057.8 323.019C1056.31 329.879 1053.28 336.374 1050.35 342.652C1049.61 344.227 1048.88 345.805 1048.17 347.373C1045.62 353.008 1042.35 357.993 1038.87 363.27C1037.96 364.653 1037.04 366.041 1036.15 367.442C1035.77 368.013 1032.81 372.165 1030.39 375.438C1031.12 362.885 1031.93 348.788 1032.4 334.958C1032.53 331.397 1032.58 327.817 1032.64 324.356C1032.77 315.799 1032.89 307.715 1033.98 299.524C1036.64 279.468 1050.28 255.135 1064.39 245.279L1065.64 244.408C1074.6 238.059 1081.24 234.196 1085.48 232.847L1085.49 232.836Z" fill="white"/>
<path d="M1020.67 399.651C1022.03 401.605 1025.42 401.877 1034.41 401.122L1034.58 401.109C1044.39 400.433 1054.82 399.625 1065.03 397.925C1082.99 394.938 1101.3 386.726 1114 375.961C1120.61 370.362 1126.29 363.734 1131.78 357.314C1134.47 354.168 1137.25 350.906 1140.1 347.843C1146.05 341.428 1156.22 333.483 1164.38 328.095C1166.9 327.324 1168.86 326.256 1169.82 324.503C1170.5 323.266 1170 321.518 1168.71 320.607C1168.12 320.185 1167.46 320.011 1166.86 320.08C1166.44 320.073 1166.03 320.171 1165.67 320.384C1164.42 321.131 1163.07 321.971 1161.67 322.882C1159.96 323.344 1158.05 323.679 1156.92 323.888C1155.78 324.089 1154.8 324.263 1154.04 324.468C1150.01 325.54 1145.82 326.452 1141.76 327.339C1135.2 328.774 1128.42 330.267 1121.95 332.456C1120.06 333.099 1118.15 333.729 1116.25 334.363C1103.48 338.61 1090.27 342.999 1078.62 350.302C1065.63 358.46 1054.06 370.944 1044.76 380.965C1041.43 384.555 1037.35 386.815 1033.01 389.21C1031.63 389.971 1030.24 390.748 1028.86 391.562C1028.55 391.738 1026.41 392.794 1024.84 393.575L1022.32 394.832C1020.91 395.538 1019.47 396.262 1020.1 398.423C1020.24 398.894 1020.42 399.304 1020.66 399.657L1020.67 399.651ZM1149.79 331.431C1144.59 335.486 1139.62 339.828 1136.07 343.654C1133.18 346.777 1130.35 350.066 1127.63 353.248C1122.25 359.535 1116.69 366.031 1110.35 371.405C1098.2 381.684 1080.67 389.538 1063.46 392.401C1053.53 394.057 1043.71 394.819 1033.69 395.515C1034.45 395.081 1035.21 394.657 1035.98 394.247C1040.41 391.797 1044.99 389.27 1048.78 385.175C1057.91 375.328 1069.27 363.085 1081.79 355.215C1092.99 348.178 1105.96 343.873 1118.48 339.708C1120.39 339.078 1122.3 338.439 1124.2 337.8C1130.43 335.695 1137.1 334.229 1143.55 332.817C1145.6 332.372 1147.69 331.914 1149.78 331.428L1149.79 331.431Z" fill="white"/>
<path d="M919.482 488.846C919.646 489.081 919.853 489.313 920.071 489.497C963.187 526.55 1015.54 494.78 1050.18 473.762C1052.21 472.523 1054.2 471.315 1056.12 470.17C1061.64 466.858 1066.96 463.109 1072.09 459.488C1076.9 456.091 1081.88 452.586 1086.96 449.488C1089.87 447.706 1092.76 446.302 1095.81 444.8C1097.35 444.05 1098.9 443.281 1100.47 442.471C1101.04 442.172 1101.58 441.835 1102.12 441.485C1102.63 441.161 1103.11 440.853 1103.57 440.623C1104.11 440.654 1105.5 440.696 1106.11 439.279C1106.61 438.113 1106.07 436.444 1104.97 435.589C1103.09 434.141 1098.95 433.84 1078.04 434.888C1075.1 435.039 1072.55 435.16 1071.59 435.162C1036.49 435.069 1002.45 443.967 970.445 461.623C966.401 463.858 962.468 466.417 958.664 468.899C952.244 473.08 945.601 477.415 938.386 480.122C937.01 480.636 935.526 481.077 933.969 481.542C931.37 482.315 928.691 483.117 926.359 484.322C925.733 484.636 923.294 484.587 922.493 484.567C920.977 484.534 919.668 484.504 919.064 485.997C918.714 486.871 918.879 487.978 919.482 488.846V488.846ZM1092.55 439.914C1089.69 441.311 1086.76 442.771 1083.83 444.549C1078.63 447.723 1073.6 451.275 1068.73 454.7C1063.65 458.283 1058.4 461.985 1053.01 465.206C1051.08 466.362 1049.1 467.564 1047.06 468.808C1015.13 488.183 967.619 517.016 928.533 489.681C928.784 489.6 929.009 489.497 929.228 489.385C931.198 488.365 933.685 487.629 936.084 486.915C937.655 486.453 939.279 485.968 940.797 485.396C948.459 482.527 955.292 478.072 961.905 473.758C965.639 471.324 969.51 468.807 973.42 466.641C1004.77 449.357 1038.07 440.64 1072.38 440.73C1073.47 440.733 1075.83 440.612 1079.08 440.456C1082.3 440.289 1087.68 440.025 1092.54 439.905L1092.55 439.914Z" fill="white"/>
<path d="M784.022 547.466C784.651 548.371 785.699 548.944 786.729 548.818C799.294 547.411 809.209 553.146 820.69 559.791C822.936 561.088 825.257 562.426 827.639 563.736C841.805 571.521 862.208 574.501 868.123 575.22C888.578 577.734 906.431 572.732 923.696 567.884C931.234 565.771 939.03 563.587 946.994 562.023C958.502 559.767 970.095 558.337 980.892 557.126C981.066 557.113 981.352 557.115 981.711 557.107C985.249 557.063 988.246 556.831 989.101 554.453C989.542 553.234 989.236 551.809 988.295 550.505C987.395 549.292 986.472 548.029 970.657 544.892C963.14 543.394 955.211 542.089 953.325 541.803C915.666 536.138 879.224 538.885 848.544 542.31C843.573 542.867 835.972 543.708 828.379 544.545C820.706 545.396 813.034 546.234 808.077 546.794C807.845 546.821 807.632 546.876 807.438 546.957C800.624 544.058 793.508 542.349 785.392 543.254C783.986 543.412 783.136 544.781 783.504 546.31C783.607 546.721 783.785 547.108 784.017 547.443L784.022 547.466ZM977.349 551.847C967.087 553.009 956.184 554.414 945.297 556.547C937.15 558.144 929.267 560.349 921.647 562.492C904.044 567.428 887.414 572.09 867.935 569.702C862.262 569.002 842.734 566.166 829.479 558.888C827.159 557.616 824.865 556.285 822.653 555.005C820.631 553.834 818.636 552.685 816.636 551.58C820.614 551.136 825.171 550.639 829.713 550.138C837.314 549.297 844.914 548.455 849.892 547.907C880.261 544.511 916.313 541.794 953.4 547.373C958.706 548.167 969.795 550.147 977.361 551.865L977.349 551.847Z" fill="white"/>
<path d="M649.098 584.058C649.098 584.058 649.13 584.103 649.142 584.121C649.464 584.568 650.384 585.579 651.941 585.409L653.434 585.244C653.507 585.234 653.579 585.223 653.652 585.213C654.957 585.353 656.207 585.544 657.402 585.787C660.993 586.524 665.634 588.478 669.702 590.279C671.076 590.895 673.629 592.715 676.853 595.024C689.256 603.913 712.339 620.46 746.251 625.375C777.796 629.936 807.986 629.119 827.756 627.629C839.432 626.746 848.491 625.575 854.033 624.741C865.242 623.056 865.312 622.779 865.728 621.229C866.026 620.082 865.52 618.73 864.506 617.945C863.34 617.038 861.479 616.575 850.273 614.394C842.268 612.833 832.307 610.901 828.016 609.254C800.995 598.919 769.375 592.921 731.349 590.878C718.186 590.179 685.616 586.571 671.904 584.885C671.493 584.835 671.094 584.884 670.75 585.029C666.489 583.147 661.638 581.138 657.633 580.313C656.207 580.016 654.731 579.794 653.126 579.635C652.289 579.546 649.493 579.41 648.726 581.177C648.339 582.063 648.496 583.175 649.112 584.062L649.098 584.058ZM849.254 619.718C829.304 622.474 788.629 626.003 746.164 619.854C714.69 615.297 692.799 600.203 680.555 591.444C696.411 593.278 720.857 595.876 731.881 596.466C769.352 598.465 800.437 604.365 826.919 614.484C831.515 616.241 840.833 618.084 849.268 619.722L849.254 619.718Z" fill="white"/>
</svg>
