<?xml version="1.0" encoding="UTF-8"?>
<svg id="Réteg_2" data-name="Réteg 2" xmlns="http://www.w3.org/2000/svg" viewBox="0 0 1161.5 548.39">
  <defs>
    <style>
      .cls-1 {
        fill: #fff;
      }
    </style>
  </defs>
  <g id="Layer_1" data-name="Layer 1">
    <g>
      <path class="cls-1" d="M639.69,547.6c-.47,.46-1.11,.75-1.82,.77-5.92,.11-33.39-.45-39.71-.96-76.23-6.18-161.56-56.61-198-78.14-8.51-5.03-15.23-9-17.48-9.8-8.12-2.88-15.41-7.82-22.46-12.61-6.25-4.24-12.15-8.24-18.56-10.92-2.14-.89-4.27-1.77-6.39-2.64-12.25-5.03-24.92-10.24-36.68-17.89-15.69-10.21-30.17-23.74-44.17-36.83l-2.59-2.42c-12.34-11.52-22.65-24.82-32.61-37.69-3.94-5.08-8.01-10.34-12.15-15.42-5.59-6.85-11.25-13.7-16.92-20.56-21.49-26.01-43.71-52.9-63.01-81.02-4.77-6.96-8.76-14.61-12.62-22-4.61-8.84-9.39-17.99-15.45-25.81-8.67-11.17-17.63-22.71-26.16-35.15-.83-1.21-.53-2.87,.69-3.69,1.21-.83,2.86-.52,3.69,.69,8.45,12.31,17.36,23.79,25.98,34.9,6.36,8.19,11.24,17.55,15.97,26.61,3.79,7.26,7.7,14.76,12.29,21.45,19.16,27.93,41.31,54.72,62.72,80.64,5.68,6.87,11.35,13.73,16.94,20.59,4.18,5.13,8.28,10.41,12.23,15.52,9.84,12.7,20.01,25.84,32.04,37.06l2.6,2.42c13.84,12.93,28.14,26.3,43.44,36.26,11.34,7.38,23.22,12.26,35.8,17.43,2.14,.88,4.28,1.76,6.42,2.65,6.9,2.88,13.31,7.22,19.49,11.42,6.77,4.6,13.78,9.35,21.26,12,2.74,.97,8.64,4.46,18.41,10.23,36.13,21.35,120.72,71.34,195.73,77.42,6.03,.49,33.48,1.05,39.18,.94,1.47-.03,2.68,1.14,2.7,2.6,.01,.76-.29,1.44-.79,1.94Z"/>
      <path class="cls-1" d="M79.05,142.02c-.36,.36-.83,.62-1.37,.72-1.04,.2-2.05-.24-2.63-1.04-1.51-1.01-3.3-3.43-6.56-8.22-.7-1.02-1.29-1.9-1.68-2.41-5.42-7.12-11.35-14.01-16.49-19.91-12.48-14.32-20.59-26.36-25.53-37.88-3.81-8.88-6.73-18.6-9.55-28.01-1.04-3.48-2.08-6.93-3.15-10.3l-.1-.33c-2.31-7.3-4.5-14.2-7.21-21.14-.4-1.03-.91-2.05-1.46-3.13-.69-1.37-1.4-2.78-1.93-4.31-.08-.14-.2-.3-.31-.46C.48,4.74-.43,3.41,.23,1.83,.6,.92,1.43,.26,2.43,.07c2.86-.54,5.82,2.13,9.38,5.68,.53,.52,.96,.96,1.23,1.19,8.06,6.71,15.1,13.2,21.51,19.85,14.91,15.47,33.44,43.04,38.89,67.04,1.46,6.44,2.59,16.27,3.68,25.79,.78,6.85,1.53,13.36,2.35,18.26,.42,.62,.57,1.41,.36,2.18,.02,.75-.28,1.45-.79,1.95ZM9.41,10.82c.11,.25,.21,.51,.32,.77,2.77,7.1,5.08,14.4,7.32,21.46l.1,.33c1.08,3.39,2.12,6.87,3.17,10.38,2.78,9.26,5.65,18.84,9.34,27.44,4.72,11,12.55,22.59,24.66,36.49,5.19,5.96,11.2,12.93,16.72,20.19,.43,.56,1.08,1.52,1.84,2.64,.07,.11,.15,.22,.23,.34-.42-3.32-.83-6.92-1.26-10.62-1.07-9.37-2.18-19.07-3.58-25.22-5.23-23.01-23.12-49.58-37.54-64.53-6.28-6.51-13.17-12.88-21.08-19.46-.08-.06-.16-.13-.24-.21Z"/>
      <path class="cls-1" d="M514.32,524.59c-.8,.79-2.06,1.01-3.11,.46-6.23-3.29-11.02-7.73-15.66-12.02-4.27-3.95-8.31-7.68-13.38-10.58-23.27-13.28-25.49-16.7-42.32-49.55-7.43-14.5-13.06-33.35-18.5-51.59-6.75-22.59-13.12-43.92-21.3-50.59-1.14-.93-1.31-2.6-.38-3.73,.93-1.13,2.6-1.31,3.74-.38,9.45,7.7,15.75,28.78,23.04,53.18,5.38,18,10.93,36.62,18.14,50.68,17,33.2,18.5,34.97,40.22,47.36,5.6,3.19,10.05,7.31,14.35,11.29,4.59,4.24,8.92,8.25,14.53,11.22,1.3,.69,1.79,2.29,1.11,3.59-.13,.24-.29,.46-.48,.65Z"/>
      <path class="cls-1" d="M518.16,526.91c-.78,.77-2,1.01-3.04,.49-6.62-3.26-11.99-10.84-15.96-22.53-.12-.36-.21-.62-.26-.76-1.58-3.51-3.1-8.98-5.02-15.91-6.79-24.45-19.42-69.97-58.82-107.4-4.19-3.98-9.35-7.73-14.82-11.7-8.25-5.99-16.77-12.18-22.33-19.6-.88-1.18-.65-2.85,.54-3.72,1.17-.88,2.84-.64,3.72,.54,5.07,6.78,13.27,12.73,21.19,18.49,5.37,3.9,10.92,7.93,15.36,12.14,40.47,38.44,53.35,84.88,60.27,109.83,1.86,6.71,3.33,12.01,4.76,15.18,.08,.18,.23,.59,.44,1.2,3.5,10.31,7.97,16.86,13.28,19.48,1.32,.65,1.86,2.24,1.21,3.55-.13,.27-.31,.51-.51,.72Z"/>
      <path class="cls-1" d="M421.05,478.04c-.18,.18-.39,.33-.63,.46-1.3,.69-2.9,.19-3.59-1.1-1.21-2.28-3.04-4.22-4.97-6.27-.08-.08-.15-.16-.23-.24-.08,.66-.41,1.29-.96,1.76-1.14,.93-2.81,.76-3.74-.38-1.72-2.1-4.02-3.98-6.46-5.96-1.58-1.29-3.22-2.62-4.71-4.04-10.24-9.77-17.99-18.92-23.06-27.21-10.5-17.18-15.63-35.02-21.06-53.91-1.55-5.38-3.15-10.95-4.87-16.44-2.86-9.11-7.22-18.15-11.44-26.9-1.13-2.35-2.26-4.69-3.36-7.02-.07-.15-.34-.62-.72-1.3-7.44-13.27-7.64-15.08-6.33-16.86,.69-.93,1.83-1.35,2.99-1.1,10.62,2.29,24.36,19.57,32.57,29.9,1.08,1.36,2.06,2.59,2.9,3.63,14.8,18.14,27.46,47.63,32.95,67.35,1.49,5.35,2.39,10.8,3.26,16.08,.91,5.51,1.84,11.2,3.45,16.58,1.78,5.98,4.96,12.49,8.73,17.84,1.12,1.6,2.49,3.05,3.93,4.58,2.09,2.22,4.26,4.52,5.8,7.43,.56,1.06,.33,2.33-.48,3.13Zm-89.49-159.21c.95,1.88,2.34,4.48,4.35,8.06,.49,.88,.82,1.48,.9,1.64,1.09,2.31,2.21,4.64,3.33,6.97,4.3,8.92,8.75,18.14,11.72,27.62,1.74,5.56,3.35,11.15,4.91,16.56,5.33,18.53,10.36,36.04,20.48,52.6,4.82,7.89,12.29,16.68,22.19,26.14,1.33,1.27,2.82,2.48,4.39,3.76,.8,.65,1.6,1.3,2.39,1.97-3.55-5.43-6.51-11.73-8.26-17.58-1.7-5.7-2.66-11.57-3.6-17.23-.84-5.13-1.72-10.45-3.13-15.51-5.35-19.2-17.63-47.87-31.95-65.42-.85-1.05-1.85-2.29-2.94-3.68-6.04-7.6-16.42-20.66-24.78-25.9Z"/>
      <path class="cls-1" d="M325.48,424.15c-.81,.8-1.99,1.04-3.09,.61-7.83-3.04-13.91-9.95-19.78-16.63-2.87-3.26-5.57-6.34-8.37-8.85-26.75-24.01-44.56-50.02-52.93-77.3-1.72-5.6-3.03-11.39-4.29-17-1.54-6.85-3.14-13.93-5.47-20.51-.99-2.8-2.29-5.05-3.78-7.65-.32-.56-.64-1.12-.97-1.7-.58-1.02-.82-1.62-.94-2.13-.11-.15-.26-.34-.48-.62-.08-.1-.23-.25-.37-.4-.67-.71-2.71-2.85-.75-4.79,.67-.66,1.6-.92,2.56-.73,2,.41,4.07,2.05,6.78,4.32,.78,.66,1.53,1.28,1.98,1.59,6.53,4.4,12.9,9.21,18.94,14.29,16.11,13.56,30.84,31.19,41.48,49.65,4.35,7.55,7.04,16.23,9.64,24.63,.69,2.23,1.38,4.44,2.08,6.6,1.3,3.98,2.52,8.09,3.7,12.07,2.5,8.44,5.08,17.17,8.62,25.06,7.73,17.24,6.82,18.14,5.45,19.5Zm-90.96-146.09c.74,1.44,1.43,2.94,2.03,4.64,2.44,6.88,4.07,14.12,5.65,21.12,1.24,5.51,2.53,11.21,4.19,16.61,8.09,26.34,25.39,51.54,51.41,74.91,3.03,2.72,5.97,6.06,8.81,9.29,4.11,4.67,8.32,9.47,12.98,12.65-.99-2.6-2.47-6.16-4.39-10.45-3.68-8.21-6.32-17.11-8.86-25.72-1.17-3.95-2.38-8.03-3.65-11.93-.72-2.18-1.41-4.42-2.11-6.68-2.51-8.12-5.11-16.51-9.17-23.55-10.34-17.94-24.66-35.07-40.3-48.24-5.3-4.46-10.87-8.71-16.58-12.65Z"/>
      <path class="cls-1" d="M208.71,319.04c-.07,.07-.14,.13-.21,.19-1.15,.92-2.82,.73-3.73-.42-1.3-1.63-2.25-3.4-2.92-5.29-.26-.03-.52-.11-.77-.22-4.56-2.11-7.64-9.56-11.2-19.08-1.11-2.99-2.17-5.81-2.96-7.19-14.33-24.97-21.7-47.53-23.9-73.14-.22-2.58-.39-5.2-.56-7.83-.5-7.78-1.03-15.83-3-23.23-.64-2.4-1.63-4.97-2.52-7.17-.36-.89-.77-1.74-1.22-2.54-.03-.02-.05-.05-.08-.07-1.47-1.35-1.33-2.61-.96-3.44,.47-1.05,1.66-1.69,2.8-1.56,6.99,.79,17.19,11.9,24.52,21.08,5.35,6.71,8.95,14.53,12.44,22.09,.74,1.6,1.47,3.19,2.22,4.76,7.25,15.3,15.41,35.74,14.08,58.15-.23,3.86-1.22,8.31-2.27,13.01-2.27,10.17-4.84,21.7,.46,28.34,.85,1.07,.75,2.6-.2,3.54Zm-45.64-142.23c.56,1.51,1.09,3.09,1.5,4.64,2.11,7.9,2.65,16.21,3.17,24.25,.17,2.59,.34,5.17,.55,7.72,2.13,24.8,9.29,46.68,23.22,70.95,1.01,1.76,2.09,4.64,3.33,7.98,1.42,3.81,3.51,9.39,5.63,12.93-.11-6.24,1.39-13,2.8-19.29,1-4.49,1.95-8.73,2.15-12.17,1.26-21.21-6.6-40.83-13.58-55.56-.75-1.59-1.5-3.2-2.24-4.82-3.35-7.28-6.81-14.8-11.76-21-5.47-6.86-10.68-12.33-14.77-15.64Z"/>
      <path class="cls-1" d="M139.44,234.2c-.07,.07-.14,.13-.21,.19-1.78,1.42-3.37,.68-3.82,.42-1.71-1-2.41-2.82-1.59-9.87-.7-.65-1.28-1.68-1.9-2.79-.72-1.29-1.67-3.02-2.62-4.79-1.74-3.24-3.78-7.11-4.03-7.63-.74-1.56-1.49-3.11-2.24-4.66-2.85-5.86-5.79-11.91-7.84-18.33-.53-1.67-1.09-3.34-1.65-5.02-2.35-7.03-4.77-14.31-5.61-21.82-.78-7.01-1.31-14.14-1.82-21.03-.86-11.54-1.75-23.48-3.81-35-2.11-11.77-4.93-21.27-8.88-29.9-.55-1.2-1.2-2.33-1.88-3.52-1.12-1.95-2.29-3.97-3.02-6.39-.49-1.56-.38-2.84,.32-3.8,.56-.77,1.44-1.2,2.4-1.2,6.31,0,16.21,9.24,25.96,19.22l1.13,1.15c13.95,14.14,25.38,41.98,26.03,63.38,.26,8.44-.48,16.74-1.2,24.76-.29,3.31-.6,6.72-.83,10.11-.94,13.75-1.55,27.29-2.14,40.38,0,.11-.07,.6-.19,1.35-1,6.13-1.22,9.1-1.2,10.53,.33,.17,.62,.4,.87,.71,.85,1.07,.75,2.6-.21,3.54ZM94.99,65.79c.35,.67,.74,1.33,1.13,2.01,.72,1.25,1.46,2.53,2.11,3.97,4.13,9.04,7.08,18.94,9.27,31.17,2.11,11.79,3.01,23.87,3.88,35.55,.51,6.85,1.04,13.93,1.8,20.84,.77,6.96,3.11,13.96,5.37,20.73,.57,1.7,1.13,3.4,1.67,5.08,1.94,6.06,4.67,11.68,7.56,17.63,.76,1.56,1.52,3.13,2.26,4.7,.31,.65,2.81,5.38,4.86,9.15,.55-12.21,1.18-25.92,2.09-39.29,.23-3.44,.54-6.89,.84-10.22,.73-8.23,1.42-16.01,1.18-24.13-.6-19.9-11.59-46.73-24.5-59.82l-1.14-1.17c-8.2-8.39-14.35-13.81-18.39-16.2Z"/>
      <path class="cls-1" d="M142.08,242.31c-1.53,1.52-4.9,.9-13.68-2.15l-.17-.06c-9.6-3.19-19.8-6.66-29.68-10.93-17.39-7.51-34.61-20.11-46.05-33.7-5.95-7.07-10.87-14.89-15.63-22.45-2.34-3.71-4.75-7.55-7.24-11.22-5.22-7.68-14.44-17.93-21.94-25.19-2.41-1.39-4.23-2.92-5-4.85-.54-1.36,.12-2.91,1.49-3.45,.62-.25,1.29-.24,1.87-.03,.41,.1,.8,.3,1.14,.6,1.16,1.03,2.39,2.19,3.69,3.43,1.63,.88,3.48,1.7,4.58,2.19,1.1,.49,2.06,.91,2.78,1.3,3.87,2.07,7.9,4.03,11.81,5.93,6.32,3.08,12.86,6.26,19.01,10.02,1.8,1.1,3.61,2.2,5.42,3.3,12.16,7.37,24.73,14.99,35.47,25.01,11.98,11.18,22.13,26.12,30.28,38.13,2.92,4.3,6.72,7.52,10.74,10.93,1.29,1.09,2.58,2.19,3.85,3.33,.29,.25,2.29,1.82,3.75,2.97l2.36,1.85c1.31,1.04,2.67,2.11,1.82,4.01-.18,.41-.4,.76-.68,1.04ZM21.72,143.56c4.71,5.23,9.18,10.67,12.29,15.26,2.54,3.74,4.98,7.62,7.34,11.37,4.67,7.41,9.49,15.08,15.2,21.86,10.93,12.99,27.41,25.05,44.09,32.25,9.62,4.15,19.22,7.43,29.01,10.69-.71-.61-1.42-1.21-2.12-1.81-4.12-3.49-8.38-7.1-11.7-12-8-11.79-17.96-26.46-29.51-37.23-10.34-9.64-22.67-17.12-34.6-24.35-1.82-1.1-3.63-2.2-5.44-3.31-5.93-3.63-12.35-6.76-18.56-9.78-1.98-.96-3.99-1.94-6-2.94Z"/>
      <path class="cls-1" d="M232.8,353.92c-.19,.18-.42,.35-.65,.47-46.21,24.32-94.59-19.65-126.6-48.74-1.88-1.71-3.72-3.38-5.49-4.98-5.1-4.6-9.96-9.56-14.66-14.36-4.4-4.49-8.95-9.14-13.65-13.43-2.69-2.46-5.39-4.55-8.25-6.78-1.44-1.12-2.89-2.25-4.36-3.43-.53-.43-1.03-.9-1.52-1.37-.46-.44-.9-.86-1.34-1.2-.53-.11-1.9-.43-2.36-1.94-.38-1.24,.31-2.7,1.49-3.24,1.99-.9,6.11-.12,26.6,6.29,2.88,.9,5.38,1.68,6.33,1.93,34.59,8.99,67.23,26.33,96.99,51.51,3.77,3.19,7.38,6.66,10.88,10.01,5.9,5.67,12.01,11.53,18.85,15.99,1.3,.85,2.72,1.65,4.21,2.51,2.48,1.41,5.04,2.87,7.22,4.63,.58,.46,2.99,1.05,3.78,1.24,1.5,.36,2.79,.68,3.23,2.26,.26,.93-.01,1.94-.7,2.62Zm-165.59-91.65c2.67,2.08,5.42,4.23,8.12,6.69,4.8,4.39,9.41,9.09,13.86,13.63,4.64,4.74,9.44,9.64,14.42,14.13,1.78,1.61,3.62,3.28,5.51,4.99,29.51,26.82,73.42,66.73,114.67,50.66-.23-.14-.45-.3-.65-.46-1.84-1.49-4.21-2.84-6.5-4.14-1.5-.85-3.05-1.74-4.49-2.67-7.26-4.73-13.54-10.77-19.63-16.61-3.44-3.3-6.99-6.71-10.63-9.79-29.15-24.67-61.08-41.64-94.9-50.43-1.08-.28-3.39-1-6.58-2-3.15-.99-8.43-2.64-13.2-4.01Z"/>
      <path class="cls-1" d="M360.37,445.12c-.71,.71-1.8,.98-2.8,.6-12.24-4.6-22.59-1.67-34.57,1.72-2.34,.66-4.77,1.35-7.24,1.98-14.74,3.79-35.14,1.36-41.04,.52-20.41-2.89-37.49-12.3-54.02-21.41-7.21-3.97-14.67-8.08-22.37-11.64-11.12-5.14-22.39-9.51-32.91-13.46-.16-.06-.45-.13-.81-.23-3.48-.96-6.41-1.96-7.02-4.45-.31-1.28,.13-2.56,1.19-3.57,1.01-.93,2.04-1.9,17.94-.81,7.56,.52,15.5,1.31,17.39,1.53,37.67,4.32,73.3,16.38,103.19,27.6,4.85,1.82,12.25,4.59,19.65,7.36,7.48,2.8,14.95,5.59,19.78,7.41,.22,.08,.43,.19,.61,.33,7-1.02,14.19-.81,22.09,2.16,1.37,.52,2.07,2.05,1.55,3.42-.14,.37-.35,.69-.62,.95Zm-190.93-45.85c9.99,3.77,20.6,7.93,31.11,12.8,7.87,3.64,15.41,7.79,22.7,11.81,16.85,9.28,32.76,18.05,52.2,20.8,5.66,.8,25.19,3.14,38.98-.41,2.42-.62,4.81-1.3,7.12-1.95,2.11-.6,4.19-1.18,6.27-1.73-3.88-1.45-8.31-3.11-12.74-4.77-7.4-2.77-14.81-5.54-19.65-7.36-29.58-11.11-64.83-23.04-101.93-27.3-5.3-.61-16.43-1.59-24.06-1.9Z"/>
      <path class="cls-1" d="M489.62,515.08s-.03,.03-.05,.05c-.36,.34-1.37,1.08-2.88,.51l-1.45-.54c-.07-.03-.14-.06-.21-.09-1.3-.21-2.55-.35-3.75-.42-3.62-.22-8.38,.44-12.57,1.12-1.42,.23-4.11,1.32-7.52,2.7-13.11,5.3-37.53,15.18-71.43,11.1-31.54-3.79-61.2-12.39-80.53-18.94-11.42-3.87-20.22-7.34-25.6-9.57-10.87-4.51-10.92-4.8-11.16-6.39-.18-1.18,.45-2.34,1.54-2.83,1.24-.56,3.12-.52,14.38,.29,8.04,.58,18.05,1.3,22.44,.84,27.66-2.9,59.42-.47,97.09,7.43,13.04,2.73,45.49,7.71,59.17,9.64,.42,.06,.8,.21,1.12,.43,4.39-.7,9.37-1.36,13.4-1.12,1.44,.09,2.91,.26,4.51,.52,.83,.13,3.61,.72,4.18,2.61,.29,.95,.03,1.97-.67,2.66Zm-200.8-17.66c19.38,7.8,59.1,21.7,101.56,26.81,31.47,3.78,54.56-5.01,67.51-10.23-15.81-2.35-40.15-6.18-51.08-8.47-37.12-7.78-68.34-10.18-95.45-7.34-4.71,.49-14.07-.16-22.54-.77Z"/>
    </g>
    <g>
      <path class="cls-1" d="M489.36,541.8c.44,.49,1.06,.82,1.77,.88,5.9,.48,33.35,1.62,39.69,1.5,76.46-1.45,164.75-46.51,202.45-65.75,8.8-4.49,15.76-8.04,18.05-8.7,8.29-2.37,15.87-6.86,23.2-11.19,6.5-3.84,12.63-7.48,19.2-9.75,2.19-.76,4.37-1.5,6.55-2.24,12.54-4.27,25.51-8.68,37.71-15.59,16.29-9.22,31.58-21.83,46.36-34.03l2.74-2.26c13.03-10.73,24.14-23.38,34.88-35.6,4.24-4.83,8.63-9.83,13.08-14.63,6-6.49,12.07-12.98,18.16-19.48,23.06-24.63,46.9-50.09,67.9-76.97,5.2-6.65,9.65-14.04,13.96-21.18,5.15-8.54,10.48-17.37,17.02-24.8,9.34-10.61,19-21.58,28.28-33.46,.9-1.15,.7-2.83-.46-3.73-1.15-.9-2.82-.7-3.73,.46-9.19,11.76-18.79,22.67-28.08,33.22-6.85,7.78-12.31,16.83-17.58,25.57-4.23,7.01-8.6,14.26-13.6,20.65-20.85,26.69-44.61,52.07-67.59,76.61-6.09,6.51-12.17,13-18.18,19.5-4.49,4.86-8.9,9.88-13.17,14.74-10.6,12.07-21.57,24.55-34.27,35.01l-2.74,2.26c-14.61,12.05-29.72,24.51-45.6,33.5-11.77,6.67-23.93,10.8-36.81,15.18-2.19,.74-4.38,1.49-6.57,2.25-7.07,2.45-13.73,6.39-20.16,10.19-7.04,4.17-14.33,8.48-21.96,10.66-2.79,.8-8.9,3.91-19.01,9.07-37.38,19.07-124.9,63.74-200.14,65.17-6.05,.11-33.48-1.02-39.16-1.48-1.46-.12-2.74,.97-2.86,2.43-.06,.75,.2,1.46,.66,1.98Z"/>
      <path class="cls-1" d="M1073.33,169.66c-.16-.78,.04-1.56,.49-2.15,1.13-4.84,2.27-11.3,3.48-18.08,1.68-9.43,3.41-19.18,5.27-25.51,6.93-23.61,27.13-49.99,42.96-64.51,6.81-6.24,14.24-12.29,22.7-18.48,.29-.21,.75-.62,1.31-1.11,3.77-3.32,6.88-5.8,9.71-5.09,.99,.25,1.77,.96,2.09,1.89,.55,1.62-.44,2.89-1.09,3.72-.12,.15-.25,.3-.34,.44-.62,1.49-1.42,2.86-2.19,4.19-.61,1.05-1.18,2.03-1.65,3.03-3.13,6.76-5.74,13.51-8.5,20.65l-.12,.32c-1.28,3.3-2.52,6.68-3.78,10.08-3.4,9.21-6.91,18.74-11.26,27.36-5.64,11.19-14.49,22.71-27.83,36.23-5.49,5.57-11.84,12.08-17.69,18.85-.42,.49-1.07,1.32-1.83,2.3-3.55,4.58-5.49,6.88-7.05,7.8-.63,.76-1.67,1.13-2.69,.87-.53-.14-.99-.42-1.33-.8-.48-.54-.73-1.25-.67-2Zm78.04-124.46c-8.3,6.08-15.58,12-22.25,18.12-15.31,14.03-34.82,39.45-41.45,62.08-1.78,6.05-3.48,15.66-5.14,24.95-.65,3.66-1.29,7.23-1.91,10.52,.09-.12,.18-.23,.25-.33,.83-1.07,1.54-1.99,2-2.52,5.96-6.9,12.38-13.48,17.93-19.11,12.94-13.12,21.48-24.21,26.87-34.89,4.21-8.36,7.67-17.74,11.02-26.81,1.27-3.43,2.52-6.84,3.81-10.16l.12-.32c2.67-6.91,5.43-14.06,8.63-20.97,.12-.25,.24-.5,.36-.75-.09,.07-.17,.13-.25,.19Z"/>
      <path class="cls-1" d="M615.91,526.58c.75,.84,1.99,1.14,3.08,.65,6.42-2.9,11.48-7.03,16.37-11.03,4.51-3.68,8.77-7.16,14-9.73,24.05-11.81,26.48-15.09,45.3-46.84,8.31-14.01,15.1-32.48,21.66-50.34,8.13-22.12,15.81-43.02,24.39-49.17,1.19-.85,1.47-2.51,.61-3.7-.86-1.19-2.51-1.47-3.7-.61-9.91,7.1-17.5,27.75-26.28,51.66-6.48,17.63-13.18,35.87-21.24,49.47-19.02,32.08-20.63,33.75-43.08,44.78-5.78,2.84-10.48,6.67-15.02,10.38-4.84,3.95-9.41,7.68-15.2,10.3-1.34,.6-1.93,2.18-1.33,3.51,.11,.25,.26,.48,.44,.68Z"/>
      <path class="cls-1" d="M611.93,528.65c.73,.82,1.93,1.13,3,.68,6.81-2.84,12.64-10.08,17.33-21.5,.14-.35,.25-.6,.31-.74,1.8-3.4,3.65-8.77,6-15.57,8.28-23.99,23.7-68.64,65.34-103.56,4.42-3.71,9.81-7.13,15.51-10.76,8.6-5.47,17.49-11.12,23.5-18.18,.95-1.12,.82-2.81-.31-3.74-1.12-.95-2.79-.81-3.74,.3-5.48,6.45-14.03,11.89-22.3,17.14-5.6,3.56-11.39,7.24-16.08,11.17-42.77,35.87-58.5,81.42-66.95,105.89-2.27,6.58-4.07,11.78-5.69,14.86-.09,.17-.27,.58-.51,1.17-4.13,10.07-9,16.34-14.46,18.62-1.35,.56-1.99,2.12-1.43,3.47,.12,.28,.28,.53,.47,.75Z"/>
      <path class="cls-1" d="M711.6,482.73c1.72-2.82,4.03-4.97,6.25-7.06,1.54-1.44,2.99-2.8,4.21-4.33,4.09-5.11,7.67-11.4,9.82-17.27,1.93-5.27,3.22-10.9,4.47-16.34,1.19-5.21,2.43-10.6,4.25-15.85,6.7-19.34,21.16-47.99,37.05-65.18,.91-.98,1.96-2.15,3.12-3.44,8.83-9.8,23.61-26.2,34.35-27.83,1.17-.18,2.29,.31,2.92,1.28,1.2,1.85,.88,3.64-7.36,16.43-.42,.65-.72,1.11-.8,1.25-1.24,2.26-2.51,4.52-3.79,6.8-4.75,8.47-9.66,17.22-13.08,26.14-2.06,5.38-4,10.83-5.88,16.11-6.59,18.52-12.81,36.01-24.35,52.5-5.57,7.95-13.87,16.61-24.69,25.73-1.57,1.33-3.29,2.55-4.95,3.74-2.56,1.83-4.97,3.55-6.81,5.55-1,1.08-2.67,1.14-3.75,.15-.52-.5-.81-1.15-.85-1.81-.08,.08-.16,.15-.25,.23-2.06,1.93-4.01,3.75-5.35,5.95-.77,1.25-2.4,1.65-3.65,.88-.23-.14-.43-.31-.6-.5-.76-.85-.91-2.13-.28-3.15Zm73.11-125.9c-1.18,1.31-2.25,2.5-3.17,3.49-15.38,16.63-29.41,44.48-35.94,63.32-1.72,4.97-2.92,10.22-4.09,15.29-1.28,5.6-2.61,11.39-4.66,16.98-2.1,5.73-5.45,11.83-9.33,17.03,.83-.62,1.68-1.22,2.51-1.82,1.65-1.18,3.2-2.29,4.61-3.48,10.47-8.82,18.46-17.14,23.77-24.71,11.13-15.9,17.23-33.07,23.7-51.23,1.89-5.31,3.84-10.79,5.92-16.23,3.55-9.28,8.56-18.21,13.41-26.84,1.27-2.26,2.53-4.51,3.76-6.75,.08-.15,.45-.73,1-1.58,2.23-3.45,3.77-5.96,4.84-7.78-8.67,4.72-19.84,17.11-26.34,24.32Z"/>
      <path class="cls-1" d="M817.24,418.88c4.02-7.65,7.14-16.21,10.15-24.48,1.42-3.9,2.89-7.93,4.44-11.82,.84-2.11,1.66-4.27,2.49-6.46,3.11-8.22,6.33-16.72,11.14-23.99,11.76-17.76,27.56-34.45,44.47-46.99,6.34-4.7,13-9.1,19.79-13.09,.48-.28,1.25-.85,2.08-1.46,2.85-2.1,5.02-3.61,7.04-3.89,.97-.14,1.89,.18,2.51,.88,1.84,2.06-.33,4.07-1.05,4.74-.16,.14-.31,.28-.4,.38-.24,.27-.4,.45-.52,.59-.15,.51-.43,1.09-1.07,2.07-.36,.56-.72,1.1-1.07,1.64-1.65,2.51-3.08,4.67-4.25,7.4-2.73,6.42-4.77,13.39-6.73,20.13-1.61,5.52-3.27,11.22-5.33,16.7-10.05,26.71-29.43,51.56-57.61,73.88-2.95,2.33-5.84,5.24-8.9,8.31-6.28,6.31-12.77,12.83-20.77,15.38-1.12,.36-2.29,.05-3.05-.8-1.29-1.44-2.14-2.4,6.64-19.13Zm75.85-109.46c-16.43,12.18-31.77,28.39-43.21,45.65-4.48,6.77-7.6,14.99-10.61,22.93-.84,2.21-1.67,4.4-2.52,6.54-1.52,3.81-2.97,7.81-4.38,11.68-3.07,8.43-6.25,17.16-10.44,25.13-2.19,4.16-3.88,7.62-5.03,10.16,4.85-2.89,9.35-7.41,13.74-11.82,3.03-3.05,6.17-6.2,9.36-8.73,27.42-21.71,46.24-45.79,55.94-71.58,1.99-5.29,3.62-10.9,5.21-16.32,2.01-6.89,4.09-14.01,6.94-20.73,.71-1.66,1.49-3.12,2.31-4.51-5.94,3.57-11.76,7.47-17.33,11.6Z"/>
      <path class="cls-1" d="M933.66,336.77c5.7-6.3,3.84-17.97,2.21-28.26-.76-4.76-1.47-9.25-1.46-13.12,.06-22.45,9.46-42.35,17.65-57.17,.84-1.53,1.67-3.07,2.51-4.62,3.94-7.33,8.02-14.92,13.78-21.28,7.89-8.71,18.76-19.17,25.78-19.53,1.15-.06,2.29,.65,2.7,1.73,.32,.85,.38,2.12-1.17,3.37-.03,.02-.05,.04-.08,.06-.5,.77-.97,1.59-1.38,2.46-1.02,2.14-2.17,4.64-2.95,7-2.43,7.26-3.45,15.26-4.43,23-.33,2.61-.66,5.22-1.05,7.78-3.78,25.42-12.53,47.48-28.38,71.52-.88,1.33-2.1,4.08-3.4,6.99-4.13,9.28-7.67,16.52-12.35,18.35-.26,.1-.52,.16-.78,.18-.79,1.84-1.85,3.56-3.25,5.1-.98,1.09-2.66,1.17-3.75,.19-.07-.07-.14-.13-.2-.2-.89-1-.9-2.53,.01-3.55Zm38.62-120.89c-5.32,5.89-9.25,13.18-13.04,20.23-.84,1.57-1.68,3.13-2.53,4.67-7.88,14.27-16.93,33.38-16.99,54.62,0,3.44,.67,7.73,1.39,12.28,1.01,6.37,2.1,13.2,1.6,19.43,2.34-3.4,4.76-8.84,6.42-12.56,1.45-3.25,2.7-6.06,3.82-7.75,15.4-23.36,23.9-44.76,27.56-69.38,.38-2.53,.7-5.09,1.03-7.67,1.02-7.99,2.07-16.26,4.66-24.01,.51-1.52,1.14-3.07,1.79-4.54-4.29,3.05-9.82,8.19-15.71,14.69Z"/>
      <path class="cls-1" d="M1008.04,256.38c.26-.29,.57-.51,.91-.65,.1-1.43,.07-4.41-.55-10.59-.08-.76-.11-1.25-.11-1.36,.22-13.1,.45-26.65,.36-40.44-.02-3.39-.11-6.82-.2-10.14-.22-8.05-.44-16.38,.34-24.79,1.97-21.32,15.1-48.4,29.9-61.65l1.2-1.08c10.35-9.36,20.79-17.96,27.1-17.58,.96,.06,1.8,.55,2.32,1.35,.64,.99,.67,2.28,.09,3.81-.88,2.37-2.16,4.31-3.41,6.19-.76,1.15-1.47,2.23-2.1,3.4-4.47,8.37-7.87,17.67-10.71,29.29-2.77,11.37-4.4,23.23-5.97,34.7-.94,6.85-1.91,13.93-3.12,20.88-1.3,7.45-4.17,14.56-6.95,21.43-.66,1.64-1.33,3.28-1.96,4.91-2.45,6.28-5.76,12.14-8.96,17.81-.85,1.5-1.69,3-2.53,4.51-.28,.5-2.55,4.24-4.49,7.37-1.06,1.7-2.11,3.38-2.91,4.62-.69,1.06-1.33,2.06-2.07,2.66,.39,7.09-.43,8.86-2.19,9.75-.46,.23-2.09,.87-3.79-.66-.07-.07-.14-.13-.2-.2-.89-1-.9-2.53,.01-3.55Zm35.4-146.76l-1.21,1.09c-13.69,12.26-26.32,38.36-28.15,58.19-.75,8.09-.54,15.89-.32,24.16,.09,3.34,.18,6.8,.2,10.25,.09,13.4-.14,27.12-.34,39.34,2.27-3.63,5.06-8.2,5.41-8.83,.84-1.52,1.7-3.04,2.55-4.55,3.25-5.76,6.33-11.2,8.64-17.13,.64-1.65,1.31-3.31,1.98-4.97,2.67-6.62,5.44-13.46,6.64-20.36,1.19-6.85,2.16-13.89,3.09-20.69,1.59-11.6,3.23-23.6,6.07-35.24,2.94-12.06,6.5-21.77,11.18-30.53,.74-1.39,1.56-2.63,2.35-3.83,.43-.66,.86-1.3,1.25-1.94-4.18,2.14-10.65,7.17-19.35,15.04Z"/>
      <path class="cls-1" d="M1004.28,266.78c-.73-1.95,.69-2.93,2.06-3.89l2.47-1.7c1.53-1.05,3.62-2.5,3.93-2.73,1.34-1.06,2.7-2.07,4.05-3.08,4.23-3.16,8.22-6.14,11.4-10.25,8.88-11.48,19.93-25.77,32.58-36.19,11.34-9.33,24.36-16.16,36.95-22.77,1.87-.98,3.75-1.97,5.62-2.96,6.37-3.38,13.09-6.15,19.59-8.83,4.01-1.65,8.16-3.36,12.15-5.19,.75-.34,1.73-.71,2.86-1.13,1.13-.42,3.02-1.12,4.71-1.9,1.37-1.16,2.68-2.24,3.89-3.2,.35-.28,.76-.45,1.17-.53,.6-.17,1.26-.14,1.87,.15,1.33,.62,1.9,2.21,1.27,3.53-.88,1.88-2.79,3.29-5.29,4.53-7.93,6.79-17.77,16.44-23.45,23.79-2.71,3.5-5.36,7.19-7.92,10.75-5.22,7.26-10.62,14.76-16.99,21.44-12.26,12.86-30.22,24.37-48.04,30.79-10.13,3.65-20.53,6.48-30.3,9.07l-.18,.05c-8.95,2.5-12.35,2.91-13.79,1.3-.26-.29-.46-.65-.61-1.07Zm120.67-87.48c-6.38,2.63-12.98,5.35-19.13,8.61-1.88,1-3.76,1.98-5.64,2.97-12.35,6.48-25.12,13.18-36.04,22.16-12.19,10.04-23.04,24.06-31.76,35.34-3.62,4.68-8.1,8.02-12.42,11.25-.74,.55-1.49,1.11-2.23,1.68,9.98-2.64,19.76-5.32,29.62-8.87,17.09-6.16,34.28-17.17,46-29.46,6.12-6.42,11.41-13.77,16.53-20.88,2.59-3.6,5.27-7.32,8.03-10.89,3.39-4.38,8.19-9.54,13.21-14.47-2.07,.88-4.14,1.73-6.17,2.57Z"/>
      <path class="cls-1" d="M906.91,370.98c.54-1.55,1.85-1.79,3.37-2.06,.8-.14,3.24-.57,3.85-1,2.29-1.63,4.93-2.92,7.49-4.18,1.55-.76,3.01-1.47,4.36-2.24,7.1-4.03,13.56-9.5,19.8-14.8,3.7-3.13,7.52-6.38,11.48-9.32,31.27-23.3,64.91-38.58,99.99-45.42,.97-.19,3.51-.81,6.44-1.54,20.85-5.13,25.01-5.66,26.94-4.64,1.14,.61,1.74,2.11,1.29,3.33-.55,1.48-1.94,1.72-2.48,1.79-.46,.31-.93,.7-1.42,1.11-.52,.44-1.05,.88-1.61,1.27-1.53,1.09-3.05,2.13-4.56,3.16-2.99,2.04-5.82,3.97-8.65,6.25-4.95,3.99-9.78,8.34-14.45,12.56-4.99,4.5-10.14,9.15-15.52,13.43-1.87,1.49-3.8,3.04-5.79,4.63-33.75,27.06-84.76,67.95-129.38,40.82-.22-.14-.44-.32-.62-.51-.64-.72-.85-1.75-.53-2.66Zm158.05-75.39c-3.25,.8-5.6,1.38-6.69,1.59-34.3,6.68-67.21,21.64-97.83,44.46-3.82,2.85-7.58,6.03-11.22,9.12-6.43,5.45-13.08,11.09-20.62,15.36-1.49,.85-3.1,1.63-4.65,2.39-2.37,1.16-4.82,2.36-6.75,3.73-.21,.15-.44,.29-.68,.42,40.18,18.58,86.48-18.53,117.59-43.48,1.99-1.6,3.93-3.15,5.81-4.64,5.25-4.17,10.34-8.77,15.27-13.21,4.73-4.26,9.61-8.67,14.68-12.75,2.84-2.29,5.72-4.27,8.51-6.18-4.85,1.08-10.22,2.4-13.42,3.19Z"/>
      <path class="cls-1" d="M773.92,455.79c-.43-1.4,.36-2.89,1.76-3.32,8.07-2.47,15.26-2.24,22.18-.79,.19-.12,.4-.22,.63-.29,4.93-1.51,12.56-3.84,20.2-6.17,7.56-2.31,15.12-4.61,20.06-6.13,30.52-9.36,66.83-19.19,104.7-21.17,1.9-.1,9.88-.41,17.45-.45,15.93-.1,16.91,.93,17.86,1.92,1,1.07,1.36,2.38,.97,3.64-.76,2.45-3.75,3.27-7.28,4.01-.36,.08-.65,.13-.82,.18-10.75,3.29-22.27,6.95-33.68,11.4-7.9,3.08-15.6,6.72-23.05,10.24-17.06,8.07-34.69,16.41-55.24,18.03-5.94,.47-26.46,1.63-40.93-3.06-2.43-.79-4.81-1.62-7.11-2.43-11.75-4.12-21.9-7.68-34.4-3.85-1.02,.31-2.09-.02-2.76-.77-.25-.28-.44-.61-.56-.99Zm169.82-32.56c-37.29,1.95-73.21,11.68-103.42,20.94-4.95,1.52-12.51,3.82-20.07,6.13-4.52,1.38-9.05,2.76-13.01,3.97,2.04,.67,4.09,1.39,6.15,2.11,2.27,.8,4.61,1.62,6.99,2.39,13.54,4.39,33.18,3.27,38.88,2.82,19.57-1.54,36-9.31,53.39-17.53,7.53-3.56,15.31-7.24,23.39-10.39,10.79-4.2,21.63-7.7,31.84-10.85-7.63-.17-18.8,.13-24.13,.41Z"/>
      <path class="cls-1" d="M640.64,515.92c.69-1.85,3.5-2.27,4.34-2.35,1.61-.16,3.09-.24,4.53-.24,4.04,0,8.96,.97,13.3,1.94,.34-.2,.73-.33,1.15-.36,13.77-1.09,46.47-4.04,59.66-5.97,38.08-5.55,69.93-6.01,97.36-1.41,4.36,.73,14.39,.63,22.45,.55,11.29-.12,13.17-.04,14.37,.6,1.05,.56,1.61,1.76,1.36,2.92-.34,1.58-.4,1.86-11.54,5.69-5.51,1.89-14.51,4.81-26.15,7.97-19.7,5.34-49.83,12.09-81.55,13.92-34.09,1.97-57.85-9.39-70.61-15.5-3.32-1.59-5.94-2.84-7.34-3.16-4.14-.93-8.86-1.89-12.48-1.89-1.21,0-2.46,.06-3.77,.19-.07,.03-.14,.05-.22,.08l-1.48,.45c-1.54,.47-2.5-.32-2.85-.68-.02-.02-.03-.03-.05-.05-.66-.73-.85-1.77-.5-2.7Zm179.46-3.14c-26.88-4.51-58.19-4.04-95.72,1.43-11.05,1.61-35.58,3.93-51.5,5.3,12.6,6.01,35.11,16.21,66.74,14.38,42.7-2.47,83.2-13.89,103.02-20.48-8.49,.09-17.88,.16-22.55-.63Z"/>
    </g>
  </g>
</svg>