<?xml version="1.0" encoding="UTF-8"?>
<svg id="Réteg_2" data-name="Réteg 2" xmlns="http://www.w3.org/2000/svg" viewBox="0 0 324.32 486.66">
  <defs>
    <style>
      .cls-1 {
        fill: #62622a;
      }
    </style>
  </defs>
  <g id="Layer_1" data-name="Layer 1">
    <path class="cls-1" d="M162.16,486.66l-10.42-15.3c-.38-.55-38.09-56.03-75.29-120.91C25.72,261.99,0,198.64,0,162.16,0,72.74,72.74,0,162.16,0s162.16,72.74,162.16,162.16c0,36.48-25.72,99.83-76.44,188.3-37.2,64.87-74.91,120.35-75.29,120.91l-10.42,15.3Zm0-461.43C86.65,25.22,25.22,86.65,25.22,162.16c0,59.65,90.79,209.52,136.93,279.44,46.14-69.92,136.94-219.81,136.94-279.44,0-75.51-61.43-136.94-136.94-136.94Zm0,226.2c-53.78,0-97.53-43.75-97.53-97.53S108.38,56.36,162.16,56.36s97.53,43.75,97.53,97.53-43.75,97.53-97.53,97.53Zm0-169.84c-39.87,0-72.31,32.44-72.31,72.31s32.44,72.31,72.31,72.31,72.31-32.44,72.31-72.31-32.44-72.31-72.31-72.31Z"/>
  </g>
</svg>