<svg width="411" height="278" viewBox="0 0 411 278" fill="none" xmlns="http://www.w3.org/2000/svg">
<g clip-path="url(#clip0_34_17)">
<path d="M396.94 0H13.21C5.93 0 0 5.93 0 13.21V264.75C0 272.03 5.93 277.96 13.21 277.96H396.94C404.22 277.96 410.15 272.03 410.15 264.75V13.21C410.15 5.93 404.22 0 396.94 0ZM388.64 36.65V241.81L286.06 139.23L388.64 36.65V36.65ZM202.28 187.04L36.76 21.51H373.34L207.81 187.04C206.29 188.56 203.8 188.56 202.28 187.04ZM139.3 154.49L197.57 212.76C199.57 214.76 202.22 215.86 205.04 215.86C207.86 215.86 210.52 214.76 212.51 212.76L270.83 154.44L372.84 256.45H37.35L139.31 154.49H139.3ZM124.09 139.28L21.51 241.86V36.7L124.09 139.28Z" fill="white"/>
</g>
<defs>
<clipPath id="clip0_34_17">
<rect width="410.15" height="277.96" fill="white"/>
</clipPath>
</defs>
</svg>
