<?xml version="1.0" encoding="UTF-8"?>
<svg id="Réteg_2" data-name="Réteg 2" xmlns="http://www.w3.org/2000/svg" viewBox="0 0 410.15 277.96">
  <defs>
    <style>
      .cls-1 {
        fill: #62622a;
      }
    </style>
  </defs>
  <g id="Layer_1" data-name="Layer 1">
    <path class="cls-1" d="M396.94,0H13.21C5.93,0,0,5.93,0,13.21v251.54c0,7.28,5.93,13.21,13.21,13.21H396.94c7.28,0,13.21-5.93,13.21-13.21V13.21c0-7.28-5.93-13.21-13.21-13.21Zm-8.3,36.65V241.81l-102.58-102.58,102.58-102.58ZM202.28,187.04L36.76,21.51H373.34L207.81,187.04c-1.52,1.52-4.01,1.52-5.53,0Zm-62.98-32.55l58.27,58.27c2,2,4.65,3.1,7.47,3.1s5.48-1.1,7.47-3.1l58.32-58.32,102.01,102.01H37.35l101.96-101.96Zm-15.21-15.21L21.51,241.86V36.7l102.58,102.58Z"/>
  </g>
</svg>