<svg width="364" height="389" viewBox="0 0 364 389" fill="none" xmlns="http://www.w3.org/2000/svg">
<g filter="url(#filter0_d_32_6)">
<path d="M269.08 388.72C255.2 388.72 240.61 386.27 225.4 381.36C194.66 371.44 165.19 352.75 142.95 337.57C121.5 322.93 101.77 304.66 82.6399 281.72C62.4099 259.74 46.8999 237.78 35.1999 214.59C23.0799 190.54 8.41988 158.86 2.62988 127.09C-4.06012 90.3404 2.07988 58.7704 20.8899 33.2604C28.7499 22.6004 38.0799 14.7504 49.4099 9.24039C60.0899 4.04039 72.5099 1.05039 87.3699 0.0703941C96.0499 -0.499606 107.84 1.90039 114.63 16.5504C120.1 28.3504 125.85 40.3004 131.41 51.8704C135.4 60.1704 139.53 68.7504 143.53 77.2404C146.11 82.7004 148.25 88.2004 149.9 93.6104C153.16 104.28 150.22 113.05 140.9 120.42C128.89 129.92 117.18 139.23 105.97 148.72C105.53 149.09 104.66 149.83 104.11 150.38C104.25 150.99 104.58 152.05 105.32 153.87C116.77 182.01 130.65 205.07 147.76 224.38L148.02 224.68C164.91 244.18 185.95 260.98 212.34 276.03C214.05 277 215.05 277.48 215.64 277.69C216.26 277.22 217.11 276.45 217.53 276.06C228.42 266.19 239.18 255.81 250.18 245.15C258.7 236.89 267.78 235.12 277.94 239.76C283.08 242.11 288.26 244.96 293.33 248.23C301.21 253.32 309.18 258.53 316.88 263.58C327.61 270.61 338.71 277.88 349.69 284.86C363.32 293.52 364.14 305.52 362.44 314.05C359.52 328.65 354.92 340.57 348.37 350.48C341.42 360.99 332.41 369.21 320.81 375.59C304.93 384.34 287.63 388.72 269.08 388.72V388.72ZM90.1199 22.6004C89.7399 22.6004 89.3199 22.6204 88.8399 22.6504C76.9599 23.4304 67.2899 25.7004 59.2899 29.5804C51.3299 33.4504 44.7199 39.0404 39.0899 46.6804C6.00988 91.5404 28.7699 151.58 55.3899 204.39C66.1599 225.76 80.5699 246.1 99.4499 266.58L99.8299 267.01C117.66 288.42 135.93 305.38 155.69 318.87C204.54 352.21 261.07 382.66 309.89 355.76C318.2 351.18 324.61 345.37 329.49 337.99C334.4 330.57 337.92 321.28 340.25 309.61C340.8 306.83 340.82 306.02 337.55 303.95C326.44 296.89 315.27 289.57 304.48 282.5C296.81 277.48 288.88 272.28 281.07 267.24C276.91 264.56 272.7 262.24 268.55 260.34C268.13 260.15 267.83 260.04 267.63 259.98C267.33 260.18 266.78 260.59 265.94 261.4C254.81 272.19 243.89 282.72 232.74 292.82C230.32 295.02 226.26 298.7 220.45 299.99C211.99 301.86 204.66 297.69 201.14 295.68C172.52 279.36 149.57 261 130.99 239.57L130.82 239.38C111.99 218.13 96.7899 192.95 84.3599 162.4C82.8299 158.65 79.6599 150.84 82.6299 142.69C84.6699 137.1 88.8499 133.56 91.3499 131.45C102.82 121.74 114.7 112.29 126.86 102.67C127.77 101.95 128.25 101.46 128.49 101.18C128.46 100.97 128.39 100.65 128.25 100.22C126.92 95.8504 125.17 91.3704 123.06 86.9004C119.09 78.4904 114.98 69.9404 111.01 61.6804C105.42 50.0504 99.6399 38.0204 94.0999 26.0804C92.7499 23.1704 91.9599 22.6104 90.1099 22.6104L90.1199 22.6004Z" fill="white"/>
</g>
<defs>
<filter id="filter0_d_32_6" x="-3.98926" y="-0.00488281" width="371.077" height="396.726" filterUnits="userSpaceOnUse" color-interpolation-filters="sRGB">
<feFlood flood-opacity="0" result="BackgroundImageFix"/>
<feColorMatrix in="SourceAlpha" type="matrix" values="0 0 0 0 0 0 0 0 0 0 0 0 0 0 0 0 0 0 127 0" result="hardAlpha"/>
<feOffset dy="4"/>
<feGaussianBlur stdDeviation="2"/>
<feComposite in2="hardAlpha" operator="out"/>
<feColorMatrix type="matrix" values="0 0 0 0 0 0 0 0 0 0 0 0 0 0 0 0 0 0 0.25 0"/>
<feBlend mode="normal" in2="BackgroundImageFix" result="effect1_dropShadow_32_6"/>
<feBlend mode="normal" in="SourceGraphic" in2="effect1_dropShadow_32_6" result="shape"/>
</filter>
</defs>
</svg>
