<?xml version="1.0" encoding="UTF-8"?>
<svg id="Réteg_2" data-name="Réteg 2" xmlns="http://www.w3.org/2000/svg" viewBox="0 0 363.09 388.72">
  <defs>
    <style>
      .cls-1 {
        fill: #62622a;
      }
    </style>
  </defs>
  <g id="Layer_1" data-name="Layer 1">
    <path class="cls-1" d="M269.08,388.72c-13.88,0-28.47-2.45-43.68-7.36-30.74-9.92-60.21-28.61-82.45-43.79-21.45-14.64-41.18-32.91-60.31-55.85-20.23-21.98-35.74-43.94-47.44-67.13-12.12-24.05-26.78-55.73-32.57-87.5-6.69-36.75-.55-68.32,18.26-93.83,7.86-10.66,17.19-18.51,28.52-24.02C60.09,4.04,72.51,1.05,87.37,.07c8.68-.57,20.47,1.83,27.26,16.48,5.47,11.8,11.22,23.75,16.78,35.32,3.99,8.3,8.12,16.88,12.12,25.37,2.58,5.46,4.72,10.96,6.37,16.37,3.26,10.67,.32,19.44-9,26.81-12.01,9.5-23.72,18.81-34.93,28.3-.44,.37-1.31,1.11-1.86,1.66,.14,.61,.47,1.67,1.21,3.49,11.45,28.14,25.33,51.2,42.44,70.51l.26,.3c16.89,19.5,37.93,36.3,64.32,51.35,1.71,.97,2.71,1.45,3.3,1.66,.62-.47,1.47-1.24,1.89-1.63,10.89-9.87,21.65-20.25,32.65-30.91,8.52-8.26,17.6-10.03,27.76-5.39,5.14,2.35,10.32,5.2,15.39,8.47,7.88,5.09,15.85,10.3,23.55,15.35,10.73,7.03,21.83,14.3,32.81,21.28,13.63,8.66,14.45,20.66,12.75,29.19-2.92,14.6-7.52,26.52-14.07,36.43-6.95,10.51-15.96,18.73-27.56,25.11-15.88,8.75-33.18,13.13-51.73,13.13ZM90.12,22.6c-.38,0-.8,.02-1.28,.05-11.88,.78-21.55,3.05-29.55,6.93-7.96,3.87-14.57,9.46-20.2,17.1-33.08,44.86-10.32,104.9,16.3,157.71,10.77,21.37,25.18,41.71,44.06,62.19l.38,.43c17.83,21.41,36.1,38.37,55.86,51.86,48.85,33.34,105.38,63.79,154.2,36.89,8.31-4.58,14.72-10.39,19.6-17.77,4.91-7.42,8.43-16.71,10.76-28.38,.55-2.78,.57-3.59-2.7-5.66-11.11-7.06-22.28-14.38-33.07-21.45-7.67-5.02-15.6-10.22-23.41-15.26-4.16-2.68-8.37-5-12.52-6.9-.42-.19-.72-.3-.92-.36-.3,.2-.85,.61-1.69,1.42-11.13,10.79-22.05,21.32-33.2,31.42-2.42,2.2-6.48,5.88-12.29,7.17-8.46,1.87-15.79-2.3-19.31-4.31-28.62-16.32-51.57-34.68-70.15-56.11l-.17-.19c-18.83-21.25-34.03-46.43-46.46-76.98-1.53-3.75-4.7-11.56-1.73-19.71,2.04-5.59,6.22-9.13,8.72-11.24,11.47-9.71,23.35-19.16,35.51-28.78,.91-.72,1.39-1.21,1.63-1.49-.03-.21-.1-.53-.24-.96-1.33-4.37-3.08-8.85-5.19-13.32-3.97-8.41-8.08-16.96-12.05-25.22-5.59-11.63-11.37-23.66-16.91-35.6-1.35-2.91-2.14-3.47-3.99-3.47Zm13.59,128.24h0Z"/>
  </g>
</svg>