<?xml version="1.0" encoding="UTF-8"?>
<svg id="Réteg_2" data-name="Réteg 2" xmlns="http://www.w3.org/2000/svg" viewBox="0 0 1399.46 73.61">
  <defs>
    <style>
      .cls-1 {
        fill: #fff;
      }
    </style>
  </defs>
  <g id="_ŽÓť_1" data-name="—ŽÓť_1">
    <g>
      <path class="cls-1" d="M1078.16,37.53c.01,.1,.04,.22,.05,.32l-.05-.32h0Z"/>
      <path class="cls-1" d="M736.32,17.55c4.68,2.54,5.71,10.62,13.07,9.23,1.22-2.33,2.18-4.16,2.91-5.56,9.18,4.25,17.63,6.85,27.39,.09-1.61-2.56-3.25-5.16-4.85-7.7-3.11,1.36-5.41,2.36-8.99,3.92,3.43-4.5,5.8-7.61,8.24-10.81,9.44,4.86,8.27,14.12,9.96,22.29,4.01,.12,7.56,.23,11.73,.35-1.12-2.85-1.74-4.42-2.55-6.47,2.99,.93,5.27,1.68,7.58,2.35,3.41,1,6.84,1.95,10.26,2.92,.78-5.07,6-3.03,8.53-5.3,.85,2.06,.81,4.46,4.5,4.6,5.81,.22,11.58,1.58,17.38,2.36,.35,.05,.81-.76,1.22-1.17-1.32-1.91-2.65-3.82-4.09-5.89,4.01-.22,7.41,.52,9.66-.77,2.66-1.53,4.47-4.2,8.82-1.3-3.01,2.41-5.56,4.45-9.14,7.31,3.34-.36,5.54-1.32,6.79-.61,7.01,3.98,14.31,2.46,21.39,1.14,4.87-.91,9.28-.65,13.74,1.15,0,.76,0,1.51,0,2.27,2.51-.31,5.03-.61,7.54-.92-1.68-3.69-4.15-3.65-7.13-1.26-1.98-5.2-1.34-12.03-9.41-13.23q3.15-2.84,5.83,.68c2.08-.78,4.27-1.61,6.12-2.31,1.99,4.14,3.96,7.64,5.32,11.36,.49,1.34-.21,3.11-.48,4.73-.08,0-.16,.02-.24,.03,.06,.12,.13,.16,.18,.29l.11-.33c3.97-.08,6.93-1.07,6.73-6.06-.03-.84,1.93-1.75,3.08-2.64,0,0,0,0,0,.01-.02,.64-.09,1.3-.16,1.96,2.92-.62,2.16-8.55,8.37-3.35-3.01,1.2-5.69,2.28-8.38,3.36,1.86,1.64,3.57,3.51,5.63,4.84,2.27,1.47,6.58,3.94,7.04,3.4,3.66-4.2,9.63-1.4,13.46-5.11,1.83-1.77,5.2-1.96,7.84-2.85,1.21,3.12,1.98,5.11,2.75,7.11-.36,.17-.71,.34-1.07,.51-1.55-1.37-3.09-2.75-5.15-4.58-2.06,2.07-3.86,3.89-6.03,6.08q15.61,4.26,19.82-2.65c1.84,1.51,3.53,4.04,5.55,4.34,5.29,.79,10.72,.75,16.1,.76,3.93,0,8.62-1.95,11.63-.41,6.8,3.48,12.84,1.53,19.19-.15,.47-.13,.77-.91,1.15-1.39-1.13-1.88-2.21-3.67-3.29-5.47,.62-.46,1.25-.93,1.87-1.39,2.93,3.19,5.86,6.37,9.78,10.64,2.45,.31,6.67,3.31,10.39-1.19-1.92-4.37,3.11-8.08,.53-12.25q10.45-2.64,12.39-.52c-6.51,3.62-6.6,3.67-3.41,10.18,1.33,2.71,3.15,5.18,4.73,7.73,2.56-.14,4.82,.09,6.9-.43,6.48-1.64,13.79,1.15,19.67-3.63,4.19,5.17,9.31,5.06,13.34-.32-.2-1.64-.92-3.8-.19-4.55,2.42-2.5,5.43-4.43,8.23-6.56,.05,.05,.1,.09,.15,.14,0-.1,.04-.18,.04-.28l-.36-.03c1.59-1.52,3.18-3.05,5.55-5.33-7.95,.03-14.33,.05-20.85,.07,.74-1.43,1.47-2.86,2.56-4.97-8.46-.39-14.26,3.42-19.32,8.22-3.02,2.87-4.98,4.86-7.68-.12-.38-.7-2.86-.26-4.02-.32-.76-2.96-1.46-5.63-2.45-9.5-3.68,1.21-6.73,2.21-9.92,3.26-.56-1.45-1.18-3.03-1.56-4.02-5.75,1.01-11.27,1.05-15.91,3.1-3.26,1.44-6.48,1-7.62-.51-3.56-4.74-7.59-3.24-12.41-2.36,.38,2.45,.74,4.71,1.1,7.02-5.02,.23-6.47-4.23-9.29-6.93-2.85-2.73-9.92-2.18-11.8,.91-2.47,4.06-.55,6.33,3.42,7.82,.75,.28,1.03,1.83,2.01,3.73-3.45-1.09-5.8-1.83-7.99-2.52-2.02-7.96-10.42-13.57-15.32-11.57-2.25,2.5-3.84,4.26-4.68,5.2-3.18-2.49-6.7-4.11-8.45-6.86-3.47-5.44-6.62,.05-9.83-.42-.83-.12-1.71,.05-2.57,.13-5.94-3.48-11.22-1.58-16.35,2.05-2.14-2.96-4.3-5.33-8.64-3.59-1.53,.61-3.78-.38-5.66-.84-3.88-.94-7.43-2.7-11.54,.4-2.98,2.25-7.03,3.09-10.63,4.57-2.3-1.16-5.04-3.31-8.07-3.87-4.86-.89-9.92-.72-15.82-1.04-.62,2.37-1.46,5.59-2.35,8.98-2.16,.85-4.35,1.71-7.6,2.98,.82-5.06,1.47-9.03,2.12-13.01-.61-.28-1.22-.57-1.83-.85-2.38,1.9-4.76,3.81-7.14,5.71,0,.03,.01,.05,.02,.08-8.2,.4-15.44-2.67-22.32-6-3.17,1.37-6.17,2.66-9.17,3.96,.86-2,.64-3.59-1.94-3.88-5.83-.64-11.68-1.12-17.52-1.71-2.38-.24-5.39,.18-6.98-1.11-4.51-3.63-8.13-1.18-12.02,.2,.17,2.92,.32,5.39,.54,9.26-5.71-3.29-8.38-9.8-15.36-6.86-.53,1.47-1.23,3.43-1.67,4.67-4.03,.48-7.45,.56-10.69,1.38-3.06,.78-3.52,3.12-2.08,5.82Zm331.8,9.67c-2.99,1.81-5.17,3.12-7.33,4.42,1.17-2.49,1.48-6.05,7.33-4.42Zm-13.45,2.49c2.07,.72,3.99,1.39,5.9,2.06-.04,.02-.08,.05-.11,.07,1.34,1.9,2.71,3.81,4.12,5.72-4.32-3.56-8.66-5.14-13.58-.59-.75,.69-2.7,.08-5.48,.06,3.78-3.02,6.38-5.1,9.16-7.33Zm-87.04,1c-4.9-.51-5.97-2.89-4.82-12.72,1.59,4.2,3.18,8.41,4.82,12.72Zm-33.2-12.65c-3.79-1.21-5.75-3.61-5.35-7.57,3.14,1.59,4.95,4.1,5.35,7.57Zm-27.04,4.07c-4.77-1.95-4.84-2.08-4.89-7.54,1.91,2.98,3.38,5.28,4.89,7.54Zm-70.13-3.36c-.82,.04-1.63,.08-2.45,.12,.32-2.07,.63-4.14,.94-6.21,.51,2.03,1.01,4.06,1.52,6.09Zm-14.47-1.17c-1.22,1.88-2.15,3.31-3.07,4.72-1.26-2.3-2.55-4.66-4.57-8.38,3.23,1.54,5.14,2.46,7.64,3.65Zm-12.82-2.24c-2.66-1.09-6.12-.73-5.98-5.31,1.75,.56,3.5,1.12,5.24,1.69,.24,1.21,.49,2.42,.73,3.63Z"/>
      <path class="cls-1" d="M1024.13,36.66s-.08,.07-.11,.11c.04,.09,.04,.18,.09,.27l.03-.38Z"/>
      <path class="cls-1" d="M1359.79,48.58c-.08,.06-.16,.13-.23,.19,.07,.05,.14,.12,.2,.16l.03-.35Z"/>
      <path class="cls-1" d="M1258.04,51.27c-1.8,4.28-.13,6.95,.92,10.75,3.4-1.92,6.09-3.43,8.73-4.92,6.61,8.21,7.68,8.4,16.2,3.64,3.83,1.24,7.03,2.35,10.28,3.29,1.17,.34,3.52,.43,3.53,.36,.99-6.5,5.63-1.89,6.6-1.25,8.15,5.42,18.82,1.16,26.72,7.24,.91,.7,2.94-.08,4.48-.17-.44-5.3,1.93-7.92,6.71-8.42,.42-.04,.92,.67,1.79,1.36-1.11,2.18-2.25,4.41-3.38,6.64,.35,.28,.71,.55,1.06,.83,2.24-1.37,4.48-2.74,6.46-3.94,4.01,1.21,5.97,5.42,11.36,3.82,3.17-.94,7.24,1.24,8.99-5.34,1.49,5.99,3.96,8.05,8.58,7.01,.65-2.46,1.27-4.84,2.15-8.16,3.83,3.25,1.54,11.04,8.09,9.36,2.89-.74,5.16-3.86,7.99-6.12-2.32-1.46-3.53-2.23-4.8-3.03,1.32-1.55,2.38-2.8,3.44-4.05-4.4,1.5-6.9-.65-10.36-3.93,2.35-.03,3.51-.03,4.67-.07,.88-.03,1.75-.11,3.59-.23-8.08-6.34-9.14-6.84-13.41-5.12-4.73,1.9-9.33,4.1-13.62,6.01-2.7-2.46-4.92-4.48-7.17-6.53,.64-.51,1.29-1.03,1.93-1.55-.86-.66-1.92-1.8-2.43-1.59-2.97,1.24-5.78,2.86-8.16,4.09-1.03-.98-1.8-1.71-2.77-2.63-2.88,2.68-.89,9.65-8,7.46-.16-2.51-.33-5.13-.53-8.14-4.83-.24-9.14-.16-13.34-.75-3.97-.57-8.2-4.57-11.32,1.94,.75,1.52,1.59,3.23,2.43,4.95-2.28-1-4.51-2.12-6.85-2.91-4.92-1.65-5.43-2.52-3.18-6.85,.76-1.47,1.81-2.8,2.58-3.96-9.78,.41-19.18,.46-28.5,1.38-3.37,.33-8.32-2.35-10.13,3.17-3.42-5.18-8.04-6.24-13.47-4.38,.92,4.01,3.24,8.09,2.13,10.73Zm98.53,4.48c1.37,.96,2.55,2.19,3.79,3.35-.55,.61-1.09,1.21-1.64,1.82-1.44-.98-2.88-1.96-4.33-2.94,.75-.78,2.04-2.32,2.17-2.22Zm-40.55-1.4c1.51-1.55,3.04-3.11,4.8-4.92-.25,7.05-.28,7.17-4.8,4.92Zm-14.34-1.17c1.18,1.47,2.35,2.94,3.53,4.41-.69,.46-1.38,.91-2.07,1.37-.93-1.62-1.86-3.24-2.8-4.86,.45-.3,.89-.61,1.34-.91Zm-26.23,4.32c.32,1.02,.65,2.4,.19,3.19-.3,.51-1.95,.23-3.97,.38,.74-1.76,.94-2.89,1.59-3.57,.38-.39,2.11-.24,2.18,0Zm-1.69-5.74c-.27,.34-.54,.68-.82,1.02-2.06-1.21-4.13-2.43-6.4-3.77,1.15-1.38,2.04-2.46,2.92-3.52,1.43,2.09,2.86,4.18,4.3,6.27Z"/>
      <path class="cls-1" d="M210.08,32.89c2.95-.38,5.75-1.92,8.61-3.02,4.26,.95,8.41,2.39,12.64,2.68,3.85,.26,7.78-.75,11.68-1.21-.03-.01-.06-.02-.09-.03,11.39-.68,22.78-1.35,33.85-2.01,1.02-2.93,2.14-6.16,3.52-10.13,3.19,1.72,5.26,2.83,7.64,4.11-2.47,1.63-4.31,2.86-6.68,4.42,1.58,.96,2.42,1.92,3.08,1.81,6.46-1.12,12.76-3.32,19.36,.25,1.32,.72,4.69-1.14,6.26-2.68,.64-.63-.97-3.56-1.56-5.45v-.04c-3.56,3.25-5.39,.37-7.69-1.94-1.65-1.67-4.27-4.24-5.76-3.84-3.95,1.06-6.19,.04-8.77-2.84-1.19-1.33-4.77-2.28-6.03-1.47-5.1,3.29-12.84,1.62-15.98,8.5-.38,.84-1.47,1.36-2.96,2.68-.84-3.95-1.42-6.66-2.27-10.63-3.98-.32-8.52-1.56-12.63-.72-2.88,.59-7.87-2.24-8.9,3.49-3.86-3.28-8.71-.63-12.92-2.18-7.69-2.85-9.11-1.8-9.67,7.32-5.55,.54-11.23,1.09-16.88,1.64,1.67,5.86-3.72,8.6-5.87,12.81,4.43-1.68,8.86-3.36,12.12-4.6,2.44,1.35,4.29,3.28,5.86,3.07Zm32.67-1.65c-1.53-.6-3.07-1.2-4.6-1.8,.06-.45,.11-.9,.17-1.34,2.2-.15,4.4-.3,8.38-.56-2.08,1.95-3.04,2.85-3.95,3.71Zm9.65-11.72c-2.45,2.48-4.68,1.5-6.91,.08,2.16-1.44,4.29-3.6,6.91-.08Zm-8.22-3.17c.69,.58,.72,1.95,.94,3.09-1.6-.13-3.21-.25-4.81-.38,.16-.84,.08-2.22,.52-2.41,1.02-.45,2.73-.83,3.36-.3Zm-9.48,3.17c3.01,1.84,2.48,3.87,.93,5.57-3.6-1.33-6.96-2.57-9.8-3.62,4.58-3.7,5.6-3.95,8.87-1.95Zm-16.15,10.16c-2.01-.74-4.05-1.49-7.06-2.6,4.76-2.08,6.15-.18,7.06,2.6Z"/>
      <path class="cls-1" d="M192.09,34.42h0s-.1,.16-.1,.16c.03-.06,.07-.11,.1-.16Z"/>
      <path class="cls-1" d="M29.74,42.53c12.2-.61,24.22-1.07,36.23-1.84,14.77-.95,29.51-2.27,44.28-3.18,5.42-.33,10.23-1.46,13.77-5.93,.19-.24,1.07,.05,1.63,.1,.1,.93,.2,1.85,.35,3.24,4.81-1.35,8.45-7.82,14.5-3.66,.37,.26,1.61-.71,2.43-1.13,4.9-2.56,7.92-6.55,8.97-11.71-3.43,.45-7.1,1.76-10.44,1.18-5.35-.94-8.4,1.13-10.74,5.43-2.39-.59-4.78-1.18-7.1-1.75-.77,1.68-1.37,3.01-2.01,4.42-2.59-2.13-4.69-3.87-6.41-5.29-4.44,2.99-8.27,5.58-12.13,8.18-1.32-2-2.14-3.25-3.57-5.43-.82,1.85-1.36,3.06-1.73,3.91-3.98-.02-7.75-1.19-9.78,.19-4.03,2.74-8.21,2.37-12.5,3.05-6.69,1.06-13.49,2.36-19.78,4.77-4.2,1.62-6.21,.32-8.6-2.38,.83-1.25,1.56-2.33,2.64-3.96-3.62,1.34-7.37,1.71-9.45,3.77-2.51,2.49-4.35,3.6-8.02,3.12-3.56-.46-3.55,2.4-2.54,4.9Z"/>
      <path class="cls-1" d="M335.99,28.49c6.43,.95,10.78-.34,13.18-7.16,3.44,3.54,5.25,9.29,10.25,4.64-.15-1.81-.27-3.27-.44-5.34,1.44,.81,2.08,.97,2.42,1.38,6.54,7.98,8.36,8.42,17.26,4.15,.8-.38,2.1-1.25,2.37-1.01,4.21,3.78,6.53-.56,9.5-2.01,0,0,0,.02,.01,.03,4.7,.48,9.43-.71,13.99,2.49,2.4,1.69,6.39,.79,7.54-3.07,2.48,1.33,4.34,2.32,7.74,4.15-2.64-4.49-4.22-7.18-5.52-9.4,1.41-3.11,2.58-5.72,4.08-9.03-5.57,.92-9.69,1.59-12.33,2.02-1.2,2.64-1.98,4.35-2.76,6.06-.5-.15-1-.3-1.49-.45-.48-2.44-.96-4.88-1.61-8.22-4.9-.64-10.07-1.31-15.24-1.98-.13,.57-.26,1.15-.39,1.72,2.45,1.45,4.89,2.9,8.99,5.32-5.61,.51-9.15,.84-13.39,1.22,1.18,2.77,2.1,4.94,3.01,7.09,1.08-1.22,2.22-2.5,4.21-4.74,1.15,2.47,2.11,4.53,3.07,6.58-2.4-.5-4.79-1.01-7.19-1.51-4.89,2.71-9.8-3.72-15.74,2.24,.79-4.92,1.21-7.51,1.54-9.54,3.85-1.97,7.13-3.65,10.38-5.31-2.32-5.11-4.34-2.27-6.36-.48-1.58-2.98-4.03-3.53-6.84-2.12-2.4,1.21-4.61,2.79-7.22,4.4-2.26-.59-5.1-1.33-9.03-2.35,2.66,4.22,4.61,7.3,7.54,11.94-5.43-1.42-9.22-2.41-13.07-3.42,1.08-3.44,3.02-6.34,.24-9.23-3.4,3.92-6.58,7.59-10.06,11.6-2.49-2.3-4.24-3.91-5.65-5.21-2.51,1.7-4.47,3.95-6.81,4.44-5.11,1.07-7.22,4.23-8.71,9.78,7.96,.03,15.38-.73,22.55,.32Zm9.38-9.76c-.74,3-1.09,4.42-1.63,6.65-2.55-1.26-4.68-2.3-8.47-4.17,4.04-.99,6.27-1.54,10.1-2.49Zm-22.94,3.52c.54,1.18,.87,2.45,1.25,3.7-.44,.19-.88,.38-1.32,.57-.73-1.2-1.46-2.41-2.18-3.61,.78-.23,2.21-.76,2.25-.66Z"/>
      <path class="cls-1" d="M695.47,22.4c.08,0,.15-.01,.23-.02,.06-.1,.06-.17,.12-.27-.04-.03-.07-.06-.11-.09-.07,.15-.17,.24-.24,.38Z"/>
      <path class="cls-1" d="M636.64,8.13c1.41,.54,1.95,3.32,3.81,6.83-4.26-1.28-6.26-1.89-8.27-2.49,.36,2.26,.72,4.53,1.15,7.23,1.98-.27,4.17-.64,6.37-.83,1.56-.14,3.73-.71,4.61,.07,5.67,5.02,10.68,3.19,15.27-.94,5.85,2.75,11.37,5.33,16.88,7.92,.14-.35,.28-.7,.42-1.05-2.05-2.56-4.09-5.12-6.74-8.42,2.5-.92,4.57-1.68,5.25-1.93,2.66,4.68,4.84,8.49,6.99,12.27,5.05-1.24,10.31,.73,13.08-4.38-2.06,.18-4.11,.36-6.1,.53-1.62-2.27-3.19-4.47-4.76-6.66,2.59-.13,5.18-.42,7.77-.37,4.8,.1,5.71,2.38,3.45,6.21,1.14,1,2.29,1.99,3.44,2.99,2.88-4.08,6.01,.95,9.07,0-1.56-4.25-3.04-8.3-4.61-12.59,4.02-.36,6.84-.62,9.35-.85,.95,3.09,1.61,6.49,3.11,9.45,.62,1.22,3.27,2.34,4.63,2.01,1.44-.35,3.22-2.34,3.49-3.86,.74-4.08,.75-8.29,1.13-13.45-2.83,1.37-6.08-3.81-8.37,1.75-.56-.19-1.23-.24-1.67-.58-5.54-4.3-10.85-8.79-18.14-2.58-1.24,1.06-4.49-.28-6.82-.42-.87-.05-1.76,.16-2.7,.25,.43,1.62,.81,3.02,1.19,4.47-1.55,.02-2.89,.03-3.19,.03-.69,3.28-1.16,5.5-1.63,7.71-2.07-2.59-4.15-5.18-6.33-7.91,.91-1.13,2.14-2.66,4.69-5.82-5.41,.05-8.94,.09-13.01,.13,1.47,3.08,2.45,5.13,3.43,7.18-7.3-6.44-10.76-6.4-17.62,.65q-5.7-8.84-12.48-4.32-7.03-3.89-16.93-2.38c2.45,3.06,4.54,5.67,6.62,8.28,.12-2.71,.95-5.35,4.17-4.11Z"/>
      <path class="cls-1" d="M574.65,18.43q5.92-1.04,7.73,6.64c5.12-1.76,10.14-3.48,15.65-5.37,2.03,2.84,4.79,6.2,8.81,2.46-2.53-2.33-4.93-4.54-7.25-6.67,1.6-2.08,2.83-3.68,3.88-5.03,2.11,2.63,4.19,5.28,6.36,7.87,.16,.19,.9-.13,1.63-.25-.85-2.44-1.65-4.72-2.45-7,.48-.63,.95-1.26,1.43-1.89,3.22,2.31,6.44,4.62,9.71,6.96-1.01,2.58-1.89,4.81-3.01,7.68,4.9,.08,8.96,.15,14.72,.25-3.49-2.47-5.38-3.81-7.16-5.06,.74-2.13,1.31-3.78,1.47-4.26-3.29-2.49-5.98-4.52-9.79-7.4,3.06-.92,4.41-1.32,6.02-1.81-.67-1.71-1.33-3.38-2.18-5.54-11.44,5.87-23.53,1.42-34.4,2.44-.91,4.7-1.54,7.97-2.14,11.08q-7.05,.29-9.04,4.91Zm12.39-9.73c1.91,2.39,2.92,3.65,4.39,5.48-4.58,.71-4.6-1.36-4.39-5.48Z"/>
      <path class="cls-1" d="M383.16,21.1c-.08,.09-.16,.18-.23,.26,.11,.02,.21,.04,.32,.07,.02,0,.03,0,.05-.02-.04-.1-.09-.21-.13-.31Z"/>
      <path class="cls-1" d="M192.09,34.42s-.08-.03-.11-.05c.01,.05,.02,.1,.04,.16-.02,.05,.08-.11,.08-.11Z"/>
      <path class="cls-1" d="M156.44,33.63c5.6,1.43,11.59-3.07,17.1,.72,.25,.17,1.06-.55,1.64-.76,5.71-2.06,11.33-2.18,16.8,.8-.67-2.92-1.36-5.8-2.14-9.05-3.75,.96-6.43,1.65-10.32,2.65,4.67-5.21,7.87-9.53,9.44-15.45-1.55,.38-2.15,.56-2.77,.68-3.12,.6-10.27-3.34-6.14,5.62,.33,.72-2.76,3.99-4.71,4.56-3.17,.94-6.72,.92-10.09,.78-6.91-.3-8.72,1.42-8.81,9.46Z"/>
      <path class="cls-1" d="M464.52,20.69c-.05,.08-.09,.16-.14,.25,.03,.01,.05,.03,.08,.04l.06-.29Z"/>
      <path class="cls-1" d="M435.16,23.59c3.74-1.31,7.68-2.69,12.67-4.43,3.15,2.94,7.66,6.51,14.06,6.37,.8-1.47,1.65-3.03,2.5-4.59-2.43-1.27-4.73-3.06-7.32-3.64-4.49-1.02-7.35-3.24-8.49-7.72-.09-.34-1.02-.47-1.82-.81-1.02,.82-2.15,1.72-3.26,2.61q-6.08-6.41-14.32-3.4c3.39,1.48,6.59,2.89,8.96,3.92,1.39,5.36-6.6,5.5-2.98,11.68Z"/>
      <path class="cls-1" d="M472.2,26.47c5.89-.94,11.92-1.02,18.56-1.53-2.45-3.96-6.5-2.99-9.81-3.72-3.74-.82-7.48-1.62-11.73-2.54,.74-4.59,1.46-9.08,2.19-13.57-2.48,2.38-3.36,5.18-4.28,7.97-.85,2.58-1.73,5.14-2.59,7.71,.72,4.39,2.7,6.48,7.67,5.68Z"/>
      <path class="cls-1" d="M464.52,20.73s-.05,.25-.05,.25c.02-.07,.05-.14,.07-.2,0-.02-.01-.03-.01-.05Z"/>
      <path class="cls-1" d="M485.79,19.01c.89-1.89,1.2-3.73,2.29-4.62,2.91-2.38,4.95-7.02,10-4.78,1.15-.92,2.32-1.85,4.15-3.32-2.17-1.19-4.52-3.12-5.09-2.69-3.66,2.78-8.63,.6-11.63,2.78-2.36,1.71-2.81,6.07-4.16,9.39,1.46,1.06,2.87,2.09,4.45,3.24Z"/>
      <path class="cls-1" d="M498.35,9.71c-.1-.05-.18-.05-.28-.1-.03,.02-.06,.05-.1,.08,0,0,.37,.02,.37,.02Z"/>
      <path class="cls-1" d="M504.96,21.46s.09-.07,.13-.11c0-.08-.02-.17-.03-.26l-.1,.36Z"/>
      <path class="cls-1" d="M509.59,17.77c-1.5,1.19-3,2.39-4.5,3.58,.15,1.31,.3,2.63,.49,4.27,4.42-1.43,8.09-2.61,12.25-3.95-.86-1.91-1.58-3.51-1.68-3.74-3.01-.1-4.91-.17-6.8-.23-.05-.01-.1-.03-.15-.04-.01,.01-.03,.02-.04,.03l.43,.07Z"/>
      <path class="cls-1" d="M1083.47,36.05s-.33,.18-.33,.18c.13,.03,.27,.06,.4,.08-.02-.08-.04-.17-.06-.25,2.44-1.2,4.88-2.39,7.44-3.65-.78-1.52-1.05-2.41-1.61-3.04-.9-1.01-1.95-1.89-2.96-2.82-.25,5.28-5.14,7.29-7.8,10.87,1.64-.46,3.29-.92,4.93-1.38Z"/>
      <path class="cls-1" d="M1078.21,37.86c.1-.15,.23-.28,.34-.43-.13,.04-.26,.07-.38,.11l.05,.32Z"/>
      <path class="cls-1" d="M725.43,26.64c4.16-.64,7.26-1.12,10.49-1.61,.11-3.1,.18-5.2,.25-7.27-3.38,2.41-8.88,2.09-10.74,8.88Z"/>
      <path class="cls-1" d="M736.16,17.76c.06-.04,.13-.07,.19-.12-.02-.03-.02-.06-.03-.09-.05-.03-.09-.08-.15-.1,0,.1,0,.21-.01,.31Z"/>
      <path class="cls-1" d="M418.69,17.51c2.59,.92,5.18,1.85,8.02,2.86q.12-8.74-8.02-2.86Z"/>
      <path class="cls-1" d="M317.51,16.77c-.61-2.06-1.24-4.19-1.95-6.6-3.01,2.32-7.35,2.87-4.9,7.81,.33,.68-1.43,2.39-2.23,3.63,0,0-.01,.04,0,.03,2.92-1.57,5.84-3.13,9.09-4.86Z"/>
      <path class="cls-1" d="M578.2,4.29c-4.38,.06-7.09,.09-11.49,.15,2.82,2.92,4.25,4.41,5.87,6.08,1.68-1.86,3.04-3.37,5.62-6.23Z"/>
      <path class="cls-1" d="M504.96,21.46l.1-.36c-.14,.09-.27,.19-.41,.28,.1,.03,.2,.05,.3,.08Z"/>
      <path class="cls-1" d="M.57,41.46c2.83,.15,5.66,.29,8.88,.46-.17-2.25-.28-3.68-.49-6.33-3.57,1.71-6.26,3.01-8.96,4.31,.19,.52,.38,1.05,.57,1.57Z"/>
      <path class="cls-1" d="M561.05,26.37c2.94-3.27,4.51-5.02,6.67-7.42q-6.45,.23-6.67,7.42Z"/>
      <path class="cls-1" d="M451.37,6.79c2.8,2.79,4.94,4.92,8.24,8.21q-1.84-8.73-8.24-8.21Z"/>
      <path class="cls-1" d="M728.69,4.84c.78,4.18,1.26,6.7,1.84,9.84,4.63-3.74,4.76-6.43-1.84-9.84Z"/>
      <path class="cls-1" d="M498.35,9.71s-.37-.02-.37-.02c.06,.09,.12,.18,.19,.27,.07-.08,.12-.17,.19-.25Z"/>
      <path class="cls-1" d="M495.76,18.7c1.34-1.35,2.67-2.71,4.01-4.06h0c1.43,.55,2.83,1.18,4.29,1.64,1.69,.53,3.42,.94,5.14,1.39,2.73-2.18,5.46-4.36,8.31-6.64,1.81,3.59,3.21,6.36,4.61,9.13-1.93,2.6-1.18,4.78,1.61,5.69,1.16,.38,2.86-.92,5.85-2.03-3.15-1.81-4.87-2.8-6.59-3.79,4.05-.14,9.54-4.53,10.95,3.69,.04,.23,4.55,.62,5.7-.44,2.85-2.63,5.35-5.85,7.28-9.23,2.51-4.4,5.62-4.28,9.43-2.58,.25,1.91,.47,3.64,.91,7.01,4.23-5.71,8.31-9.53,4.43-14.35-3.57-.34-6.03-.64-8.51-.8-1.49-.09-3.78-.56-4.35,.19-3.54,4.62-7.72,2.12-11.14,1.11-5.12,4.98-1.21,9.61-.03,14.15-3.62-1.54-6.7-2.86-10.22-4.36,4.57-5.88-1.45-7.27-4.35-10.08-.18-.18-.83,.12-1.08,.17,.74,2.11,1.45,4.14,2.16,6.17-2.36-.21-3.44-1.13-4.21-2.25-1.01-1.46-1.79-3.08-4.13-7.23-1.21,8.75-5.58,9.53-11.11,8.75-1.3-.19-2.94,2.01-4.43,3.11-.71-1.03-1.42-2.06-2.13-3.09-2.05,2.58-3.7,5.27-2.4,8.74Z"/>
      <path class="cls-1" d="M495.76,18.7c-.08,.08-.17,.17-.25,.25l.33,.12c-1.87,1.06-2.94,2.6-.89,4.14,1.21,.91,3.3,1.51,4.69,1.13,1.81-.5,3.37-1.86,5.01-2.96-2.94-.78-5.88-1.56-8.82-2.34-.05-.12-.03-.22-.08-.34Z"/>
      <path class="cls-1" d="M1248.12,41.29c.96-1.75,1.92-3.5,2.89-5.26-.6-.28-1.21-.55-1.81-.83-.87,1.8-1.74,3.59-2.61,5.39,.51,.23,1.02,.46,1.54,.69Z"/>
      <path class="cls-1" d="M1049.58,19.73c.53-.1,.74-1.77,1.1-2.73-1.04-.29-2.1-.82-3.12-.76-.44,.03-.8,1.28-1.47,2.46,1.42,.48,2.55,1.23,3.5,1.04Z"/>
      <path class="cls-1" d="M1397.28,72.52c.73-1.41,1.45-2.82,2.18-4.23-.75-.35-1.5-.7-2.26-1.05-.5,1.49-1.04,2.97-1.42,4.49-.03,.13,.98,.52,1.5,.79Z"/>
      <path class="cls-1" d="M1079.01,44.51c2.45,.02,4.4,.03,6.32,.04-3.1-2.47-3.32-2.44-6.32-.04Z"/>
      <path class="cls-1" d="M1085.33,44.55c.15,.12,.23,.17,.39,.3,0,.01,0,.02,0,.03l-.02-.33c3.45,2.41,7.24,2.7,10.12-.26,2.49-2.56,3.72-.25,5.48,.37,.6-1.27,2-2.87,1.64-3.74-.75-1.85-2.43-3.31-3.93-5.19,5.2-3.32,7.07,1.76,12.45,2.29-4.57,2.99-7.37,4.82-10.17,6.66,7.63,1.27,15.39,.03,23.03,3.45,9.4,4.21,12.18,1.46,11.02-8.7,4.5,1.3,9.51,1.69,10.5,7.99,.19,1.23,3.01,3.06,4.43,2.9,4.87-.56,9.66-1.88,15.34-3.09,.08,.17,.47,.74,.99,1.15,7.95,6.28,17.42,7.05,24.3,2.07,2.28,1.9,4.54,3.78,6.34,5.29,3.47-3.26,6.28-5.91,9.4-8.84,2.68,7.08,6.42,9.6,13.25,9.92,10.71,.5,21.41,4.24,31.62-2.12,.64-.4,1.58-.3,2.41-.43-1.73-7.49-2.12-8.06-6.34-8.22-.47-.02-1,1.41-1.8,2.62-2.03-3.87-4.16-7.96-6.14-11.73-3.39-.13-6.61-.26-10.28-.41,.35,1.75,.73,3.63,1.11,5.51-.87-.03-1.74-.06-2.61-.09-.72-2.87-1.45-5.74-2.44-9.7-4.72,2.39-9.1,4.6-14.55,7.36-3.42-.87-3.96-4.3-1.03-10.38-5.54,1.8-8.91,2.89-12.83,4.16-3.07-3.29-6.04-6.94-12.37-4.44-5.24,2.07-6.76,6.46-9.92,10.43-2.1-4.26-4.11-8.35-6.74-13.72-4.22,6.08-9.45,3.82-13.98,3.92-4.72,.11-9.84-.73-12.67-6.69-5.4,3.12-10.11,5.84-14.64,8.46-.03-.42,.26-1.8-.24-2.19-5.01-4.01-9.97-8.31-17.22-5.1-1.17,.52-2.84,.37-4.15,.04-2.98-.77-5.88-1.84-10.15-3.23,.36,6.75,.65,12.27,.95,18.02-4.6-.96-8.5-1.78-12.38-2.59,.7,2.75,1.41,5.49,2.11,8.24-.1,0-.21,0-.32,0Zm148.81,.71c-.4,1.46-.8,2.92-1.2,4.38-.36-.1-.72-.2-1.08-.3,.43-1.45,.87-2.89,1.3-4.34,.33,.09,.65,.18,.98,.26Zm-8.23,1.29c.46,.56,.91,1.13,1.37,1.69-1.47,.99-2.94,1.97-4.42,2.96,.22-1.12,.19-2.38,.73-3.32,.38-.66,1.52-.9,2.31-1.32Zm-25.86,4.22c-3.76-.2-6.38-.34-8.94-.48-.82-3.19-1.64-6.38-2.63-10.21-2.31-.93-2.54,7.96-6.86,1.79,1.75-3.41,3.65-7.1,5.74-11.17,5.61,6.09,10.48,11.57,12.7,20.07Zm-41.45-7.65c-1.65,.62-3.64,2.13-4.87,1.66-2.14-.82-4.44-2.62-1.91-5.49,2.17,.73,4.33,1.46,6.5,2.18,.09,.55,.19,1.09,.28,1.64Zm-2.6-7.95c-2.49,2.19-3.51,3.08-4.51,3.97-3.78-.68-8.27,4.1-11.03-2.26,3.43-7.49,8.9-.57,15.55-1.71Zm-38.72-6.01c1.38,.93,2.83,1.91,5.15,3.48-2.54,3.05-4.21,5.07-6.47,7.78-1.74-2.47-3.04-4.32-4.59-6.53,2.1-1.68,3.91-3.13,5.91-4.73Z"/>
      <path class="cls-1" d="M1367.48,46.54c-3.38,1.05-5.41,1.67-7.36,2.28,2.17,1.95,4.28,2.05,7.36-2.28Z"/>
      <path class="cls-1" d="M1359.79,48.58l-.03,.35c.12-.04,.24-.07,.36-.11-.11-.1-.22-.13-.32-.24Z"/>
      <path class="cls-1" d="M1030.35,34.4c-3.03,1.28-4.53,1.92-5.94,2.52,1.93,2.1,3.49,1.69,5.94-2.52Z"/>
      <path class="cls-1" d="M1024.13,36.67s-.03,.38-.03,.38c.1-.04,.21-.09,.31-.13-.1-.1-.18-.13-.28-.25Z"/>
      <path class="cls-1" d="M193.9,24.81c.27-.18,.26-1.49,.03-1.6-.66-.33-1.76-.66-2.17-.34-.46,.36-.36,1.44-.61,2.73,1.25-.33,2.12-.38,2.74-.8Z"/>
      <path class="cls-1" d="M20.17,28.79c.53-.12,1.24-.07,1.54-.4,.35-.38,.35-1.09,.49-1.66-.68,.19-1.43,.25-2,.62-.23,.15-.04,.94-.03,1.44Z"/>
      <path class="cls-1" d="M569.77,17.8c-.03-1.68-.06-3.36-.09-5.04-.99-.07-1.98-.14-2.97-.21-.03,1.62-.06,3.24-.09,4.85,1.05,.13,2.09,.26,3.14,.39Z"/>
    </g>
  </g>
</svg>