<?xml version="1.0" encoding="UTF-8"?>
<svg id="Réteg_2" data-name="Réteg 2" xmlns="http://www.w3.org/2000/svg" xmlns:xlink="http://www.w3.org/1999/xlink" viewBox="0 0 603.72 968.37">
  <defs>
    <style>
      .cls-1 {
        fill: url(#Super_Soft_Black_Vignette_2);
      }

      .cls-2 {
        fill: url(#Super_Soft_Black_Vignette_2-7);
      }

      .cls-3 {
        fill: url(#Super_Soft_Black_Vignette_2-8);
      }

      .cls-4 {
        fill: url(#Super_Soft_Black_Vignette_2-2);
      }

      .cls-5 {
        fill: url(#Super_Soft_Black_Vignette_2-5);
      }

      .cls-6 {
        fill: url(#Super_Soft_Black_Vignette_2-6);
      }

      .cls-7 {
        fill: url(#Super_Soft_Black_Vignette_2-3);
      }

      .cls-8 {
        fill: url(#Super_Soft_Black_Vignette_2-4);
      }

      .cls-9 {
        fill: url(#Super_Soft_Black_Vignette_2-9);
      }

      .cls-10 {
        fill: url(#Super_Soft_Black_Vignette_2-16);
      }

      .cls-11 {
        fill: url(#Super_Soft_Black_Vignette_2-15);
      }

      .cls-12 {
        fill: url(#Super_Soft_Black_Vignette_2-14);
      }

      .cls-13 {
        fill: url(#Super_Soft_Black_Vignette_2-13);
      }

      .cls-14 {
        fill: url(#Super_Soft_Black_Vignette_2-19);
      }

      .cls-15 {
        fill: url(#Super_Soft_Black_Vignette_2-12);
      }

      .cls-16 {
        fill: url(#Super_Soft_Black_Vignette_2-11);
      }

      .cls-17 {
        fill: url(#Super_Soft_Black_Vignette_2-29);
      }

      .cls-18 {
        fill: url(#Super_Soft_Black_Vignette_2-26);
      }

      .cls-19 {
        fill: url(#Super_Soft_Black_Vignette_2-23);
      }

      .cls-20 {
        fill: url(#Super_Soft_Black_Vignette_2-24);
      }

      .cls-21 {
        fill: url(#Super_Soft_Black_Vignette_2-21);
      }

      .cls-22 {
        fill: url(#Super_Soft_Black_Vignette_2-22);
      }

      .cls-23 {
        fill: url(#Super_Soft_Black_Vignette_2-25);
      }

      .cls-24 {
        fill: url(#Super_Soft_Black_Vignette_2-20);
      }

      .cls-25 {
        fill: url(#Super_Soft_Black_Vignette_2-28);
      }

      .cls-26 {
        fill: url(#Super_Soft_Black_Vignette_2-27);
      }

      .cls-27 {
        fill: url(#Super_Soft_Black_Vignette_2-17);
      }

      .cls-28 {
        fill: url(#Super_Soft_Black_Vignette_2-18);
      }

      .cls-29 {
        fill: url(#Super_Soft_Black_Vignette_2-10);
      }

      .cls-30 {
        fill: url(#Super_Soft_Black_Vignette_2-36);
      }

      .cls-31 {
        fill: url(#Super_Soft_Black_Vignette_2-35);
      }

      .cls-32 {
        fill: url(#Super_Soft_Black_Vignette_2-32);
      }

      .cls-33 {
        fill: url(#Super_Soft_Black_Vignette_2-34);
      }

      .cls-34 {
        fill: url(#Super_Soft_Black_Vignette_2-33);
      }

      .cls-35 {
        fill: url(#Super_Soft_Black_Vignette_2-30);
      }

      .cls-36 {
        fill: url(#Super_Soft_Black_Vignette_2-31);
      }
    </style>
    <radialGradient id="Super_Soft_Black_Vignette_2" data-name="Super Soft Black Vignette 2" cx="304.6" cy="948.11" fx="304.6" fy="948.11" r="178.98" gradientTransform="translate(-162.15 -208.02) rotate(-2.1)" gradientUnits="userSpaceOnUse">
      <stop offset=".57" stop-color="#130c0e"/>
      <stop offset=".8" stop-color="#130c0e"/>
      <stop offset="1" stop-color="#130c0e"/>
    </radialGradient>
    <radialGradient id="Super_Soft_Black_Vignette_2-2" data-name="Super Soft Black Vignette 2" cx="434.81" cy="994.9" fx="434.81" fy="994.9" r="96.62" xlink:href="#Super_Soft_Black_Vignette_2"/>
    <radialGradient id="Super_Soft_Black_Vignette_2-3" data-name="Super Soft Black Vignette 2" cx="306.09" cy="1028.31" fx="306.09" fy="1028.31" r="78.72" xlink:href="#Super_Soft_Black_Vignette_2"/>
    <radialGradient id="Super_Soft_Black_Vignette_2-4" data-name="Super Soft Black Vignette 2" cx="316.37" cy="762.13" fx="316.37" fy="762.13" r="89.53" xlink:href="#Super_Soft_Black_Vignette_2"/>
    <radialGradient id="Super_Soft_Black_Vignette_2-5" data-name="Super Soft Black Vignette 2" cx="231.51" cy="810.44" fx="231.51" fy="810.44" r="87.14" xlink:href="#Super_Soft_Black_Vignette_2"/>
    <radialGradient id="Super_Soft_Black_Vignette_2-6" data-name="Super Soft Black Vignette 2" cx="230.99" cy="585.5" fx="230.99" fy="585.5" r="92.71" xlink:href="#Super_Soft_Black_Vignette_2"/>
    <radialGradient id="Super_Soft_Black_Vignette_2-7" data-name="Super Soft Black Vignette 2" cx="79.71" cy="293.76" fx="79.71" fy="293.76" r="34.5" gradientTransform="matrix(1, 0, 0, 1, 0, 0)" xlink:href="#Super_Soft_Black_Vignette_2"/>
    <radialGradient id="Super_Soft_Black_Vignette_2-8" data-name="Super Soft Black Vignette 2" cx="93.04" cy="435.16" fx="93.04" fy="435.16" r="40.56" gradientTransform="matrix(1, 0, 0, 1, 0, 0)" xlink:href="#Super_Soft_Black_Vignette_2"/>
    <radialGradient id="Super_Soft_Black_Vignette_2-9" data-name="Super Soft Black Vignette 2" cx="175.35" cy="470.31" fx="175.35" fy="470.31" r="32.17" gradientTransform="matrix(1, 0, 0, 1, 0, 0)" xlink:href="#Super_Soft_Black_Vignette_2"/>
    <radialGradient id="Super_Soft_Black_Vignette_2-10" data-name="Super Soft Black Vignette 2" cx="185.47" cy="602.43" fx="185.47" fy="602.43" r="40.6" gradientTransform="matrix(1, 0, 0, 1, 0, 0)" xlink:href="#Super_Soft_Black_Vignette_2"/>
    <radialGradient id="Super_Soft_Black_Vignette_2-11" data-name="Super Soft Black Vignette 2" cx="33.96" cy="546.67" fx="33.96" fy="546.67" r="26.22" gradientTransform="matrix(1, 0, 0, 1, 0, 0)" xlink:href="#Super_Soft_Black_Vignette_2"/>
    <radialGradient id="Super_Soft_Black_Vignette_2-12" data-name="Super Soft Black Vignette 2" cx="116.63" cy="619.98" fx="116.63" fy="619.98" r="31.13" gradientTransform="matrix(1, 0, 0, 1, 0, 0)" xlink:href="#Super_Soft_Black_Vignette_2"/>
    <radialGradient id="Super_Soft_Black_Vignette_2-13" data-name="Super Soft Black Vignette 2" cx="280.28" cy="838.12" fx="280.28" fy="838.12" r="34.01" gradientTransform="matrix(1, 0, 0, 1, 0, 0)" xlink:href="#Super_Soft_Black_Vignette_2"/>
    <radialGradient id="Super_Soft_Black_Vignette_2-14" data-name="Super Soft Black Vignette 2" cx="341.92" cy="711.59" fx="341.92" fy="711.59" r="43" gradientTransform="matrix(1, 0, 0, 1, 0, 0)" xlink:href="#Super_Soft_Black_Vignette_2"/>
    <radialGradient id="Super_Soft_Black_Vignette_2-15" data-name="Super Soft Black Vignette 2" cx="137.85" cy="763.4" fx="137.85" fy="763.4" r="31.86" gradientTransform="matrix(1, 0, 0, 1, 0, 0)" xlink:href="#Super_Soft_Black_Vignette_2"/>
    <radialGradient id="Super_Soft_Black_Vignette_2-16" data-name="Super Soft Black Vignette 2" cx="213.83" cy="850.35" fx="213.83" fy="850.35" r="34.68" gradientTransform="matrix(1, 0, 0, 1, 0, 0)" xlink:href="#Super_Soft_Black_Vignette_2"/>
    <radialGradient id="Super_Soft_Black_Vignette_2-17" data-name="Super Soft Black Vignette 2" cx="454.9" cy="351.19" fx="454.9" fy="351.19" r="95.25" xlink:href="#Super_Soft_Black_Vignette_2"/>
    <radialGradient id="Super_Soft_Black_Vignette_2-18" data-name="Super Soft Black Vignette 2" cx="547.15" cy="335.95" fx="547.15" fy="335.95" r="84.19" xlink:href="#Super_Soft_Black_Vignette_2"/>
    <radialGradient id="Super_Soft_Black_Vignette_2-19" data-name="Super Soft Black Vignette 2" cx="370.45" cy="347.71" fx="370.45" fy="347.71" r="57.57" xlink:href="#Super_Soft_Black_Vignette_2"/>
    <radialGradient id="Super_Soft_Black_Vignette_2-20" data-name="Super Soft Black Vignette 2" cx="427.81" cy="370.14" fx="427.81" fy="370.14" r="53" xlink:href="#Super_Soft_Black_Vignette_2"/>
    <radialGradient id="Super_Soft_Black_Vignette_2-21" data-name="Super Soft Black Vignette 2" cx="416.79" cy="793.39" fx="416.79" fy="793.39" r="261.15" xlink:href="#Super_Soft_Black_Vignette_2"/>
    <radialGradient id="Super_Soft_Black_Vignette_2-22" data-name="Super Soft Black Vignette 2" cx="422.65" cy="911.96" fx="422.65" fy="911.96" r="106.43" xlink:href="#Super_Soft_Black_Vignette_2"/>
    <radialGradient id="Super_Soft_Black_Vignette_2-23" data-name="Super Soft Black Vignette 2" cx="631.53" cy="781.32" fx="631.53" fy="781.32" r="78.68" xlink:href="#Super_Soft_Black_Vignette_2"/>
    <radialGradient id="Super_Soft_Black_Vignette_2-24" data-name="Super Soft Black Vignette 2" cx="630.87" cy="794.79" fx="630.87" fy="794.79" r="79.42" xlink:href="#Super_Soft_Black_Vignette_2"/>
    <radialGradient id="Super_Soft_Black_Vignette_2-25" data-name="Super Soft Black Vignette 2" cx="547.7" cy="696.58" fx="547.7" fy="696.58" r="112.79" xlink:href="#Super_Soft_Black_Vignette_2"/>
    <radialGradient id="Super_Soft_Black_Vignette_2-26" data-name="Super Soft Black Vignette 2" cx="567.95" cy="684.99" fx="567.95" fy="684.99" r="96.37" xlink:href="#Super_Soft_Black_Vignette_2"/>
    <radialGradient id="Super_Soft_Black_Vignette_2-27" data-name="Super Soft Black Vignette 2" cx="393.44" cy="638.18" fx="393.44" fy="638.18" r="109.63" xlink:href="#Super_Soft_Black_Vignette_2"/>
    <radialGradient id="Super_Soft_Black_Vignette_2-28" data-name="Super Soft Black Vignette 2" cx="434.22" cy="568.79" fx="434.22" fy="568.79" r="28.34" gradientTransform="matrix(1, 0, 0, 1, 0, 0)" xlink:href="#Super_Soft_Black_Vignette_2"/>
    <radialGradient id="Super_Soft_Black_Vignette_2-29" data-name="Super Soft Black Vignette 2" cx="549.04" cy="537.14" fx="549.04" fy="537.14" r="32.92" gradientTransform="matrix(1, 0, 0, 1, 0, 0)" xlink:href="#Super_Soft_Black_Vignette_2"/>
    <radialGradient id="Super_Soft_Black_Vignette_2-30" data-name="Super Soft Black Vignette 2" cx="372.26" cy="499.3" fx="372.26" fy="499.3" r="33.94" gradientTransform="matrix(1, 0, 0, 1, 0, 0)" xlink:href="#Super_Soft_Black_Vignette_2"/>
    <radialGradient id="Super_Soft_Black_Vignette_2-31" data-name="Super Soft Black Vignette 2" cx="484.41" cy="411.01" fx="484.41" fy="411.01" r="38.2" gradientTransform="matrix(1, 0, 0, 1, 0, 0)" xlink:href="#Super_Soft_Black_Vignette_2"/>
    <radialGradient id="Super_Soft_Black_Vignette_2-32" data-name="Super Soft Black Vignette 2" cx="235.78" cy="330.91" fx="235.78" fy="330.91" r="44.72" gradientTransform="matrix(1, 0, 0, 1, 0, 0)" xlink:href="#Super_Soft_Black_Vignette_2"/>
    <radialGradient id="Super_Soft_Black_Vignette_2-33" data-name="Super Soft Black Vignette 2" cx="269.93" cy="494.91" fx="269.93" fy="494.91" r="47.4" gradientTransform="matrix(1, 0, 0, 1, 0, 0)" xlink:href="#Super_Soft_Black_Vignette_2"/>
    <radialGradient id="Super_Soft_Black_Vignette_2-34" data-name="Super Soft Black Vignette 2" cx="322.7" cy="160.38" fx="322.7" fy="160.38" r="42.95" gradientTransform="matrix(1, 0, 0, 1, 0, 0)" xlink:href="#Super_Soft_Black_Vignette_2"/>
    <radialGradient id="Super_Soft_Black_Vignette_2-35" data-name="Super Soft Black Vignette 2" cx="396" cy="140.9" fx="396" fy="140.9" r="46.21" gradientTransform="matrix(1, 0, 0, 1, 0, 0)" xlink:href="#Super_Soft_Black_Vignette_2"/>
    <radialGradient id="Super_Soft_Black_Vignette_2-36" data-name="Super Soft Black Vignette 2" cx="225.71" cy="139.58" fx="225.71" fy="139.58" r="42.06" gradientTransform="matrix(1, 0, 0, 1, 0, 0)" xlink:href="#Super_Soft_Black_Vignette_2"/>
  </defs>
  <g id="Layer_1" data-name="Layer 1">
    <g>
      <g>
        <path class="cls-1" d="M242.68,968.37c-.16,0-.33,0-.52-.02-2.65-.29-2.45-2.85-2.31-4.72,.05-.61,.29-1.15,.67-1.57,.66-3.94,1.69-10.93,2.15-14.07,.21-1.4,.36-2.44,.42-2.83,1.66-10.39,2.3-20.17,2.97-30.52,.22-3.38,.44-6.8,.7-10.28,.62-8.3,.36-16.9,.11-25.21-.13-4.4-.27-8.95-.28-13.43-.02-8.78,.28-17.48,.58-25.89,.78-22.52,1.51-43.78-3.42-66.21-13.23-60.17-51.15-109.87-87.81-157.93-4.88-6.4-9.92-13.01-14.81-19.51-16.48-21.96-47.87-77.09-45.77-105.04,.11-1.46,1.38-2.58,2.85-2.45,1.46,.11,2.56,1.38,2.45,2.85-1.9,25.33,27.65,78.7,44.73,101.45,4.87,6.49,9.91,13.09,14.78,19.48,37.01,48.52,75.29,98.69,88.77,160.01,5.08,23.08,4.33,44.67,3.54,67.54-.29,8.36-.59,17.01-.57,25.7,0,4.4,.14,8.91,.28,13.28,.26,8.45,.52,17.19-.12,25.77-.26,3.46-.48,6.86-.7,10.22-.68,10.48-1.33,20.37-3.02,31.01-.06,.38-.21,1.39-.41,2.77-.42,2.83-1.06,7.18-1.63,10.82-.29,1.84-.56,3.5-.78,4.7-.33,1.8-.73,4.01-2.84,4.09Z"/>
        <path class="cls-4" d="M251.12,892.79c-.94,.03-1.83-.43-2.34-1.23-.51-.79-.55-1.82-.12-2.66,.93-1.83,9.52-20.87,12.62-31.61,2.98-10.3,4.41-21.29,5.79-31.93,1.94-14.97,3.96-30.44,10.28-44.73l1.51-3.41c6.77-15.34,13.77-31.21,23.81-44.44,4.98-6.56,10.51-12.82,15.86-18.87,5.51-6.24,11.21-12.69,16.23-19.4,4.55-6.09,8.63-12.72,12.57-19.13,2.92-4.76,5.95-9.68,9.17-14.38,.5-.73,1.17-2.36,1.82-3.94,1.52-3.68,3.08-7.48,5.65-8.82,1.55-.81,3.27-.51,4.28,.67,1.54,1.8,1.06,5.04,.14,9.78-.08,.43-.16,.82-.22,1.15-.17,.94-.4,1.83-.62,2.69-.23,.91-.45,1.77-.58,2.61-.32,2.05-.61,4.11-.89,6.16-.4,2.95-.82,5.99-1.36,9-1.02,5.65-1.87,11.33-2.69,16.82-1.92,12.9-3.91,26.23-8.22,39.45-17.73,54.42-39.06,91.95-69.16,121.67-6.25,6.17-16.94,17.8-24.02,25.5q-8.27,9-9.51,9.04Zm111.39-231.97c-.54,1.26-1.06,2.35-1.63,3.18-3.15,4.6-6.14,9.46-9.03,14.17-4,6.52-8.14,13.25-12.84,19.53-5.15,6.88-10.92,13.41-16.5,19.73-5.28,5.98-10.74,12.16-15.6,18.57-9.66,12.73-16.53,28.31-23.18,43.37l-1.51,3.42c-6.02,13.58-7.98,28.67-9.87,43.26-1.41,10.83-2.86,22.03-5.95,32.72-1.5,5.17-4.14,12.03-6.66,18.12,6.88-7.47,15.69-16.99,21.2-22.42,29.47-29.1,50.39-65.96,67.84-119.54,4.17-12.8,6.04-25.33,8.02-38.59,.83-5.53,1.68-11.26,2.71-16.98,.52-2.89,.93-5.88,1.33-8.77,.29-2.09,.57-4.19,.9-6.27,.17-1.08,.43-2.1,.68-3.09,.03-.14,.07-.27,.1-.41Z"/>
        <path class="cls-7" d="M250.81,893.15c-1.08,.04-1.41,.05-12.32-7.44-16.03-11.01-53.69-37.79-55.66-39.82-61.81-63.98-73.13-116.89-73.59-119.11-.22-1.1,.27-2.22,1.23-2.8,.96-.58,2.19-.49,3.06,.22,.15,.12,15.1,12.42,19.42,15.71,6.85,5.21,14.24,10.17,21.39,14.97,4.63,3.11,9.43,6.33,14.03,9.59,25.17,17.8,52.85,40.19,67.35,71.3,4.12,8.84,5.76,18.89,7.34,28.6,.27,1.64,.53,3.27,.81,4.87,.38,2.19,2.32,5.13,4.21,7.96,2.98,4.49,6.06,9.13,5.28,13.73-.21,1.24-1.29,2.18-2.55,2.23Zm-134.1-159.5c5.55,17.14,23.03,59.97,69.95,108.54,1.96,1.82,36.21,26.33,54.84,39.13,2.09,1.43,3.75,2.56,5.07,3.45-.84-1.54-1.91-3.14-2.91-4.65-2.19-3.3-4.45-6.7-5.01-10-.28-1.62-.55-3.26-.82-4.91-1.53-9.36-3.11-19.04-6.92-27.22-13.97-29.99-41-51.81-65.6-69.21-4.55-3.22-9.32-6.42-13.92-9.51-7.21-4.84-14.66-9.85-21.64-15.15-2.52-1.92-8.38-6.67-13.04-10.47Z"/>
        <path class="cls-8" d="M193.37,664.51c-2.84,.1-7-7.54-7.04-7.62-8.74-18.11-16.41-34.25-23.44-49.34-17.33-37.2-10.8-70.29-3.24-108.6l.26-1.32c3.94-19.97,5.97-36.02,6.4-50.54,.03-.91,.06-1.8,.09-2.68,.16-4.37,.3-8.15-.25-12.43-.06-.46-.15-1.06-.24-1.73-.93-6.37-1.02-8.28,.11-9.65,.53-.63,1.29-1.01,2.1-1.04,1.03-.04,1.94,.43,2.72,1.4,4.63,5.81,13.1,19.16,15.82,26.87,7.65,21.68,15.73,44.97,22.95,68.4,3.45,11.21,2.86,25.02,2.35,37.21-.1,2.26-.19,4.46-.25,6.56-.78,26.43-3.67,48.22-9.66,72.88-.66,2.71-1.6,5.31-2.51,7.83-1.3,3.61-2.53,7.01-2.93,10.57-.08,.68,0,2.22,.07,3.58,.24,4.9,.45,9.12-3.04,9.61-.09,.01-.18,.02-.27,.02Zm-22.01-233.69c.02,.18,.05,.34,.07,.5,.6,4.72,.45,8.89,.29,13.3-.03,.87-.06,1.75-.09,2.64-.44,14.81-2.5,31.15-6.5,51.41l-.26,1.32c-7.38,37.39-13.76,69.69,2.84,105.33,7.02,15.07,14.67,31.18,23.41,49.27,.05,.1,.14,.26,.26,.45-.09-1.74-.16-3.23-.03-4.32,.47-4.18,1.86-8.05,3.21-11.79,.9-2.49,1.75-4.85,2.34-7.28,5.98-24.6,8.73-45.4,9.51-71.78,.06-2.13,.16-4.35,.25-6.63,.5-11.76,1.06-25.09-2.12-35.42-7.19-23.34-15.25-46.56-22.89-68.19-1.75-4.96-6.27-12.73-10.29-18.8Z"/>
        <path class="cls-5" d="M195.17,666.92c-.48,.02-.96-.09-1.41-.34-14.1-8.01-31.28-11.88-47.9-15.62-20.93-4.71-42.58-9.59-59.57-22.73-18.38-14.22-34.39-34.88-48.52-53.11l-1.39-1.8c-4.68-6.03-7.5-11.69-10.22-17.16-2.98-5.98-5.79-11.62-10.87-17.58-.24-.25-2.11-2.05-3.92-3.79q-11.94-11.46-11-13.42c.49-1.03,1.61-1.65,2.74-1.5,15.69,1.9,30.4,6.06,39.97,9.23,37.18,12.28,58.19,39.28,80.44,67.86,1.35,1.73,2.7,3.47,4.07,5.22,4.35,5.56,7.94,12.28,11.41,18.77,5.9,11.04,12,22.46,21.81,28.03,.02,.01,.03,.02,.05,.03,12.45,3.07,24.73,6.84,35.52,12.97,1.28,.73,1.72,2.35,1,3.62-.47,.83-1.32,1.31-2.21,1.34ZM10.16,526.25c1.73,1.67,3.54,3.42,4.89,4.71,3.19,3.06,4.02,3.87,4.29,4.18,5.5,6.46,8.59,12.66,11.58,18.66,2.61,5.24,5.31,10.66,9.66,16.27l1.39,1.8c13.93,17.98,29.72,38.36,47.57,52.16,16.06,12.42,37.12,17.17,57.49,21.75,.68,.15,1.35,.3,2.03,.46-6-6.43-10.42-14.71-14.75-22.8-3.52-6.58-6.84-12.8-10.91-18-1.37-1.75-2.72-3.49-4.07-5.23-21.74-27.92-42.27-54.3-77.92-66.08-7.75-2.56-18.95-5.8-31.26-7.88Z"/>
        <path class="cls-6" d="M97.85,494.88c-.09,0-.18,0-.28,0-1.46-.1-2.57-1.36-2.47-2.82,0-.15,.02-.3,.04-.45-1.1-.81-3.09-2.44-4.26-5-2.24-4.88-5.65-10.78-9.25-17.02-5.19-8.99-11.08-19.17-15.12-29.14-16.16-39.88-10.65-88.09-3.62-134.04,.72-4.68,1.54-9.41,2.33-13.97,1.72-9.89,3.5-20.12,4.25-30.28,.18-2.37,.48-4.74,.77-7.04,.24-1.87,.49-3.81,.65-5.69,.02-.22-.04-.88-.09-1.32-.17-1.81-.37-3.85,1.34-4.96,.95-.61,2.13-.62,3.18-.03,2.24,1.27,4.65,5.42,8.6,13.13,.6,1.16,1.11,2.17,1.35,2.56,1.83,3.05,3.75,6.15,5.61,9.13,5.26,8.46,10.7,17.21,14.93,26.5,20.49,44.96,24.62,93.33,12.99,152.23-.79,3.98-4.46,12.05-8.72,21.4-4.21,9.25-9.46,20.76-9.69,24.34-.09,1.37-1.21,2.43-2.55,2.48Zm-21.93-242.4c-.13,1.11-.27,2.21-.41,3.29-.28,2.22-.58,4.53-.74,6.76-.77,10.42-2.58,20.78-4.32,30.79-.79,4.54-1.61,9.24-2.31,13.87-6.92,45.22-12.36,92.61,3.29,131.24,3.9,9.63,9.69,19.65,14.79,28.48,3.67,6.36,7.14,12.36,9.48,17.47,.26,.56,.6,1.06,.98,1.48,1.71-4.83,4.72-11.54,8.58-20.01,3.77-8.29,7.68-16.85,8.34-20.23,11.4-57.75,7.39-105.1-12.62-149-4.09-8.98-9.44-17.58-14.61-25.9-1.87-3.01-3.8-6.12-5.66-9.21-.33-.55-.83-1.52-1.52-2.87-.64-1.26-1.96-3.82-3.29-6.17Z"/>
        <path class="cls-2" d="M81.1,295.09c-.92-16.24-5.68-32.11-4.65-48.45,.11-1.71-2.55-1.7-2.65,0-.98,15.55,3.27,30.65,4.51,46.06,1.3,16.03,5.19,32.1,4.78,48.19-.04,1.71,2.61,1.71,2.66,0,.4-15.45-3.78-30.44-4.65-45.8Z"/>
        <path class="cls-3" d="M98.97,490.55c-8.21-36.37-9.22-74.02-9.25-111.16,0-1.71-2.66-1.71-2.66,0,.03,37.38,1.07,75.27,9.34,111.87,.38,1.67,2.94,.96,2.56-.71Z"/>
        <path class="cls-9" d="M180.84,489.07c-.43-8.08-1.86-16.05-2.26-24.13-.66-13.14,.15-27.33-6.72-39.09-.86-1.48-3.16-.14-2.29,1.34,6.91,11.83,5.8,26.5,6.46,39.71,.37,7.42,1.68,14.75,2.17,22.17,.55,8.34,.48,16.72,.49,25.07,0,1.71,2.66,1.71,2.66,0,0-8.36-.04-16.71-.49-25.07Z"/>
        <path class="cls-29" d="M189.91,631.27c-1.79-8.88-4.67-17.48-6.52-26.34-3.95-18.93-.2-39.14-.07-58.27,.01-1.71-2.64-1.71-2.66,0-.12,17.89-3.18,36.3-.62,54.12,1.41,9.79,4.62,19.14,6.81,28.76,2.16,9.5,.6,19.41,2.48,28.99,.33,1.68,2.89,.97,2.56-.71-1.72-8.77-.23-17.83-1.99-26.55Z"/>
        <path class="cls-16" d="M60.53,569.41c-19.17-13.99-28.7-39.51-52.09-47.93-1.61-.58-2.3,1.99-.71,2.56,22.88,8.23,32.62,33.91,51.46,47.66,1.39,1.01,2.71-1.29,1.34-2.29Z"/>
        <path class="cls-15" d="M151.07,644.62c-9.6-7.82-21.54-11.64-31.85-18.33-13.37-8.67-23.73-21.88-35.19-32.78-1.24-1.18-3.12,.69-1.88,1.88,10.67,10.16,20.39,21.29,31.98,30.45,10.74,8.49,24.44,12.01,35.06,20.66,1.32,1.07,3.21-.8,1.88-1.88Z"/>
        <path class="cls-13" d="M300.19,796.55c-10.14,28.76-22.8,57.86-42.14,81.72-1.07,1.32,.8,3.21,1.88,1.88,19.65-24.24,32.51-53.66,42.82-82.89,.57-1.62-2-2.31-2.56-.71Z"/>
        <path class="cls-12" d="M361.25,655.83c-3.61,19.76-9.45,38.48-16.74,57.17-7.12,18.25-13.37,36.93-24.28,53.37-.95,1.43,1.35,2.76,2.29,1.34,10.61-15.98,16.94-34.12,23.74-51.91,7.44-19.47,13.79-38.69,17.54-59.25,.31-1.67-2.25-2.39-2.56-.71Z"/>
        <path class="cls-11" d="M164.34,797.29c-4.62-5.15-9.76-9.75-14.74-14.55-5.76-5.55-9.8-12.04-14.44-18.46-7.94-10.99-19.62-22.08-21.59-36.09-.24-1.69-2.8-.97-2.56,.71,1.91,13.62,12.82,24.76,20.8,35.3,4.46,5.89,8.03,12.14,13.09,17.58,5.62,6.04,12.04,11.25,17.57,17.41,1.15,1.28,3.02-.61,1.88-1.88Z"/>
        <path class="cls-10" d="M247.98,882.91c-22.51-21.98-42.59-46.37-66.38-67.04-1.29-1.12-3.17,.75-1.88,1.88,23.79,20.67,43.87,45.06,66.38,67.04,1.23,1.2,3.1-.68,1.88-1.88Z"/>
      </g>
      <g>
        <path class="cls-27" d="M311.47,226.95c-13.96,.51-28.11-1.63-41.67-8.9-24.34-13.04-32.59-33.25-42.15-56.64-.95-2.31-1.91-4.67-2.9-7.06-8-19.23-12.93-56.48-7.07-70.92,3.52-8.68,7.39-13.44,11.52-14.14,1.92-.33,3.76-.43,5.54-.53,5.49-.3,8.46-.67,10.65-5.09,1.6-3.24,1.98-7.14,2.39-11.28,.67-6.9,1.43-14.72,8.73-19.73,10.6-7.27,20.89-4.73,30.83-2.27,3.03,.75,6.16,1.52,9.25,2,1.57,.24,2.88-.91,4.89-2.81,2.23-2.11,5.01-4.74,9.11-4.33,5.84,.57,10.47,3.55,14.94,6.44,4,2.58,7.79,5.02,12.36,5.81,.7,.12,2.1-.09,3.34-.27,3.26-.48,7.32-1.08,9.95,1.82,5.62,6.21,9.85,13.59,13.94,20.72,1.16,2.02,2.31,4.03,3.49,6.01,2.32,3.88,5.01,7.75,7.61,11.51,3.47,5.01,7.06,10.18,9.95,15.59,6.91,12.93,9.79,32.09,8.56,56.96-.97,19.52-12.67,60.86-42.56,70-.1,.04-.2,.07-.31,.1-.09,.02-.18,.05-.27,.07-.72,.21-1.45,.4-2.19,.57-12.03,3.1-24.9,5.9-37.93,6.37Zm-40.43-193.76c-3.88,.14-7.67,1.2-11.53,3.85-5.25,3.61-5.81,9.29-6.45,15.86-.43,4.43-.88,9-2.91,13.12-3.67,7.41-9.75,7.75-15.12,8.04-1.63,.09-3.31,.18-4.94,.46-1.64,.28-4.59,3.76-7.49,10.9-4.89,12.05-1.2,47.06,7.05,66.89,1,2.4,1.96,4.76,2.91,7.09,9.55,23.37,17.09,41.83,39.74,53.97,23.99,12.86,50.56,8.46,74.09,2.5,.2-.1,.41-.17,.64-.21,.37-.07,.74-.15,1.11-.23,.7-.18,1.4-.36,2.09-.54,27.48-8.04,38.28-46.96,39.18-65.3,1.17-23.55-1.58-42.29-7.94-54.19-2.75-5.14-6.25-10.19-9.63-15.07-2.65-3.82-5.39-7.78-7.8-11.81-1.2-2.01-2.37-4.05-3.54-6.09-3.95-6.89-8.04-14.01-13.27-19.8-.72-.8-3.33-.41-5.23-.13-1.79,.27-3.48,.52-5.01,.25-5.64-.97-10.06-3.82-14.34-6.58-4.12-2.66-8.02-5.17-12.58-5.62-1.61-.16-2.94,1-4.95,2.91-2.28,2.16-5.13,4.85-9.34,4.19-3.32-.51-6.58-1.32-9.72-2.09-5.32-1.32-10.23-2.53-15.02-2.36Z"/>
        <path class="cls-28" d="M358.45,216.83c-1.14,.04-2.21-.66-2.61-1.79-.48-1.39,.26-2.9,1.64-3.38,4.25-1.47,5.72-2.15,7.42-2.94,.79-.37,1.61-.75,2.73-1.22,15.38-6.51,29.9-12.65,44.05-24.8,19.82-17.02,28.67-38.08,29.58-70.41,.06-2.1,.24-4.23,.41-6.29,.46-5.56,.89-10.81-.73-15.77-3.34-10.21-8.48-19.64-13.45-28.76-2.77-5.09-5.64-10.36-8.21-15.77-1.94-4.09-3.6-8.28-5.19-12.34-3.17-8.03-6.16-15.62-11.23-22.53-6.05-8.25-10.27-5.89-17.26-1.98-4.14,2.31-8.82,4.94-14.28,4.85-2.83-.05-5.5-.99-8.08-1.9-3.06-1.08-5.95-2.1-8.33-1.24-.62,.23-2.06,1.74-3.51,5.98-2.92,8.53-3.23,19.4-2.16,21.26,.98,1.02,1,2.63,.02,3.67-1.01,1.06-2.69,1.11-3.75,.1-4.19-3.96-.96-19.81-.82-20.48,1.28-6.15,3.77-13.84,8.41-15.53,4.16-1.51,8.28-.06,11.91,1.23,2.28,.81,4.43,1.57,6.4,1.6,4.03,.07,7.88-2.09,11.6-4.17,6.82-3.81,15.3-8.56,24.13,3.47,5.47,7.46,8.73,15.73,11.89,23.73,1.57,3.97,3.19,8.08,5.05,12.01,2.51,5.27,5.34,10.47,8.08,15.5,5.08,9.33,10.34,18.98,13.83,29.65,1.96,5.97,1.46,12.02,.98,17.86-.17,2.08-.33,4.05-.39,6-.95,33.53-10.64,56.44-31.43,74.29-14.78,12.69-29.67,18.99-45.44,25.66-1.05,.44-1.81,.8-2.55,1.14-1.76,.82-3.42,1.59-7.93,3.15-.26,.09-.51,.14-.77,.15Z"/>
        <path class="cls-14" d="M248.91,201.35c-.41,.01-.82-.06-1.22-.25-26.01-12.13-41.45-43.63-46.77-66.92-1.16-5.07-1.65-10.23-2.13-15.22-.42-4.44-.86-9.03-1.77-13.39-.51-2.47-1.26-5.29-2.05-8.28-2.88-10.86-6.47-24.38-1.97-34.04,1.69-3.61,6.09-9.98,10.18-12.18,5.55-2.96,13.73,.19,18.1,2.33,7.66,3.75,16.41,10.73,17.52,17.18,.25,1.45-.72,2.82-2.17,3.06-1.45,.23-2.82-.72-3.06-2.17-.63-3.7-7.19-9.67-14.62-13.31-5.64-2.76-10.84-3.71-13.26-2.42-2.5,1.34-6.29,6.33-7.87,9.74-3.69,7.91-.37,20.4,2.29,30.43,.81,3.06,1.58,5.95,2.12,8.56,.97,4.65,1.42,9.39,1.86,13.97,.46,4.83,.94,9.81,2.02,14.55,5.06,22.12,19.57,51.97,43.84,63.29,1.33,.62,1.9,2.2,1.28,3.53-.44,.93-1.35,1.5-2.31,1.53Z"/>
        <path class="cls-24" d="M306.34,214.96c-.47,.02-.95-.09-1.39-.34-2.79-1.56-12.03-6.77-13.66-8.27-7.36-6.84-17.34-17.71-23.28-27.71-16.78-28.25-17.73-57.95-18.73-89.4-.1-3-.19-6.01-.3-9.02-.05-1.47,1.09-2.7,2.56-2.75,1.47-.05,2.7,1.09,2.75,2.56,.11,3.02,.21,6.04,.3,9.05,.98,30.74,1.9,59.78,17.99,86.86,5.66,9.53,15.56,20.25,22.32,26.54,.89,.79,7.25,4.52,12.64,7.53,1.28,.71,1.74,2.33,1.02,3.61-.47,.84-1.33,1.33-2.22,1.36Z"/>
        <path class="cls-21" d="M193.18,926.91s-.02,0-.03,0c-1.47,.04-2.68-1.12-2.72-2.59-.26-10.19-.63-20.56-.98-30.58-2.27-64.18-4.62-130.54,19.29-193.83,7.34-19.44,18.5-37.67,29.28-55.3,6.05-9.89,12.31-20.12,17.73-30.32,4.26-8.03,8.09-15.65,11.8-23.02,10.48-20.86,20.38-40.56,36.46-61.54,58.51-76.38,70.78-154.86,70.77-207.26-.01-60.4-15.53-101.63-17.87-105.76-.72-1.27-.27-2.9,1-3.62,1.28-.72,2.9-.27,3.62,1,4.09,7.22,18.55,50.85,18.56,108.38,.01,53.22-12.45,132.93-71.86,210.49-15.77,20.59-25.11,39.18-35.93,60.7-3.72,7.4-7.56,15.05-11.85,23.13-5.49,10.34-11.79,20.64-17.89,30.6-10.66,17.42-21.68,35.43-28.85,54.4-23.53,62.28-21.2,128.11-18.95,191.76,.36,10.04,.72,20.42,.99,30.64,.04,1.46-1.1,2.67-2.56,2.72Z"/>
        <path class="cls-22" d="M191.9,796.21c-1.32,.05-2.5-.89-2.71-2.23-.14-.86,.15-1.7,.72-2.28,.6-1.6,1.69-7.5,2.66-12.73,2.26-12.21,5.35-28.95,9.8-39.51,23.17-55.04,58.29-97.41,104.39-125.94,36.74-22.73,70.17-29.98,82.76-32.7,2.22-.48,4.31-.94,4.87-1.16,1.36-.55,2.91,.12,3.45,1.48,.54,1.36-.12,2.91-1.48,3.45-.97,.39-2.65,.75-5.72,1.42-107.25,23.23-158.92,97.39-183.39,155.51-4.23,10.04-7.26,26.44-9.47,38.42-2.54,13.71-2.92,15.81-5.55,16.24-.11,.02-.22,.03-.33,.03Z"/>
        <path class="cls-19" d="M394.52,584.39c-.45,.02-.92-.08-1.35-.31-1.29-.69-1.78-2.3-1.09-3.59,2.52-4.69,4.6-8.15,8.43-12.94,11.99-15.05,29.18-23.22,47.22-30.94,29.85-12.76,57.45-19.02,84.36-19.12,9.99-.04,19.76,1.37,29.2,2.73,5.79,.83,11.79,1.7,17.73,2.21,1.22,.11,4.29,.67,9.19,1.59,3.97,.75,9.74,1.83,11.86,2.07,.75-.26,1.61-.18,2.33,.28,1.15,.75,1.61,2.12,1.12,3.34-.9,2.23-2.77,1.92-7.31,1.16-2.57-.43-5.82-1.04-8.97-1.63-3.76-.71-7.65-1.44-8.67-1.52-6.1-.52-12.17-1.4-18.03-2.24-9.25-1.33-18.82-2.71-28.42-2.68-26.2,.09-53.11,6.21-82.3,18.69-17.39,7.44-33.93,15.28-45.15,29.37-3.57,4.48-5.53,7.72-7.9,12.14-.46,.86-1.33,1.37-2.25,1.4Z"/>
        <path class="cls-20" d="M435.48,598.66c-8.47,.31-14.58-.78-19.67-1.68-.94-.17-1.84-.33-2.72-.47-5.98-.98-17.06-6.77-21.55-11.27-1.04-1.04-1.04-2.72,0-3.75,1.04-1.04,2.72-1.04,3.76,0,3.76,3.76,13.69,8.97,18.65,9.79,.9,.15,1.83,.31,2.79,.49,16.41,2.91,43.87,7.8,133.41-44.15,7.2-4.18,20.33-9.78,30.08-13.75,11.82-4.81,16.88-6.82,19.3-7.5,.07-.04,.14-.07,.21-.1l.02,.04c1.58-.42,1.93-.2,2.47,.14,.84,.53,1.31,1.47,1.23,2.45-.08,.98-.72,1.86-1.63,2.25-.12,.05-.23,.09-.35,.12-2.93,1.03-36.09,13.65-48.66,20.94-64.1,37.19-97.31,45.73-117.33,46.47Z"/>
        <path class="cls-23" d="M286.31,564.43c-.38,.01-.76-.05-1.13-.21-1.35-.57-1.98-2.13-1.4-3.48,2-4.7,11.09-9.61,23.71-16.03,3.93-2,7.64-3.89,9.8-5.25,13.35-8.43,28.66-13.48,43.48-18.36,9.06-2.98,18.43-6.07,27.14-9.88,25.77-11.28,53.5-31.5,74.19-54.1,8.03-8.77,14.62-18.98,21-28.86,5.29-8.2,10.77-16.67,17.08-24.39,9.01-11.01,20.2-20.52,31.01-29.72l2.21-1.88c1.12-.95,2.79-.82,3.74,.3,.95,1.12,.82,2.79-.3,3.74l-2.22,1.89c-10.64,9.04-21.64,18.39-30.34,29.03-6.12,7.49-11.52,15.83-16.73,23.91-6.5,10.06-13.22,20.47-21.55,29.57-21.16,23.12-49.56,43.82-75.98,55.38-8.94,3.91-18.43,7.03-27.6,10.06-14.51,4.78-29.51,9.72-42.3,17.8-2.37,1.5-6.01,3.35-10.23,5.5-7.42,3.77-19.83,10.09-21.23,13.38-.42,.98-1.35,1.58-2.35,1.61Z"/>
        <path class="cls-18" d="M325.95,539.79c-.84,.03-1.68-.33-2.22-1.05-.88-1.17-.65-2.84,.52-3.72,15.93-12.02,25.96-28.68,36.59-46.31,8.38-13.91,17.05-28.29,28.83-39.99,33.83-33.61,79.21-51.33,123.09-68.47,7.04-2.75,14.32-5.6,21.35-8.43,1.36-.55,2.91,.11,3.46,1.47,.55,1.36-.11,2.91-1.47,3.46-7.06,2.85-14.35,5.7-21.41,8.45-43.38,16.94-88.23,34.47-121.28,67.3-11.31,11.24-19.81,25.33-28.02,38.96-10.42,17.29-21.19,35.17-37.94,47.81-.45,.34-.98,.51-1.5,.53Z"/>
        <path class="cls-26" d="M283.16,564.89c-.7,.03-1.45-.25-1.97-.72-3.13-2.89-5.93-5.14-8.63-7.31-3.7-2.97-7.2-5.78-11.29-9.96-9.06-9.27-17.4-22.39-22.3-35.09-17.16-44.44-21.29-92.58-23.2-137.98l-.14-3.36c-.64-14.88-1.3-30.27,.73-45.63,2.01-15.21,2.89-28.89,2.78-43.04-.01-.17-.09-.66-.19-1.31-1-6.74-1.24-11.06,.49-13.21,.66-.82,1.59-1.32,2.61-1.39,.03,0,.18-.01,.21-.01,6.28-.23,10.87,9.06,14.67,17.78,.4,.92,.73,1.68,.98,2.18,3.25,6.62,6.69,13.28,10,19.72,4.54,8.82,9.24,17.95,13.57,27.12,7.39,15.65,13.57,31.22,18.89,47.61,7.6,23.37,9.61,48.22,11.56,72.25,.44,5.46,.9,11.1,1.41,16.6,1.47,15.78-1.1,30.08-3.59,43.91-2.8,15.55-5.44,30.24-2.8,46.9,.23,1.41-.73,2.83-1.33,3.55-.27,.33-1.09,1.33-2.46,1.38Zm-59.69-293.39c-.08,1.25,.04,3.66,.72,8.22,.17,1.16,.24,1.64,.25,2.03,.11,14.21-.81,28.53-2.82,43.78-1.97,14.9-1.35,29.38-.69,44.71l.14,3.36c1.89,44.95,5.97,92.56,22.85,136.29,4.59,11.88,12.69,24.64,21.14,33.29,3.87,3.96,7.24,6.67,10.82,9.53,1.71,1.37,3.46,2.78,5.31,4.35-1.87-16.08,.77-30.74,3.33-44.96,2.43-13.48,4.93-27.42,3.53-42.47-.52-5.53-.98-11.19-1.42-16.67-1.92-23.73-3.91-48.26-11.31-71.04-5.26-16.18-11.36-31.55-18.65-46.99-4.29-9.09-8.97-18.17-13.49-26.96-3.33-6.46-6.77-13.15-10.05-19.81-.27-.55-.63-1.38-1.08-2.4-4.26-9.77-6.94-13.3-8.58-14.28Z"/>
        <path class="cls-25" d="M469.71,553.79c-12.68,1.75-23.99,7.98-35.84,12.39-6.04,2.25-12.12,4.34-18.14,6.64-6.22,2.37-11.04,6.99-17.7,8.41-1.67,.36-.96,2.92,.71,2.56,5.19-1.11,9.46-3.87,14-6.51,6.63-3.86,14.64-5.96,21.84-8.53,11.95-4.27,23.12-10.63,35.84-12.39,1.69-.23,.97-2.79-.71-2.56Z"/>
        <path class="cls-17" d="M593.52,528.52c-14.56,1.65-29.3,.68-43.72,3.59-15.27,3.07-29.35,11.05-45.23,11.02-1.71,0-1.71,2.65,0,2.66,13.77,.03,26.59-5.65,39.58-9.5,16.09-4.77,32.89-3.24,49.37-5.1,1.68-.19,1.7-2.85,0-2.65Z"/>
        <path class="cls-35" d="M406.29,468.28c-11.37,10.15-22.01,21.07-33.19,31.42-11.46,10.61-24.94,18.56-36.73,28.76-1.3,1.12,.59,2.99,1.88,1.88,11.18-9.68,23.96-17.26,34.99-27.13,11.95-10.69,22.96-22.38,34.93-33.05,1.28-1.14-.6-3.01-1.88-1.88Z"/>
        <path class="cls-36" d="M525.91,378.55c-6.83,2.45-12.42,6.77-18.17,11.09-7.33,5.51-15.4,9.96-22.76,15.47-14.96,11.21-29.98,23.04-43.29,36.17-1.22,1.2,.66,3.08,1.88,1.88,12.19-12.02,25.89-22.27,39.22-32.95,7.29-5.85,15.13-10.6,22.86-15.79,6.95-4.66,12.95-10.43,20.96-13.31,1.6-.57,.91-3.14-.71-2.56Z"/>
        <path class="cls-32" d="M249.65,390.98c-6.86-19.38-8.38-39.99-10.7-60.27-2.38-20.74-10.02-40.25-14.52-60.54-.37-1.67-2.93-.96-2.56,.71,4.8,21.63,12.45,42.19,14.93,64.33,2.13,19.03,3.85,38.31,10.29,56.48,.57,1.6,3.13,.91,2.56-.71Z"/>
        <path class="cls-34" d="M286.02,557.94c-10.24-19.53-15.91-40.48-19.78-62.08-3.83-21.39-9.67-42.86-9.91-64.7-.02-1.71-2.67-1.71-2.66,0,.24,22.16,6.4,43.67,10,65.4,3.61,21.79,9.77,43.11,20.05,62.71,.79,1.52,3.09,.17,2.29-1.34Z"/>
        <path class="cls-33" d="M349.93,211.86c-35.95-21.57-52.18-63.68-52.44-104.17-.01-1.71-2.67-1.71-2.66,0,.27,41.44,17.01,84.42,53.76,106.46,1.47,.88,2.81-1.41,1.34-2.29Z"/>
        <path class="cls-31" d="M405.41,79.01c-.31-1.68-2.86-.97-2.56,.71,3.82,21.08,8.77,42.22,8.29,63.78-.54,24.47-11.56,44.78-32.46,57.74-1.45,.9-.12,3.2,1.34,2.29,19.67-12.2,30.96-30.4,33.37-53.36,2.49-23.78-3.76-47.93-7.97-71.16Z"/>
        <path class="cls-30" d="M244.88,193.48c-26.82-27.43-37.52-71.37-35.9-108.8,.07-1.71-2.58-1.71-2.66,0-1.66,38.15,9.36,82.75,36.67,110.68,1.2,1.23,3.08-.65,1.88-1.88Z"/>
      </g>
    </g>
  </g>
</svg>