<?xml version="1.0" encoding="UTF-8"?>
<svg id="Réteg_2" data-name="Réteg 2" xmlns="http://www.w3.org/2000/svg" viewBox="0 0 267.07 121.54">
  <defs>
    <style>
      .cls-1 {
        fill: #62622a;
      }
    </style>
  </defs>
  <g id="_ŽÓť_1" data-name="‘ŽÓť_1">
    <g>
      <path class="cls-1" d="M145.14,39.72c1.26,2.61-.25,4.83-.85,5.11-.59,.29-3.27,.09-4.53-2.52-1.26-2.61-.26-5.72-.25-7.39,1.22,.99,4.37,2.19,5.63,4.8Zm5.19-1.64c-.77,1.48-3.1,3.78-3.18,6.68-.08,2.89,2.2,4.3,2.86,4.32,.66,.02,3.02-1.25,3.11-4.15,.08-2.89-2.16-5.41-2.78-6.85Zm8.46,4.57c-1.14,1.22-4,2.81-4.86,5.58-.86,2.76,.96,4.74,1.59,4.93,.63,.2,3.25-.39,4.11-3.16,.86-2.77-.62-5.79-.84-7.35Zm-23.48,5.04c1.27,1.09,2.99,3.87,5.79,4.61,2.8,.74,4.69-1.17,4.86-1.81,.17-.64-.54-3.23-3.34-3.97-2.8-.74-5.76,.88-7.31,1.16Zm5.56,8.17c1.53,.68,3.97,2.86,6.86,2.76,2.89-.09,4.16-2.46,4.14-3.12-.02-.66-1.44-2.94-4.33-2.84-2.89,.09-5.27,2.49-6.67,3.2Zm3.4-10.24c5.3,8.4,14.54,12.53,24.07,13.4,.38-1.81-1.65-1.64-3.28-1.92-2.55-.43-5.11-.92-7.5-1.96-4.92-2.32-9.52-5.34-12.58-9.96-.28,.18-.43,.26-.71,.44Z"/>
      <path class="cls-1" d="M189.4,51s4.88-7.34,7.42-11.8c3.65-6.4,4.38-10.32,5.16-15.46,.43-2.85,2.12-2.48,2.76,.27,.64,2.74,.61,4.97,.61,4.97,0,0,1.34-3.9,2.15-2.99,.82,.91,1.08,5.51,1.08,5.51,0,0,1.95-3.87,2.43-.7,.49,3.17-.13,3.85-.13,3.85,0,0,1.68-1.92,2.09-.26,.41,1.66-.82,4.84-.82,4.84,0,0-7.51,4.4-11.04,7-5.92,4.36-8.71,7.12-8.71,7.12l-3.01-2.35Zm76.65-24.54c-1.52,2.97-5.12,6.87-7.89,9.2,2.26-.04,9.19-3.61,4.33,2.84-4.01,5.33-8.4,6.39-8.4,6.39,0,0,9.41-.5,5.03,3.09-4.76,3.91-9.72,6.24-9.72,6.24,0,0,6.4-1.29,4.37,1.88-2.46,3.85-7.66,7.39-7.66,7.39,0,0-2.97,7.02-13.24,12.92-9.25,5.32-20.62,5.44-21.98,5.79-.37,.1,1.76,1.29,3.56,1.97,2.96,1.11,8.91,1.49,13.38,1.71,4.47,.22,4.49,1.2,4.37,2.74-.12,1.55-2.53,25.2-10.7,28.88-5.65,2.54-9.67,3.58-11.81,4-.94,.18-1.82-.49-1.89-1.44-.32-4.2-1.13-14.77-1.32-16.33-.24-1.96-2.22-3.37-8.6-5.47-6.37-2.1-14.05-3.27-18.75-10.93-5.2-8.46-4.93-15.16-5.37-18.34-1.12-8.15-4.18-13.9-6.27-14.55-1.45-.59-1.92-1.91-1.92-1.91,0,0-.02,1.06,.7,2.34-.97,1.65-3.96,1.9-4.91,2.94s-.37-1.88-.03-2.41c.25-.38,.07-1.25,.67-2.56-.54-1.92-.85-6.18,2.04-8.78,2.91-2.62,8.5-3.27,15.3,2.18,6.79,5.45,12.26,8.2,12.26,8.2,0,0-1.53,3.31-3.94,4.72,2.3,1.13,6.78-5.87,11.53-9.58,8.74-6.82,20.7-13.33,28.98-19.39,7.49-5.48,17.16-19.01,19.36-24.79,2.2-5.78,3.54-7.33,4.57-2.71,1.03,4.62,.38,6.97,.38,6.97,0,0,2.38-2.01,4.52-5.09,1.52-2.18,2.99,5.24,.99,8.85,2.5-1.01,5.4-5.09,5.19-1.24-.4,7.41-3.52,12.1-3.52,12.1,0,0,2.81-1.43,5.66-3.69,1.86-1.48,2.43,2.53,.72,5.86Zm-96.39,22.27c-.11-.91-.94-1.55-1.84-1.44-.91,.11-1.55,.93-1.44,1.84,.11,.91,.93,1.55,1.84,1.44,.91-.11,1.55-.94,1.44-1.84Z"/>
      <path class="cls-1" d="M127.56,34.92c0,1.67,1,4.79-.25,7.39-1.26,2.61-3.94,2.81-4.53,2.52-.59-.29-2.1-2.51-.85-5.11,1.26-2.61,4.41-3.81,5.63-4.8Zm-13.6,10.01c.08,2.89,2.45,4.17,3.11,4.15,.66-.02,2.94-1.43,2.86-4.32-.08-2.89-2.41-5.2-3.18-6.68-.63,1.44-2.87,3.96-2.78,6.85Zm-6.51,5.06c.86,2.76,3.48,3.36,4.11,3.16,.63-.2,2.45-2.17,1.59-4.93-.86-2.77-3.72-4.36-4.86-5.58-.22,1.56-1.7,4.59-.84,7.35Zm17.01-3.48c-2.8,.74-3.51,3.33-3.34,3.97,.17,.64,2.06,2.54,4.86,1.81,2.8-.74,4.52-3.52,5.79-4.61-1.55-.28-4.51-1.9-7.31-1.16Zm-4.93,6.13c-2.89-.09-4.31,2.19-4.33,2.84-.02,.66,1.24,3.03,4.14,3.12,2.89,.09,5.34-2.08,6.86-2.76-1.4-.72-3.77-3.11-6.67-3.2Zm2.56-7.47c-3.07,4.62-7.66,7.64-12.58,9.96-2.39,1.04-4.94,1.54-7.5,1.96-1.63,.27-3.66,.1-3.28,1.92,9.53-.87,18.78-4.99,24.07-13.4-.28-.18-.43-.26-.71-.44Z"/>
      <path class="cls-1" d="M74.66,53.36s-2.79-2.76-8.71-7.12c-3.53-2.6-11.04-7-11.04-7,0,0-1.22-3.18-.82-4.84,.41-1.66,2.09,.26,2.09,.26,0,0-.62-.68-.13-3.85,.49-3.17,2.43,.7,2.43,.7,0,0,.26-4.61,1.08-5.51,.82-.91,2.15,2.99,2.15,2.99,0,0-.03-2.22,.61-4.97,.64-2.74,2.32-3.12,2.76-.27,.78,5.14,1.51,9.06,5.16,15.46,2.55,4.46,7.42,11.8,7.42,11.8l-3.01,2.35ZM1.74,20.61c2.85,2.27,5.66,3.69,5.66,3.69,0,0-3.12-4.69-3.52-12.1-.21-3.84,2.69,.23,5.19,1.24-2.01-3.62-.53-11.04,.99-8.85,2.14,3.09,4.52,5.09,4.52,5.09,0,0-.65-2.35,.38-6.97,1.03-4.62,2.37-3.08,4.57,2.71,2.2,5.78,11.87,19.31,19.36,24.79,8.27,6.06,20.24,12.57,28.98,19.39,4.75,3.71,9.23,10.71,11.53,9.58-2.4-1.41-3.94-4.72-3.94-4.72,0,0,5.47-2.75,12.26-8.2,6.79-5.45,12.39-4.8,15.3-2.18,2.89,2.6,2.58,6.85,2.04,8.78,.6,1.31,.43,2.17,.67,2.56,.34,.53,.92,3.45-.03,2.41-.94-1.03-3.93-1.29-4.91-2.94,.72-1.28,.7-2.34,.7-2.34,0,0-.47,1.32-1.92,1.91-2.09,.65-5.15,6.39-6.27,14.55-.44,3.18-.17,9.88-5.37,18.34-4.7,7.66-12.38,8.83-18.75,10.93-6.38,2.1-8.36,3.51-8.6,5.47-.19,1.57-1,12.14-1.32,16.33-.07,.95-.95,1.63-1.89,1.44-2.13-.42-6.16-1.46-11.81-4-8.16-3.68-10.58-27.34-10.7-28.88-.12-1.55-.1-2.53,4.37-2.74,4.47-.22,10.42-.6,13.38-1.71,1.8-.67,3.93-1.87,3.56-1.97-1.36-.35-12.73-.47-21.98-5.79-10.27-5.9-13.24-12.92-13.24-12.92,0,0-5.2-3.55-7.66-7.39-2.03-3.17,4.37-1.88,4.37-1.88,0,0-4.96-2.32-9.72-6.24-4.38-3.6,5.03-3.09,5.03-3.09,0,0-4.39-1.07-8.4-6.39-4.86-6.44,2.07-2.87,4.33-2.84-2.78-2.33-6.37-6.23-7.89-9.2-1.71-3.34-1.14-7.34,.72-5.86Zm97.1,29.97c.91,.11,1.73-.53,1.84-1.44,.11-.91-.53-1.73-1.44-1.84-.91-.11-1.73,.53-1.84,1.44-.11,.91,.53,1.73,1.44,1.84Z"/>
    </g>
  </g>
</svg>